<?xml version="1.0" standalone="no"?><!-- Generator: Gravit.io --><svg xmlns="http://www.w3.org/2000/svg" xmlns:xlink="http://www.w3.org/1999/xlink" style="isolation:isolate" viewBox="0 0 500 500" width="500" height="500"><defs><clipPath id="_clipPath_o4jiSWnMsDQsaLWPukPztzPzThCSSTQg"><rect width="500" height="500"/></clipPath></defs><g clip-path="url(#_clipPath_o4jiSWnMsDQsaLWPukPztzPzThCSSTQg)"><g><path d=" M 386 404.69 C 352.256 387.959 330.893 332.483 321.88 238.23" fill="none" vector-effect="non-scaling-stroke" stroke-width="1" stroke="rgb(0,0,0)" stroke-linejoin="miter" stroke-linecap="square" stroke-miterlimit="3"/><path d=" M 328.405 256.191 C 326.965 255.212 325.217 254.762 323.466 254.932 L 323.466 254.932 C 321.677 255.107 320.015 255.916 318.786 257.207 C 318.628 257.333 318.48 257.463 318.226 257.452 Q 317.353 257.416 318.129 256.457 L 318.129 256.455 C 319.473 255.069 321.298 254.139 323.369 253.937 L 323.369 253.937 C 325.607 253.719 327.728 254.392 329.373 255.674 Q 329.858 256.222 329.172 256.387 C 328.854 256.463 328.663 256.278 328.405 256.191 Z  M 321.841 238.234 C 321.017 238.314 320.413 239.048 320.493 239.872 C 320.574 240.696 321.308 241.3 322.132 241.22 C 322.956 241.139 323.559 240.405 323.479 239.581 C 323.399 238.757 322.665 238.154 321.841 238.234 Z " fill="rgb(0,0,0)" stroke="none"/><path d=" M 386 404.69 C 351.708 443.824 314.434 421.14 274.15 336.61" fill="none" vector-effect="non-scaling-stroke" stroke-width="1" stroke="rgb(0,0,0)" stroke-linejoin="miter" stroke-linecap="square" stroke-miterlimit="3"/><path d=" M 286.443 351.242 C 284.754 350.816 282.957 350.993 281.371 351.754 L 281.371 351.754 C 279.751 352.532 278.467 353.862 277.755 355.496 C 277.651 355.669 277.556 355.842 277.314 355.919 Q 276.481 356.184 276.881 355.017 L 276.88 355.016 C 277.667 353.253 279.063 351.752 280.939 350.852 L 280.939 350.852 C 282.966 349.88 285.189 349.784 287.174 350.424 Q 287.818 350.772 287.23 351.162 C 286.957 351.343 286.715 351.234 286.443 351.242 Z  M 274.115 336.627 C 273.368 336.985 273.053 337.882 273.411 338.628 C 273.769 339.375 274.666 339.69 275.412 339.332 C 276.159 338.974 276.474 338.077 276.116 337.331 C 275.758 336.584 274.861 336.269 274.115 336.627 Z " fill="rgb(0,0,0)" stroke="none"/><path d=" M 386 404.69 C 413.479 363.505 405.202 324.229 361.08 286.77" fill="none" vector-effect="non-scaling-stroke" stroke-width="1" stroke="rgb(0,0,0)" stroke-linejoin="miter" stroke-linecap="square" stroke-miterlimit="3"/><path d=" M 378.231 295.198 C 376.514 295.49 374.942 296.377 373.798 297.713 L 373.798 297.713 C 372.629 299.078 371.992 300.813 371.999 302.596 C 371.973 302.796 371.956 302.992 371.766 303.161 Q 371.111 303.739 371.006 302.51 L 371.005 302.509 C 371.014 300.579 371.685 298.643 373.038 297.062 L 373.038 297.062 C 374.501 295.354 376.496 294.37 378.571 294.154 Q 379.3 294.213 378.92 294.807 C 378.743 295.083 378.477 295.081 378.231 295.198 Z  M 361.054 286.8 C 360.516 287.429 360.589 288.376 361.218 288.915 C 361.847 289.453 362.795 289.38 363.333 288.751 C 363.872 288.122 363.798 287.175 363.169 286.636 C 362.541 286.098 361.593 286.171 361.054 286.8 Z " fill="rgb(0,0,0)" stroke="none"/><path d=" M 386 404.69 C 445.504 426.536 468.837 382.162 455.97 271.54" fill="none" vector-effect="non-scaling-stroke" stroke-width="1" stroke="rgb(0,0,0)" stroke-linejoin="miter" stroke-linecap="square" stroke-miterlimit="3"/><path d=" M 462.786 289.393 C 461.33 288.437 459.575 288.016 457.827 288.215 L 457.827 288.215 C 456.041 288.418 454.392 289.254 453.184 290.564 C 453.028 290.694 452.882 290.825 452.628 290.819 Q 451.754 290.797 452.515 289.825 L 452.515 289.824 C 453.836 288.416 455.646 287.456 457.714 287.221 L 457.714 287.221 C 459.948 286.967 462.08 287.605 463.745 288.86 Q 464.239 289.4 463.556 289.576 C 463.238 289.658 463.045 289.475 462.786 289.393 Z  M 455.931 271.544 C 455.108 271.638 454.517 272.382 454.61 273.204 C 454.704 274.027 455.447 274.619 456.27 274.525 C 457.093 274.432 457.684 273.688 457.591 272.865 C 457.497 272.043 456.754 271.451 455.931 271.544 Z " fill="rgb(0,0,0)" stroke="none"/><path d=" M 386 404.69 C 401.295 469.702 357.792 486.725 255.46 455.73" fill="none" vector-effect="non-scaling-stroke" stroke-width="1" stroke="rgb(0,0,0)" stroke-linejoin="miter" stroke-linecap="square" stroke-miterlimit="3"/><path d=" M 274.555 456.493 C 273.103 457.455 272.024 458.903 271.519 460.587 L 271.519 460.587 C 271.003 462.309 271.122 464.154 271.851 465.781 C 271.909 465.975 271.972 466.161 271.866 466.392 Q 271.502 467.186 270.908 466.105 L 270.907 466.104 C 270.133 464.335 269.964 462.293 270.561 460.3 L 270.561 460.3 C 271.207 458.146 272.633 456.438 274.443 455.401 Q 275.133 455.16 275.026 455.857 C 274.976 456.181 274.732 456.287 274.555 456.493 Z  M 255.449 455.768 C 255.211 456.561 255.662 457.397 256.455 457.635 C 257.248 457.873 258.084 457.422 258.322 456.629 C 258.56 455.836 258.109 455 257.316 454.762 C 256.523 454.524 255.687 454.975 255.449 455.768 Z " fill="rgb(0,0,0)" stroke="none"/></g><g><line x1="32.126" y1="177.227" x2="114" y2="232" vector-effect="non-scaling-stroke" stroke-width="1" stroke="rgb(0,0,0)" stroke-linejoin="miter" stroke-linecap="square" stroke-miterlimit="3"/><path d=" M 95.109 223.346 L 97.853 223.528 L 100.597 223.709 C 101.215 223.75 101.495 223.332 101.221 222.775 L 100.007 220.309 L 98.792 217.842 C 98.518 217.285 98.016 217.252 97.671 217.767 L 96.142 220.053 L 94.613 222.339 C 94.268 222.854 94.491 223.305 95.109 223.346 Z  M 114 232 C 114.46 231.312 114.275 230.38 113.587 229.919 C 112.899 229.459 111.967 229.644 111.507 230.332 C 111.046 231.02 111.231 231.952 111.919 232.413 C 112.607 232.873 113.54 232.688 114 232 Z " fill="rgb(0,0,0)" stroke="none"/><line x1="68.572" y1="107.663" x2="138.92" y2="155.87" vector-effect="non-scaling-stroke" stroke-width="1" stroke="rgb(0,0,0)" stroke-linejoin="miter" stroke-linecap="square" stroke-miterlimit="3"/><path d=" M 120.127 147.006 L 122.868 147.218 L 125.61 147.43 C 126.228 147.478 126.513 147.063 126.245 146.503 L 125.058 144.023 L 123.871 141.543 C 123.603 140.984 123.101 140.945 122.751 141.456 L 121.196 143.725 L 119.642 145.993 C 119.292 146.504 119.509 146.958 120.127 147.006 Z  M 138.92 155.87 C 139.388 155.187 139.213 154.253 138.531 153.785 C 137.848 153.317 136.913 153.491 136.445 154.174 C 135.977 154.857 136.152 155.791 136.835 156.259 C 137.518 156.727 138.452 156.553 138.92 155.87 Z " fill="rgb(0,0,0)" stroke="none"/><line x1="126.847" y1="55.223" x2="139.307" y2="155.87" vector-effect="non-scaling-stroke" stroke-width="1" stroke="rgb(0,0,0)" stroke-linejoin="miter" stroke-linecap="square" stroke-miterlimit="3"/><path d=" M 133.5 135.919 L 135.157 138.114 L 136.814 140.308 C 137.188 140.803 137.687 140.741 137.929 140.17 L 139.001 137.638 L 140.073 135.105 C 140.314 134.535 140.011 134.133 139.396 134.209 L 136.667 134.547 L 133.938 134.885 C 133.323 134.961 133.126 135.424 133.5 135.919 Z  M 139.307 155.87 C 140.128 155.768 140.713 155.019 140.611 154.197 C 140.509 153.375 139.76 152.791 138.938 152.893 C 138.116 152.994 137.532 153.744 137.634 154.566 C 137.735 155.387 138.485 155.972 139.307 155.87 Z " fill="rgb(0,0,0)" stroke="none"/><line x1="199.97" y1="26.266" x2="220.12" y2="106.46" vector-effect="non-scaling-stroke" stroke-width="1" stroke="rgb(0,0,0)" stroke-linejoin="miter" stroke-linecap="square" stroke-miterlimit="3"/><path d=" M 211.91 87.372 L 213.823 89.347 L 215.737 91.321 C 216.169 91.766 216.657 91.644 216.827 91.048 L 217.58 88.403 L 218.333 85.758 C 218.503 85.162 218.152 84.801 217.551 84.952 L 214.884 85.622 L 212.217 86.292 C 211.616 86.443 211.478 86.927 211.91 87.372 Z  M 220.12 106.46 C 220.923 106.258 221.411 105.443 221.209 104.64 C 221.008 103.837 220.192 103.349 219.389 103.55 C 218.586 103.752 218.098 104.568 218.3 105.371 C 218.501 106.174 219.317 106.662 220.12 106.46 Z " fill="rgb(0,0,0)" stroke="none"/><line x1="359.22" y1="47.264" x2="303.19" y2="95.203" vector-effect="non-scaling-stroke" stroke-width="1" stroke="rgb(0,0,0)" stroke-linejoin="miter" stroke-linecap="square" stroke-miterlimit="3"/><path d=" M 316.624 79.351 L 315.708 81.944 L 314.793 84.537 C 314.586 85.121 314.913 85.504 315.523 85.39 L 318.226 84.887 L 320.929 84.383 C 321.539 84.27 321.706 83.795 321.303 83.324 L 319.516 81.235 L 317.728 79.145 C 317.325 78.674 316.83 78.766 316.624 79.351 Z  M 303.19 95.203 C 303.728 95.832 304.676 95.906 305.305 95.367 C 305.934 94.829 306.008 93.882 305.47 93.253 C 304.931 92.623 303.984 92.55 303.355 93.088 C 302.726 93.626 302.652 94.574 303.19 95.203 Z " fill="rgb(0,0,0)" stroke="none"/></g><g><line x1="138.92" y1="155.87" x2="213.89" y2="168.33" vector-effect="non-scaling-stroke" stroke-width="1" stroke="rgb(0,0,0)" stroke-linejoin="miter" stroke-linecap="square" stroke-miterlimit="3"/><path d=" M 197.518 165.609 L 195.429 161.025 C 195.368 160.903 195.362 160.76 195.413 160.637 C 195.454 160.512 195.551 160.416 195.671 160.365 C 195.792 160.304 195.935 160.298 196.059 160.349 C 196.184 160.39 196.279 160.487 196.33 160.607 L 198.533 165.443 C 198.567 165.494 198.591 165.551 198.596 165.612 C 198.618 165.702 198.611 165.799 198.575 165.886 C 198.567 165.911 198.556 165.935 198.539 165.955 C 198.514 166.011 198.473 166.057 198.425 166.095 L 194.776 169.958 C 194.689 170.055 194.567 170.116 194.436 170.115 C 194.302 170.123 194.169 170.07 194.074 169.973 C 193.977 169.886 193.916 169.765 193.918 169.633 C 193.909 169.5 193.962 169.367 194.059 169.271 L 197.518 165.609 Z  M 213.89 168.33 C 214.026 167.513 213.473 166.74 212.656 166.604 C 211.84 166.469 211.066 167.021 210.931 167.838 C 210.795 168.655 211.348 169.428 212.164 169.564 C 212.981 169.7 213.754 169.147 213.89 168.33 Z " fill="rgb(0,0,0)" stroke="none"/><line x1="220.12" y1="106.46" x2="138.92" y2="155.87" vector-effect="non-scaling-stroke" stroke-width="1" stroke="rgb(0,0,0)" stroke-linejoin="miter" stroke-linecap="square" stroke-miterlimit="3"/><path d=" M 205.942 115.087 L 201.367 112.978 C 201.241 112.926 201.143 112.822 201.101 112.695 C 201.051 112.574 201.062 112.438 201.119 112.321 C 201.172 112.196 201.276 112.097 201.402 112.055 C 201.524 112.005 201.659 112.016 201.776 112.074 L 206.602 114.299 C 206.661 114.315 206.717 114.343 206.761 114.386 C 206.836 114.44 206.894 114.518 206.923 114.607 C 206.933 114.631 206.941 114.656 206.941 114.683 C 206.959 114.741 206.958 114.803 206.946 114.863 L 206.704 120.172 C 206.702 120.302 206.649 120.428 206.549 120.513 C 206.453 120.606 206.318 120.653 206.182 120.642 C 206.052 120.639 205.926 120.587 205.842 120.486 C 205.749 120.391 205.701 120.255 205.713 120.12 L 205.942 115.087 Z  M 220.12 106.46 C 219.69 105.753 218.766 105.528 218.059 105.958 C 217.352 106.389 217.127 107.312 217.557 108.019 C 217.988 108.727 218.911 108.951 219.618 108.521 C 220.326 108.091 220.55 107.167 220.12 106.46 Z " fill="rgb(0,0,0)" stroke="none"/><line x1="213.89" y1="168.33" x2="220.12" y2="106.46" vector-effect="non-scaling-stroke" stroke-width="1" stroke="rgb(0,0,0)" stroke-linejoin="miter" stroke-linecap="square" stroke-miterlimit="3"/><path d=" M 215.553 151.817 L 219.993 149.438 C 220.111 149.369 220.253 149.353 220.38 149.396 C 220.507 149.429 220.608 149.52 220.667 149.636 C 220.736 149.754 220.751 149.896 220.709 150.022 C 220.676 150.15 220.585 150.251 220.469 150.31 L 215.784 152.819 C 215.735 152.856 215.68 152.884 215.619 152.893 C 215.53 152.921 215.433 152.92 215.344 152.889 C 215.319 152.883 215.295 152.874 215.273 152.858 C 215.216 152.837 215.167 152.799 215.126 152.753 L 211.036 149.36 C 210.934 149.279 210.865 149.162 210.858 149.031 C 210.842 148.898 210.885 148.762 210.976 148.66 C 211.057 148.558 211.174 148.489 211.305 148.483 C 211.438 148.466 211.574 148.51 211.676 148.6 L 215.553 151.817 Z  M 213.89 168.33 C 214.714 168.413 215.45 167.812 215.533 166.988 C 215.616 166.164 215.014 165.428 214.191 165.345 C 213.367 165.262 212.631 165.864 212.548 166.687 C 212.465 167.511 213.066 168.247 213.89 168.33 Z " fill="rgb(0,0,0)" stroke="none"/><line x1="220.12" y1="106.46" x2="303.19" y2="95.31" vector-effect="non-scaling-stroke" stroke-width="1" stroke="rgb(0,0,0)" stroke-linejoin="miter" stroke-linecap="square" stroke-miterlimit="3"/><path d=" M 236.569 104.252 L 239.912 108.021 C 240.006 108.119 240.054 108.254 240.042 108.387 C 240.039 108.518 239.975 108.638 239.875 108.722 C 239.777 108.816 239.642 108.864 239.509 108.852 C 239.378 108.849 239.258 108.785 239.174 108.685 L 235.648 104.709 C 235.6 104.67 235.561 104.623 235.538 104.566 C 235.49 104.486 235.469 104.391 235.477 104.298 C 235.478 104.272 235.481 104.246 235.491 104.222 C 235.499 104.161 235.524 104.104 235.56 104.054 L 237.913 99.289 C 237.968 99.171 238.066 99.077 238.192 99.04 C 238.317 98.993 238.46 99.004 238.579 99.069 C 238.698 99.123 238.792 99.222 238.829 99.348 C 238.876 99.473 238.865 99.616 238.8 99.735 L 236.569 104.252 Z  M 220.12 106.46 C 220.23 107.281 220.986 107.857 221.806 107.747 C 222.627 107.637 223.203 106.881 223.093 106.061 C 222.983 105.24 222.228 104.664 221.407 104.774 C 220.587 104.884 220.01 105.639 220.12 106.46 Z " fill="rgb(0,0,0)" stroke="none"/><line x1="328.11" y1="174.56" x2="303.19" y2="95.31" vector-effect="non-scaling-stroke" stroke-width="1" stroke="rgb(0,0,0)" stroke-linejoin="miter" stroke-linecap="square" stroke-miterlimit="3"/><path d=" M 323.131 158.727 L 326.276 154.791 C 326.356 154.682 326.481 154.611 326.614 154.601 C 326.744 154.581 326.873 154.624 326.973 154.708 C 327.082 154.789 327.153 154.914 327.163 155.047 C 327.183 155.177 327.14 155.306 327.056 155.406 L 323.739 159.558 C 323.709 159.611 323.669 159.658 323.616 159.691 C 323.546 159.751 323.456 159.788 323.363 159.796 C 323.337 159.8 323.311 159.801 323.285 159.795 C 323.224 159.798 323.164 159.783 323.109 159.756 L 318.012 158.249 C 317.886 158.215 317.777 158.135 317.719 158.017 C 317.651 157.902 317.638 157.759 317.681 157.63 C 317.715 157.504 317.796 157.395 317.914 157.337 C 318.029 157.269 318.172 157.256 318.301 157.299 L 323.131 158.727 Z  M 328.11 174.56 C 328.9 174.312 329.339 173.469 329.091 172.679 C 328.843 171.889 328 171.45 327.21 171.698 C 326.42 171.946 325.981 172.789 326.229 173.579 C 326.477 174.369 327.32 174.808 328.11 174.56 Z " fill="rgb(0,0,0)" stroke="none"/><line x1="431.05" y1="140.46" x2="328.11" y2="174.56" vector-effect="non-scaling-stroke" stroke-width="1" stroke="rgb(0,0,0)" stroke-linejoin="miter" stroke-linecap="square" stroke-miterlimit="3"/><path d=" M 415.295 145.679 L 411.312 142.595 C 411.201 142.516 411.129 142.392 411.116 142.26 C 411.094 142.13 411.136 142 411.218 141.899 C 411.297 141.789 411.421 141.716 411.554 141.704 C 411.683 141.682 411.813 141.723 411.914 141.806 L 416.116 145.059 C 416.17 145.088 416.218 145.128 416.251 145.179 C 416.312 145.249 416.351 145.338 416.36 145.432 C 416.364 145.458 416.366 145.483 416.36 145.509 C 416.364 145.57 416.35 145.631 416.324 145.686 L 414.895 150.805 C 414.863 150.931 414.784 151.042 414.667 151.102 C 414.553 151.171 414.41 151.187 414.281 151.145 C 414.154 151.113 414.044 151.034 413.984 150.917 C 413.915 150.803 413.899 150.661 413.94 150.531 L 415.295 145.679 Z  M 431.05 140.46 C 430.79 139.674 429.94 139.247 429.154 139.508 C 428.369 139.768 427.942 140.617 428.202 141.403 C 428.463 142.189 429.312 142.616 430.098 142.356 C 430.884 142.095 431.31 141.246 431.05 140.46 Z " fill="rgb(0,0,0)" stroke="none"/><line x1="328.11" y1="174.56" x2="386" y2="213.31" vector-effect="non-scaling-stroke" stroke-width="1" stroke="rgb(0,0,0)" stroke-linejoin="miter" stroke-linecap="square" stroke-miterlimit="3"/><path d=" M 372.208 204.078 L 372.196 199.04 C 372.191 198.904 372.244 198.771 372.341 198.68 C 372.43 198.583 372.558 198.536 372.688 198.539 C 372.824 198.534 372.957 198.587 373.049 198.684 C 373.145 198.773 373.192 198.901 373.189 199.031 L 373.201 204.345 C 373.211 204.406 373.209 204.468 373.189 204.526 C 373.172 204.617 373.125 204.702 373.057 204.766 C 373.039 204.786 373.02 204.803 372.996 204.814 C 372.95 204.855 372.893 204.881 372.834 204.894 L 367.916 206.909 C 367.797 206.961 367.661 206.967 367.542 206.911 C 367.417 206.864 367.317 206.761 367.27 206.633 C 367.218 206.514 367.213 206.378 367.268 206.259 C 367.316 206.134 367.418 206.034 367.546 205.987 L 372.208 204.078 Z  M 386 213.31 C 386.461 212.622 386.276 211.69 385.588 211.229 C 384.9 210.769 383.967 210.953 383.507 211.641 C 383.046 212.329 383.231 213.262 383.919 213.722 C 384.607 214.183 385.539 213.998 386 213.31 Z " fill="rgb(0,0,0)" stroke="none"/><line x1="213.89" y1="168.33" x2="258.54" y2="237.54" vector-effect="non-scaling-stroke" stroke-width="1" stroke="rgb(0,0,0)" stroke-linejoin="miter" stroke-linecap="square" stroke-miterlimit="3"/><path d=" M 249.543 223.593 L 251.531 218.965 C 251.58 218.838 251.681 218.737 251.807 218.692 C 251.927 218.638 252.063 218.646 252.181 218.7 C 252.308 218.749 252.409 218.85 252.454 218.976 C 252.508 219.096 252.5 219.232 252.446 219.35 L 250.349 224.233 C 250.334 224.293 250.307 224.349 250.266 224.394 C 250.213 224.471 250.137 224.53 250.049 224.562 C 250.025 224.573 250 224.581 249.974 224.582 C 249.915 224.601 249.853 224.602 249.793 224.591 L 244.48 224.49 C 244.349 224.49 244.223 224.441 244.135 224.343 C 244.04 224.25 243.989 224.116 243.997 223.98 C 243.996 223.85 244.045 223.723 244.143 223.636 C 244.236 223.54 244.37 223.489 244.506 223.497 L 249.543 223.593 Z  M 258.54 237.54 C 259.236 237.091 259.436 236.162 258.987 235.466 C 258.538 234.771 257.609 234.57 256.914 235.019 C 256.218 235.468 256.018 236.397 256.466 237.093 C 256.915 237.788 257.844 237.989 258.54 237.54 Z " fill="rgb(0,0,0)" stroke="none"/><line x1="138.92" y1="155.87" x2="114" y2="232" vector-effect="non-scaling-stroke" stroke-width="1" stroke="rgb(0,0,0)" stroke-linejoin="miter" stroke-linecap="square" stroke-miterlimit="3"/><path d=" M 133.757 171.643 L 128.91 173.015 C 128.78 173.057 128.638 173.042 128.524 172.973 C 128.406 172.914 128.327 172.803 128.294 172.677 C 128.252 172.548 128.267 172.405 128.336 172.291 C 128.396 172.174 128.506 172.094 128.632 172.062 L 133.746 170.615 C 133.801 170.589 133.862 170.574 133.923 170.578 C 134.015 170.57 134.11 170.592 134.19 170.64 C 134.214 170.652 134.236 170.666 134.253 170.686 C 134.305 170.719 134.344 170.766 134.374 170.82 L 137.642 175.011 C 137.725 175.112 137.767 175.241 137.745 175.371 C 137.733 175.504 137.661 175.627 137.551 175.707 C 137.45 175.79 137.321 175.832 137.191 175.81 C 137.058 175.798 136.934 175.726 136.855 175.616 L 133.757 171.643 Z  M 138.92 155.87 C 138.133 155.612 137.285 156.042 137.028 156.829 C 136.77 157.616 137.2 158.464 137.987 158.721 C 138.774 158.979 139.621 158.549 139.879 157.762 C 140.136 156.975 139.707 156.128 138.92 155.87 Z " fill="rgb(0,0,0)" stroke="none"/><line x1="114" y1="232" x2="57.762" y2="296.46" vector-effect="non-scaling-stroke" stroke-width="1" stroke="rgb(0,0,0)" stroke-linejoin="miter" stroke-linecap="square" stroke-miterlimit="3"/><path d=" M 68.673 283.954 L 73.672 284.583 C 73.807 284.595 73.932 284.664 74.011 284.773 C 74.095 284.873 74.126 285.006 74.106 285.135 C 74.094 285.27 74.025 285.395 73.917 285.474 C 73.816 285.558 73.683 285.589 73.554 285.569 L 68.282 284.905 C 68.221 284.907 68.159 284.897 68.105 284.87 C 68.016 284.841 67.938 284.784 67.883 284.708 C 67.866 284.688 67.851 284.667 67.843 284.642 C 67.808 284.591 67.79 284.532 67.784 284.471 L 66.411 279.337 C 66.374 279.212 66.386 279.076 66.457 278.965 C 66.519 278.847 66.634 278.762 66.767 278.731 C 66.892 278.695 67.027 278.707 67.138 278.777 C 67.256 278.84 67.342 278.954 67.372 279.087 L 68.673 283.954 Z  M 57.762 296.46 C 58.386 297.004 59.335 296.94 59.879 296.316 C 60.423 295.692 60.358 294.744 59.735 294.199 C 59.111 293.655 58.162 293.72 57.618 294.344 C 57.074 294.967 57.139 295.916 57.762 296.46 Z " fill="rgb(0,0,0)" stroke="none"/><line x1="114" y1="232" x2="176" y2="256.92" vector-effect="non-scaling-stroke" stroke-width="1" stroke="rgb(0,0,0)" stroke-linejoin="miter" stroke-linecap="square" stroke-miterlimit="3"/><path d=" M 129.4 238.19 L 130.449 243.117 C 130.483 243.249 130.458 243.39 130.382 243.499 C 130.315 243.612 130.2 243.684 130.072 243.708 C 129.94 243.742 129.799 243.717 129.689 243.641 C 129.576 243.574 129.504 243.459 129.48 243.33 L 128.372 238.133 C 128.35 238.076 128.339 238.015 128.347 237.954 C 128.345 237.861 128.373 237.768 128.427 237.691 C 128.44 237.668 128.456 237.647 128.477 237.631 C 128.513 237.582 128.563 237.546 128.619 237.52 L 133.015 234.534 C 133.121 234.458 133.253 234.425 133.381 234.455 C 133.513 234.476 133.632 234.556 133.704 234.671 C 133.78 234.777 133.813 234.909 133.783 235.037 C 133.763 235.169 133.683 235.288 133.567 235.36 L 129.4 238.19 Z  M 114 232 C 113.691 232.768 114.064 233.642 114.832 233.951 C 115.601 234.26 116.475 233.887 116.784 233.119 C 117.092 232.351 116.719 231.476 115.951 231.168 C 115.183 230.859 114.309 231.232 114 232 Z " fill="rgb(0,0,0)" stroke="none"/><line x1="328.11" y1="174.56" x2="321.88" y2="238.23" vector-effect="non-scaling-stroke" stroke-width="1" stroke="rgb(0,0,0)" stroke-linejoin="miter" stroke-linecap="square" stroke-miterlimit="3"/><path d=" M 326.494 191.078 L 322.06 193.469 C 321.943 193.538 321.8 193.554 321.674 193.512 C 321.546 193.479 321.445 193.389 321.386 193.273 C 321.317 193.155 321.301 193.013 321.343 192.887 C 321.376 192.759 321.466 192.658 321.582 192.599 L 326.26 190.076 C 326.308 190.039 326.364 190.011 326.424 190.002 C 326.513 189.974 326.61 189.975 326.699 190.005 C 326.725 190.011 326.749 190.02 326.77 190.036 C 326.828 190.057 326.877 190.094 326.918 190.14 L 331.017 193.522 C 331.12 193.602 331.189 193.719 331.196 193.851 C 331.213 193.983 331.17 194.12 331.079 194.221 C 330.999 194.324 330.882 194.393 330.75 194.4 C 330.618 194.417 330.482 194.374 330.38 194.283 L 326.494 191.078 Z  M 328.11 174.56 C 327.286 174.479 326.552 175.083 326.471 175.907 C 326.39 176.731 326.994 177.465 327.818 177.546 C 328.642 177.626 329.376 177.023 329.457 176.199 C 329.537 175.375 328.934 174.641 328.11 174.56 Z " fill="rgb(0,0,0)" stroke="none"/><line x1="321.88" y1="238.23" x2="361.08" y2="286.77" vector-effect="non-scaling-stroke" stroke-width="1" stroke="rgb(0,0,0)" stroke-linejoin="miter" stroke-linecap="square" stroke-miterlimit="3"/><path d=" M 350.652 273.858 L 352.138 269.044 C 352.173 268.913 352.263 268.802 352.383 268.743 C 352.497 268.677 352.633 268.67 352.756 268.712 C 352.888 268.747 352.999 268.837 353.057 268.957 C 353.123 269.071 353.13 269.207 353.089 269.33 L 351.522 274.408 C 351.513 274.469 351.493 274.528 351.456 274.577 C 351.413 274.659 351.343 274.726 351.258 274.767 C 351.236 274.781 351.212 274.791 351.186 274.795 C 351.13 274.82 351.069 274.828 351.007 274.824 L 345.713 275.286 C 345.584 275.301 345.453 275.266 345.355 275.177 C 345.25 275.095 345.186 274.967 345.179 274.831 C 345.164 274.702 345.199 274.57 345.288 274.473 C 345.37 274.368 345.498 274.304 345.634 274.297 L 350.652 273.858 Z  M 361.08 286.77 C 361.724 286.25 361.825 285.305 361.305 284.661 C 360.784 284.017 359.839 283.916 359.195 284.436 C 358.551 284.956 358.45 285.901 358.971 286.545 C 359.491 287.19 360.436 287.29 361.08 286.77 Z " fill="rgb(0,0,0)" stroke="none"/><line x1="386" y1="213.31" x2="361.08" y2="286.77" vector-effect="non-scaling-stroke" stroke-width="1" stroke="rgb(0,0,0)" stroke-linejoin="miter" stroke-linecap="square" stroke-miterlimit="3"/><path d=" M 380.668 229.027 L 375.807 230.347 C 375.677 230.387 375.534 230.371 375.421 230.301 C 375.304 230.24 375.226 230.129 375.195 230.002 C 375.154 229.872 375.171 229.73 375.241 229.617 C 375.302 229.5 375.413 229.422 375.54 229.391 L 380.668 227.998 C 380.724 227.973 380.784 227.959 380.846 227.963 C 380.938 227.956 381.033 227.979 381.113 228.029 C 381.136 228.041 381.158 228.055 381.175 228.075 C 381.226 228.109 381.265 228.157 381.294 228.211 L 384.517 232.436 C 384.599 232.538 384.639 232.668 384.616 232.797 C 384.603 232.93 384.53 233.053 384.419 233.131 C 384.317 233.213 384.187 233.253 384.058 233.23 C 383.925 233.217 383.802 233.144 383.723 233.033 L 380.668 229.027 Z  M 386 213.31 C 385.216 213.044 384.364 213.465 384.098 214.249 C 383.832 215.033 384.252 215.885 385.036 216.151 C 385.82 216.417 386.673 215.996 386.939 215.212 C 387.205 214.428 386.784 213.576 386 213.31 Z " fill="rgb(0,0,0)" stroke="none"/><line x1="386" y1="213.31" x2="455.73" y2="271.54" vector-effect="non-scaling-stroke" stroke-width="1" stroke="rgb(0,0,0)" stroke-linejoin="miter" stroke-linecap="square" stroke-miterlimit="3"/><path d=" M 442.991 260.902 L 443.512 255.891 C 443.521 255.755 443.588 255.629 443.694 255.548 C 443.793 255.461 443.925 255.428 444.054 255.445 C 444.19 255.454 444.316 255.521 444.397 255.627 C 444.484 255.726 444.517 255.858 444.5 255.987 L 443.951 261.273 C 443.954 261.334 443.945 261.395 443.919 261.451 C 443.892 261.54 443.837 261.619 443.762 261.676 C 443.742 261.693 443.721 261.709 443.696 261.717 C 443.647 261.753 443.588 261.772 443.527 261.78 L 438.424 263.263 C 438.3 263.303 438.164 263.294 438.051 263.226 C 437.932 263.166 437.844 263.053 437.811 262.921 C 437.771 262.797 437.78 262.661 437.848 262.548 C 437.909 262.429 438.022 262.341 438.153 262.308 L 442.991 260.902 Z  M 455.73 271.54 C 456.261 270.905 456.176 269.958 455.54 269.427 C 454.905 268.897 453.958 268.982 453.427 269.617 C 452.897 270.253 452.982 271.199 453.617 271.73 C 454.253 272.261 455.199 272.175 455.73 271.54 Z " fill="rgb(0,0,0)" stroke="none"/><line x1="361.08" y1="286.77" x2="456" y2="271.54" vector-effect="non-scaling-stroke" stroke-width="1" stroke="rgb(0,0,0)" stroke-linejoin="miter" stroke-linecap="square" stroke-miterlimit="3"/><path d=" M 377.467 284.141 L 380.906 287.822 C 381.002 287.918 381.054 288.052 381.045 288.185 C 381.046 288.316 380.984 288.438 380.887 288.524 C 380.791 288.621 380.657 288.673 380.524 288.663 C 380.393 288.664 380.271 288.603 380.185 288.505 L 376.558 284.621 C 376.509 284.584 376.468 284.537 376.444 284.481 C 376.394 284.402 376.371 284.308 376.377 284.214 C 376.377 284.188 376.379 284.162 376.389 284.138 C 376.395 284.077 376.419 284.02 376.453 283.969 L 378.683 279.145 C 378.735 279.025 378.831 278.929 378.956 278.889 C 379.079 278.838 379.222 278.846 379.344 278.907 C 379.463 278.959 379.56 279.055 379.6 279.18 C 379.65 279.304 379.643 279.447 379.581 279.568 L 377.467 284.141 Z  M 361.08 286.77 C 361.211 287.587 361.981 288.145 362.799 288.013 C 363.616 287.882 364.173 287.112 364.042 286.295 C 363.911 285.477 363.141 284.92 362.323 285.051 C 361.506 285.182 360.949 285.953 361.08 286.77 Z " fill="rgb(0,0,0)" stroke="none"/><line x1="321.88" y1="238.23" x2="274.15" y2="336.61" vector-effect="non-scaling-stroke" stroke-width="1" stroke="rgb(0,0,0)" stroke-linejoin="miter" stroke-linecap="square" stroke-miterlimit="3"/><path d=" M 281.395 321.678 L 286.383 320.973 C 286.516 320.949 286.656 320.983 286.759 321.066 C 286.868 321.141 286.932 321.261 286.947 321.391 C 286.971 321.525 286.937 321.664 286.853 321.768 C 286.778 321.876 286.658 321.94 286.529 321.955 L 281.267 322.699 C 281.208 322.717 281.146 322.723 281.086 322.711 C 280.993 322.707 280.903 322.672 280.83 322.613 C 280.808 322.598 280.788 322.582 280.774 322.56 C 280.727 322.52 280.694 322.467 280.672 322.41 L 277.999 317.817 C 277.931 317.706 277.907 317.572 277.946 317.446 C 277.975 317.316 278.064 317.203 278.184 317.139 C 278.295 317.071 278.428 317.047 278.554 317.086 C 278.684 317.115 278.797 317.203 278.861 317.323 L 281.395 321.678 Z  M 274.15 336.61 C 274.895 336.971 275.793 336.66 276.154 335.915 C 276.516 335.17 276.204 334.272 275.46 333.911 C 274.715 333.55 273.817 333.861 273.455 334.606 C 273.094 335.351 273.405 336.249 274.15 336.61 Z " fill="rgb(0,0,0)" stroke="none"/><line x1="258.54" y1="237.54" x2="328.11" y2="174.56" vector-effect="non-scaling-stroke" stroke-width="1" stroke="rgb(0,0,0)" stroke-linejoin="miter" stroke-linecap="square" stroke-miterlimit="3"/><path d=" M 315.806 185.699 L 310.916 184.487 C 310.783 184.459 310.667 184.375 310.602 184.259 C 310.529 184.149 310.515 184.014 310.55 183.888 C 310.577 183.755 310.661 183.639 310.778 183.574 C 310.887 183.501 311.023 183.487 311.148 183.521 L 316.306 184.8 C 316.368 184.805 316.427 184.822 316.478 184.855 C 316.563 184.894 316.634 184.96 316.68 185.042 C 316.694 185.064 316.706 185.087 316.712 185.113 C 316.74 185.167 316.751 185.228 316.75 185.29 L 317.511 190.549 C 317.532 190.678 317.505 190.811 317.422 190.913 C 317.345 191.022 317.221 191.094 317.086 191.109 C 316.958 191.131 316.825 191.103 316.723 191.02 C 316.613 190.944 316.541 190.82 316.527 190.684 L 315.806 185.699 Z  M 328.11 174.56 C 327.554 173.946 326.605 173.899 325.991 174.455 C 325.378 175.01 325.33 175.96 325.886 176.573 C 326.442 177.187 327.391 177.234 328.005 176.679 C 328.618 176.123 328.666 175.174 328.11 174.56 Z " fill="rgb(0,0,0)" stroke="none"/><line x1="258.54" y1="237.54" x2="321.88" y2="238.23" vector-effect="non-scaling-stroke" stroke-width="1" stroke="rgb(0,0,0)" stroke-linejoin="miter" stroke-linecap="square" stroke-miterlimit="3"/><path d=" M 275.136 237.721 L 277.902 241.931 C 277.981 242.042 278.009 242.182 277.978 242.312 C 277.956 242.442 277.875 242.551 277.764 242.62 C 277.654 242.699 277.513 242.727 277.384 242.696 C 277.254 242.674 277.145 242.593 277.076 242.482 L 274.158 238.041 C 274.117 237.995 274.084 237.943 274.07 237.883 C 274.034 237.797 274.027 237.7 274.049 237.609 C 274.053 237.583 274.06 237.558 274.073 237.535 C 274.09 237.476 274.123 237.424 274.165 237.38 L 277.179 233.003 C 277.25 232.894 277.361 232.815 277.491 232.796 C 277.622 232.768 277.761 232.799 277.87 232.88 C 277.98 232.951 278.059 233.062 278.077 233.193 C 278.106 233.323 278.074 233.463 277.993 233.572 L 275.136 237.721 Z  M 258.54 237.54 C 258.531 238.368 259.196 239.047 260.024 239.056 C 260.851 239.065 261.531 238.401 261.54 237.573 C 261.549 236.745 260.884 236.065 260.056 236.056 C 259.228 236.047 258.549 236.712 258.54 237.54 Z " fill="rgb(0,0,0)" stroke="none"/><line x1="258.54" y1="237.54" x2="176" y2="256.92" vector-effect="non-scaling-stroke" stroke-width="1" stroke="rgb(0,0,0)" stroke-linejoin="miter" stroke-linecap="square" stroke-miterlimit="3"/><path d=" M 192.158 253.126 L 195.85 256.553 C 195.953 256.642 196.014 256.771 196.015 256.905 C 196.025 257.036 195.972 257.161 195.881 257.254 C 195.793 257.357 195.663 257.419 195.53 257.419 C 195.399 257.429 195.273 257.377 195.18 257.286 L 191.284 253.671 C 191.233 253.637 191.19 253.593 191.161 253.539 C 191.106 253.464 191.076 253.372 191.075 253.278 C 191.073 253.252 191.074 253.226 191.082 253.2 C 191.083 253.139 191.103 253.08 191.133 253.027 L 193.013 248.057 C 193.056 247.933 193.145 247.83 193.267 247.781 C 193.386 247.722 193.53 247.72 193.655 247.772 C 193.778 247.815 193.881 247.904 193.93 248.026 C 193.989 248.146 193.992 248.289 193.939 248.414 L 192.158 253.126 Z  M 176 256.92 C 176.189 257.726 176.997 258.227 177.803 258.037 C 178.609 257.848 179.11 257.04 178.921 256.234 C 178.731 255.428 177.923 254.928 177.117 255.117 C 176.311 255.306 175.811 256.114 176 256.92 Z " fill="rgb(0,0,0)" stroke="none"/><line x1="258.54" y1="237.54" x2="274.15" y2="336.61" vector-effect="non-scaling-stroke" stroke-width="1" stroke="rgb(0,0,0)" stroke-linejoin="miter" stroke-linecap="square" stroke-miterlimit="3"/><path d=" M 271.567 320.215 L 275.258 316.787 C 275.354 316.691 275.488 316.64 275.621 316.649 C 275.753 316.649 275.874 316.711 275.96 316.808 C 276.056 316.905 276.108 317.038 276.098 317.171 C 276.099 317.303 276.037 317.424 275.939 317.51 L 272.045 321.126 C 272.007 321.175 271.96 321.215 271.904 321.24 C 271.825 321.289 271.731 321.313 271.637 321.306 C 271.611 321.306 271.585 321.304 271.561 321.294 C 271.5 321.288 271.443 321.264 271.392 321.229 L 266.575 318.986 C 266.455 318.934 266.359 318.837 266.319 318.712 C 266.269 318.588 266.277 318.445 266.339 318.324 C 266.391 318.205 266.487 318.109 266.612 318.069 C 266.736 318.019 266.879 318.027 267 318.089 L 271.567 320.215 Z  M 274.15 336.61 C 274.968 336.481 275.527 335.713 275.398 334.895 C 275.269 334.077 274.501 333.518 273.683 333.647 C 272.865 333.775 272.306 334.544 272.435 335.362 C 272.564 336.18 273.332 336.739 274.15 336.61 Z " fill="rgb(0,0,0)" stroke="none"/><line x1="176" y1="256.92" x2="274.15" y2="336.61" vector-effect="non-scaling-stroke" stroke-width="1" stroke="rgb(0,0,0)" stroke-linejoin="miter" stroke-linecap="square" stroke-miterlimit="3"/><path d=" M 188.885 267.381 L 188.433 272.399 C 188.426 272.535 188.361 272.662 188.255 272.744 C 188.158 272.832 188.026 272.867 187.897 272.852 C 187.761 272.845 187.634 272.78 187.552 272.675 C 187.463 272.578 187.428 272.446 187.443 272.317 L 187.92 267.024 C 187.916 266.963 187.923 266.901 187.949 266.845 C 187.975 266.756 188.029 266.676 188.103 266.618 C 188.122 266.6 188.143 266.585 188.168 266.576 C 188.217 266.539 188.276 266.519 188.337 266.511 L 193.419 264.957 C 193.542 264.916 193.678 264.923 193.792 264.989 C 193.912 265.048 194.001 265.16 194.036 265.291 C 194.078 265.415 194.07 265.55 194.004 265.664 C 193.945 265.784 193.834 265.874 193.702 265.909 L 188.885 267.381 Z  M 176 256.92 C 175.478 257.563 175.576 258.508 176.219 259.03 C 176.862 259.552 177.807 259.454 178.329 258.811 C 178.851 258.168 178.753 257.223 178.11 256.701 C 177.467 256.179 176.522 256.277 176 256.92 Z " fill="rgb(0,0,0)" stroke="none"/><line x1="176" y1="256.92" x2="176" y2="311.69" vector-effect="non-scaling-stroke" stroke-width="1" stroke="rgb(0,0,0)" stroke-linejoin="miter" stroke-linecap="square" stroke-miterlimit="3"/><path d=" M 176 295.093 L 180.18 292.281 C 180.29 292.201 180.43 292.171 180.56 292.201 C 180.69 292.221 180.8 292.301 180.87 292.411 C 180.95 292.521 180.98 292.661 180.95 292.791 C 180.93 292.921 180.85 293.031 180.74 293.101 L 176.33 296.067 C 176.286 296.109 176.233 296.142 176.174 296.157 C 176.088 296.194 175.992 296.203 175.9 296.181 C 175.874 296.177 175.849 296.171 175.826 296.157 C 175.767 296.142 175.714 296.109 175.67 296.067 L 171.26 293.101 C 171.15 293.031 171.07 292.921 171.05 292.791 C 171.02 292.661 171.05 292.521 171.13 292.411 C 171.2 292.301 171.31 292.221 171.44 292.201 C 171.57 292.171 171.71 292.201 171.82 292.281 L 176 295.093 Z  M 176 311.69 C 176.828 311.69 177.5 311.018 177.5 310.19 C 177.5 309.362 176.828 308.69 176 308.69 C 175.172 308.69 174.5 309.362 174.5 310.19 C 174.5 311.018 175.172 311.69 176 311.69 Z " fill="rgb(0,0,0)" stroke="none"/><line x1="176" y1="311.69" x2="213.89" y2="379.77" vector-effect="non-scaling-stroke" stroke-width="1" stroke="rgb(0,0,0)" stroke-linejoin="miter" stroke-linecap="square" stroke-miterlimit="3"/><path d=" M 205.819 365.268 L 208.104 360.778 C 208.161 360.655 208.269 360.561 208.397 360.524 C 208.52 360.478 208.655 360.494 208.77 360.556 C 208.893 360.614 208.988 360.721 209.025 360.849 C 209.07 360.973 209.054 361.108 208.992 361.222 L 206.581 365.958 C 206.563 366.017 206.533 366.071 206.488 366.113 C 206.431 366.187 206.351 366.241 206.261 366.267 C 206.236 366.277 206.211 366.283 206.185 366.282 C 206.125 366.298 206.063 366.295 206.004 366.28 L 200.708 365.833 C 200.578 365.825 200.455 365.768 200.374 365.664 C 200.285 365.565 200.243 365.428 200.259 365.293 C 200.267 365.163 200.324 365.039 200.428 364.959 C 200.527 364.869 200.664 364.827 200.799 364.844 L 205.819 365.268 Z  M 213.89 379.77 C 214.613 379.367 214.874 378.453 214.471 377.73 C 214.069 377.006 213.154 376.746 212.431 377.149 C 211.708 377.551 211.447 378.465 211.85 379.189 C 212.252 379.912 213.167 380.173 213.89 379.77 Z " fill="rgb(0,0,0)" stroke="none"/><line x1="213.89" y1="379.77" x2="255.46" y2="455.73" vector-effect="non-scaling-stroke" stroke-width="1" stroke="rgb(0,0,0)" stroke-linejoin="miter" stroke-linecap="square" stroke-miterlimit="3"/><path d=" M 247.492 441.171 L 249.809 436.698 C 249.867 436.575 249.976 436.481 250.104 436.445 C 250.228 436.4 250.363 436.417 250.477 436.48 C 250.6 436.538 250.693 436.647 250.73 436.775 C 250.774 436.899 250.757 437.034 250.694 437.148 L 248.25 441.867 C 248.231 441.925 248.2 441.979 248.156 442.021 C 248.098 442.094 248.018 442.148 247.927 442.173 C 247.902 442.182 247.877 442.189 247.851 442.188 C 247.791 442.203 247.73 442.199 247.67 442.184 L 242.378 441.699 C 242.248 441.691 242.125 441.632 242.045 441.528 C 241.956 441.428 241.915 441.291 241.933 441.156 C 241.941 441.026 241.999 440.903 242.104 440.823 C 242.204 440.734 242.341 440.694 242.476 440.711 L 247.492 441.171 Z  M 255.46 455.73 C 256.186 455.333 256.453 454.42 256.056 453.694 C 255.658 452.968 254.746 452.701 254.02 453.098 C 253.294 453.496 253.027 454.408 253.424 455.134 C 253.821 455.861 254.734 456.127 255.46 455.73 Z " fill="rgb(0,0,0)" stroke="none"/><line x1="57.762" y1="296.46" x2="101.54" y2="386" vector-effect="non-scaling-stroke" stroke-width="1" stroke="rgb(0,0,0)" stroke-linejoin="miter" stroke-linecap="square" stroke-miterlimit="3"/><path d=" M 94.25 371.09 L 96.77 366.728 C 96.834 366.608 96.947 366.519 97.077 366.489 C 97.202 366.45 97.336 366.473 97.447 366.542 C 97.568 366.605 97.656 366.718 97.686 366.848 C 97.725 366.973 97.702 367.107 97.634 367.219 L 94.975 371.82 C 94.953 371.877 94.92 371.93 94.874 371.97 C 94.813 372.04 94.73 372.09 94.638 372.111 C 94.613 372.119 94.588 372.125 94.562 372.122 C 94.501 372.135 94.44 372.128 94.381 372.11 L 89.117 371.382 C 88.987 371.368 88.867 371.304 88.792 371.196 C 88.708 371.093 88.674 370.954 88.697 370.82 C 88.712 370.69 88.775 370.57 88.883 370.495 C 88.987 370.411 89.126 370.376 89.26 370.4 L 94.25 371.09 Z  M 101.54 386 C 102.284 385.636 102.592 384.737 102.229 383.994 C 101.865 383.25 100.966 382.941 100.222 383.305 C 99.479 383.669 99.17 384.568 99.534 385.311 C 99.897 386.055 100.796 386.364 101.54 386 Z " fill="rgb(0,0,0)" stroke="none"/><line x1="57.762" y1="296.46" x2="176" y2="311.69" vector-effect="non-scaling-stroke" stroke-width="1" stroke="rgb(0,0,0)" stroke-linejoin="miter" stroke-linecap="square" stroke-miterlimit="3"/><path d=" M 74.223 298.58 L 76.478 303.085 C 76.543 303.205 76.555 303.347 76.509 303.472 C 76.472 303.599 76.379 303.698 76.261 303.753 C 76.142 303.818 75.999 303.83 75.874 303.784 C 75.747 303.747 75.648 303.654 75.593 303.536 L 73.215 298.784 C 73.179 298.734 73.153 298.678 73.145 298.617 C 73.12 298.527 73.124 298.43 73.157 298.342 C 73.164 298.317 73.173 298.293 73.19 298.272 C 73.213 298.215 73.252 298.167 73.299 298.128 L 76.804 294.134 C 76.888 294.033 77.007 293.968 77.139 293.965 C 77.271 293.952 77.406 293.999 77.505 294.093 C 77.605 294.176 77.671 294.296 77.674 294.427 C 77.687 294.56 77.639 294.695 77.546 294.794 L 74.223 298.58 Z  M 57.762 296.46 C 57.657 297.281 58.237 298.034 59.058 298.139 C 59.88 298.245 60.632 297.664 60.738 296.843 C 60.844 296.022 60.263 295.27 59.442 295.164 C 58.621 295.058 57.868 295.639 57.762 296.46 Z " fill="rgb(0,0,0)" stroke="none"/><line x1="213.89" y1="379.77" x2="274.15" y2="336.61" vector-effect="non-scaling-stroke" stroke-width="1" stroke="rgb(0,0,0)" stroke-linejoin="miter" stroke-linecap="square" stroke-miterlimit="3"/><path d=" M 260.657 346.274 L 255.937 344.513 C 255.808 344.47 255.702 344.374 255.651 344.251 C 255.591 344.133 255.592 343.997 255.641 343.876 C 255.684 343.747 255.78 343.641 255.903 343.59 C 256.021 343.531 256.157 343.532 256.278 343.58 L 261.257 345.438 C 261.317 345.45 261.374 345.474 261.421 345.513 C 261.501 345.561 261.564 345.635 261.6 345.722 C 261.612 345.745 261.621 345.769 261.623 345.796 C 261.646 345.853 261.649 345.915 261.642 345.975 L 261.798 351.287 C 261.805 351.418 261.762 351.547 261.668 351.639 C 261.58 351.739 261.449 351.796 261.313 351.795 C 261.182 351.802 261.053 351.759 260.961 351.665 C 260.861 351.577 260.804 351.446 260.805 351.31 L 260.657 346.274 Z  M 274.15 336.61 C 273.668 335.937 272.73 335.782 272.057 336.264 C 271.384 336.746 271.229 337.684 271.711 338.357 C 272.193 339.03 273.131 339.185 273.804 338.703 C 274.477 338.221 274.632 337.283 274.15 336.61 Z " fill="rgb(0,0,0)" stroke="none"/><line x1="101.54" y1="386" x2="176" y2="311.69" vector-effect="non-scaling-stroke" stroke-width="1" stroke="rgb(0,0,0)" stroke-linejoin="miter" stroke-linecap="square" stroke-miterlimit="3"/><path d=" M 113.288 374.276 L 118.231 375.249 C 118.365 375.27 118.485 375.348 118.556 375.461 C 118.633 375.567 118.654 375.702 118.626 375.829 C 118.605 375.963 118.527 376.083 118.413 376.154 C 118.307 376.232 118.173 376.253 118.046 376.224 L 112.831 375.198 C 112.77 375.196 112.71 375.182 112.657 375.151 C 112.571 375.116 112.496 375.054 112.447 374.974 C 112.431 374.953 112.418 374.931 112.411 374.905 C 112.38 374.852 112.367 374.792 112.365 374.73 L 111.349 369.514 C 111.321 369.387 111.342 369.252 111.42 369.146 C 111.491 369.033 111.611 368.956 111.746 368.935 C 111.873 368.906 112.007 368.928 112.113 369.006 C 112.226 369.077 112.304 369.197 112.325 369.331 L 113.288 374.276 Z  M 101.54 386 C 102.125 386.586 103.075 386.587 103.661 386.002 C 104.247 385.417 104.248 384.467 103.663 383.881 C 103.079 383.295 102.128 383.294 101.542 383.879 C 100.956 384.463 100.955 385.414 101.54 386 Z " fill="rgb(0,0,0)" stroke="none"/><line x1="101.54" y1="386" x2="213.89" y2="379.77" vector-effect="non-scaling-stroke" stroke-width="1" stroke="rgb(0,0,0)" stroke-linejoin="miter" stroke-linecap="square" stroke-miterlimit="3"/><path d=" M 118.111 385.081 L 121.15 389.099 C 121.236 389.204 121.274 389.343 121.251 389.474 C 121.238 389.605 121.165 389.719 121.059 389.795 C 120.953 389.881 120.815 389.919 120.684 389.896 C 120.553 389.883 120.439 389.81 120.363 389.704 L 117.157 385.465 C 117.113 385.423 117.077 385.372 117.058 385.313 C 117.017 385.23 117.003 385.134 117.019 385.042 C 117.022 385.015 117.027 384.99 117.039 384.967 C 117.051 384.906 117.081 384.852 117.12 384.805 L 119.838 380.238 C 119.901 380.124 120.007 380.038 120.136 380.011 C 120.264 379.974 120.405 379.996 120.519 380.07 C 120.633 380.134 120.719 380.239 120.746 380.368 C 120.783 380.496 120.761 380.638 120.687 380.752 L 118.111 385.081 Z  M 101.54 386 C 101.586 386.827 102.294 387.46 103.121 387.415 C 103.947 387.369 104.581 386.661 104.535 385.834 C 104.49 385.007 103.781 384.373 102.955 384.419 C 102.128 384.465 101.494 385.173 101.54 386 Z " fill="rgb(0,0,0)" stroke="none"/><line x1="176" y1="256.92" x2="213.89" y2="168.33" vector-effect="non-scaling-stroke" stroke-width="1" stroke="rgb(0,0,0)" stroke-linejoin="miter" stroke-linecap="square" stroke-miterlimit="3"/><path d=" M 182.527 241.66 L 187.476 240.719 C 187.608 240.689 187.749 240.716 187.856 240.795 C 187.968 240.864 188.038 240.981 188.059 241.11 C 188.089 241.242 188.062 241.383 187.983 241.491 C 187.913 241.602 187.797 241.672 187.668 241.693 L 182.447 242.686 C 182.39 242.707 182.328 242.716 182.268 242.707 C 182.175 242.707 182.083 242.677 182.007 242.622 C 181.984 242.608 181.964 242.592 181.948 242.571 C 181.9 242.533 181.864 242.482 181.84 242.426 L 178.952 237.965 C 178.878 237.857 178.848 237.725 178.881 237.597 C 178.904 237.466 178.987 237.349 179.104 237.28 C 179.211 237.206 179.344 237.176 179.471 237.208 C 179.602 237.232 179.719 237.315 179.789 237.431 L 182.527 241.66 Z  M 176 256.92 C 176.761 257.246 177.643 256.892 177.969 256.131 C 178.295 255.37 177.941 254.487 177.18 254.162 C 176.419 253.836 175.536 254.19 175.211 254.951 C 174.885 255.712 175.239 256.594 176 256.92 Z " fill="rgb(0,0,0)" stroke="none"/></g><g><path d=" M 23.654 143.785 C 14.876 162.44 8.337 182.354 4.385 203.178 L 4.385 203.178 L 43.676 210.668 C 43.866 209.661 44.065 208.655 44.27 207.65 C 47.03 194.18 51.13 181 56.49 168.33 C 57.567 165.789 58.693 163.271 59.867 160.779 L 23.654 143.785 Z " fill="rgb(0,0,0)"/><path d=" M 35.245 122.017 C 45.989 104.039 58.926 87.52 73.686 72.831 L 73.686 72.831 L 101.9 101.181 C 101.78 101.3 101.66 101.42 101.54 101.54 C 89.223 113.851 78.504 127.61 69.607 142.495 L 35.245 122.017 Z " fill="rgb(0,0,0)"/><path d=" M 393.876 45.579 C 376.933 33.627 358.441 23.726 338.763 16.241 L 338.763 16.241 L 324.563 53.636 C 326.949 54.544 329.318 55.495 331.67 56.49 C 345.504 62.354 358.635 69.668 370.855 78.288 L 393.876 45.579 L 393.876 45.579 L 393.876 45.579 L 393.876 45.579 L 393.876 45.579 L 393.876 45.579 L 393.876 45.579 L 393.876 45.579 L 393.876 45.579 L 393.876 45.579 L 393.876 45.579 L 393.876 45.579 L 393.876 45.579 L 393.876 45.579 Z " fill="rgb(0,0,0)"/><path d=" M 228.813 0.887 C 207.593 2.671 187.123 7.111 167.738 13.872 L 180.898 51.645 C 189.64 48.595 198.582 46.129 207.66 44.27 C 215.768 42.611 223.964 41.433 232.203 40.741 L 228.813 0.887 L 228.813 0.887 L 228.813 0.887 L 228.813 0.887 L 228.813 0.887 L 228.813 0.887 L 228.813 0.887 L 228.813 0.887 L 228.813 0.887 L 228.813 0.887 L 228.813 0.887 L 228.813 0.887 L 228.813 0.887 L 228.813 0.887 L 228.813 0.887 L 228.813 0.887 Z " fill="rgb(0,0,0)"/><path d=" M 91.993 56.314 C 108.08 43.172 125.832 31.991 144.882 23.141 L 144.882 23.141 L 161.7 59.436 C 145.77 66.847 130.85 76.214 117.275 87.305 L 91.993 56.314 L 91.993 56.314 L 91.993 56.314 L 91.993 56.314 L 91.993 56.314 L 91.993 56.314 L 91.993 56.314 L 91.993 56.314 L 91.993 56.314 L 91.993 56.314 L 91.993 56.314 L 91.993 56.314 L 91.993 56.314 L 91.993 56.314 L 91.993 56.314 L 91.993 56.314 L 91.993 56.314 Z " fill="rgb(0,0,0)"/></g><g><circle vector-effect="non-scaling-stroke" cx="255.45999908447266" cy="455.7300109863282" r="16" fill="rgb(0,0,0)"/><circle vector-effect="non-scaling-stroke" cx="101.54000091552734" cy="386" r="16" fill="rgb(0,0,0)"/><circle vector-effect="non-scaling-stroke" cx="57.76239335926567" cy="296.45999908447266" r="16" fill="rgb(0,0,0)"/><circle vector-effect="non-scaling-stroke" cx="114.38656616210938" cy="232.00000000000003" r="16" fill="rgb(0,0,0)"/><circle vector-effect="non-scaling-stroke" cx="138.77000045776367" cy="155.87000274658203" r="16" fill="rgb(0,0,0)"/><circle vector-effect="non-scaling-stroke" cx="220.12000274658203" cy="106.45999908447267" r="16" fill="rgb(0,0,0)"/><circle vector-effect="non-scaling-stroke" cx="303.18999862670904" cy="95.31000137329107" r="16" fill="rgb(0,0,0)"/><circle vector-effect="non-scaling-stroke" cx="328.1099967956543" cy="174.56000137329102" r="16" fill="rgb(0,0,0)"/><circle vector-effect="non-scaling-stroke" cx="431.0500106811523" cy="140.4599990844726" r="16" fill="rgb(0,0,0)"/><circle vector-effect="non-scaling-stroke" cx="385.9999923706054" cy="213.31000137329102" r="16" fill="rgb(0,0,0)"/><circle vector-effect="non-scaling-stroke" cx="456.00000000000006" cy="271.54000091552746" r="16" fill="rgb(0,0,0)"/><circle vector-effect="non-scaling-stroke" cx="361.0799942016602" cy="287.0749988555907" r="16" fill="rgb(0,0,0)"/><circle vector-effect="non-scaling-stroke" cx="321.879997253418" cy="238.22999954223636" r="16" fill="rgb(0,0,0)"/><circle vector-effect="non-scaling-stroke" cx="258.54000091552734" cy="237.54000091552734" r="16" fill="rgb(0,0,0)"/><circle vector-effect="non-scaling-stroke" cx="213.8900032043457" cy="168.3300018310547" r="16" fill="rgb(0,0,0)"/><circle vector-effect="non-scaling-stroke" cx="176" cy="256.9199981689453" r="16" fill="rgb(0,0,0)"/><circle vector-effect="non-scaling-stroke" cx="176" cy="311.68999862670887" r="16" fill="rgb(0,0,0)"/><circle vector-effect="non-scaling-stroke" cx="213.8900032043457" cy="379.7700004577637" r="16" fill="rgb(0,0,0)"/><circle vector-effect="non-scaling-stroke" cx="274.14999771118164" cy="336.6099967956541" r="16" fill="rgb(0,0,0)"/></g><polygon points="424.82,385.173,419.692,433.961,371.708,444.16,347.18,401.676,380.005,365.22" fill="rgb(0,0,0)"/></g></svg>