<?xml version="1.0" standalone="no"?><!-- Generator: Gravit.io --><svg xmlns="http://www.w3.org/2000/svg" xmlns:xlink="http://www.w3.org/1999/xlink" style="isolation:isolate" viewBox="0 0 626.73 359.011" width="626.73" height="359.011"><defs><clipPath id="_clipPath_HmwWnTQvdYNPaZZecfaTxso1PtqGHDAo"><rect width="626.73" height="359.011"/></clipPath></defs><g clip-path="url(#_clipPath_HmwWnTQvdYNPaZZecfaTxso1PtqGHDAo)"><g><g><path d=" M 168.088 0.109 L 169.374 0.247 L 170.65 0.435 L 171.915 0.672 L 173.151 0.959 L 174.378 1.295 L 175.574 1.681 L 176.751 2.106 L 177.908 2.581 L 179.045 3.105 L 180.153 3.669 L 181.24 4.272 L 182.289 4.925 L 183.317 5.607 L 184.316 6.329 L 185.285 7.1 L 186.224 7.901 L 187.124 8.732 L 187.994 9.602 L 188.835 10.512 L 189.636 11.451 L 190.397 12.41 L 191.129 13.409 L 191.811 14.438 L 192.454 15.496 L 193.067 16.583 L 193.631 17.691 L 194.145 18.818 L 194.62 19.975 L 195.055 21.162 L 195.114 21.35 L 195.757 21.439 L 197.023 21.686 L 198.259 22.002 L 199.475 22.388 L 200.662 22.833 L 201.809 23.337 L 202.926 23.901 L 204.014 24.524 L 205.062 25.206 L 206.071 25.938 L 207.04 26.719 L 207.96 27.55 L 208.84 28.43 L 209.671 29.35 L 210.452 30.319 L 211.184 31.327 L 211.589 31.95 L 211.994 31.723 L 213.112 31.159 L 214.259 30.655 L 215.446 30.21 L 216.662 29.824 L 217.898 29.508 L 219.164 29.251 L 220.459 29.073 L 221.764 28.964 L 223.099 28.925 L 224.424 28.964 L 225.74 29.073 L 227.025 29.251 L 228.291 29.508 L 229.537 29.824 L 230.753 30.21 L 231.93 30.655 L 233.087 31.159 L 234.204 31.723 L 235.292 32.346 L 236.34 33.018 L 237.349 33.75 L 238.308 34.531 L 239.238 35.372 L 240.118 36.242 L 240.949 37.172 L 241.73 38.141 L 242.462 39.14 L 243.134 40.188 L 243.757 41.276 L 244.321 42.393 L 244.835 43.55 L 245.28 44.737 L 245.656 45.943 L 245.972 47.189 L 246.229 48.455 L 246.407 49.74 L 246.506 50.937 L 246.555 50.937 L 247.881 50.966 L 249.196 51.085 L 250.481 51.263 L 251.747 51.51 L 252.993 51.827 L 254.209 52.212 L 255.386 52.657 L 256.543 53.162 L 257.66 53.725 L 258.748 54.348 L 259.796 55.031 L 260.805 55.762 L 261.23 56.109 L 261.309 56.01 L 262.11 55.07 L 262.951 54.17 L 263.821 53.3 L 264.721 52.46 L 265.66 51.659 L 266.63 50.897 L 267.628 50.175 L 268.657 49.483 L 269.705 48.84 L 270.793 48.227 L 271.9 47.664 L 273.037 47.149 L 274.194 46.675 L 275.371 46.24 L 276.568 45.854 L 277.794 45.518 L 279.03 45.231 L 280.296 44.994 L 281.571 44.806 L 282.857 44.677 L 284.172 44.588 L 285.487 44.568 L 286.812 44.588 L 288.118 44.677 L 289.413 44.806 L 290.689 44.994 L 291.945 45.231 L 293.191 45.518 L 294.407 45.854 L 295.613 46.24 L 296.79 46.675 L 297.947 47.149 L 299.074 47.664 L 300.192 48.227 L 301.27 48.84 L 302.328 49.483 L 303.356 50.175 L 304.355 50.897 L 305.324 51.659 L 306.254 52.46 L 307.163 53.3 L 308.034 54.17 L 308.864 55.07 L 309.665 56.01 L 309.784 56.158 L 310.862 56.069 L 312.197 56.029 L 313.522 56.069 L 314.837 56.178 L 316.123 56.366 L 317.388 56.613 L 318.634 56.929 L 319.851 57.315 L 321.027 57.76 L 322.184 58.264 L 323.302 58.828 L 324.39 59.451 L 325.438 60.133 L 326.446 60.865 L 327.416 61.646 L 328.335 62.477 L 329.215 63.357 L 330.046 64.277 L 330.827 65.246 L 331.559 66.254 L 332.231 67.293 L 332.854 68.38 L 333.428 69.498 L 333.932 70.655 L 334.377 71.842 L 334.753 73.048 L 335.079 74.294 L 335.326 75.56 L 335.504 76.845 L 335.613 78.16 L 335.653 79.486 L 335.613 80.821 L 335.504 82.136 L 335.326 83.421 L 335.079 84.687 L 334.802 85.775 L 335.336 85.973 L 336.493 86.477 L 337.611 87.041 L 338.699 87.664 L 339.747 88.346 L 340.755 89.078 L 341.715 89.859 L 342.644 90.689 L 343.524 91.57 L 344.355 92.489 L 345.136 93.458 L 345.868 94.467 L 346.54 95.515 L 347.163 96.603 L 347.727 97.72 L 348.241 98.867 L 348.686 100.054 L 348.993 101.023 L 349.428 100.667 L 350.436 99.935 L 351.485 99.253 L 352.572 98.63 L 353.69 98.066 L 354.847 97.562 L 356.024 97.117 L 357.24 96.731 L 358.486 96.415 L 359.752 96.168 L 361.037 95.99 L 362.352 95.871 L 363.677 95.841 L 365.012 95.871 L 366.318 95.99 L 367.613 96.168 L 368.879 96.415 L 370.115 96.731 L 371.331 97.117 L 372.518 97.562 L 373.665 98.066 L 374.792 98.63 L 375.87 99.253 L 376.918 99.935 L 377.927 100.667 L 378.857 101.419 L 379.153 100.825 L 379.757 99.748 L 380.409 98.689 L 381.091 97.661 L 381.823 96.662 L 382.585 95.693 L 383.386 94.764 L 384.226 93.854 L 385.096 92.984 L 385.996 92.143 L 386.936 91.342 L 387.905 90.581 L 388.904 89.859 L 389.932 89.167 L 390.98 88.524 L 392.068 87.921 L 393.175 87.357 L 394.313 86.833 L 395.47 86.358 L 396.646 85.923 L 397.843 85.537 L 399.069 85.201 L 400.305 84.914 L 401.571 84.677 L 402.847 84.489 L 404.132 84.361 L 405.447 84.282 L 406.763 84.252 L 408.088 84.282 L 409.393 84.361 L 410.688 84.489 L 411.964 84.677 L 413.22 84.914 L 414.466 85.201 L 415.682 85.537 L 416.889 85.923 L 418.065 86.358 L 419.222 86.833 L 420.35 87.357 L 421.457 87.921 L 422.545 88.524 L 423.603 89.167 L 424.632 89.859 L 425.63 90.581 L 426.589 91.342 L 427.529 92.143 L 428.439 92.984 L 429.309 93.854 L 430.14 94.764 L 430.941 95.693 L 431.712 96.662 L 432.434 97.661 L 433.116 98.689 L 433.769 99.748 L 434.372 100.825 L 434.936 101.933 L 435.46 103.07 L 435.934 104.227 L 436.36 105.404 L 436.745 106.61 L 437.081 107.827 L 437.368 109.073 L 437.606 110.328 L 437.793 111.604 L 437.932 112.9 L 438.011 114.205 L 438.041 115.53 L 438.011 116.845 L 437.932 118.15 L 437.793 119.446 L 437.606 120.721 L 437.368 121.977 L 437.081 123.223 L 436.745 124.44 L 436.36 125.646 L 435.934 126.823 L 435.46 127.98 L 434.936 129.117 L 434.372 130.225 L 433.769 131.302 L 433.116 132.361 L 432.434 133.389 L 431.712 134.388 L 430.941 135.357 L 430.14 136.296 L 429.685 136.791 L 429.695 136.81 L 430.199 137.967 L 430.644 139.154 L 431.03 140.36 L 431.346 141.606 L 431.593 142.872 L 431.771 144.158 L 431.88 145.473 L 431.92 146.798 L 431.88 148.133 L 431.771 149.438 L 431.593 150.734 L 431.346 152 L 431.099 152.949 L 431.445 153.117 L 432.523 153.74 L 433.571 154.422 L 434.58 155.144 L 435.549 155.925 L 436.468 156.766 L 437.348 157.636 L 438.179 158.566 L 438.96 159.535 L 439.692 160.533 L 440.374 161.582 L 440.997 162.669 L 441.561 163.787 L 442.065 164.944 L 442.51 166.13 L 442.896 167.337 L 443.212 168.583 L 443.46 169.849 L 443.638 171.134 L 443.756 172.449 L 443.786 173.774 L 443.756 175.109 L 443.638 176.415 L 443.46 177.71 L 443.212 178.976 L 442.896 180.212 L 442.51 181.428 L 442.065 182.615 L 441.561 183.762 L 441.274 184.326 L 442.233 185.087 L 443.173 185.888 L 444.073 186.719 L 444.943 187.589 L 445.783 188.499 L 446.584 189.438 L 447.346 190.397 L 448.068 191.396 L 448.76 192.425 L 449.403 193.483 L 450.016 194.57 L 450.58 195.678 L 451.094 196.805 L 451.568 197.962 L 452.003 199.139 L 452.389 200.345 L 452.725 201.562 L 453.012 202.808 L 453.249 204.064 L 453.437 205.339 L 453.566 206.635 L 453.655 207.94 L 453.675 209.265 L 453.655 210.58 L 453.566 211.895 L 453.437 213.181 L 453.249 214.457 L 453.012 215.722 L 452.725 216.959 L 452.389 218.185 L 452.003 219.381 L 451.568 220.558 L 451.094 221.715 L 450.58 222.852 L 450.016 223.96 L 449.403 225.047 L 448.76 226.096 L 448.068 227.124 L 447.346 228.123 L 446.584 229.092 L 445.783 230.031 L 444.943 230.931 L 444.073 231.801 L 443.173 232.642 L 442.233 233.443 L 441.264 234.204 L 440.266 234.936 L 439.237 235.619 L 438.179 236.271 L 437.101 236.874 L 435.994 237.438 L 434.856 237.952 L 433.699 238.437 L 432.523 238.862 L 431.316 239.248 L 430.1 239.584 L 428.854 239.871 L 427.598 240.108 L 426.322 240.296 L 425.027 240.434 L 423.722 240.513 L 422.407 240.543 L 421.081 240.513 L 419.776 240.434 L 418.481 240.296 L 417.205 240.108 L 417.096 240.088 L 416.79 240.454 L 415.959 241.384 L 415.079 242.254 L 414.159 243.094 L 413.19 243.876 L 412.182 244.607 L 411.133 245.28 L 410.056 245.903 L 408.938 246.466 L 407.781 246.971 L 406.594 247.416 L 405.378 247.801 L 404.142 248.118 L 402.876 248.375 L 401.591 248.553 L 400.276 248.662 L 398.941 248.701 L 397.616 248.662 L 396.3 248.553 L 395.015 248.375 L 393.749 248.118 L 392.503 247.801 L 391.297 247.416 L 390.11 246.971 L 388.953 246.466 L 387.836 245.903 L 386.748 245.28 L 385.71 244.607 L 384.701 243.876 L 383.732 243.094 L 382.802 242.254 L 381.932 241.384 L 381.101 240.454 L 380.31 239.485 L 379.588 238.486 L 378.906 237.438 L 378.283 236.35 L 377.799 235.391 L 377.354 235.48 L 376.058 235.658 L 374.753 235.777 L 373.418 235.806 L 372.093 235.777 L 370.778 235.658 L 369.492 235.48 L 368.226 235.233 L 366.98 234.916 L 365.764 234.531 L 365.635 234.481 L 365.27 234.748 L 364.221 235.421 L 363.143 236.044 L 362.016 236.607 L 360.869 237.112 L 359.682 237.557 L 358.466 237.942 L 357.23 238.259 L 355.964 238.516 L 354.669 238.694 L 353.364 238.803 L 352.029 238.842 L 350.703 238.803 L 349.388 238.694 L 348.103 238.516 L 346.837 238.259 L 345.591 237.942 L 344.385 237.557 L 343.198 237.112 L 342.041 236.607 L 340.924 236.044 L 339.836 235.421 L 338.788 234.748 L 337.779 234.017 L 336.82 233.235 L 335.89 232.395 L 335.01 231.525 L 334.179 230.595 L 333.398 229.626 L 332.666 228.627 L 331.994 227.579 L 331.371 226.491 L 330.807 225.374 L 330.293 224.217 L 329.848 223.03 L 329.818 222.921 L 329.601 222.991 L 328.365 223.307 L 327.099 223.554 L 325.804 223.732 L 324.498 223.841 L 323.163 223.881 L 322.283 223.861 L 323.173 224.662 L 324.053 225.542 L 324.884 226.462 L 325.665 227.431 L 326.397 228.439 L 327.079 229.488 L 327.702 230.575 L 328.266 231.693 L 328.77 232.84 L 329.215 234.026 L 329.601 235.243 L 329.917 236.479 L 330.165 237.745 L 330.343 239.04 L 330.461 240.345 L 330.491 241.68 L 330.461 243.005 L 330.343 244.321 L 330.165 245.606 L 329.917 246.872 L 329.601 248.118 L 329.215 249.334 L 328.77 250.511 L 328.266 251.668 L 327.702 252.785 L 327.079 253.873 L 326.397 254.921 L 325.665 255.93 L 324.884 256.899 L 324.053 257.819 L 323.173 258.699 L 322.254 259.529 L 321.285 260.311 L 320.276 261.042 L 319.228 261.715 L 318.15 262.338 L 317.022 262.902 L 315.875 263.416 L 314.689 263.861 L 313.472 264.236 L 312.236 264.553 L 312.098 264.583 L 312.167 265.769 L 312.197 267.084 L 312.167 268.41 L 312.088 269.715 L 311.95 271.01 L 311.762 272.286 L 311.524 273.542 L 311.238 274.788 L 310.901 276.004 L 310.516 277.21 L 310.09 278.387 L 309.616 279.544 L 309.092 280.672 L 308.528 281.789 L 307.925 282.867 L 307.272 283.925 L 306.59 284.953 L 305.868 285.952 L 305.097 286.921 L 304.296 287.851 L 303.465 288.761 L 302.595 289.631 L 301.685 290.461 L 300.746 291.262 L 299.786 292.034 L 298.788 292.756 L 297.759 293.438 L 296.701 294.091 L 295.613 294.694 L 294.506 295.257 L 293.379 295.781 L 292.222 296.256 L 291.045 296.681 L 289.838 297.067 L 288.622 297.403 L 287.376 297.69 L 286.12 297.927 L 284.845 298.115 L 283.549 298.254 L 282.244 298.333 L 280.919 298.362 L 279.604 298.333 L 278.288 298.254 L 277.003 298.115 L 275.727 297.927 L 274.461 297.69 L 273.225 297.403 L 271.999 297.067 L 270.803 296.681 L 269.626 296.256 L 268.469 295.781 L 267.332 295.257 L 266.224 294.694 L 265.136 294.091 L 264.088 293.438 L 263.06 292.756 L 262.061 292.034 L 261.092 291.262 L 260.152 290.461 L 259.253 289.631 L 258.382 288.761 L 257.542 287.851 L 256.741 286.921 L 255.979 285.952 L 255.653 285.507 L 255.436 286.625 L 255.119 287.861 L 254.733 289.077 L 254.288 290.264 L 253.784 291.411 L 253.22 292.528 L 252.597 293.616 L 251.915 294.664 L 251.183 295.673 L 250.402 296.642 L 249.572 297.561 L 248.691 298.442 L 247.772 299.272 L 246.803 300.053 L 245.794 300.785 L 244.746 301.468 L 243.668 302.091 L 242.541 302.654 L 242.224 302.793 L 242.541 303.781 L 242.877 305.008 L 243.164 306.244 L 243.401 307.5 L 243.589 308.775 L 243.727 310.071 L 243.806 311.376 L 243.836 312.701 L 243.806 314.026 L 243.727 315.331 L 243.589 316.617 L 243.401 317.893 L 243.164 319.158 L 242.877 320.395 L 242.541 321.621 L 242.155 322.817 L 241.73 324.004 L 241.255 325.161 L 240.731 326.288 L 240.167 327.396 L 239.564 328.483 L 238.911 329.532 L 238.229 330.56 L 237.507 331.559 L 236.736 332.528 L 235.935 333.467 L 235.104 334.367 L 234.234 335.247 L 233.324 336.078 L 232.385 336.879 L 231.426 337.64 L 230.427 338.372 L 229.399 339.055 L 228.34 339.707 L 227.253 340.31 L 226.145 340.874 L 225.018 341.398 L 223.861 341.873 L 222.674 342.298 L 221.478 342.684 L 220.251 343.02 L 219.015 343.307 L 217.759 343.544 L 216.484 343.732 L 215.188 343.87 L 213.883 343.949 L 212.558 343.979 L 211.243 343.949 L 209.928 343.87 L 208.642 343.732 L 207.366 343.544 L 206.101 343.307 L 204.865 343.02 L 203.638 342.684 L 202.442 342.298 L 201.255 341.873 L 200.098 341.398 L 198.971 340.874 L 197.863 340.31 L 196.776 339.707 L 195.727 339.055 L 194.699 338.372 L 193.7 337.64 L 192.731 336.879 L 191.792 336.078 L 190.892 335.247 L 190.704 335.059 L 190.546 335.564 L 190.101 336.741 L 189.596 337.898 L 189.023 339.015 L 188.4 340.103 L 187.727 341.151 L 186.996 342.16 L 186.214 343.119 L 185.384 344.048 L 184.504 344.928 L 183.584 345.759 L 182.615 346.54 L 181.606 347.272 L 180.558 347.944 L 179.47 348.567 L 178.353 349.131 L 177.196 349.645 L 176.019 350.09 L 174.803 350.466 L 173.557 350.783 L 172.291 351.04 L 171.006 351.218 L 169.69 351.326 L 168.365 351.366 L 167.03 351.326 L 165.725 351.218 L 164.43 351.04 L 163.164 350.783 L 161.928 350.466 L 160.711 350.09 L 159.525 349.645 L 158.378 349.131 L 157.26 348.567 L 156.173 347.944 L 155.124 347.272 L 154.116 346.54 L 153.147 345.759 L 152.227 344.928 L 151.347 344.048 L 150.516 343.119 L 149.735 342.16 L 149.003 341.151 L 148.331 340.103 L 147.708 339.015 L 147.223 338.066 L 146.778 337.809 L 145.73 337.126 L 144.721 336.404 L 143.752 335.613 L 142.833 334.783 L 141.953 333.912 L 141.122 332.983 L 140.341 332.014 L 139.668 331.094 L 139.51 331.173 L 138.353 331.687 L 137.166 332.132 L 135.96 332.508 L 134.714 332.825 L 133.448 333.082 L 132.163 333.26 L 130.848 333.369 L 129.522 333.408 L 128.187 333.369 L 126.882 333.26 L 125.587 333.082 L 124.321 332.825 L 123.085 332.508 L 121.869 332.132 L 120.682 331.687 L 119.535 331.173 L 118.408 330.61 L 117.33 329.987 L 116.281 329.314 L 115.273 328.582 L 114.59 328.029 L 114.215 329.067 L 113.74 330.224 L 113.216 331.361 L 112.652 332.469 L 112.049 333.547 L 111.406 334.605 L 110.714 335.633 L 109.992 336.632 L 109.221 337.601 L 108.42 338.54 L 107.589 339.44 L 106.719 340.31 L 105.809 341.151 L 104.88 341.952 L 103.911 342.713 L 102.912 343.435 L 101.883 344.127 L 100.825 344.77 L 99.748 345.383 L 98.64 345.947 L 97.503 346.461 L 96.346 346.936 L 95.169 347.371 L 93.963 347.757 L 92.746 348.093 L 91.5 348.38 L 90.244 348.617 L 88.969 348.805 L 87.673 348.933 L 86.368 349.022 L 85.043 349.042 L 83.728 349.022 L 82.413 348.933 L 81.127 348.805 L 79.851 348.617 L 78.586 348.38 L 77.35 348.093 L 76.123 347.757 L 74.927 347.371 L 73.75 346.936 L 72.593 346.461 L 71.456 345.947 L 70.348 345.383 L 69.261 344.77 L 68.212 344.127 L 67.184 343.435 L 66.185 342.713 L 65.216 341.952 L 64.277 341.151 L 63.377 340.31 L 62.507 339.44 L 61.666 338.54 L 60.865 337.601 L 60.104 336.632 L 59.372 335.633 L 58.69 334.605 L 58.047 333.547 L 57.434 332.469 L 56.87 331.361 L 56.356 330.224 L 55.881 329.067 L 55.446 327.89 L 55.06 326.684 L 54.724 325.467 L 54.467 324.35 L 53.913 324.716 L 52.865 325.369 L 51.777 325.972 L 50.67 326.535 L 49.542 327.06 L 48.386 327.534 L 47.199 327.959 L 46.002 328.345 L 44.776 328.681 L 43.54 328.968 L 42.274 329.205 L 40.999 329.393 L 39.713 329.532 L 38.408 329.611 L 37.083 329.64 L 35.758 329.611 L 34.452 329.532 L 33.157 329.393 L 31.881 329.205 L 30.625 328.968 L 29.389 328.681 L 28.163 328.345 L 26.967 327.959 L 25.78 327.534 L 24.623 327.06 L 23.496 326.535 L 22.388 325.972 L 21.3 325.369 L 20.242 324.716 L 19.214 324.034 L 18.215 323.302 L 17.256 322.54 L 16.316 321.739 L 15.407 320.909 L 14.536 320.029 L 13.706 319.129 L 12.905 318.189 L 12.143 317.22 L 11.412 316.221 L 10.729 315.203 L 10.077 314.145 L 9.473 313.057 L 8.91 311.95 L 8.386 310.822 L 7.911 309.665 L 7.486 308.479 L 7.1 307.282 L 6.764 306.056 L 6.477 304.82 L 6.24 303.564 L 6.052 302.278 L 5.913 300.993 L 5.834 299.688 L 5.805 298.362 L 5.834 297.037 L 5.913 295.732 L 6.052 294.437 L 6.24 293.161 L 6.477 291.905 L 6.764 290.669 L 7.1 289.443 L 7.486 288.246 L 7.911 287.06 L 8.386 285.903 L 8.91 284.775 L 9.473 283.668 L 10.077 282.58 L 10.729 281.522 L 11.412 280.503 L 12.143 279.505 L 12.905 278.536 L 13.706 277.596 L 14.536 276.686 L 15.407 275.816 L 16.316 274.986 L 17.256 274.185 L 18.215 273.423 L 19.214 272.691 L 20.242 272.009 L 21.3 271.356 L 22.388 270.753 L 23.496 270.189 L 24.623 269.665 L 25.78 269.191 L 26.967 268.766 L 28.163 268.38 L 29.389 268.044 L 30.329 267.826 L 30.348 267.144 L 30.457 265.838 L 30.645 264.543 L 30.892 263.277 L 31.209 262.041 L 31.594 260.825 L 32.039 259.638 L 32.544 258.491 L 33.107 257.364 L 33.73 256.286 L 34.413 255.238 L 35.145 254.229 L 35.926 253.26 L 36.756 252.34 L 37.627 251.46 L 38.556 250.63 L 39.525 249.848 L 39.614 249.779 L 38.655 249.413 L 37.498 248.909 L 36.381 248.345 L 35.303 247.722 L 34.255 247.04 L 33.246 246.308 L 32.277 245.527 L 31.357 244.696 L 30.477 243.816 L 29.646 242.897 L 28.865 241.928 L 28.133 240.919 L 27.451 239.871 L 26.828 238.793 L 26.264 237.665 L 25.76 236.518 L 25.315 235.332 L 24.929 234.115 L 24.613 232.879 L 24.366 231.614 L 24.178 230.318 L 24.069 229.013 L 24.03 227.678 L 24.069 226.353 L 24.178 225.038 L 24.366 223.752 L 24.613 222.486 L 23.575 222.249 L 22.358 221.913 L 21.152 221.527 L 19.975 221.092 L 18.818 220.617 L 17.681 220.103 L 16.573 219.539 L 15.496 218.926 L 14.438 218.284 L 13.409 217.591 L 12.41 216.87 L 11.441 216.108 L 10.502 215.307 L 9.602 214.467 L 8.732 213.596 L 7.891 212.696 L 7.09 211.757 L 6.329 210.788 L 5.607 209.789 L 4.915 208.761 L 4.272 207.703 L 3.659 206.625 L 3.095 205.517 L 2.581 204.38 L 2.106 203.223 L 1.671 202.046 L 1.286 200.84 L 0.949 199.624 L 0.663 198.378 L 0.425 197.122 L 0.237 195.846 L 0.109 194.551 L 0.02 193.245 L 0 191.93 L 0.02 190.605 L 0.109 189.3 L 0.237 188.004 L 0.425 186.729 L 0.663 185.473 L 0.949 184.227 L 1.286 183.011 L 1.671 181.804 L 2.106 180.627 L 2.581 179.47 L 3.095 178.333 L 3.659 177.226 L 4.272 176.148 L 4.915 175.09 L 5.607 174.061 L 6.329 173.062 L 7.09 172.093 L 7.891 171.164 L 8.732 170.254 L 9.602 169.384 L 10.502 168.543 L 11.441 167.742 L 12.41 166.981 L 13.409 166.259 L 14.438 165.567 L 15.496 164.924 L 16.573 164.321 L 17.681 163.757 L 18.818 163.233 L 19.975 162.758 L 21.152 162.323 L 22.358 161.938 L 23.575 161.601 L 24.821 161.315 L 26.077 161.077 L 26.917 160.959 L 26.947 160.761 L 27.184 159.505 L 27.471 158.259 L 27.807 157.043 L 28.193 155.836 L 28.618 154.66 L 29.093 153.503 L 29.617 152.365 L 30.18 151.258 L 30.784 150.18 L 31.436 149.122 L 32.119 148.093 L 32.85 147.095 L 33.612 146.126 L 34.413 145.196 L 35.243 144.286 L 36.114 143.416 L 37.023 142.585 L 37.963 141.784 L 38.932 141.013 L 39.921 140.291 L 40.949 139.599 L 42.007 138.956 L 43.095 138.353 L 44.203 137.789 L 45.33 137.265 L 46.487 136.791 L 47.674 136.356 L 48.87 135.98 L 50.096 135.644 L 51.332 135.347 L 52.588 135.11 L 53.864 134.932 L 55.159 134.793 L 56.465 134.714 L 57.79 134.684 L 59.115 134.714 L 60.42 134.793 L 61.706 134.932 L 62.991 135.11 L 64.247 135.347 L 65.483 135.644 L 66.709 135.98 L 67.906 136.356 L 69.092 136.791 L 70.249 137.265 L 71.377 137.789 L 72.484 138.353 L 73.572 138.956 L 74.63 139.599 L 75.649 140.291 L 76.598 140.974 L 77.053 140.271 L 77.785 139.263 L 78.566 138.294 L 79.397 137.374 L 80.277 136.494 L 81.196 135.663 L 82.165 134.882 L 83.174 134.15 L 83.362 134.032 L 83.006 133.33 L 82.502 132.183 L 82.057 130.996 L 81.671 129.78 L 81.354 128.543 L 81.107 127.278 L 80.919 125.982 L 80.811 124.677 L 80.781 123.342 L 80.811 122.017 L 80.919 120.702 L 81.107 119.416 L 81.354 118.15 L 81.671 116.904 L 82.057 115.698 L 82.502 114.511 L 83.006 113.354 L 83.57 112.237 L 84.193 111.149 L 84.875 110.101 L 85.607 109.092 L 86.388 108.133 L 87.219 107.204 L 88.099 106.324 L 89.018 105.493 L 89.987 104.712 L 90.996 103.98 L 92.044 103.307 L 93.122 102.684 L 94.249 102.121 L 95.396 101.607 L 96.583 101.162 L 97.799 100.786 L 99.036 100.469 L 100.301 100.212 L 101.597 100.034 L 102.902 99.926 L 104.237 99.886 L 105.562 99.926 L 106.877 100.034 L 107.154 100.074 L 107.342 99.461 L 107.787 98.284 L 108.291 97.127 L 108.855 96.01 L 109.478 94.922 L 110.16 93.874 L 110.892 92.865 L 111.673 91.906 L 112.504 90.976 L 113.384 90.096 L 114.304 89.265 L 114.442 89.157 L 114.096 88.998 L 112.989 88.435 L 111.911 87.822 L 110.853 87.179 L 109.824 86.497 L 108.825 85.765 L 107.856 85.003 L 106.927 84.202 L 106.017 83.362 L 105.147 82.492 L 104.316 81.592 L 103.515 80.652 L 102.744 79.683 L 102.022 78.685 L 101.33 77.656 L 100.687 76.608 L 100.084 75.52 L 99.52 74.413 L 98.996 73.275 L 98.521 72.118 L 98.086 70.942 L 97.71 69.745 L 97.374 68.519 L 97.087 67.283 L 96.84 66.017 L 96.662 64.741 L 96.524 63.456 L 96.445 62.141 L 96.415 60.826 L 96.445 59.5 L 96.524 58.195 L 96.662 56.9 L 96.84 55.624 L 97.087 54.368 L 97.374 53.122 L 97.71 51.906 L 98.086 50.699 L 98.521 49.523 L 98.996 48.366 L 99.52 47.229 L 100.084 46.121 L 100.687 45.043 L 101.33 43.985 L 102.022 42.957 L 102.744 41.958 L 103.515 40.989 L 104.316 40.059 L 105.147 39.149 L 106.017 38.279 L 106.927 37.449 L 107.856 36.648 L 108.825 35.876 L 109.824 35.154 L 110.853 34.462 L 111.911 33.819 L 112.989 33.216 L 114.096 32.653 L 115.233 32.128 L 116.39 31.654 L 117.567 31.219 L 118.773 30.843 L 119.99 30.507 L 121.236 30.22 L 122.492 29.973 L 123.767 29.795 L 125.063 29.656 L 126.368 29.577 L 127.693 29.547 L 129.008 29.577 L 130.323 29.656 L 131.609 29.795 L 132.885 29.973 L 134.15 30.22 L 134.2 30.23 L 134.21 29.953 L 134.289 28.648 L 134.427 27.352 L 134.605 26.077 L 134.852 24.821 L 135.139 23.575 L 135.475 22.358 L 135.851 21.162 L 136.286 19.975 L 136.761 18.818 L 137.285 17.691 L 137.849 16.583 L 138.452 15.496 L 139.095 14.438 L 139.787 13.409 L 140.509 12.41 L 141.28 11.451 L 142.081 10.512 L 142.912 9.602 L 143.782 8.732 L 144.692 7.901 L 145.621 7.1 L 146.59 6.329 L 147.589 5.607 L 148.618 4.925 L 149.676 4.272 L 150.754 3.669 L 151.861 3.105 L 152.998 2.581 L 154.155 2.106 L 155.332 1.681 L 156.538 1.295 L 157.755 0.959 L 159.001 0.672 L 160.257 0.435 L 161.532 0.247 L 162.828 0.109 L 164.133 0.03 L 165.458 0 L 166.773 0.03 L 168.088 0.109 Z  M 74.482 221.171 L 73.018 221.804 L 71.634 222.476 L 70.319 223.179 L 69.092 223.93 L 67.936 224.711 L 66.858 225.542 L 65.859 226.402 L 64.939 227.302 L 64.099 228.242 L 63.337 229.211 L 62.645 230.229 L 62.032 231.277 L 61.498 232.375 L 61.043 233.502 L 60.667 234.669 L 60.371 235.876 L 60.143 237.122 L 59.995 238.397 L 59.936 239.722 L 59.936 241.077 L 60.025 242.471 L 60.193 243.905 L 60.43 245.379 L 60.756 246.892 L 61.152 248.444 L 61.627 250.036 L 62.18 251.658 L 62.803 253.319 L 63.515 255.02 L 64.296 256.761 L 65.097 258.501 L 65.859 260.182 L 66.581 261.824 L 67.253 263.416 L 67.886 264.948 L 68.469 266.442 L 69.013 267.876 L 69.518 269.27 L 69.973 270.615 L 70.388 271.9 L 70.764 273.146 L 71.09 274.343 L 71.377 275.49 L 71.624 276.587 L 71.832 277.626 L 71.99 278.625 L 72.099 279.574 L 72.178 280.474 L 72.207 281.324 L 72.188 282.125 L 72.138 282.877 L 72.039 283.579 L 71.891 284.231 L 71.713 284.835 L 71.486 285.388 L 71.209 285.893 L 70.902 286.358 L 70.546 286.763 L 70.141 287.119 L 69.706 287.426 L 69.221 287.693 L 68.687 287.9 L 70.309 287.346 L 71.851 286.753 L 73.315 286.12 L 74.699 285.448 L 76.005 284.736 L 77.241 283.994 L 78.388 283.203 L 79.466 282.382 L 80.465 281.522 L 81.384 280.622 L 82.235 279.683 L 82.996 278.704 L 83.688 277.695 L 84.291 276.637 L 84.825 275.549 L 85.28 274.422 L 85.656 273.255 L 85.963 272.049 L 86.18 270.803 L 86.329 269.517 L 86.398 268.202 L 86.388 266.847 L 86.299 265.443 L 86.141 264.009 L 85.893 262.536 L 85.577 261.023 L 85.181 259.48 L 84.707 257.888 L 84.153 256.266 L 83.52 254.595 L 82.818 252.894 L 82.027 251.154 L 81.226 249.423 L 80.465 247.732 L 79.753 246.101 L 79.08 244.508 L 78.447 242.966 L 77.864 241.483 L 77.32 240.039 L 76.816 238.654 L 76.351 237.309 L 75.935 236.014 L 75.57 234.768 L 75.233 233.581 L 74.947 232.434 L 74.699 231.337 L 74.502 230.289 L 74.343 229.29 L 74.225 228.34 L 74.156 227.441 L 74.126 226.6 L 74.136 225.799 L 74.195 225.047 L 74.294 224.335 L 74.432 223.683 L 74.62 223.08 L 74.848 222.526 L 75.115 222.022 L 75.431 221.567 L 75.787 221.161 L 76.183 220.805 L 76.628 220.489 L 77.112 220.232 L 77.636 220.024 L 76.015 220.578 L 74.482 221.171 Z  M 109.933 209.947 L 108.469 210.58 L 107.085 211.253 L 105.78 211.965 L 104.553 212.706 L 103.396 213.497 L 102.319 214.318 L 101.32 215.179 L 100.4 216.078 L 99.56 217.018 L 98.788 217.997 L 98.106 219.005 L 97.493 220.064 L 96.959 221.151 L 96.504 222.279 L 96.128 223.446 L 95.822 224.652 L 95.604 225.898 L 95.456 227.174 L 95.387 228.499 L 95.396 229.853 L 95.485 231.258 L 95.654 232.691 L 95.891 234.165 L 96.217 235.668 L 96.613 237.22 L 97.087 238.813 L 97.641 240.434 L 98.264 242.106 L 98.976 243.806 L 99.757 245.547 L 100.558 247.277 L 101.32 248.968 L 102.032 250.6 L 102.714 252.192 L 103.337 253.725 L 103.93 255.218 L 104.474 256.662 L 104.979 258.046 L 105.434 259.391 L 105.849 260.686 L 106.225 261.923 L 106.551 263.119 L 106.838 264.266 L 107.085 265.364 L 107.283 266.412 L 107.441 267.411 L 107.56 268.35 L 107.629 269.25 L 107.658 270.1 L 107.649 270.901 L 107.599 271.653 L 107.5 272.355 L 107.352 273.008 L 107.174 273.611 L 106.947 274.175 L 106.67 274.679 L 106.363 275.134 L 106.007 275.539 L 105.602 275.895 L 105.167 276.202 L 104.682 276.469 L 104.148 276.676 L 105.77 276.123 L 107.312 275.529 L 108.776 274.897 L 110.16 274.224 L 111.466 273.512 L 112.702 272.77 L 113.849 271.989 L 114.927 271.159 L 115.925 270.298 L 116.845 269.398 L 117.686 268.459 L 118.457 267.49 L 119.139 266.471 L 119.752 265.423 L 120.286 264.325 L 120.741 263.198 L 121.117 262.031 L 121.424 260.825 L 121.641 259.579 L 121.789 258.303 L 121.859 256.978 L 121.849 255.623 L 121.76 254.229 L 121.592 252.785 L 121.354 251.312 L 121.038 249.809 L 120.632 248.256 L 120.158 246.664 L 119.614 245.042 L 118.981 243.381 L 118.269 241.67 L 117.488 239.93 L 116.687 238.199 L 115.925 236.509 L 115.213 234.877 L 114.541 233.285 L 113.908 231.752 L 113.315 230.259 L 112.771 228.815 L 112.277 227.431 L 111.812 226.086 L 111.396 224.79 L 111.021 223.554 L 110.694 222.358 L 110.408 221.211 L 110.16 220.113 L 109.963 219.065 L 109.804 218.076 L 109.686 217.127 L 109.616 216.227 L 109.587 215.376 L 109.597 214.575 L 109.656 213.824 L 109.755 213.122 L 109.893 212.469 L 110.071 211.866 L 110.299 211.312 L 110.576 210.798 L 110.882 210.343 L 111.238 209.938 L 111.644 209.582 L 112.089 209.275 L 112.573 209.008 L 113.097 208.8 L 111.476 209.354 L 109.933 209.947 Z  M 145.354 198.654 L 143.901 199.287 L 142.506 199.95 L 141.201 200.662 L 139.975 201.413 L 138.818 202.195 L 137.74 203.015 L 136.741 203.876 L 135.822 204.776 L 134.981 205.715 L 134.21 206.694 L 133.527 207.703 L 132.914 208.761 L 132.38 209.849 L 131.925 210.976 L 131.55 212.143 L 131.253 213.349 L 131.026 214.595 L 130.877 215.881 L 130.808 217.196 L 130.818 218.56 L 130.907 219.955 L 131.075 221.389 L 131.312 222.862 L 131.639 224.375 L 132.034 225.928 L 132.509 227.51 L 133.063 229.141 L 133.686 230.803 L 134.398 232.504 L 135.179 234.244 L 135.98 235.984 L 136.741 237.665 L 137.463 239.307 L 138.136 240.889 L 138.759 242.432 L 139.352 243.915 L 139.896 245.359 L 140.4 246.753 L 140.855 248.088 L 141.27 249.384 L 141.646 250.63 L 141.972 251.826 L 142.259 252.963 L 142.506 254.061 L 142.704 255.109 L 142.862 256.108 L 142.981 257.057 L 143.06 257.957 L 143.09 258.808 L 143.07 259.609 L 143.021 260.36 L 142.922 261.062 L 142.773 261.715 L 142.595 262.318 L 142.368 262.872 L 142.091 263.376 L 141.784 263.831 L 141.428 264.236 L 141.023 264.602 L 140.588 264.909 L 140.103 265.166 L 139.569 265.374 L 141.191 264.82 L 142.734 264.227 L 144.197 263.594 L 145.582 262.921 L 146.887 262.219 L 148.123 261.468 L 149.27 260.686 L 150.348 259.866 L 151.347 259.005 L 152.267 258.105 L 153.107 257.166 L 153.878 256.187 L 154.561 255.169 L 155.174 254.12 L 155.708 253.033 L 156.163 251.895 L 156.538 250.728 L 156.845 249.522 L 157.063 248.286 L 157.211 247 L 157.28 245.685 L 157.27 244.321 L 157.181 242.926 L 157.013 241.492 L 156.776 240.019 L 156.459 238.506 L 156.054 236.954 L 155.579 235.371 L 155.035 233.74 L 154.402 232.078 L 153.69 230.378 L 152.909 228.637 L 152.108 226.897 L 151.347 225.216 L 150.635 223.574 L 149.962 221.992 L 149.33 220.449 L 148.736 218.956 L 148.192 217.522 L 147.698 216.128 L 147.233 214.783 L 146.818 213.497 L 146.442 212.251 L 146.116 211.055 L 145.829 209.908 L 145.582 208.82 L 145.384 207.772 L 145.226 206.773 L 145.107 205.824 L 145.038 204.924 L 145.008 204.074 L 145.018 203.273 L 145.077 202.521 L 145.176 201.819 L 145.315 201.166 L 145.503 200.563 L 145.73 200.009 L 145.997 199.505 L 146.313 199.05 L 146.669 198.635 L 147.065 198.279 L 147.51 197.972 L 147.995 197.715 L 148.519 197.498 L 146.897 198.061 L 145.354 198.654 Z  M 180.855 187.51 L 179.391 188.143 L 178.007 188.805 L 176.692 189.517 L 175.465 190.269 L 174.308 191.05 L 173.24 191.871 L 172.242 192.731 L 171.322 193.631 L 170.472 194.57 L 169.71 195.549 L 169.018 196.568 L 168.415 197.616 L 167.881 198.704 L 167.426 199.841 L 167.04 201.008 L 166.744 202.214 L 166.516 203.451 L 166.378 204.736 L 166.308 206.051 L 166.318 207.416 L 166.407 208.81 L 166.566 210.244 L 166.813 211.717 L 167.129 213.23 L 167.525 214.783 L 167.999 216.365 L 168.553 217.997 L 169.186 219.658 L 169.888 221.359 L 170.679 223.099 L 171.48 224.84 L 172.232 226.521 L 172.954 228.162 L 173.626 229.745 L 174.259 231.287 L 174.842 232.771 L 175.386 234.214 L 175.891 235.609 L 176.346 236.944 L 176.771 238.239 L 177.137 239.485 L 177.473 240.682 L 177.76 241.829 L 177.997 242.916 L 178.205 243.965 L 178.363 244.963 L 178.482 245.913 L 178.551 246.813 L 178.58 247.663 L 178.571 248.464 L 178.511 249.216 L 178.412 249.918 L 178.274 250.57 L 178.086 251.173 L 177.859 251.727 L 177.592 252.232 L 177.275 252.686 L 176.919 253.102 L 176.524 253.458 L 176.079 253.764 L 175.594 254.021 L 175.07 254.239 L 176.682 253.675 L 178.224 253.082 L 179.688 252.449 L 181.072 251.787 L 182.388 251.075 L 183.614 250.323 L 184.771 249.542 L 185.839 248.721 L 186.837 247.861 L 187.767 246.961 L 188.608 246.021 L 189.369 245.042 L 190.061 244.024 L 190.674 242.976 L 191.198 241.888 L 191.663 240.761 L 192.039 239.584 L 192.336 238.387 L 192.563 237.141 L 192.701 235.856 L 192.771 234.541 L 192.761 233.176 L 192.682 231.782 L 192.514 230.348 L 192.266 228.874 L 191.95 227.361 L 191.554 225.809 L 191.08 224.227 L 190.526 222.595 L 189.893 220.934 L 189.191 219.233 L 188.4 217.493 L 187.599 215.752 L 186.847 214.071 L 186.125 212.429 L 185.453 210.847 L 184.82 209.305 L 184.237 207.821 L 183.693 206.378 L 183.189 204.983 L 182.734 203.648 L 182.318 202.353 L 181.943 201.107 L 181.606 199.91 L 181.32 198.773 L 181.082 197.676 L 180.875 196.627 L 180.716 195.629 L 180.608 194.679 L 180.528 193.779 L 180.499 192.929 L 180.509 192.128 L 180.568 191.376 L 180.667 190.674 L 180.805 190.022 L 180.993 189.418 L 181.221 188.865 L 181.488 188.36 L 181.804 187.905 L 182.16 187.5 L 182.556 187.134 L 183.001 186.828 L 183.485 186.57 L 184.009 186.363 L 182.397 186.917 L 180.855 187.51 Z  M 216.276 176.207 L 214.813 176.84 L 213.428 177.512 L 212.123 178.224 L 210.887 178.966 L 209.73 179.747 L 208.662 180.578 L 207.663 181.438 L 206.743 182.338 L 205.893 183.278 L 205.132 184.247 L 204.439 185.265 L 203.836 186.313 L 203.302 187.411 L 202.847 188.538 L 202.462 189.705 L 202.165 190.912 L 201.938 192.158 L 201.799 193.433 L 201.73 194.758 L 201.74 196.113 L 201.829 197.507 L 201.987 198.951 L 202.234 200.425 L 202.551 201.928 L 202.946 203.48 L 203.421 205.072 L 203.975 206.694 L 204.608 208.355 L 205.31 210.066 L 206.101 211.806 L 206.902 213.537 L 207.663 215.228 L 208.375 216.86 L 209.048 218.452 L 209.68 219.984 L 210.264 221.478 L 210.808 222.921 L 211.312 224.306 L 211.777 225.651 L 212.192 226.946 L 212.558 228.182 L 212.894 229.379 L 213.181 230.526 L 213.428 231.623 L 213.626 232.672 L 213.784 233.661 L 213.903 234.61 L 213.972 235.51 L 214.002 236.36 L 213.992 237.161 L 213.933 237.913 L 213.834 238.615 L 213.695 239.267 L 213.507 239.871 L 213.28 240.424 L 213.013 240.939 L 212.696 241.394 L 212.34 241.799 L 211.945 242.155 L 211.5 242.462 L 211.015 242.729 L 210.491 242.936 L 212.103 242.382 L 213.646 241.789 L 215.109 241.156 L 216.494 240.484 L 217.809 239.772 L 219.035 239.03 L 220.192 238.239 L 221.27 237.418 L 222.269 236.558 L 223.188 235.658 L 224.029 234.719 L 224.79 233.74 L 225.483 232.731 L 226.096 231.673 L 226.63 230.585 L 227.085 229.458 L 227.46 228.291 L 227.757 227.085 L 227.984 225.839 L 228.133 224.563 L 228.192 223.238 L 228.182 221.883 L 228.103 220.479 L 227.935 219.045 L 227.688 217.572 L 227.371 216.059 L 226.976 214.516 L 226.501 212.924 L 225.947 211.302 L 225.314 209.631 L 224.612 207.93 L 223.831 206.19 L 223.02 204.459 L 222.269 202.768 L 221.547 201.137 L 220.874 199.544 L 220.242 198.012 L 219.658 196.519 L 219.114 195.075 L 218.61 193.69 L 218.155 192.345 L 217.74 191.05 L 217.364 189.804 L 217.038 188.617 L 216.741 187.47 L 216.504 186.373 L 216.296 185.324 L 216.138 184.326 L 216.029 183.376 L 215.95 182.486 L 215.92 181.636 L 215.93 180.835 L 215.989 180.083 L 216.088 179.381 L 216.227 178.729 L 216.415 178.116 L 216.642 177.562 L 216.909 177.058 L 217.226 176.603 L 217.582 176.197 L 217.977 175.841 L 218.422 175.525 L 218.907 175.268 L 219.431 175.06 L 217.819 175.614 L 216.276 176.207 Z  M 251.767 165.063 L 250.303 165.695 L 248.919 166.368 L 247.614 167.08 L 246.387 167.821 L 245.23 168.613 L 244.152 169.433 L 243.154 170.294 L 242.234 171.194 L 241.394 172.133 L 240.622 173.102 L 239.94 174.121 L 239.327 175.179 L 238.793 176.266 L 238.338 177.394 L 237.962 178.561 L 237.656 179.767 L 237.438 181.013 L 237.29 182.289 L 237.22 183.614 L 237.23 184.969 L 237.319 186.373 L 237.487 187.807 L 237.725 189.28 L 238.051 190.783 L 238.447 192.336 L 238.921 193.928 L 239.475 195.549 L 240.098 197.211 L 240.81 198.921 L 241.591 200.662 L 242.392 202.392 L 243.154 204.083 L 243.866 205.715 L 244.548 207.307 L 245.171 208.84 L 245.764 210.333 L 246.308 211.777 L 246.813 213.161 L 247.267 214.506 L 247.683 215.802 L 248.059 217.038 L 248.385 218.234 L 248.672 219.381 L 248.919 220.479 L 249.117 221.527 L 249.275 222.526 L 249.394 223.465 L 249.463 224.365 L 249.502 225.216 L 249.483 226.017 L 249.433 226.768 L 249.334 227.47 L 249.186 228.123 L 249.008 228.726 L 248.78 229.29 L 248.504 229.794 L 248.197 230.249 L 247.841 230.654 L 247.436 231.01 L 247 231.317 L 246.516 231.584 L 245.982 231.792 L 247.604 231.238 L 249.146 230.645 L 250.61 230.012 L 251.994 229.339 L 253.3 228.627 L 254.536 227.886 L 255.683 227.094 L 256.761 226.274 L 257.759 225.413 L 258.679 224.513 L 259.52 223.574 L 260.291 222.605 L 260.973 221.586 L 261.586 220.538 L 262.12 219.441 L 262.575 218.313 L 262.951 217.146 L 263.257 215.94 L 263.475 214.694 L 263.623 213.418 L 263.693 212.093 L 263.683 210.739 L 263.594 209.334 L 263.426 207.9 L 263.188 206.427 L 262.872 204.924 L 262.466 203.371 L 261.992 201.779 L 261.448 200.158 L 260.815 198.496 L 260.103 196.786 L 259.322 195.045 L 258.521 193.315 L 257.759 191.624 L 257.047 189.992 L 256.375 188.4 L 255.742 186.867 L 255.149 185.374 L 254.605 183.93 L 254.11 182.546 L 253.646 181.201 L 253.23 179.905 L 252.855 178.669 L 252.528 177.473 L 252.241 176.326 L 251.994 175.228 L 251.796 174.18 L 251.638 173.181 L 251.52 172.242 L 251.45 171.342 L 251.421 170.491 L 251.431 169.69 L 251.49 168.939 L 251.589 168.237 L 251.727 167.584 L 251.915 166.981 L 252.143 166.417 L 252.41 165.913 L 252.726 165.458 L 253.082 165.053 L 253.478 164.697 L 253.923 164.39 L 254.407 164.123 L 254.931 163.915 L 253.309 164.469 L 251.767 165.063 Z  M 287.198 153.77 L 285.735 154.402 L 284.34 155.065 L 283.035 155.777 L 281.809 156.529 L 280.652 157.31 L 279.574 158.131 L 278.575 158.991 L 277.655 159.891 L 276.815 160.83 L 276.044 161.809 L 275.361 162.818 L 274.748 163.876 L 274.214 164.964 L 273.759 166.091 L 273.384 167.258 L 273.087 168.464 L 272.859 169.71 L 272.711 170.996 L 272.642 172.311 L 272.652 173.676 L 272.741 175.07 L 272.909 176.504 L 273.146 177.977 L 273.473 179.49 L 273.868 181.043 L 274.343 182.625 L 274.897 184.257 L 275.52 185.918 L 276.231 187.619 L 277.013 189.359 L 277.814 191.1 L 278.575 192.781 L 279.297 194.422 L 279.969 196.004 L 280.592 197.547 L 281.186 199.03 L 281.73 200.474 L 282.234 201.868 L 282.689 203.203 L 283.104 204.499 L 283.48 205.745 L 283.806 206.941 L 284.093 208.078 L 284.34 209.176 L 284.538 210.224 L 284.696 211.223 L 284.815 212.172 L 284.894 213.072 L 284.924 213.923 L 284.904 214.724 L 284.854 215.475 L 284.756 216.177 L 284.607 216.83 L 284.429 217.433 L 284.202 217.987 L 283.925 218.491 L 283.618 218.946 L 283.262 219.352 L 282.857 219.717 L 282.422 220.024 L 281.937 220.281 L 281.403 220.489 L 283.025 219.935 L 284.568 219.342 L 286.031 218.709 L 287.416 218.036 L 288.721 217.334 L 289.957 216.583 L 291.104 215.802 L 292.182 214.981 L 293.181 214.111 L 294.1 213.221 L 294.941 212.281 L 295.712 211.302 L 296.395 210.284 L 297.008 209.235 L 297.542 208.148 L 297.997 207.01 L 298.372 205.844 L 298.679 204.637 L 298.896 203.401 L 299.045 202.116 L 299.114 200.79 L 299.104 199.436 L 299.015 198.041 L 298.847 196.608 L 298.61 195.134 L 298.293 193.621 L 297.898 192.069 L 297.423 190.486 L 296.869 188.855 L 296.236 187.193 L 295.524 185.493 L 294.743 183.752 L 293.942 182.012 L 293.181 180.331 L 292.469 178.689 L 291.796 177.107 L 291.163 175.564 L 290.57 174.071 L 290.026 172.637 L 289.532 171.243 L 289.067 169.898 L 288.652 168.613 L 288.276 167.367 L 287.95 166.17 L 287.663 165.023 L 287.416 163.935 L 287.218 162.887 L 287.06 161.888 L 286.941 160.939 L 286.872 160.039 L 286.842 159.189 L 286.852 158.388 L 286.911 157.636 L 287.01 156.934 L 287.149 156.281 L 287.337 155.678 L 287.564 155.124 L 287.831 154.62 L 288.147 154.165 L 288.503 153.75 L 288.899 153.394 L 289.344 153.087 L 289.828 152.83 L 290.353 152.613 L 288.731 153.176 L 287.198 153.77 Z  M 322.689 142.625 L 321.225 143.258 L 319.841 143.92 L 318.535 144.632 L 317.299 145.384 L 316.142 146.165 L 315.074 146.986 L 314.076 147.846 L 313.156 148.746 L 312.306 149.686 L 311.544 150.665 L 310.852 151.683 L 310.249 152.731 L 309.715 153.819 L 309.26 154.956 L 308.874 156.123 L 308.578 157.32 L 308.35 158.566 L 308.212 159.851 L 308.142 161.166 L 308.152 162.531 L 308.241 163.925 L 308.4 165.359 L 308.647 166.833 L 308.963 168.346 L 309.359 169.898 L 309.833 171.48 L 310.387 173.112 L 311.02 174.773 L 311.722 176.474 L 312.513 178.215 L 313.314 179.955 L 314.076 181.636 L 314.788 183.278 L 315.46 184.86 L 316.093 186.402 L 316.676 187.886 L 317.22 189.329 L 317.725 190.724 L 318.189 192.059 L 318.605 193.354 L 318.971 194.6 L 319.307 195.797 L 319.594 196.934 L 319.831 198.032 L 320.039 199.08 L 320.197 200.078 L 320.315 201.028 L 320.385 201.928 L 320.414 202.778 L 320.404 203.579 L 320.345 204.331 L 320.246 205.033 L 320.108 205.685 L 319.92 206.289 L 319.692 206.842 L 319.425 207.347 L 319.109 207.802 L 318.753 208.217 L 318.357 208.573 L 317.912 208.879 L 317.428 209.137 L 316.904 209.354 L 318.516 208.79 L 320.058 208.197 L 321.522 207.564 L 322.906 206.902 L 324.221 206.19 L 325.448 205.438 L 326.605 204.657 L 327.683 203.836 L 328.671 202.976 L 329.601 202.076 L 330.441 201.137 L 331.203 200.158 L 331.895 199.139 L 332.508 198.091 L 333.042 197.003 L 333.497 195.866 L 333.873 194.699 L 334.17 193.502 L 334.397 192.256 L 334.535 190.971 L 334.605 189.656 L 334.595 188.291 L 334.516 186.897 L 334.348 185.463 L 334.1 183.99 L 333.784 182.477 L 333.388 180.924 L 332.914 179.342 L 332.36 177.71 L 331.727 176.049 L 331.025 174.348 L 330.244 172.608 L 329.433 170.867 L 328.681 169.186 L 327.959 167.545 L 327.287 165.962 L 326.654 164.42 L 326.071 162.936 L 325.527 161.493 L 325.022 160.098 L 324.568 158.763 L 324.152 157.468 L 323.776 156.222 L 323.44 155.025 L 323.153 153.888 L 322.916 152.791 L 322.708 151.742 L 322.55 150.744 L 322.441 149.794 L 322.362 148.894 L 322.333 148.044 L 322.343 147.243 L 322.402 146.491 L 322.501 145.789 L 322.639 145.137 L 322.827 144.534 L 323.055 143.98 L 323.322 143.475 L 323.638 143.021 L 323.994 142.605 L 324.39 142.249 L 324.835 141.943 L 325.319 141.686 L 325.843 141.468 L 324.231 142.032 L 322.689 142.625 Z  M 358.11 131.322 L 356.647 131.955 L 355.262 132.628 L 353.957 133.339 L 352.721 134.081 L 351.574 134.862 L 350.496 135.693 L 349.497 136.553 L 348.577 137.453 L 347.727 138.393 L 346.966 139.362 L 346.273 140.38 L 345.67 141.428 L 345.136 142.526 L 344.681 143.653 L 344.296 144.82 L 343.999 146.027 L 343.781 147.273 L 343.633 148.548 L 343.564 149.873 L 343.574 151.228 L 343.663 152.623 L 343.821 154.066 L 344.068 155.54 L 344.385 157.043 L 344.78 158.595 L 345.255 160.187 L 345.809 161.809 L 346.441 163.47 L 347.144 165.181 L 347.935 166.922 L 348.736 168.652 L 349.497 170.343 L 350.209 171.975 L 350.881 173.567 L 351.514 175.1 L 352.098 176.593 L 352.642 178.037 L 353.146 179.421 L 353.611 180.766 L 354.026 182.061 L 354.392 183.297 L 354.728 184.494 L 355.015 185.641 L 355.262 186.739 L 355.46 187.787 L 355.618 188.776 L 355.737 189.725 L 355.806 190.625 L 355.836 191.475 L 355.826 192.276 L 355.766 193.028 L 355.668 193.73 L 355.529 194.383 L 355.341 194.986 L 355.114 195.54 L 354.847 196.054 L 354.53 196.509 L 354.174 196.914 L 353.779 197.27 L 353.334 197.577 L 352.849 197.844 L 352.325 198.051 L 353.937 197.498 L 355.48 196.904 L 356.943 196.271 L 358.328 195.599 L 359.643 194.887 L 360.869 194.145 L 362.026 193.354 L 363.104 192.533 L 364.103 191.673 L 365.022 190.773 L 365.863 189.834 L 366.624 188.855 L 367.316 187.846 L 367.93 186.788 L 368.464 185.7 L 368.918 184.573 L 369.294 183.406 L 369.591 182.2 L 369.818 180.954 L 369.967 179.668 L 370.026 178.353 L 370.016 176.998 L 369.937 175.594 L 369.769 174.16 L 369.532 172.687 L 369.205 171.174 L 368.81 169.631 L 368.335 168.039 L 367.781 166.417 L 367.148 164.746 L 366.446 163.045 L 365.665 161.305 L 364.854 159.574 L 364.103 157.883 L 363.381 156.252 L 362.708 154.66 L 362.075 153.127 L 361.492 151.634 L 360.948 150.19 L 360.444 148.805 L 359.989 147.461 L 359.574 146.165 L 359.198 144.919 L 358.872 143.733 L 358.575 142.585 L 358.338 141.488 L 358.13 140.44 L 357.972 139.441 L 357.863 138.492 L 357.784 137.602 L 357.754 136.751 L 357.774 135.95 L 357.823 135.199 L 357.922 134.496 L 358.061 133.844 L 358.249 133.231 L 358.476 132.677 L 358.743 132.173 L 359.059 131.718 L 359.415 131.312 L 359.811 130.956 L 360.256 130.64 L 360.74 130.383 L 361.274 130.175 L 359.653 130.729 L 358.11 131.322 Z  M 393.789 120.029 L 392.325 120.662 L 390.941 121.335 L 389.635 122.047 L 388.399 122.788 L 387.252 123.579 L 386.174 124.4 L 385.176 125.26 L 384.256 126.16 L 383.415 127.1 L 382.644 128.079 L 381.962 129.087 L 381.349 130.145 L 380.815 131.233 L 380.36 132.361 L 379.984 133.527 L 379.677 134.734 L 379.46 135.98 L 379.312 137.255 L 379.242 138.581 L 379.252 139.935 L 379.341 141.339 L 379.509 142.773 L 379.747 144.247 L 380.063 145.76 L 380.459 147.302 L 380.933 148.894 L 381.487 150.516 L 382.12 152.187 L 382.832 153.888 L 383.613 155.629 L 384.414 157.359 L 385.176 159.05 L 385.888 160.682 L 386.56 162.274 L 387.193 163.807 L 387.786 165.3 L 388.33 166.744 L 388.824 168.128 L 389.289 169.473 L 389.705 170.768 L 390.08 172.004 L 390.407 173.201 L 390.693 174.348 L 390.941 175.446 L 391.138 176.494 L 391.297 177.493 L 391.415 178.432 L 391.485 179.332 L 391.514 180.182 L 391.504 180.983 L 391.445 181.735 L 391.346 182.437 L 391.208 183.09 L 391.02 183.693 L 390.792 184.257 L 390.525 184.761 L 390.209 185.216 L 389.853 185.621 L 389.457 185.977 L 389.012 186.294 L 388.528 186.551 L 388.004 186.758 L 389.625 186.205 L 391.158 185.611 L 392.622 184.978 L 394.016 184.306 L 395.321 183.594 L 396.548 182.852 L 397.705 182.071 L 398.782 181.24 L 399.781 180.38 L 400.701 179.48 L 401.541 178.541 L 402.313 177.572 L 402.995 176.553 L 403.608 175.505 L 404.142 174.407 L 404.597 173.28 L 404.973 172.113 L 405.269 170.907 L 405.497 169.661 L 405.645 168.385 L 405.714 167.06 L 405.705 165.705 L 405.616 164.311 L 405.447 162.867 L 405.21 161.394 L 404.884 159.891 L 404.488 158.338 L 404.014 156.746 L 403.46 155.124 L 402.837 153.463 L 402.125 151.752 L 401.344 150.012 L 400.543 148.281 L 399.781 146.59 L 399.059 144.959 L 398.387 143.367 L 397.764 141.834 L 397.171 140.341 L 396.627 138.897 L 396.122 137.513 L 395.667 136.168 L 395.252 134.872 L 394.876 133.636 L 394.55 132.44 L 394.263 131.293 L 394.016 130.195 L 393.818 129.147 L 393.66 128.158 L 393.541 127.208 L 393.462 126.309 L 393.433 125.458 L 393.452 124.657 L 393.502 123.906 L 393.601 123.204 L 393.749 122.551 L 393.927 121.948 L 394.154 121.394 L 394.431 120.88 L 394.738 120.425 L 395.094 120.019 L 395.499 119.663 L 395.934 119.357 L 396.419 119.09 L 396.953 118.882 L 395.331 119.436 L 393.789 120.029 Z  M 130.155 138.759 L 130.867 139.372 L 131.579 139.975 L 132.281 140.588 L 132.984 141.201 L 133.676 141.824 L 134.368 142.437 L 135.05 143.06 L 135.733 143.673 L 136.415 144.296 L 137.087 144.919 L 137.76 145.542 L 138.432 146.175 L 139.095 146.798 L 139.747 147.431 L 140.4 148.064 L 141.053 148.697 L 141.695 149.33 L 142.338 149.972 L 142.981 150.605 L 143.614 151.248 L 144.247 151.891 L 144.87 152.534 L 145.493 153.176 L 146.106 153.819 L 146.719 154.472 L 147.332 155.124 L 147.935 155.777 L 148.538 156.43 L 149.132 157.082 L 149.725 157.735 L 150.309 158.398 L 150.892 159.06 L 151.475 159.723 L 152.049 160.385 L 152.623 161.048 L 153.186 161.71 L 153.75 162.383 L 154.313 163.045 L 154.867 163.718 L 155.431 164.41 L 156.004 165.122 L 156.608 165.873 L 157.211 166.655 L 157.844 167.456 L 158.487 168.296 L 159.149 169.166 L 159.831 170.066 L 160.524 170.996 L 161.236 171.955 L 161.967 172.944 L 162.709 173.962 L 163.47 175.011 L 164.252 176.098 L 165.053 177.206 L 165.863 178.343 L 166.071 178.63 L 166.328 178.412 L 167.327 177.671 L 168.355 176.959 L 169.414 176.306 L 170.511 175.703 L 171.639 175.139 L 172.786 174.635 L 173.972 174.19 L 175.179 173.784 L 176.415 173.448 L 177.661 173.171 L 178.946 172.944 L 180.242 172.786 L 181.557 172.687 L 181.992 172.677 L 181.903 172.528 L 181.151 171.213 L 180.4 169.918 L 179.658 168.642 L 178.917 167.386 L 178.195 166.15 L 177.463 164.944 L 176.751 163.767 L 176.039 162.6 L 175.337 161.463 L 174.645 160.346 L 173.952 159.248 L 173.27 158.18 L 172.598 157.132 L 171.935 156.103 L 171.273 155.105 L 170.62 154.126 L 169.967 153.166 L 169.325 152.217 L 168.672 151.278 L 168.019 150.348 L 167.367 149.409 L 166.704 148.489 L 166.032 147.559 L 165.359 146.65 L 164.687 145.73 L 164.014 144.82 L 163.332 143.92 L 162.64 143.021 L 161.948 142.121 L 161.255 141.231 L 160.553 140.341 L 159.851 139.461 L 159.139 138.581 L 158.427 137.71 L 157.715 136.84 L 156.993 135.97 L 156.271 135.11 L 155.54 134.249 L 154.808 133.399 L 154.076 132.548 L 153.334 131.708 L 152.583 130.867 L 151.831 130.037 L 151.08 129.206 L 150.328 128.375 L 149.567 127.555 L 148.796 126.734 L 148.024 125.923 L 147.253 125.112 L 146.472 124.311 L 145.691 123.51 L 144.909 122.719 L 144.118 121.928 L 143.317 121.137 L 142.516 120.356 L 141.715 119.574 L 140.914 118.803 L 129.443 138.155 L 130.155 138.759 Z  M 143.693 57.453 L 144 58.403 L 144.296 59.352 L 144.593 60.301 L 144.88 61.241 L 145.166 62.18 L 145.443 63.11 L 145.73 64.049 L 145.997 64.979 L 146.274 65.898 L 146.541 66.828 L 146.798 67.748 L 147.065 68.657 L 147.312 69.577 L 147.569 70.487 L 147.817 71.387 L 148.054 72.296 L 148.301 73.196 L 148.529 74.096 L 148.766 74.986 L 148.993 75.876 L 149.221 76.766 L 149.438 77.646 L 149.656 78.526 L 149.864 79.406 L 150.071 80.287 L 150.279 81.157 L 150.477 82.027 L 150.674 82.887 L 150.862 83.748 L 151.05 84.608 L 151.238 85.468 L 151.416 86.319 L 151.594 87.169 L 151.772 88.019 L 151.94 88.86 L 152.108 89.701 L 152.267 90.531 L 152.425 91.372 L 152.573 92.202 L 152.731 93.023 L 152.87 93.854 L 153.018 94.675 L 153.156 95.485 L 153.285 96.306 L 153.414 97.117 L 153.542 97.918 L 153.661 98.729 L 153.779 99.53 L 153.898 100.321 L 154.007 101.122 L 154.116 101.913 L 154.215 102.704 L 154.313 103.485 L 154.412 104.267 L 154.501 105.048 L 154.59 105.829 L 154.669 106.6 L 154.749 107.372 L 154.828 108.133 L 154.897 108.895 L 154.966 109.656 L 155.035 110.417 L 155.095 111.169 L 155.144 111.921 L 155.203 112.662 L 155.243 113.414 L 165.943 107.866 L 165.972 107.906 L 166.655 109.102 L 167.337 110.299 L 168.019 111.505 L 168.702 112.722 L 169.374 113.948 L 170.056 115.184 L 170.729 116.43 L 171.401 117.686 L 172.074 118.942 L 172.746 120.217 L 173.418 121.493 L 174.091 122.788 L 174.763 124.084 L 175.426 125.399 L 176.088 126.714 L 176.761 128.039 L 177.423 129.374 L 178.086 130.719 L 178.748 132.074 L 179.411 133.438 L 180.064 134.813 L 180.726 136.197 L 181.379 137.592 L 182.032 138.986 L 182.694 140.4 L 183.347 141.814 L 183.999 143.248 L 184.642 144.682 L 185.295 146.126 L 185.947 147.579 L 186.59 149.043 L 187.233 150.516 L 187.886 152 L 188.528 153.493 L 189.171 154.996 L 189.814 156.509 L 190.447 158.032 L 191.09 159.554 L 191.722 161.097 L 192.365 162.64 L 192.998 164.202 L 193.631 165.765 L 194.264 167.337 L 194.897 168.919 L 195.53 170.511 L 196.153 172.123 L 196.341 172.588 L 196.795 171.925 L 197.547 170.936 L 198.338 169.977 L 199.179 169.058 L 200.049 168.177 L 200.968 167.347 L 201.928 166.546 L 202.926 165.804 L 203.955 165.092 L 205.013 164.44 L 206.111 163.836 L 207.238 163.273 L 208.385 162.768 L 209.572 162.323 L 210.778 161.918 L 211.292 161.779 L 211.025 160.899 L 210.561 159.367 L 210.086 157.844 L 209.611 156.321 L 209.137 154.808 L 208.652 153.295 L 208.167 151.782 L 207.673 150.279 L 207.179 148.776 L 206.674 147.283 L 206.17 145.789 L 205.666 144.296 L 205.151 142.803 L 204.627 141.32 L 204.113 139.846 L 203.579 138.363 L 203.055 136.89 L 202.521 135.426 L 201.977 133.962 L 201.433 132.499 L 200.889 131.035 L 200.336 129.582 L 199.782 128.128 L 199.218 126.684 L 198.654 125.241 L 198.091 123.807 L 197.517 122.363 L 196.934 120.929 L 196.35 119.505 L 195.767 118.081 L 195.174 116.657 L 194.58 115.243 L 193.987 113.829 L 193.384 112.415 L 192.771 111.011 L 192.167 109.607 L 191.545 108.202 L 190.931 106.808 L 190.299 105.414 L 189.676 104.029 L 189.043 102.645 L 188.4 101.26 L 187.757 99.886 L 187.114 98.511 L 186.501 97.216 L 195.886 92.361 L 195.213 91.738 L 194.541 91.125 L 193.858 90.521 L 193.186 89.908 L 192.504 89.305 L 191.811 88.702 L 191.129 88.099 L 190.437 87.495 L 189.735 86.902 L 189.043 86.309 L 188.341 85.715 L 187.629 85.122 L 186.926 84.539 L 186.214 83.945 L 185.502 83.362 L 184.781 82.788 L 184.059 82.205 L 183.337 81.621 L 182.605 81.048 L 181.873 80.474 L 181.142 79.911 L 180.41 79.337 L 179.668 78.774 L 178.926 78.21 L 178.175 77.646 L 177.423 77.083 L 176.672 76.529 L 175.92 75.975 L 175.159 75.421 L 174.397 74.867 L 173.636 74.314 L 172.865 73.77 L 172.093 73.226 L 171.322 72.682 L 170.541 72.138 L 169.76 71.604 L 168.969 71.07 L 168.187 70.536 L 167.396 70.002 L 166.605 69.478 L 165.804 68.944 L 165.003 68.42 L 164.202 67.896 L 163.391 67.382 L 162.58 66.858 L 161.77 66.343 L 160.959 65.829 L 160.138 65.315 L 159.307 64.811 L 158.487 64.296 L 157.656 63.792 L 156.825 63.288 L 155.985 62.793 L 155.154 62.289 L 154.313 61.795 L 153.463 61.3 L 152.613 60.806 L 151.762 60.321 L 150.912 59.827 L 150.051 59.342 L 149.191 58.868 L 148.331 58.383 L 147.461 57.898 L 146.59 57.424 L 145.72 56.949 L 144.84 56.474 L 143.96 56.01 L 143.08 55.535 L 143.386 56.494 L 143.693 57.453 Z  M 205.705 85.122 L 206.12 86.2 L 206.536 87.278 L 206.951 88.366 L 207.357 89.463 L 207.762 90.581 L 208.158 91.698 L 208.553 92.825 L 208.939 93.963 L 209.334 95.1 L 209.72 96.257 L 210.096 97.424 L 210.472 98.6 L 210.847 99.777 L 211.213 100.974 L 211.579 102.18 L 211.945 103.387 L 212.301 104.603 L 212.657 105.839 L 213.003 107.075 L 213.349 108.321 L 213.695 109.577 L 214.041 110.843 L 214.378 112.128 L 214.704 113.404 L 215.04 114.699 L 215.357 116.005 L 215.683 117.32 L 215.999 118.645 L 216.316 119.97 L 216.622 121.315 L 216.929 122.67 L 217.235 124.024 L 217.532 125.389 L 217.829 126.773 L 218.125 128.158 L 218.412 129.552 L 218.699 130.956 L 218.976 132.38 L 219.253 133.804 L 219.53 135.238 L 219.797 136.682 L 220.064 138.126 L 220.321 139.589 L 220.588 141.063 L 220.835 142.546 L 221.092 144.029 L 221.339 145.532 L 221.586 147.035 L 221.824 148.558 L 222.061 150.081 L 222.289 151.614 L 222.526 153.166 L 222.743 154.719 L 222.971 156.281 L 223.188 157.854 L 223.406 159.436 L 223.614 161.028 L 223.643 161.295 L 223.703 161.305 L 224.958 161.582 L 226.195 161.918 L 227.401 162.323 L 228.578 162.768 L 229.735 163.273 L 230.091 163.451 L 230.536 162.65 L 231.198 161.582 L 231.9 160.553 L 232.652 159.564 L 233.443 158.605 L 234.284 157.686 L 235.154 156.805 L 236.073 155.975 L 236.657 155.49 L 236.657 155.451 L 236.588 153.967 L 236.518 152.504 L 236.449 151.05 L 236.37 149.616 L 236.291 148.202 L 236.212 146.798 L 236.123 145.414 L 236.034 144.039 L 235.935 142.684 L 235.846 141.349 L 235.747 140.024 L 235.638 138.719 L 235.53 137.433 L 235.421 136.158 L 235.312 134.902 L 235.193 133.666 L 235.075 132.44 L 234.946 131.223 L 234.818 130.007 L 234.679 128.791 L 234.541 127.564 L 234.392 126.348 L 234.244 125.122 L 234.086 123.896 L 233.928 122.66 L 233.759 121.433 L 233.591 120.197 L 233.413 118.961 L 233.235 117.725 L 233.047 116.489 L 232.85 115.253 L 232.652 114.007 L 232.454 112.761 L 232.246 111.515 L 232.029 110.269 L 231.811 109.023 L 231.594 107.767 L 231.366 106.521 L 231.129 105.265 L 230.892 104.01 L 230.645 102.744 L 230.397 101.488 L 230.14 100.222 L 229.883 98.966 L 229.626 97.701 L 229.349 96.425 L 229.082 95.159 L 228.795 93.884 L 228.509 92.618 L 228.222 91.342 L 227.925 90.066 L 227.628 88.781 L 227.322 87.505 L 227.015 86.22 L 226.699 84.934 L 226.373 83.649 L 226.046 82.363 L 205.29 84.064 L 205.705 85.122 Z  M 253.24 72.89 L 253.092 73.879 L 252.934 74.867 L 252.785 75.846 L 252.627 76.816 L 252.469 77.785 L 252.301 78.744 L 252.143 79.693 L 251.974 80.643 L 251.796 81.592 L 251.628 82.531 L 251.45 83.461 L 251.272 84.38 L 251.094 85.31 L 250.906 86.22 L 250.719 87.13 L 250.531 88.029 L 250.343 88.929 L 250.145 89.819 L 249.947 90.709 L 249.75 91.589 L 249.542 92.46 L 249.344 93.33 L 249.136 94.19 L 248.919 95.05 L 248.711 95.901 L 248.494 96.741 L 248.276 97.582 L 248.059 98.413 L 247.831 99.243 L 247.604 100.064 L 247.376 100.875 L 247.139 101.686 L 246.911 102.497 L 246.674 103.288 L 246.427 104.079 L 246.19 104.87 L 245.942 105.651 L 245.695 106.422 L 245.448 107.194 L 245.191 107.955 L 244.934 108.717 L 244.677 109.468 L 244.419 110.22 L 244.152 110.951 L 243.885 111.693 L 243.619 112.415 L 243.342 113.137 L 243.075 113.859 L 242.798 114.571 L 242.511 115.273 L 242.234 115.975 L 241.947 116.667 L 252.261 116.43 L 252.271 116.954 L 252.291 117.775 L 252.301 118.595 L 252.311 119.416 L 252.321 120.227 L 252.33 121.048 L 252.33 121.859 L 252.33 122.67 L 252.33 123.471 L 252.321 124.281 L 252.321 125.082 L 252.311 125.883 L 252.291 126.675 L 252.281 127.475 L 252.261 128.267 L 252.232 129.058 L 252.212 129.849 L 252.182 130.64 L 252.152 131.421 L 252.123 132.202 L 252.083 133.003 L 252.034 133.834 L 251.984 134.704 L 251.925 135.604 L 251.856 136.543 L 251.777 137.513 L 251.698 138.511 L 251.609 139.55 L 251.51 140.618 L 251.411 141.725 L 251.292 142.862 L 251.173 144.039 L 251.055 145.246 L 250.916 146.482 L 250.778 147.757 L 250.63 149.072 L 250.57 149.597 L 250.946 149.547 L 252.261 149.448 L 253.586 149.419 L 254.921 149.448 L 256.237 149.547 L 257.532 149.705 L 258.808 149.933 L 260.063 150.21 L 261.3 150.546 L 262.506 150.951 L 263.683 151.396 L 264.108 151.584 L 264.296 150.714 L 264.513 149.636 L 264.731 148.578 L 264.939 147.53 L 265.136 146.511 L 265.324 145.503 L 265.502 144.514 L 265.67 143.545 L 265.838 142.585 L 265.997 141.656 L 266.135 140.736 L 266.274 139.836 L 266.402 138.956 L 266.531 138.076 L 266.639 137.196 L 266.758 136.306 L 266.867 135.416 L 266.966 134.516 L 267.065 133.616 L 267.164 132.707 L 267.253 131.787 L 267.342 130.877 L 267.421 129.948 L 267.5 129.018 L 267.569 128.089 L 267.638 127.139 L 267.698 126.2 L 267.757 125.251 L 267.806 124.291 L 267.856 123.332 L 267.905 122.363 L 267.945 121.394 L 267.974 120.415 L 268.004 119.426 L 268.034 118.437 L 268.054 117.448 L 268.073 116.45 L 268.073 116.074 L 278.476 115.836 L 278.15 114.976 L 277.804 114.126 L 277.468 113.275 L 277.112 112.435 L 276.765 111.584 L 276.4 110.734 L 276.044 109.883 L 275.668 109.043 L 275.302 108.192 L 274.926 107.352 L 274.541 106.511 L 274.155 105.661 L 273.759 104.82 L 273.364 103.98 L 272.958 103.139 L 272.553 102.299 L 272.147 101.458 L 271.732 100.618 L 271.307 99.777 L 270.882 98.947 L 270.447 98.106 L 270.011 97.265 L 269.576 96.435 L 269.131 95.604 L 268.677 94.764 L 268.222 93.933 L 267.767 93.102 L 267.302 92.272 L 266.827 91.441 L 266.363 90.61 L 265.878 89.78 L 265.393 88.949 L 264.909 88.118 L 264.414 87.288 L 263.91 86.467 L 263.416 85.636 L 262.902 84.816 L 262.387 83.985 L 261.873 83.164 L 261.349 82.343 L 260.825 81.523 L 260.291 80.702 L 259.757 79.871 L 259.213 79.06 L 258.669 78.24 L 258.115 77.419 L 257.562 76.598 L 256.998 75.777 L 256.434 74.966 L 255.861 74.146 L 255.287 73.335 L 254.704 72.514 L 254.12 71.703 L 253.527 70.892 L 253.389 71.891 L 253.24 72.89 Z " fill="rgb(255,255,255)"/></g></g><path d=" M 396.89 266.971 L 396.89 266.971 Q 414.57 266.971 424.71 275.421 L 424.71 275.421 L 424.71 275.421 Q 434.85 283.871 434.85 298.691 L 434.85 298.691 L 434.85 298.691 Q 434.85 313.511 424.71 321.961 L 424.71 321.961 L 424.71 321.961 Q 414.57 330.411 396.89 330.411 L 396.89 330.411 L 374.4 330.411 L 374.4 357.971 L 361.4 357.971 L 361.4 266.971 L 396.89 266.971 Z  M 396.5 319.101 L 396.5 319.101 Q 408.85 319.101 415.35 313.836 L 415.35 313.836 L 415.35 313.836 Q 421.85 308.571 421.85 298.691 L 421.85 298.691 L 421.85 298.691 Q 421.85 288.811 415.35 283.546 L 415.35 283.546 L 415.35 283.546 Q 408.85 278.281 396.5 278.281 L 396.5 278.281 L 374.4 278.281 L 374.4 319.101 L 396.5 319.101 Z  M 495.95 359.011 L 495.95 359.011 Q 482.3 359.011 471.315 352.966 L 471.315 352.966 L 471.315 352.966 Q 460.33 346.921 454.09 336.326 L 454.09 336.326 L 454.09 336.326 Q 447.85 325.731 447.85 312.471 L 447.85 312.471 L 447.85 312.471 Q 447.85 299.211 454.09 288.616 L 454.09 288.616 L 454.09 288.616 Q 460.33 278.021 471.38 271.976 L 471.38 271.976 L 471.38 271.976 Q 482.43 265.931 496.08 265.931 L 496.08 265.931 L 496.08 265.931 Q 506.74 265.931 515.58 269.506 L 515.58 269.506 L 515.58 269.506 Q 524.42 273.081 530.66 280.101 L 530.66 280.101 L 522.21 288.291 L 522.21 288.291 Q 511.94 277.501 496.6 277.501 L 496.6 277.501 L 496.6 277.501 Q 486.46 277.501 478.27 282.051 L 478.27 282.051 L 478.27 282.051 Q 470.08 286.601 465.465 294.596 L 465.465 294.596 L 465.465 294.596 Q 460.85 302.591 460.85 312.471 L 460.85 312.471 L 460.85 312.471 Q 460.85 322.351 465.465 330.346 L 465.465 330.346 L 465.465 330.346 Q 470.08 338.341 478.27 342.891 L 478.27 342.891 L 478.27 342.891 Q 486.46 347.441 496.6 347.441 L 496.6 347.441 L 496.6 347.441 Q 511.81 347.441 522.21 336.521 L 522.21 336.521 L 530.66 344.711 L 530.66 344.711 Q 524.42 351.731 515.515 355.371 L 515.515 355.371 L 515.515 355.371 Q 506.61 359.011 495.95 359.011 L 495.95 359.011 Z  M 587.47 265.931 L 587.47 265.931 Q 605.67 265.931 616.2 276.526 L 616.2 276.526 L 616.2 276.526 Q 626.73 287.121 626.73 306.881 L 626.73 306.881 L 626.73 357.971 L 613.73 357.971 L 613.73 332.881 L 561.21 332.881 L 561.21 357.971 L 548.47 357.971 L 548.47 306.881 L 548.47 306.881 Q 548.47 287.121 559 276.526 L 559 276.526 L 559 276.526 Q 569.53 265.931 587.47 265.931 L 587.47 265.931 Z  M 561.21 321.571 L 613.73 321.571 L 613.73 305.711 L 613.73 305.711 Q 613.73 291.801 606.775 284.651 L 606.775 284.651 L 606.775 284.651 Q 599.82 277.501 587.47 277.501 L 587.47 277.501 L 587.47 277.501 Q 575.12 277.501 568.165 284.651 L 568.165 284.651 L 568.165 284.651 Q 561.21 291.801 561.21 305.711 L 561.21 305.711 L 561.21 321.571 Z " fill="rgb(255,255,255)"/></g></svg>