<?xml version="1.0" encoding="UTF-8" standalone="no"?><!-- Generator: Gravit.io --><svg xmlns="http://www.w3.org/2000/svg" xmlns:xlink="http://www.w3.org/1999/xlink" style="isolation:isolate" viewBox="0 0 405.57 82.715" width="405.57pt" height="82.715pt"><defs><clipPath id="_clipPath_KZGcJXQtKAuETtjkhXWhw4xV54qsmJRg"><rect width="405.57" height="82.715"/></clipPath></defs><g clip-path="url(#_clipPath_KZGcJXQtKAuETtjkhXWhw4xV54qsmJRg)"><clipPath id="_clipPath_UQel1zYqJE1t4S3RVDYV5Y1Mz0CjvKPg"><rect x="0" y="0" width="405.57" height="82.715" transform="matrix(1,0,0,1,0,0)" fill="rgb(255,255,255)"/></clipPath><g clip-path="url(#_clipPath_UQel1zYqJE1t4S3RVDYV5Y1Mz0CjvKPg)"><g><g><g><path d=" M 74.007 8.708 L 74.007 74.007 L 74.007 74.007 L 62.357 64.057 C 62.357 64.057 62.357 64.057 62.357 64.057 L 62.357 22.057 C 62.357 22.057 62.357 22.057 62.357 22.057 L 74.007 8.708 L 74.007 8.708 Z  M 60.481 8.707 L 22.234 8.707 L 22.234 8.707 L 29.057 22.057 L 29.057 22.057 L 29.057 22.057 L 29.057 41.257 L 53.657 41.257 L 53.657 22.057 L 53.657 22.057 L 60.481 8.707 L 60.481 8.707 L 60.481 8.707 Z  M 60.481 74.007 L 22.234 74.007 L 22.234 74.007 L 29.057 64.057 L 29.057 64.057 L 29.057 45.757 L 53.657 45.757 L 53.657 64.057 L 53.657 64.057 L 60.481 74.007 L 60.481 74.007 L 60.481 74.007 Z  M 8.708 74.007 L 8.707 74.007 L 8.707 8.707 L 8.707 8.707 L 8.707 8.707 L 8.708 8.707 L 8.708 8.707 L 8.708 8.707 L 20.357 22.057 L 20.357 22.057 L 20.357 22.057 L 20.357 64.057 L 20.357 64.057 L 8.708 74.007 L 8.708 74.007 L 8.708 74.007 L 8.708 74.007 Z  M 0 0 L 82.715 0 L 82.715 82.715 L 0 82.715 L 0 0 L 0 0 L 0 0 L 0 0 L 0 0 L 0 0 L 0 0 Z " fill-rule="evenodd" fill="rgb(255,255,255)"/></g><path d=" M 107.67 61.157 L 107.67 61.157 L 107.67 61.157 Q 109.59 61.157 111.27 60.437 L 111.27 60.437 L 111.27 60.437 Q 112.95 59.717 114.21 58.187 L 114.21 58.187 L 114.21 58.187 Q 115.47 56.657 116.22 54.197 L 116.22 54.197 L 116.22 54.197 Q 116.97 51.737 116.97 48.257 L 116.97 48.257 L 116.97 48.257 Q 116.97 44.777 116.22 42.317 L 116.22 42.317 L 116.22 42.317 Q 115.47 39.857 114.21 38.327 L 114.21 38.327 L 114.21 38.327 Q 112.95 36.797 111.27 36.077 L 111.27 36.077 L 111.27 36.077 Q 109.59 35.357 107.67 35.357 L 107.67 35.357 L 107.67 35.357 Q 105.75 35.357 104.07 36.077 L 104.07 36.077 L 104.07 36.077 Q 102.39 36.797 101.13 38.327 L 101.13 38.327 L 101.13 38.327 Q 99.87 39.857 99.12 42.317 L 99.12 42.317 L 99.12 42.317 Q 98.37 44.777 98.37 48.257 L 98.37 48.257 L 98.37 48.257 Q 98.37 51.737 99.12 54.197 L 99.12 54.197 L 99.12 54.197 Q 99.87 56.657 101.13 58.187 L 101.13 58.187 L 101.13 58.187 Q 102.39 59.717 104.07 60.437 L 104.07 60.437 L 104.07 60.437 Q 105.75 61.157 107.67 61.157 Z  M 107.67 31.457 L 107.67 31.457 L 107.67 31.457 Q 111.69 31.457 115.08 32.567 L 115.08 32.567 L 115.08 32.567 Q 118.47 33.677 120.87 35.807 L 120.87 35.807 L 120.87 35.807 Q 123.27 37.937 124.62 41.087 L 124.62 41.087 L 124.62 41.087 Q 125.97 44.237 125.97 48.257 L 125.97 48.257 L 125.97 48.257 Q 125.97 52.337 124.62 55.457 L 124.62 55.457 L 124.62 55.457 Q 123.27 58.577 120.87 60.707 L 120.87 60.707 L 120.87 60.707 Q 118.47 62.837 115.08 63.947 L 115.08 63.947 L 115.08 63.947 Q 111.69 65.057 107.67 65.057 L 107.67 65.057 L 107.67 65.057 Q 103.59 65.057 100.23 63.947 L 100.23 63.947 L 100.23 63.947 Q 96.87 62.837 94.47 60.707 L 94.47 60.707 L 94.47 60.707 Q 92.07 58.577 90.72 55.457 L 90.72 55.457 L 90.72 55.457 Q 89.37 52.337 89.37 48.257 L 89.37 48.257 L 89.37 48.257 Q 89.37 44.237 90.72 41.087 L 90.72 41.087 L 90.72 41.087 Q 92.07 37.937 94.47 35.807 L 94.47 35.807 L 94.47 35.807 Q 96.87 33.677 100.23 32.567 L 100.23 32.567 L 100.23 32.567 Q 103.59 31.457 107.67 31.457 Z  M 141.27 21.857 L 141.27 63.857 L 132.87 63.857 L 132.87 21.857 L 141.27 21.857 L 141.27 21.857 Z  M 166.47 61.157 L 166.47 61.157 L 166.47 61.157 Q 168.39 61.157 170.07 60.437 L 170.07 60.437 L 170.07 60.437 Q 171.75 59.717 173.01 58.187 L 173.01 58.187 L 173.01 58.187 Q 174.27 56.657 175.02 54.197 L 175.02 54.197 L 175.02 54.197 Q 175.77 51.737 175.77 48.257 L 175.77 48.257 L 175.77 48.257 Q 175.77 44.777 175.02 42.317 L 175.02 42.317 L 175.02 42.317 Q 174.27 39.857 173.01 38.327 L 173.01 38.327 L 173.01 38.327 Q 171.75 36.797 170.07 36.077 L 170.07 36.077 L 170.07 36.077 Q 168.39 35.357 166.47 35.357 L 166.47 35.357 L 166.47 35.357 Q 164.55 35.357 162.87 36.077 L 162.87 36.077 L 162.87 36.077 Q 161.19 36.797 159.93 38.327 L 159.93 38.327 L 159.93 38.327 Q 158.67 39.857 157.92 42.317 L 157.92 42.317 L 157.92 42.317 Q 157.17 44.777 157.17 48.257 L 157.17 48.257 L 157.17 48.257 Q 157.17 51.737 157.92 54.197 L 157.92 54.197 L 157.92 54.197 Q 158.67 56.657 159.93 58.187 L 159.93 58.187 L 159.93 58.187 Q 161.19 59.717 162.87 60.437 L 162.87 60.437 L 162.87 60.437 Q 164.55 61.157 166.47 61.157 Z  M 166.47 31.457 L 166.47 31.457 L 166.47 31.457 Q 170.49 31.457 173.88 32.567 L 173.88 32.567 L 173.88 32.567 Q 177.27 33.677 179.67 35.807 L 179.67 35.807 L 179.67 35.807 Q 182.07 37.937 183.42 41.087 L 183.42 41.087 L 183.42 41.087 Q 184.77 44.237 184.77 48.257 L 184.77 48.257 L 184.77 48.257 Q 184.77 52.337 183.42 55.457 L 183.42 55.457 L 183.42 55.457 Q 182.07 58.577 179.67 60.707 L 179.67 60.707 L 179.67 60.707 Q 177.27 62.837 173.88 63.947 L 173.88 63.947 L 173.88 63.947 Q 170.49 65.057 166.47 65.057 L 166.47 65.057 L 166.47 65.057 Q 162.39 65.057 159.03 63.947 L 159.03 63.947 L 159.03 63.947 Q 155.67 62.837 153.27 60.707 L 153.27 60.707 L 153.27 60.707 Q 150.87 58.577 149.52 55.457 L 149.52 55.457 L 149.52 55.457 Q 148.17 52.337 148.17 48.257 L 148.17 48.257 L 148.17 48.257 Q 148.17 44.237 149.52 41.087 L 149.52 41.087 L 149.52 41.087 Q 150.87 37.937 153.27 35.807 L 153.27 35.807 L 153.27 35.807 Q 155.67 33.677 159.03 32.567 L 159.03 32.567 L 159.03 32.567 Q 162.39 31.457 166.47 31.457 Z  M 198.87 39.257 L 198.87 39.257 L 198.87 39.257 Q 198.87 40.637 200.1 41.777 L 200.1 41.777 L 200.1 41.777 Q 201.33 42.917 204.27 43.757 L 204.27 43.757 L 213.57 46.457 L 213.57 46.457 Q 217.89 47.717 220.23 49.877 L 220.23 49.877 L 220.23 49.877 Q 222.57 52.037 222.57 55.457 L 222.57 55.457 L 222.57 55.457 Q 222.57 57.617 221.67 59.387 L 221.67 59.387 L 221.67 59.387 Q 220.77 61.157 218.73 62.417 L 218.73 62.417 L 218.73 62.417 Q 216.69 63.677 213.45 64.367 L 213.45 64.367 L 213.45 64.367 Q 210.21 65.057 205.47 65.057 L 205.47 65.057 L 205.47 65.057 Q 203.01 65.057 200.64 64.697 L 200.64 64.697 L 200.64 64.697 Q 198.27 64.337 196.14 63.707 L 196.14 63.707 L 196.14 63.707 Q 194.01 63.077 192.27 62.267 L 192.27 62.267 L 192.27 62.267 Q 190.53 61.457 189.27 60.557 L 189.27 60.557 L 191.67 56.957 L 191.67 56.957 Q 194.19 58.517 197.58 59.687 L 197.58 59.687 L 197.58 59.687 Q 200.97 60.857 205.47 60.857 L 205.47 60.857 L 205.47 60.857 Q 209.97 60.857 211.77 59.657 L 211.77 59.657 L 211.77 59.657 Q 213.57 58.457 213.57 56.657 L 213.57 56.657 L 213.57 56.657 Q 213.57 55.277 212.31 54.167 L 212.31 54.167 L 212.31 54.167 Q 211.05 53.057 207.87 52.157 L 207.87 52.157 L 198.57 49.457 L 198.57 49.457 Q 194.73 48.317 192.3 46.187 L 192.3 46.187 L 192.3 46.187 Q 189.87 44.057 189.87 40.457 L 189.87 40.457 L 189.87 40.457 Q 189.87 38.537 190.74 36.887 L 190.74 36.887 L 190.74 36.887 Q 191.61 35.237 193.47 34.037 L 193.47 34.037 L 193.47 34.037 Q 195.33 32.837 198.21 32.147 L 198.21 32.147 L 198.21 32.147 Q 201.09 31.457 205.17 31.457 L 205.17 31.457 L 205.17 31.457 Q 210.15 31.457 214.2 32.807 L 214.2 32.807 L 214.2 32.807 Q 218.25 34.157 220.77 35.957 L 220.77 35.957 L 218.37 39.557 L 218.37 39.557 Q 215.91 37.997 212.79 36.827 L 212.79 36.827 L 212.79 36.827 Q 209.67 35.657 205.17 35.657 L 205.17 35.657 L 205.17 35.657 Q 201.99 35.657 200.43 36.677 L 200.43 36.677 L 200.43 36.677 Q 198.87 37.697 198.87 39.257 Z  M 245.37 31.457 L 245.37 31.457 L 245.37 31.457 Q 247.29 31.457 249.21 31.787 L 249.21 31.787 L 249.21 31.787 Q 251.13 32.117 252.9 32.687 L 252.9 32.687 L 252.9 32.687 Q 254.67 33.257 256.2 34.097 L 256.2 34.097 L 256.2 34.097 Q 257.73 34.937 258.87 35.957 L 258.87 35.957 L 256.47 39.557 L 256.47 39.557 Q 254.01 37.697 251.46 36.677 L 251.46 36.677 L 251.46 36.677 Q 248.91 35.657 245.97 35.657 L 245.97 35.657 L 245.97 35.657 Q 243.81 35.657 242.01 36.347 L 242.01 36.347 L 242.01 36.347 Q 240.21 37.037 238.89 38.567 L 238.89 38.567 L 238.89 38.567 Q 237.57 40.097 236.82 42.497 L 236.82 42.497 L 236.82 42.497 Q 236.07 44.897 236.07 48.257 L 236.07 48.257 L 236.07 48.257 Q 236.07 51.617 236.82 54.017 L 236.82 54.017 L 236.82 54.017 Q 237.57 56.417 238.95 57.947 L 238.95 57.947 L 238.95 57.947 Q 240.33 59.477 242.28 60.167 L 242.28 60.167 L 242.28 60.167 Q 244.23 60.857 246.57 60.857 L 246.57 60.857 L 246.57 60.857 Q 249.51 60.857 252.06 59.837 L 252.06 59.837 L 252.06 59.837 Q 254.61 58.817 257.07 56.957 L 257.07 56.957 L 259.47 60.557 L 259.47 60.557 Q 258.33 61.577 256.8 62.417 L 256.8 62.417 L 256.8 62.417 Q 255.27 63.257 253.5 63.827 L 253.5 63.827 L 253.5 63.827 Q 251.73 64.397 249.81 64.727 L 249.81 64.727 L 249.81 64.727 Q 247.89 65.057 245.97 65.057 L 245.97 65.057 L 245.97 65.057 Q 241.71 65.057 238.2 63.947 L 238.2 63.947 L 238.2 63.947 Q 234.69 62.837 232.23 60.707 L 232.23 60.707 L 232.23 60.707 Q 229.77 58.577 228.42 55.457 L 228.42 55.457 L 228.42 55.457 Q 227.07 52.337 227.07 48.257 L 227.07 48.257 L 227.07 48.257 Q 227.07 44.237 228.42 41.087 L 228.42 41.087 L 228.42 41.087 Q 229.77 37.937 232.17 35.807 L 232.17 35.807 L 232.17 35.807 Q 234.57 33.677 237.93 32.567 L 237.93 32.567 L 237.93 32.567 Q 241.29 31.457 245.37 31.457 Z  M 289.17 32.657 L 289.17 36.857 L 281.97 36.857 L 281.97 36.857 Q 277.89 36.857 275.73 39.047 L 275.73 39.047 L 275.73 39.047 Q 273.57 41.237 273.57 45.557 L 273.57 45.557 L 273.57 63.857 L 265.17 63.857 L 265.17 45.557 L 265.17 45.557 Q 265.17 39.437 269.04 36.047 L 269.04 36.047 L 269.04 36.047 Q 272.91 32.657 280.17 32.657 L 280.17 32.657 L 289.17 32.657 L 289.17 32.657 Z  M 310.17 60.857 L 310.17 60.857 L 310.17 60.857 Q 313.11 60.857 315.66 59.837 L 315.66 59.837 L 315.66 59.837 Q 318.21 58.817 320.67 56.957 L 320.67 56.957 L 323.07 60.557 L 323.07 60.557 Q 321.93 61.577 320.4 62.417 L 320.4 62.417 L 320.4 62.417 Q 318.87 63.257 317.1 63.827 L 317.1 63.827 L 317.1 63.827 Q 315.33 64.397 313.41 64.727 L 313.41 64.727 L 313.41 64.727 Q 311.49 65.057 309.57 65.057 L 309.57 65.057 L 309.57 65.057 Q 305.31 65.057 301.8 63.947 L 301.8 63.947 L 301.8 63.947 Q 298.29 62.837 295.83 60.707 L 295.83 60.707 L 295.83 60.707 Q 293.37 58.577 292.02 55.457 L 292.02 55.457 L 292.02 55.457 Q 290.67 52.337 290.67 48.257 L 290.67 48.257 L 290.67 48.257 Q 290.67 44.237 291.96 41.087 L 291.96 41.087 L 291.96 41.087 Q 293.25 37.937 295.56 35.807 L 295.56 35.807 L 295.56 35.807 Q 297.87 33.677 301.05 32.567 L 301.05 32.567 L 301.05 32.567 Q 304.23 31.457 308.07 31.457 L 308.07 31.457 L 308.07 31.457 Q 311.67 31.457 314.85 32.537 L 314.85 32.537 L 314.85 32.537 Q 318.03 33.617 320.37 35.687 L 320.37 35.687 L 320.37 35.687 Q 322.71 37.757 324.09 40.697 L 324.09 40.697 L 324.09 40.697 Q 325.47 43.637 325.47 47.357 L 325.47 47.357 L 325.47 51.557 L 299.85 51.557 L 299.85 51.557 Q 300.57 56.537 303.3 58.697 L 303.3 58.697 L 303.3 58.697 Q 306.03 60.857 310.17 60.857 Z  M 308.07 35.357 L 308.07 35.357 L 308.07 35.357 Q 306.33 35.357 304.83 36.017 L 304.83 36.017 L 304.83 36.017 Q 303.33 36.677 302.22 38.117 L 302.22 38.117 L 302.22 38.117 Q 301.11 39.557 300.42 41.837 L 300.42 41.837 L 300.42 41.837 Q 299.73 44.117 299.67 47.357 L 299.67 47.357 L 316.47 47.357 L 316.47 47.357 Q 316.47 44.237 315.75 41.957 L 315.75 41.957 L 315.75 41.957 Q 315.03 39.677 313.86 38.207 L 313.86 38.207 L 313.86 38.207 Q 312.69 36.737 311.16 36.047 L 311.16 36.047 L 311.16 36.047 Q 309.63 35.357 308.07 35.357 Z  M 350.37 60.857 L 350.37 60.857 L 350.37 60.857 Q 353.31 60.857 355.86 59.837 L 355.86 59.837 L 355.86 59.837 Q 358.41 58.817 360.87 56.957 L 360.87 56.957 L 363.27 60.557 L 363.27 60.557 Q 362.13 61.577 360.6 62.417 L 360.6 62.417 L 360.6 62.417 Q 359.07 63.257 357.3 63.827 L 357.3 63.827 L 357.3 63.827 Q 355.53 64.397 353.61 64.727 L 353.61 64.727 L 353.61 64.727 Q 351.69 65.057 349.77 65.057 L 349.77 65.057 L 349.77 65.057 Q 345.51 65.057 342 63.947 L 342 63.947 L 342 63.947 Q 338.49 62.837 336.03 60.707 L 336.03 60.707 L 336.03 60.707 Q 333.57 58.577 332.22 55.457 L 332.22 55.457 L 332.22 55.457 Q 330.87 52.337 330.87 48.257 L 330.87 48.257 L 330.87 48.257 Q 330.87 44.237 332.16 41.087 L 332.16 41.087 L 332.16 41.087 Q 333.45 37.937 335.76 35.807 L 335.76 35.807 L 335.76 35.807 Q 338.07 33.677 341.25 32.567 L 341.25 32.567 L 341.25 32.567 Q 344.43 31.457 348.27 31.457 L 348.27 31.457 L 348.27 31.457 Q 351.87 31.457 355.05 32.537 L 355.05 32.537 L 355.05 32.537 Q 358.23 33.617 360.57 35.687 L 360.57 35.687 L 360.57 35.687 Q 362.91 37.757 364.29 40.697 L 364.29 40.697 L 364.29 40.697 Q 365.67 43.637 365.67 47.357 L 365.67 47.357 L 365.67 51.557 L 340.05 51.557 L 340.05 51.557 Q 340.77 56.537 343.5 58.697 L 343.5 58.697 L 343.5 58.697 Q 346.23 60.857 350.37 60.857 Z  M 348.27 35.357 L 348.27 35.357 L 348.27 35.357 Q 346.53 35.357 345.03 36.017 L 345.03 36.017 L 345.03 36.017 Q 343.53 36.677 342.42 38.117 L 342.42 38.117 L 342.42 38.117 Q 341.31 39.557 340.62 41.837 L 340.62 41.837 L 340.62 41.837 Q 339.93 44.117 339.87 47.357 L 339.87 47.357 L 356.67 47.357 L 356.67 47.357 Q 356.67 44.237 355.95 41.957 L 355.95 41.957 L 355.95 41.957 Q 355.23 39.677 354.06 38.207 L 354.06 38.207 L 354.06 38.207 Q 352.89 36.737 351.36 36.047 L 351.36 36.047 L 351.36 36.047 Q 349.83 35.357 348.27 35.357 Z  M 405.57 44.957 L 405.57 63.857 L 397.17 63.857 L 397.17 44.957 L 397.17 44.957 Q 397.17 40.637 395.01 38.747 L 395.01 38.747 L 395.01 38.747 Q 392.85 36.857 388.77 36.857 L 388.77 36.857 L 380.97 36.857 L 380.97 63.857 L 372.57 63.857 L 372.57 32.657 L 388.77 32.657 L 388.77 32.657 Q 397.35 32.657 401.46 35.747 L 401.46 35.747 L 401.46 35.747 Q 405.57 38.837 405.57 44.957 L 405.57 44.957 L 405.57 44.957 Z " fill="rgb(255,255,255)"/></g></g></g></g></svg>