<?xml version="1.0" encoding="UTF-8" standalone="no"?><!-- Generator: Gravit.io --><svg xmlns="http://www.w3.org/2000/svg" xmlns:xlink="http://www.w3.org/1999/xlink" style="isolation:isolate" viewBox="0 0 385.57 82.715" width="385.57pt" height="82.715pt"><defs><clipPath id="_clipPath_qSCWOUfzfHOEathRaLD6rIuNlUoZJwvH"><rect width="385.57" height="82.715"/></clipPath></defs><g clip-path="url(#_clipPath_qSCWOUfzfHOEathRaLD6rIuNlUoZJwvH)"><clipPath id="_clipPath_wqb0FHkDXbWwnnsR0No92HOk9f4vaAnG"><rect x="0" y="0" width="385.57" height="82.715" transform="matrix(1,0,0,1,0,0)" fill="rgb(255,255,255)"/></clipPath><g clip-path="url(#_clipPath_wqb0FHkDXbWwnnsR0No92HOk9f4vaAnG)"><g><g><path d=" M 87.67 61.157 L 87.67 61.157 L 87.67 61.157 Q 89.59 61.157 91.27 60.437 L 91.27 60.437 L 91.27 60.437 Q 92.95 59.717 94.21 58.187 L 94.21 58.187 L 94.21 58.187 Q 95.47 56.657 96.22 54.197 L 96.22 54.197 L 96.22 54.197 Q 96.97 51.737 96.97 48.257 L 96.97 48.257 L 96.97 48.257 Q 96.97 44.777 96.22 42.317 L 96.22 42.317 L 96.22 42.317 Q 95.47 39.857 94.21 38.327 L 94.21 38.327 L 94.21 38.327 Q 92.95 36.797 91.27 36.077 L 91.27 36.077 L 91.27 36.077 Q 89.59 35.357 87.67 35.357 L 87.67 35.357 L 87.67 35.357 Q 85.75 35.357 84.07 36.077 L 84.07 36.077 L 84.07 36.077 Q 82.39 36.797 81.13 38.327 L 81.13 38.327 L 81.13 38.327 Q 79.87 39.857 79.12 42.317 L 79.12 42.317 L 79.12 42.317 Q 78.37 44.777 78.37 48.257 L 78.37 48.257 L 78.37 48.257 Q 78.37 51.737 79.12 54.197 L 79.12 54.197 L 79.12 54.197 Q 79.87 56.657 81.13 58.187 L 81.13 58.187 L 81.13 58.187 Q 82.39 59.717 84.07 60.437 L 84.07 60.437 L 84.07 60.437 Q 85.75 61.157 87.67 61.157 Z  M 87.67 31.457 L 87.67 31.457 L 87.67 31.457 Q 91.69 31.457 95.08 32.567 L 95.08 32.567 L 95.08 32.567 Q 98.47 33.677 100.87 35.807 L 100.87 35.807 L 100.87 35.807 Q 103.27 37.937 104.62 41.087 L 104.62 41.087 L 104.62 41.087 Q 105.97 44.237 105.97 48.257 L 105.97 48.257 L 105.97 48.257 Q 105.97 52.337 104.62 55.457 L 104.62 55.457 L 104.62 55.457 Q 103.27 58.577 100.87 60.707 L 100.87 60.707 L 100.87 60.707 Q 98.47 62.837 95.08 63.947 L 95.08 63.947 L 95.08 63.947 Q 91.69 65.057 87.67 65.057 L 87.67 65.057 L 87.67 65.057 Q 83.59 65.057 80.23 63.947 L 80.23 63.947 L 80.23 63.947 Q 76.87 62.837 74.47 60.707 L 74.47 60.707 L 74.47 60.707 Q 72.07 58.577 70.72 55.457 L 70.72 55.457 L 70.72 55.457 Q 69.37 52.337 69.37 48.257 L 69.37 48.257 L 69.37 48.257 Q 69.37 44.237 70.72 41.087 L 70.72 41.087 L 70.72 41.087 Q 72.07 37.937 74.47 35.807 L 74.47 35.807 L 74.47 35.807 Q 76.87 33.677 80.23 32.567 L 80.23 32.567 L 80.23 32.567 Q 83.59 31.457 87.67 31.457 Z  M 121.27 21.857 L 121.27 63.857 L 112.87 63.857 L 112.87 21.857 L 121.27 21.857 L 121.27 21.857 Z  M 146.47 61.157 L 146.47 61.157 L 146.47 61.157 Q 148.39 61.157 150.07 60.437 L 150.07 60.437 L 150.07 60.437 Q 151.75 59.717 153.01 58.187 L 153.01 58.187 L 153.01 58.187 Q 154.27 56.657 155.02 54.197 L 155.02 54.197 L 155.02 54.197 Q 155.77 51.737 155.77 48.257 L 155.77 48.257 L 155.77 48.257 Q 155.77 44.777 155.02 42.317 L 155.02 42.317 L 155.02 42.317 Q 154.27 39.857 153.01 38.327 L 153.01 38.327 L 153.01 38.327 Q 151.75 36.797 150.07 36.077 L 150.07 36.077 L 150.07 36.077 Q 148.39 35.357 146.47 35.357 L 146.47 35.357 L 146.47 35.357 Q 144.55 35.357 142.87 36.077 L 142.87 36.077 L 142.87 36.077 Q 141.19 36.797 139.93 38.327 L 139.93 38.327 L 139.93 38.327 Q 138.67 39.857 137.92 42.317 L 137.92 42.317 L 137.92 42.317 Q 137.17 44.777 137.17 48.257 L 137.17 48.257 L 137.17 48.257 Q 137.17 51.737 137.92 54.197 L 137.92 54.197 L 137.92 54.197 Q 138.67 56.657 139.93 58.187 L 139.93 58.187 L 139.93 58.187 Q 141.19 59.717 142.87 60.437 L 142.87 60.437 L 142.87 60.437 Q 144.55 61.157 146.47 61.157 Z  M 146.47 31.457 L 146.47 31.457 L 146.47 31.457 Q 150.49 31.457 153.88 32.567 L 153.88 32.567 L 153.88 32.567 Q 157.27 33.677 159.67 35.807 L 159.67 35.807 L 159.67 35.807 Q 162.07 37.937 163.42 41.087 L 163.42 41.087 L 163.42 41.087 Q 164.77 44.237 164.77 48.257 L 164.77 48.257 L 164.77 48.257 Q 164.77 52.337 163.42 55.457 L 163.42 55.457 L 163.42 55.457 Q 162.07 58.577 159.67 60.707 L 159.67 60.707 L 159.67 60.707 Q 157.27 62.837 153.88 63.947 L 153.88 63.947 L 153.88 63.947 Q 150.49 65.057 146.47 65.057 L 146.47 65.057 L 146.47 65.057 Q 142.39 65.057 139.03 63.947 L 139.03 63.947 L 139.03 63.947 Q 135.67 62.837 133.27 60.707 L 133.27 60.707 L 133.27 60.707 Q 130.87 58.577 129.52 55.457 L 129.52 55.457 L 129.52 55.457 Q 128.17 52.337 128.17 48.257 L 128.17 48.257 L 128.17 48.257 Q 128.17 44.237 129.52 41.087 L 129.52 41.087 L 129.52 41.087 Q 130.87 37.937 133.27 35.807 L 133.27 35.807 L 133.27 35.807 Q 135.67 33.677 139.03 32.567 L 139.03 32.567 L 139.03 32.567 Q 142.39 31.457 146.47 31.457 Z  M 178.87 39.257 L 178.87 39.257 L 178.87 39.257 Q 178.87 40.637 180.1 41.777 L 180.1 41.777 L 180.1 41.777 Q 181.33 42.917 184.27 43.757 L 184.27 43.757 L 193.57 46.457 L 193.57 46.457 Q 197.89 47.717 200.23 49.877 L 200.23 49.877 L 200.23 49.877 Q 202.57 52.037 202.57 55.457 L 202.57 55.457 L 202.57 55.457 Q 202.57 57.617 201.67 59.387 L 201.67 59.387 L 201.67 59.387 Q 200.77 61.157 198.73 62.417 L 198.73 62.417 L 198.73 62.417 Q 196.69 63.677 193.45 64.367 L 193.45 64.367 L 193.45 64.367 Q 190.21 65.057 185.47 65.057 L 185.47 65.057 L 185.47 65.057 Q 183.01 65.057 180.64 64.697 L 180.64 64.697 L 180.64 64.697 Q 178.27 64.337 176.14 63.707 L 176.14 63.707 L 176.14 63.707 Q 174.01 63.077 172.27 62.267 L 172.27 62.267 L 172.27 62.267 Q 170.53 61.457 169.27 60.557 L 169.27 60.557 L 171.67 56.957 L 171.67 56.957 Q 174.19 58.517 177.58 59.687 L 177.58 59.687 L 177.58 59.687 Q 180.97 60.857 185.47 60.857 L 185.47 60.857 L 185.47 60.857 Q 189.97 60.857 191.77 59.657 L 191.77 59.657 L 191.77 59.657 Q 193.57 58.457 193.57 56.657 L 193.57 56.657 L 193.57 56.657 Q 193.57 55.277 192.31 54.167 L 192.31 54.167 L 192.31 54.167 Q 191.05 53.057 187.87 52.157 L 187.87 52.157 L 178.57 49.457 L 178.57 49.457 Q 174.73 48.317 172.3 46.187 L 172.3 46.187 L 172.3 46.187 Q 169.87 44.057 169.87 40.457 L 169.87 40.457 L 169.87 40.457 Q 169.87 38.537 170.74 36.887 L 170.74 36.887 L 170.74 36.887 Q 171.61 35.237 173.47 34.037 L 173.47 34.037 L 173.47 34.037 Q 175.33 32.837 178.21 32.147 L 178.21 32.147 L 178.21 32.147 Q 181.09 31.457 185.17 31.457 L 185.17 31.457 L 185.17 31.457 Q 190.15 31.457 194.2 32.807 L 194.2 32.807 L 194.2 32.807 Q 198.25 34.157 200.77 35.957 L 200.77 35.957 L 198.37 39.557 L 198.37 39.557 Q 195.91 37.997 192.79 36.827 L 192.79 36.827 L 192.79 36.827 Q 189.67 35.657 185.17 35.657 L 185.17 35.657 L 185.17 35.657 Q 181.99 35.657 180.43 36.677 L 180.43 36.677 L 180.43 36.677 Q 178.87 37.697 178.87 39.257 Z  M 225.37 31.457 L 225.37 31.457 L 225.37 31.457 Q 227.29 31.457 229.21 31.787 L 229.21 31.787 L 229.21 31.787 Q 231.13 32.117 232.9 32.687 L 232.9 32.687 L 232.9 32.687 Q 234.67 33.257 236.2 34.097 L 236.2 34.097 L 236.2 34.097 Q 237.73 34.937 238.87 35.957 L 238.87 35.957 L 236.47 39.557 L 236.47 39.557 Q 234.01 37.697 231.46 36.677 L 231.46 36.677 L 231.46 36.677 Q 228.91 35.657 225.97 35.657 L 225.97 35.657 L 225.97 35.657 Q 223.81 35.657 222.01 36.347 L 222.01 36.347 L 222.01 36.347 Q 220.21 37.037 218.89 38.567 L 218.89 38.567 L 218.89 38.567 Q 217.57 40.097 216.82 42.497 L 216.82 42.497 L 216.82 42.497 Q 216.07 44.897 216.07 48.257 L 216.07 48.257 L 216.07 48.257 Q 216.07 51.617 216.82 54.017 L 216.82 54.017 L 216.82 54.017 Q 217.57 56.417 218.95 57.947 L 218.95 57.947 L 218.95 57.947 Q 220.33 59.477 222.28 60.167 L 222.28 60.167 L 222.28 60.167 Q 224.23 60.857 226.57 60.857 L 226.57 60.857 L 226.57 60.857 Q 229.51 60.857 232.06 59.837 L 232.06 59.837 L 232.06 59.837 Q 234.61 58.817 237.07 56.957 L 237.07 56.957 L 239.47 60.557 L 239.47 60.557 Q 238.33 61.577 236.8 62.417 L 236.8 62.417 L 236.8 62.417 Q 235.27 63.257 233.5 63.827 L 233.5 63.827 L 233.5 63.827 Q 231.73 64.397 229.81 64.727 L 229.81 64.727 L 229.81 64.727 Q 227.89 65.057 225.97 65.057 L 225.97 65.057 L 225.97 65.057 Q 221.71 65.057 218.2 63.947 L 218.2 63.947 L 218.2 63.947 Q 214.69 62.837 212.23 60.707 L 212.23 60.707 L 212.23 60.707 Q 209.77 58.577 208.42 55.457 L 208.42 55.457 L 208.42 55.457 Q 207.07 52.337 207.07 48.257 L 207.07 48.257 L 207.07 48.257 Q 207.07 44.237 208.42 41.087 L 208.42 41.087 L 208.42 41.087 Q 209.77 37.937 212.17 35.807 L 212.17 35.807 L 212.17 35.807 Q 214.57 33.677 217.93 32.567 L 217.93 32.567 L 217.93 32.567 Q 221.29 31.457 225.37 31.457 Z  M 269.17 32.657 L 269.17 36.857 L 261.97 36.857 L 261.97 36.857 Q 257.89 36.857 255.73 39.047 L 255.73 39.047 L 255.73 39.047 Q 253.57 41.237 253.57 45.557 L 253.57 45.557 L 253.57 63.857 L 245.17 63.857 L 245.17 45.557 L 245.17 45.557 Q 245.17 39.437 249.04 36.047 L 249.04 36.047 L 249.04 36.047 Q 252.91 32.657 260.17 32.657 L 260.17 32.657 L 269.17 32.657 L 269.17 32.657 Z  M 290.17 60.857 L 290.17 60.857 L 290.17 60.857 Q 293.11 60.857 295.66 59.837 L 295.66 59.837 L 295.66 59.837 Q 298.21 58.817 300.67 56.957 L 300.67 56.957 L 303.07 60.557 L 303.07 60.557 Q 301.93 61.577 300.4 62.417 L 300.4 62.417 L 300.4 62.417 Q 298.87 63.257 297.1 63.827 L 297.1 63.827 L 297.1 63.827 Q 295.33 64.397 293.41 64.727 L 293.41 64.727 L 293.41 64.727 Q 291.49 65.057 289.57 65.057 L 289.57 65.057 L 289.57 65.057 Q 285.31 65.057 281.8 63.947 L 281.8 63.947 L 281.8 63.947 Q 278.29 62.837 275.83 60.707 L 275.83 60.707 L 275.83 60.707 Q 273.37 58.577 272.02 55.457 L 272.02 55.457 L 272.02 55.457 Q 270.67 52.337 270.67 48.257 L 270.67 48.257 L 270.67 48.257 Q 270.67 44.237 271.96 41.087 L 271.96 41.087 L 271.96 41.087 Q 273.25 37.937 275.56 35.807 L 275.56 35.807 L 275.56 35.807 Q 277.87 33.677 281.05 32.567 L 281.05 32.567 L 281.05 32.567 Q 284.23 31.457 288.07 31.457 L 288.07 31.457 L 288.07 31.457 Q 291.67 31.457 294.85 32.537 L 294.85 32.537 L 294.85 32.537 Q 298.03 33.617 300.37 35.687 L 300.37 35.687 L 300.37 35.687 Q 302.71 37.757 304.09 40.697 L 304.09 40.697 L 304.09 40.697 Q 305.47 43.637 305.47 47.357 L 305.47 47.357 L 305.47 51.557 L 279.85 51.557 L 279.85 51.557 Q 280.57 56.537 283.3 58.697 L 283.3 58.697 L 283.3 58.697 Q 286.03 60.857 290.17 60.857 Z  M 288.07 35.357 L 288.07 35.357 L 288.07 35.357 Q 286.33 35.357 284.83 36.017 L 284.83 36.017 L 284.83 36.017 Q 283.33 36.677 282.22 38.117 L 282.22 38.117 L 282.22 38.117 Q 281.11 39.557 280.42 41.837 L 280.42 41.837 L 280.42 41.837 Q 279.73 44.117 279.67 47.357 L 279.67 47.357 L 296.47 47.357 L 296.47 47.357 Q 296.47 44.237 295.75 41.957 L 295.75 41.957 L 295.75 41.957 Q 295.03 39.677 293.86 38.207 L 293.86 38.207 L 293.86 38.207 Q 292.69 36.737 291.16 36.047 L 291.16 36.047 L 291.16 36.047 Q 289.63 35.357 288.07 35.357 Z  M 330.37 60.857 L 330.37 60.857 L 330.37 60.857 Q 333.31 60.857 335.86 59.837 L 335.86 59.837 L 335.86 59.837 Q 338.41 58.817 340.87 56.957 L 340.87 56.957 L 343.27 60.557 L 343.27 60.557 Q 342.13 61.577 340.6 62.417 L 340.6 62.417 L 340.6 62.417 Q 339.07 63.257 337.3 63.827 L 337.3 63.827 L 337.3 63.827 Q 335.53 64.397 333.61 64.727 L 333.61 64.727 L 333.61 64.727 Q 331.69 65.057 329.77 65.057 L 329.77 65.057 L 329.77 65.057 Q 325.51 65.057 322 63.947 L 322 63.947 L 322 63.947 Q 318.49 62.837 316.03 60.707 L 316.03 60.707 L 316.03 60.707 Q 313.57 58.577 312.22 55.457 L 312.22 55.457 L 312.22 55.457 Q 310.87 52.337 310.87 48.257 L 310.87 48.257 L 310.87 48.257 Q 310.87 44.237 312.16 41.087 L 312.16 41.087 L 312.16 41.087 Q 313.45 37.937 315.76 35.807 L 315.76 35.807 L 315.76 35.807 Q 318.07 33.677 321.25 32.567 L 321.25 32.567 L 321.25 32.567 Q 324.43 31.457 328.27 31.457 L 328.27 31.457 L 328.27 31.457 Q 331.87 31.457 335.05 32.537 L 335.05 32.537 L 335.05 32.537 Q 338.23 33.617 340.57 35.687 L 340.57 35.687 L 340.57 35.687 Q 342.91 37.757 344.29 40.697 L 344.29 40.697 L 344.29 40.697 Q 345.67 43.637 345.67 47.357 L 345.67 47.357 L 345.67 51.557 L 320.05 51.557 L 320.05 51.557 Q 320.77 56.537 323.5 58.697 L 323.5 58.697 L 323.5 58.697 Q 326.23 60.857 330.37 60.857 Z  M 328.27 35.357 L 328.27 35.357 L 328.27 35.357 Q 326.53 35.357 325.03 36.017 L 325.03 36.017 L 325.03 36.017 Q 323.53 36.677 322.42 38.117 L 322.42 38.117 L 322.42 38.117 Q 321.31 39.557 320.62 41.837 L 320.62 41.837 L 320.62 41.837 Q 319.93 44.117 319.87 47.357 L 319.87 47.357 L 336.67 47.357 L 336.67 47.357 Q 336.67 44.237 335.95 41.957 L 335.95 41.957 L 335.95 41.957 Q 335.23 39.677 334.06 38.207 L 334.06 38.207 L 334.06 38.207 Q 332.89 36.737 331.36 36.047 L 331.36 36.047 L 331.36 36.047 Q 329.83 35.357 328.27 35.357 Z  M 385.57 44.957 L 385.57 63.857 L 377.17 63.857 L 377.17 44.957 L 377.17 44.957 Q 377.17 40.637 375.01 38.747 L 375.01 38.747 L 375.01 38.747 Q 372.85 36.857 368.77 36.857 L 368.77 36.857 L 360.97 36.857 L 360.97 63.857 L 352.57 63.857 L 352.57 32.657 L 368.77 32.657 L 368.77 32.657 Q 377.35 32.657 381.46 35.747 L 381.46 35.747 L 381.46 35.747 Q 385.57 38.837 385.57 44.957 L 385.57 44.957 L 385.57 44.957 Z " fill="rgb(255,255,255)"/><path d=" M 74.007 31.081 L 74.007 8.708 L 74.007 8.708 L 62.357 22.057 C 62.357 22.057 62.357 22.057 62.357 22.057 L 62.357 64.057 C 62.357 64.057 62.357 64.057 62.357 64.057 L 74.007 74.007 L 74.007 74.007 L 74.007 65.434 Q 76.059 66.704 78.535 67.522 L 78.535 67.522 L 78.535 67.522 Q 80.522 68.178 82.715 68.518 L 82.715 82.715 L 0 82.715 L 0 0 L 0 0 L 0 0 L 0 0 L 0 0 L 0 0 L 0 0 L 82.715 0 L 82.715 27.997 Q 80.522 28.337 78.535 28.993 L 78.535 28.993 L 78.535 28.993 Q 76.059 29.811 74.007 31.081 Z  M 60.481 8.707 L 22.234 8.707 L 22.234 8.707 L 29.057 22.057 L 29.057 22.057 L 29.057 22.057 L 29.057 41.257 L 53.657 41.257 L 53.657 22.057 L 53.657 22.057 L 60.481 8.707 L 60.481 8.707 L 60.481 8.707 L 60.481 8.707 Z  M 60.481 74.007 L 22.234 74.007 L 22.234 74.007 L 29.057 64.057 L 29.057 64.057 L 29.057 45.757 L 53.657 45.757 L 53.657 64.057 L 53.657 64.057 L 60.481 74.007 L 60.481 74.007 L 60.481 74.007 L 60.481 74.007 Z  M 8.708 74.007 L 8.707 74.007 L 8.707 8.707 L 8.707 8.707 L 8.707 8.707 L 8.708 8.707 L 8.708 8.707 L 8.708 8.707 L 20.357 22.057 L 20.357 22.057 L 20.357 22.057 L 20.357 64.057 L 20.357 64.057 L 8.708 74.007 L 8.708 74.007 L 8.708 74.007 L 8.708 74.007 L 8.708 74.007 Z " fill-rule="evenodd" fill="rgb(255,255,255)"/></g></g></g></g></svg>