<?xml version="1.0" standalone="no"?><!-- Generator: Gravit.io --><svg xmlns="http://www.w3.org/2000/svg" xmlns:xlink="http://www.w3.org/1999/xlink" style="isolation:isolate" viewBox="0 0 911.017 201.099" width="911.017" height="201.099"><defs><clipPath id="_clipPath_b82J7PWzOIZx9Om6VdHqiGnIGlzqgI6o"><rect width="911.017" height="201.099"/></clipPath></defs><g clip-path="url(#_clipPath_b82J7PWzOIZx9Om6VdHqiGnIGlzqgI6o)"><g><clipPath id="_clipPath_WMpFgLyNsqglXfPAfTLGZOwvwJv4sJ16"><rect x="436.51" y="8.143" width="87.988" height="182.813" transform="matrix(1,0,0,1,0,0)" fill="rgb(255,255,255)"/></clipPath><g clip-path="url(#_clipPath_WMpFgLyNsqglXfPAfTLGZOwvwJv4sJ16)"><g><path d=" M 448.339 69.558 C 441 77.412 436.51 87.961 436.51 99.549 L 436.51 99.549 C 436.51 119.145 449.221 138.797 469.811 148.768 L 469.811 148.768 L 484.069 155.702 L 484.069 155.702 Q 493.346 160.194 496.373 164.198 L 496.373 164.198 L 496.373 164.198 Q 499.498 168.104 499.498 173.573 L 499.498 173.573 L 499.498 173.573 Q 499.498 177.967 495.299 181.581 L 495.299 181.581 L 495.299 181.581 Q 491.1 185.194 484.264 185.194 L 484.264 185.194 L 484.264 185.194 Q 475.28 185.194 469.469 180.018 L 469.469 180.018 L 469.469 180.018 Q 463.658 174.842 459.948 160.487 L 459.948 160.487 L 456.725 160.487 L 456.725 190.956 L 459.948 190.956 L 459.948 190.956 Q 461.119 188.612 461.998 187.928 L 461.998 187.928 L 461.998 187.928 Q 462.877 187.245 464.44 187.245 L 464.44 187.245 L 464.44 187.245 Q 466.1 187.245 471.08 188.709 L 471.08 188.709 L 471.08 188.709 Q 478.6 190.955 483.873 190.956 L 483.873 190.956 L 483.873 190.956 Q 495.885 190.955 503.453 183.534 L 503.453 183.534 L 503.453 183.534 Q 511.022 176.112 511.022 165.077 L 511.022 165.077 L 511.022 165.077 Q 511.022 156.58 506.627 151.014 L 506.627 151.014 L 506.627 151.014 Q 503.229 146.633 493.988 141.435 C 511.682 135.736 524.498 119.127 524.498 99.549 L 524.498 99.549 C 524.498 79.954 511.787 60.301 491.198 50.331 L 491.198 50.331 L 476.94 43.397 L 476.94 43.397 Q 467.662 38.905 464.635 34.901 L 464.635 34.901 L 464.635 34.901 Q 461.51 30.995 461.51 25.526 L 461.51 25.526 L 461.51 25.526 Q 461.51 21.131 465.709 17.518 L 465.709 17.518 L 465.709 17.518 Q 469.908 13.905 476.744 13.905 L 476.744 13.905 L 476.744 13.905 Q 485.729 13.905 491.539 19.081 L 491.539 19.081 L 491.539 19.081 Q 497.35 24.256 501.061 38.612 L 501.061 38.612 L 504.283 38.612 L 504.283 8.143 L 501.061 8.143 L 501.061 8.143 Q 499.889 10.487 499.01 11.17 L 499.01 11.17 L 499.01 11.17 Q 498.131 11.854 496.569 11.854 L 496.569 11.854 L 496.569 11.854 Q 494.908 11.854 489.928 10.389 L 489.928 10.389 L 489.928 10.389 Q 482.408 8.143 477.135 8.143 L 477.135 8.143 L 477.135 8.143 Q 465.123 8.143 457.555 15.565 L 457.555 15.565 L 457.555 15.565 Q 449.987 22.987 449.987 34.022 L 449.987 34.022 L 449.987 34.022 Q 449.987 42.518 454.381 48.084 L 454.381 48.084 L 454.381 48.084 Q 457.78 52.465 467.02 57.663 C 476.834 63.357 489.241 66.366 499.37 73.782 C 515.683 85.725 520.473 106.968 510.061 121.189 C 499.649 135.411 477.951 137.26 461.639 125.317 C 445.326 113.373 440.535 92.131 450.947 77.909 C 451.319 77.401 451.706 76.909 452.105 76.433 Q 453.293 75.149 454.238 74.84 L 454.238 74.84 L 454.238 74.84 Q 461.581 72.264 475.937 75.972 L 475.937 75.972 L 477.498 73.153 C 463.684 67.398 454.809 62.488 450.844 58.392 L 449.283 61.211 L 449.283 61.211 Q 450.765 63.372 450.938 64.472 L 450.938 64.472 L 450.938 64.472 Q 451.11 65.572 450.353 66.939 L 450.353 66.939 L 450.353 66.939 Q 449.574 68.057 448.339 69.558 Z " fill="rgb(47,47,47)"/></g></g><path d=" M 578.853 129.9 L 578.853 129.9 L 578.853 129.9 Q 568.368 138.006 565.691 139.27 L 565.691 139.27 L 565.691 139.27 Q 561.675 141.13 557.139 141.13 L 557.139 141.13 L 557.139 141.13 Q 550.074 141.13 545.5 136.296 L 545.5 136.296 L 545.5 136.296 Q 540.927 131.462 540.927 123.579 L 540.927 123.579 L 540.927 123.579 Q 540.927 118.597 543.158 114.953 L 543.158 114.953 L 543.158 114.953 Q 546.207 109.896 553.755 105.434 L 553.755 105.434 L 553.755 105.434 Q 561.303 100.972 578.853 94.577 L 578.853 94.577 L 578.853 91.9 L 578.853 91.9 Q 578.853 81.712 575.618 77.919 L 575.618 77.919 L 575.618 77.919 Q 572.383 74.126 566.211 74.126 L 566.211 74.126 L 566.211 74.126 Q 561.526 74.126 558.775 76.655 L 558.775 76.655 L 558.775 76.655 Q 555.949 79.183 555.949 82.455 L 555.949 82.455 L 556.097 86.769 L 556.097 86.769 Q 556.097 90.189 554.35 92.049 L 554.35 92.049 L 554.35 92.049 Q 552.602 93.908 549.776 93.908 L 549.776 93.908 L 549.776 93.908 Q 547.025 93.908 545.277 91.974 L 545.277 91.974 L 545.277 91.974 Q 543.53 90.041 543.53 86.694 L 543.53 86.694 L 543.53 86.694 Q 543.53 80.299 550.074 74.944 L 550.074 74.944 L 550.074 74.944 Q 556.618 69.59 568.442 69.59 L 568.442 69.59 L 568.442 69.59 Q 577.515 69.59 583.315 72.639 L 583.315 72.639 L 583.315 72.639 Q 587.703 74.944 589.785 79.853 L 589.785 79.853 L 589.785 79.853 Q 591.123 83.05 591.123 92.941 L 591.123 92.941 L 591.123 116.068 L 591.123 116.068 Q 591.123 125.81 591.495 128.004 L 591.495 128.004 L 591.495 128.004 Q 591.867 130.198 592.722 130.942 L 592.722 130.942 L 592.722 130.942 Q 593.578 131.685 594.693 131.685 L 594.693 131.685 L 594.693 131.685 Q 595.883 131.685 596.775 131.165 L 596.775 131.165 L 596.775 131.165 Q 598.337 130.198 602.799 125.736 L 602.799 125.736 L 602.799 129.9 L 602.799 129.9 Q 594.47 141.055 586.885 141.055 L 586.885 141.055 L 586.885 141.055 Q 583.241 141.055 581.084 138.527 L 581.084 138.527 L 581.084 138.527 Q 578.928 135.998 578.853 129.9 Z  M 578.853 125.067 L 578.853 125.067 L 578.853 99.113 L 578.853 99.113 Q 567.624 103.575 564.352 105.434 L 564.352 105.434 L 564.352 105.434 Q 558.477 108.706 555.949 112.276 L 555.949 112.276 L 555.949 112.276 Q 553.42 115.845 553.42 120.084 L 553.42 120.084 L 553.42 120.084 Q 553.42 125.439 556.618 128.971 L 556.618 128.971 L 556.618 128.971 Q 559.816 132.503 563.98 132.503 L 563.98 132.503 L 563.98 132.503 Q 569.632 132.503 578.853 125.067 Z  M 628.083 69.59 L 628.083 84.091 L 628.083 84.091 Q 635.52 76.655 636.858 75.539 L 636.858 75.539 L 636.858 75.539 Q 640.205 72.714 644.072 71.152 L 644.072 71.152 L 644.072 71.152 Q 647.939 69.59 651.731 69.59 L 651.731 69.59 L 651.731 69.59 Q 658.127 69.59 662.737 73.308 L 662.737 73.308 L 662.737 73.308 Q 667.348 77.027 668.91 84.091 L 668.91 84.091 L 668.91 84.091 Q 676.569 75.168 681.849 72.379 L 681.849 72.379 L 681.849 72.379 Q 687.129 69.59 692.706 69.59 L 692.706 69.59 L 692.706 69.59 Q 698.135 69.59 702.337 72.379 L 702.337 72.379 L 702.337 72.379 Q 706.538 75.168 708.992 81.489 L 708.992 81.489 L 708.992 81.489 Q 710.628 85.802 710.628 95.023 L 710.628 95.023 L 710.628 124.323 L 710.628 124.323 Q 710.628 130.718 711.595 133.098 L 711.595 133.098 L 711.595 133.098 Q 712.339 134.734 714.347 135.887 L 714.347 135.887 L 714.347 135.887 Q 716.355 137.04 720.891 137.04 L 720.891 137.04 L 720.891 139.717 L 687.278 139.717 L 687.278 137.04 L 688.691 137.04 L 688.691 137.04 Q 693.078 137.04 695.532 135.329 L 695.532 135.329 L 695.532 135.329 Q 697.243 134.139 697.986 131.536 L 697.986 131.536 L 697.986 131.536 Q 698.284 130.272 698.284 124.323 L 698.284 124.323 L 698.284 95.023 L 698.284 95.023 Q 698.284 86.694 696.276 83.273 L 696.276 83.273 L 696.276 83.273 Q 693.376 78.514 686.98 78.514 L 686.98 78.514 L 686.98 78.514 Q 683.039 78.514 679.06 80.485 L 679.06 80.485 L 679.06 80.485 Q 675.082 82.455 669.43 87.81 L 669.43 87.81 L 669.281 88.628 L 669.43 91.825 L 669.43 124.323 L 669.43 124.323 Q 669.43 131.313 670.211 133.024 L 670.211 133.024 L 670.211 133.024 Q 670.992 134.734 673.148 135.887 L 673.148 135.887 L 673.148 135.887 Q 675.305 137.04 680.511 137.04 L 680.511 137.04 L 680.511 139.717 L 646.079 139.717 L 646.079 137.04 L 646.079 137.04 Q 651.731 137.04 653.851 135.701 L 653.851 135.701 L 653.851 135.701 Q 655.97 134.362 656.788 131.685 L 656.788 131.685 L 656.788 131.685 Q 657.16 130.421 657.16 124.323 L 657.16 124.323 L 657.16 95.023 L 657.16 95.023 Q 657.16 86.694 654.706 83.05 L 654.706 83.05 L 654.706 83.05 Q 651.434 78.291 645.559 78.291 L 645.559 78.291 L 645.559 78.291 Q 641.543 78.291 637.602 80.448 L 637.602 80.448 L 637.602 80.448 Q 631.429 83.72 628.083 87.81 L 628.083 87.81 L 628.083 124.323 L 628.083 124.323 Q 628.083 131.016 629.013 133.024 L 629.013 133.024 L 629.013 133.024 Q 629.942 135.032 631.764 136.036 L 631.764 136.036 L 631.764 136.036 Q 633.586 137.04 639.163 137.04 L 639.163 137.04 L 639.163 139.717 L 605.476 139.717 L 605.476 137.04 L 605.476 137.04 Q 610.161 137.04 612.02 136.036 L 612.02 136.036 L 612.02 136.036 Q 613.879 135.032 614.846 132.838 L 614.846 132.838 L 614.846 132.838 Q 615.813 130.644 615.813 124.323 L 615.813 124.323 L 615.813 98.295 L 615.813 98.295 Q 615.813 87.066 615.143 83.794 L 615.143 83.794 L 615.143 83.794 Q 614.623 81.34 613.507 80.41 L 613.507 80.41 L 613.507 80.41 Q 612.392 79.481 610.458 79.481 L 610.458 79.481 L 610.458 79.481 Q 608.376 79.481 605.476 80.596 L 605.476 80.596 L 604.36 77.919 L 624.885 69.59 L 628.083 69.59 Z  M 762.833 71.598 L 786.035 71.598 L 786.035 112.871 L 786.035 112.871 Q 786.035 124.695 786.593 127.335 L 786.593 127.335 L 786.593 127.335 Q 787.15 129.975 788.377 131.016 L 788.377 131.016 L 788.377 131.016 Q 789.604 132.057 791.24 132.057 L 791.24 132.057 L 791.24 132.057 Q 793.546 132.057 796.446 130.793 L 796.446 130.793 L 797.487 133.396 L 777.111 141.799 L 773.765 141.799 L 773.765 127.372 L 773.765 127.372 Q 764.99 136.891 760.379 139.345 L 760.379 139.345 L 760.379 139.345 Q 755.768 141.799 750.637 141.799 L 750.637 141.799 L 750.637 141.799 Q 744.911 141.799 740.709 138.49 L 740.709 138.49 L 740.709 138.49 Q 736.508 135.18 734.872 129.975 L 734.872 129.975 L 734.872 129.975 Q 733.236 124.769 733.236 115.25 L 733.236 115.25 L 733.236 84.835 L 733.236 84.835 Q 733.236 80.001 732.194 78.142 L 732.194 78.142 L 732.194 78.142 Q 731.153 76.283 729.108 75.279 L 729.108 75.279 L 729.108 75.279 Q 727.063 74.275 721.709 74.35 L 721.709 74.35 L 721.709 71.598 L 745.58 71.598 L 745.58 117.184 L 745.58 117.184 Q 745.58 126.703 748.889 129.677 L 748.889 129.677 L 748.889 129.677 Q 752.199 132.652 756.884 132.652 L 756.884 132.652 L 756.884 132.652 Q 760.081 132.652 764.134 130.644 L 764.134 130.644 L 764.134 130.644 Q 768.187 128.636 773.765 122.984 L 773.765 122.984 L 773.765 84.389 L 773.765 84.389 Q 773.765 78.588 771.645 76.543 L 771.645 76.543 L 771.645 76.543 Q 769.526 74.498 762.833 74.35 L 762.833 74.35 L 762.833 71.598 Z  M 860.995 97.254 L 813.922 97.254 L 813.922 97.254 Q 813.847 112.425 821.284 121.051 L 821.284 121.051 L 821.284 121.051 Q 828.721 129.677 838.76 129.677 L 838.76 129.677 L 838.76 129.677 Q 845.453 129.677 850.398 125.996 L 850.398 125.996 L 850.398 125.996 Q 855.343 122.315 858.69 113.391 L 858.69 113.391 L 860.995 114.879 L 860.995 114.879 Q 859.433 125.067 851.923 133.433 L 851.923 133.433 L 851.923 133.433 Q 844.412 141.799 833.108 141.799 L 833.108 141.799 L 833.108 141.799 Q 820.838 141.799 812.1 132.243 L 812.1 132.243 L 812.1 132.243 Q 803.362 122.687 803.362 106.55 L 803.362 106.55 L 803.362 106.55 Q 803.362 89.074 812.323 79.295 L 812.323 79.295 L 812.323 79.295 Q 821.284 69.516 834.818 69.516 L 834.818 69.516 L 834.818 69.516 Q 846.271 69.516 853.633 77.064 L 853.633 77.064 L 853.633 77.064 Q 860.995 84.612 860.995 97.254 L 860.995 97.254 Z  M 813.922 92.941 L 813.922 92.941 L 845.453 92.941 L 845.453 92.941 Q 845.081 86.397 843.891 83.72 L 843.891 83.72 L 843.891 83.72 Q 842.032 79.555 838.351 77.175 L 838.351 77.175 L 838.351 77.175 Q 834.67 74.796 830.654 74.796 L 830.654 74.796 L 830.654 74.796 Q 824.482 74.796 819.611 79.592 L 819.611 79.592 L 819.611 79.592 Q 814.74 84.389 813.922 92.941 Z  M 890.146 33.969 L 893.493 33.969 L 893.493 124.323 L 893.493 124.323 Q 893.493 130.718 894.422 132.801 L 894.422 132.801 L 894.422 132.801 Q 895.352 134.883 897.285 135.961 L 897.285 135.961 L 897.285 135.961 Q 899.219 137.04 904.499 137.04 L 904.499 137.04 L 904.499 139.717 L 871.109 139.717 L 871.109 137.04 L 871.109 137.04 Q 875.794 137.04 877.504 136.073 L 877.504 136.073 L 877.504 136.073 Q 879.215 135.106 880.181 132.875 L 880.181 132.875 L 880.181 132.875 Q 881.148 130.644 881.148 124.323 L 881.148 124.323 L 881.148 62.451 L 881.148 62.451 Q 881.148 50.924 880.628 48.285 L 880.628 48.285 L 880.628 48.285 Q 880.107 45.645 878.954 44.678 L 878.954 44.678 L 878.954 44.678 Q 877.802 43.711 876.017 43.711 L 876.017 43.711 L 876.017 43.711 Q 874.083 43.711 871.109 44.901 L 871.109 44.901 L 869.845 42.298 L 890.146 33.969 Z " fill="rgb(47,47,47)"/><path d=" M 362.225 103.845 L 409.299 103.845 L 409.299 103.845 Q 409.373 88.675 401.936 80.048 L 401.936 80.048 L 401.936 80.048 Q 394.5 71.422 384.461 71.422 L 384.461 71.422 L 384.461 71.422 Q 377.768 71.422 372.822 75.103 L 372.822 75.103 L 372.822 75.103 Q 367.877 78.784 364.531 87.708 L 364.531 87.708 L 362.225 86.221 L 362.225 86.221 Q 363.787 76.032 371.298 67.666 L 371.298 67.666 L 371.298 67.666 Q 378.809 59.3 390.112 59.3 L 390.112 59.3 L 390.112 59.3 Q 402.383 59.3 411.121 68.856 L 411.121 68.856 L 411.121 68.856 Q 419.858 78.412 419.858 94.549 L 419.858 94.549 L 419.858 94.549 Q 419.858 112.025 410.897 121.804 L 410.897 121.804 L 410.897 121.804 Q 401.936 131.583 388.402 131.583 L 388.402 131.583 L 388.402 131.583 Q 376.95 131.583 369.588 124.035 L 369.588 124.035 L 369.588 124.035 Q 362.225 116.487 362.225 103.845 L 362.225 103.845 Z  M 409.299 108.158 L 409.299 108.158 L 377.768 108.158 L 377.768 108.158 Q 378.14 114.702 379.329 117.38 L 379.329 117.38 L 379.329 117.38 Q 381.189 121.544 384.87 123.924 L 384.87 123.924 L 384.87 123.924 Q 388.551 126.303 392.566 126.303 L 392.566 126.303 L 392.566 126.303 Q 398.739 126.303 403.61 121.507 L 403.61 121.507 L 403.61 121.507 Q 408.481 116.71 409.299 108.158 Z  M 333.074 167.13 L 329.728 167.13 L 329.728 76.776 L 329.728 76.776 Q 329.728 70.381 328.798 68.299 L 328.798 68.299 L 328.798 68.299 Q 327.869 66.216 325.935 65.138 L 325.935 65.138 L 325.935 65.138 Q 324.002 64.06 318.722 64.06 L 318.722 64.06 L 318.722 61.383 L 352.112 61.383 L 352.112 64.06 L 352.112 64.06 Q 347.427 64.06 345.716 65.026 L 345.716 65.026 L 345.716 65.026 Q 344.006 65.993 343.039 68.224 L 343.039 68.224 L 343.039 68.224 Q 342.072 70.455 342.072 76.776 L 342.072 76.776 L 342.072 138.648 L 342.072 138.648 Q 342.072 150.175 342.593 152.815 L 342.593 152.815 L 342.593 152.815 Q 343.113 155.455 344.266 156.421 L 344.266 156.421 L 344.266 156.421 Q 345.419 157.388 347.204 157.388 L 347.204 157.388 L 347.204 157.388 Q 349.137 157.388 352.112 156.198 L 352.112 156.198 L 353.376 158.801 L 333.074 167.13 Z  M 290.76 167.13 L 287.414 167.13 L 287.414 76.776 L 287.414 76.776 Q 287.414 70.381 286.484 68.299 L 286.484 68.299 L 286.484 68.299 Q 285.555 66.216 283.621 65.138 L 283.621 65.138 L 283.621 65.138 Q 281.688 64.06 276.408 64.06 L 276.408 64.06 L 276.408 61.383 L 309.798 61.383 L 309.798 64.06 L 309.798 64.06 Q 305.113 64.06 303.402 65.026 L 303.402 65.026 L 303.402 65.026 Q 301.692 65.993 300.725 68.224 L 300.725 68.224 L 300.725 68.224 Q 299.759 70.455 299.759 76.776 L 299.759 76.776 L 299.759 138.648 L 299.759 138.648 Q 299.759 150.175 300.279 152.815 L 300.279 152.815 L 300.279 152.815 Q 300.8 155.455 301.952 156.421 L 301.952 156.421 L 301.952 156.421 Q 303.105 157.388 304.89 157.388 L 304.89 157.388 L 304.89 157.388 Q 306.823 157.388 309.798 156.198 L 309.798 156.198 L 311.062 158.801 L 290.76 167.13 Z  M 249.859 167.13 L 249.859 117.751 L 249.859 117.751 Q 239.969 131.509 228.517 131.509 L 228.517 131.509 L 228.517 131.509 Q 218.031 131.509 210.223 122.548 L 210.223 122.548 L 210.223 122.548 Q 202.414 113.587 202.414 98.045 L 202.414 98.045 L 202.414 98.045 Q 202.414 79.899 214.462 68.819 L 214.462 68.819 L 214.462 68.819 Q 224.798 59.3 237.515 59.3 L 237.515 59.3 L 237.515 59.3 Q 243.464 59.3 249.599 61.457 L 249.599 61.457 L 249.599 61.457 Q 255.734 63.613 262.13 67.927 L 262.13 67.927 L 262.13 138.499 L 262.13 138.499 Q 262.13 150.1 262.687 152.777 L 262.687 152.777 L 262.687 152.777 Q 263.245 155.455 264.435 156.421 L 264.435 156.421 L 264.435 156.421 Q 265.625 157.388 267.41 157.388 L 267.41 157.388 L 267.41 157.388 Q 269.492 157.388 272.615 156.198 L 272.615 156.198 L 273.656 158.801 L 253.206 167.13 L 249.859 167.13 Z  M 249.859 112.992 L 249.859 112.992 L 249.859 72.24 L 249.859 72.24 Q 246.067 68.522 242.014 66.625 L 242.014 66.625 L 242.014 66.625 Q 237.961 64.729 233.722 64.729 L 233.722 64.729 L 233.722 64.729 Q 226.955 64.729 221.117 72.165 L 221.117 72.165 L 221.117 72.165 Q 215.28 79.602 215.28 93.806 L 215.28 93.806 L 215.28 93.806 Q 215.28 106.894 221.117 113.922 L 221.117 113.922 L 221.117 113.922 Q 226.955 120.949 234.391 120.949 L 234.391 120.949 L 234.391 120.949 Q 238.333 120.949 242.274 118.941 L 242.274 118.941 L 242.274 118.941 Q 245.249 117.454 249.859 112.992 Z  M 133.85 103.845 L 180.923 103.845 L 180.923 103.845 Q 180.997 88.675 173.561 80.048 L 173.561 80.048 L 173.561 80.048 Q 166.124 71.422 156.085 71.422 L 156.085 71.422 L 156.085 71.422 Q 149.392 71.422 144.447 75.103 L 144.447 75.103 L 144.447 75.103 Q 139.501 78.784 136.155 87.708 L 136.155 87.708 L 133.85 86.221 L 133.85 86.221 Q 135.411 76.032 142.922 67.666 L 142.922 67.666 L 142.922 67.666 Q 150.433 59.3 161.737 59.3 L 161.737 59.3 L 161.737 59.3 Q 174.007 59.3 182.745 68.856 L 182.745 68.856 L 182.745 68.856 Q 191.483 78.412 191.483 94.549 L 191.483 94.549 L 191.483 94.549 Q 191.483 112.025 182.522 121.804 L 182.522 121.804 L 182.522 121.804 Q 173.561 131.583 160.026 131.583 L 160.026 131.583 L 160.026 131.583 Q 148.574 131.583 141.212 124.035 L 141.212 124.035 L 141.212 124.035 Q 133.85 116.487 133.85 103.845 L 133.85 103.845 Z  M 180.923 108.158 L 180.923 108.158 L 149.392 108.158 L 149.392 108.158 Q 149.764 114.702 150.954 117.38 L 150.954 117.38 L 150.954 117.38 Q 152.813 121.544 156.494 123.924 L 156.494 123.924 L 156.494 123.924 Q 160.175 126.303 164.191 126.303 L 164.191 126.303 L 164.191 126.303 Q 170.363 126.303 175.234 121.507 L 175.234 121.507 L 175.234 121.507 Q 180.105 116.71 180.923 108.158 Z  M 107.97 131.509 L 104.847 131.509 L 104.847 116.19 L 104.847 116.19 Q 96.295 131.509 87.297 131.509 L 87.297 131.509 L 87.297 131.509 Q 83.207 131.509 80.53 129.018 L 80.53 129.018 L 80.53 129.018 Q 77.853 126.527 77.853 123.254 L 77.853 123.254 L 77.853 123.254 Q 77.853 120.354 79.786 118.346 L 79.786 118.346 L 79.786 118.346 Q 81.72 116.338 84.397 116.338 L 84.397 116.338 L 84.397 116.338 Q 86.999 116.338 90.234 118.904 L 90.234 118.904 L 90.234 118.904 Q 93.469 121.47 95.031 121.47 L 95.031 121.47 L 95.031 121.47 Q 96.369 121.47 97.931 119.982 L 97.931 119.982 L 97.931 119.982 Q 101.278 116.933 104.847 109.943 L 104.847 109.943 L 104.847 77.297 L 104.847 77.297 Q 104.847 71.645 103.434 68.745 L 103.434 68.745 L 103.434 68.745 Q 102.467 66.737 100.013 65.398 L 100.013 65.398 L 100.013 65.398 Q 97.559 64.06 92.949 64.06 L 92.949 64.06 L 92.949 61.383 L 127.826 61.383 L 127.826 64.06 L 127.826 64.06 Q 122.62 64.06 120.092 65.696 L 120.092 65.696 L 120.092 65.696 Q 118.233 66.886 117.489 69.488 L 117.489 69.488 L 117.489 69.488 Q 117.117 70.753 117.117 76.702 L 117.117 76.702 L 117.117 103.101 L 117.117 103.101 Q 117.117 115 117.601 117.268 L 117.601 117.268 L 117.601 117.268 Q 118.084 119.536 119.386 120.577 L 119.386 120.577 L 119.386 120.577 Q 120.687 121.618 122.62 121.618 L 122.62 121.618 L 122.62 121.618 Q 124.926 121.618 127.826 120.503 L 127.826 120.503 L 128.57 123.18 L 107.97 131.509 Z  M 55.84 86.221 L 55.84 86.221 L 55.84 86.221 Q 62.087 89.27 65.434 94.735 L 65.434 94.735 L 65.434 94.735 Q 68.78 100.201 68.78 106.82 L 68.78 106.82 L 68.78 106.82 Q 68.78 116.933 61.158 124.221 L 61.158 124.221 L 61.158 124.221 Q 53.535 131.509 41.637 131.509 L 41.637 131.509 L 41.637 131.509 Q 31.895 131.509 24.756 126.75 L 24.756 126.75 L 10.329 126.75 L 10.329 126.75 Q 7.131 126.75 6.611 126.564 L 6.611 126.564 L 6.611 126.564 Q 6.09 126.378 5.867 125.932 L 5.867 125.932 L 5.867 125.932 Q 5.421 125.262 5.421 123.552 L 5.421 123.552 L 5.421 123.552 Q 5.421 121.618 5.793 120.875 L 5.793 120.875 L 5.793 120.875 Q 6.016 120.503 6.573 120.28 L 6.573 120.28 L 6.573 120.28 Q 7.131 120.057 10.329 120.057 L 10.329 120.057 L 19.178 120.057 L 19.178 120.057 Q 15.014 114.702 15.014 106.374 L 15.014 106.374 L 15.014 106.374 Q 15.014 96.855 22.302 90.088 L 22.302 90.088 L 22.302 90.088 Q 29.589 83.32 41.86 83.32 L 41.86 83.32 L 41.86 83.32 Q 46.917 83.32 52.196 84.808 L 52.196 84.808 L 52.196 84.808 Q 55.469 81.982 56.621 79.862 L 56.621 79.862 L 56.621 79.862 Q 57.774 77.743 57.774 76.256 L 57.774 76.256 L 57.774 76.256 Q 57.774 74.991 56.547 73.802 L 56.547 73.802 L 56.547 73.802 Q 55.32 72.612 51.75 72.091 L 51.75 72.091 L 51.75 72.091 Q 49.668 71.794 41.339 71.571 L 41.339 71.571 L 41.339 71.571 Q 26.02 71.199 21.484 70.529 L 21.484 70.529 L 21.484 70.529 Q 14.568 69.563 10.44 65.398 L 10.44 65.398 L 10.44 65.398 Q 6.313 61.234 6.313 55.136 L 6.313 55.136 L 6.313 55.136 Q 6.313 46.733 14.196 39.37 L 14.196 39.37 L 14.196 39.37 Q 25.797 28.513 44.462 28.513 L 44.462 28.513 L 44.462 28.513 Q 58.815 28.513 68.706 34.983 L 68.706 34.983 L 68.706 34.983 Q 74.283 38.701 74.283 42.717 L 74.283 42.717 L 74.283 42.717 Q 74.283 44.502 73.465 46.286 L 73.465 46.286 L 73.465 46.286 Q 72.201 49.038 68.259 53.946 L 68.259 53.946 L 68.259 53.946 Q 67.739 54.615 60.674 61.977 L 60.674 61.977 L 60.674 61.977 Q 64.541 64.283 66.14 66.105 L 66.14 66.105 L 66.14 66.105 Q 67.739 67.927 67.739 70.232 L 67.739 70.232 L 67.739 70.232 Q 67.739 72.835 65.619 76.33 L 65.619 76.33 L 65.619 76.33 Q 63.5 79.825 55.84 86.221 Z  M 42.901 127.939 L 42.901 127.939 L 42.901 127.939 Q 48.404 127.939 52.122 123.552 L 52.122 123.552 L 52.122 123.552 Q 55.84 119.164 55.84 110.092 L 55.84 110.092 L 55.84 110.092 Q 55.84 98.342 50.784 91.872 L 50.784 91.872 L 50.784 91.872 Q 46.917 86.964 40.967 86.964 L 40.967 86.964 L 40.967 86.964 Q 35.316 86.964 31.672 91.203 L 31.672 91.203 L 31.672 91.203 Q 28.028 95.442 28.028 104.514 L 28.028 104.514 L 28.028 104.514 Q 28.028 116.338 33.159 123.031 L 33.159 123.031 L 33.159 123.031 Q 36.952 127.939 42.901 127.939 Z  M 56.584 61.383 L 56.584 61.383 L 56.584 61.383 Q 60.079 57.59 61.864 54.318 L 61.864 54.318 L 61.864 54.318 Q 63.649 51.046 63.649 48.294 L 63.649 48.294 L 63.649 48.294 Q 63.649 44.725 59.336 42.048 L 59.336 42.048 L 59.336 42.048 Q 51.899 37.437 37.844 37.437 L 37.844 37.437 L 37.844 37.437 Q 24.458 37.437 18.1 42.159 L 18.1 42.159 L 18.1 42.159 Q 11.742 46.881 11.742 52.236 L 11.742 52.236 L 11.742 52.236 Q 11.742 56.103 15.534 57.739 L 15.534 57.739 L 15.534 57.739 Q 19.401 59.375 30.854 59.672 L 30.854 59.672 L 30.854 59.672 Q 47.586 60.118 56.584 61.383 Z " fill="rgb(47,47,47)"/></g></g></svg>