<?xml version="1.0" standalone="no"?><!-- Generator: Gravit.io --><svg xmlns="http://www.w3.org/2000/svg" xmlns:xlink="http://www.w3.org/1999/xlink" style="isolation:isolate" viewBox="0 0 522.289 522.289" width="522.289" height="522.289"><defs><clipPath id="_clipPath_omoOwXZCNlGD6tiDm235qasH2tNCucUm"><rect width="522.289" height="522.289"/></clipPath></defs><g clip-path="url(#_clipPath_omoOwXZCNlGD6tiDm235qasH2tNCucUm)"><rect width="522.289" height="522.289" style="fill:rgb(255,40,40)" fill-opacity="0"/><g><path d=" M 293.278 231.732 C 293.374 231.56 293.472 231.39 293.57 231.22 C 295.89 227.18 298.25 223.18 300.66 219.19 C 302.68 215.86 304.66 212.5 306.61 209.12 C 308.35 206.11 309.99 203.04 311.51 199.92 C 312.84 197.22 313.97 194.43 314.88 191.56 C 315.147 190.712 315.379 189.854 315.578 188.99 C 315.578 188.984 315.579 188.977 315.58 188.97 C 315.79 187.23 315.98 185.48 316.16 183.74 C 316.22 183.17 316.26 182.6 316.29 182.02 C 316.306 181.698 316.319 181.376 316.331 181.054 C 316.329 181.021 316.329 180.989 316.33 180.957 L 316.34 180.174 C 316.33 178.886 316.28 177.608 316.19 176.33 C 316.09 174.92 315.96 173.52 315.81 172.12 C 315.47 169.18 315.09 166.24 314.67 163.31 C 314.622 162.981 314.575 162.653 314.53 162.324 C 314.233 160.253 313.962 158.18 313.72 156.1 C 313.59 155.04 313.49 153.98 313.41 152.91 C 313.33 151.98 313.29 151.05 313.29 150.11 C 313.28 148.14 313.45 146.16 313.82 144.22 C 314.12 142.73 314.5 141.25 314.96 139.79 C 315.23 138.87 315.49 137.95 315.72 137.02 C 315.97 136 316.17 134.97 316.3 133.93 C 316.42 132.87 316.47 131.82 316.45 130.76 C 316.44 128.8 316.36 126.84 316.21 124.89 C 316.05 122.77 315.86 120.65 315.62 118.53 C 315.41 116.66 315.18 114.8 314.91 112.94 C 314.75 111.76 314.56 110.59 314.32 109.43 C 314.12 108.58 313.87 107.76 313.56 106.95 C 313.12 105.72 312.67 104.49 312.2 103.27 C 311.31 100.98 310.48 98.67 309.7 96.35 C 309.35 95.27 309.03 94.17 308.76 93.07 C 308.52 92.13 308.36 91.18 308.29 90.21 C 308.29 90.19 308.29 90.16 308.29 90.14 L 308.26 89.07 C 308.26 89.05 308.26 89.04 308.26 89.02 C 308.28 87.35 308.43 85.69 308.73 84.05 C 309.01 82.55 309.33 81.06 309.7 79.57 C 309.92 78.66 310.13 77.73 310.32 76.81 C 310.43 76.21 310.51 75.6 310.56 74.98 C 310.62 74.23 310.64 73.47 310.64 72.71 C 310.63 70.69 310.51 68.67 310.29 66.67 C 310.04 64.22 309.71 61.78 309.31 59.35 C 308.96 57.3 308.51 55.27 307.96 53.26 C 307.42 51.26 306.85 49.27 306.24 47.28 C 305.76 45.73 305.32 44.17 304.9 42.61 C 304.73 41.98 304.59 41.36 304.47 40.73 C 304.36 40.2 304.3 39.67 304.29 39.13 C 304.28 38.81 304.24 38.48 304.15 38.16 C 304.03 37.66 303.88 37.17 303.69 36.69 C 303.24 35.51 302.65 34.37 301.95 33.31 C 301.29 32.27 300.47 31.34 299.52 30.56 C 299.15 30.25 298.73 30 298.29 29.82 C 297.95 29.67 297.59 29.59 297.22 29.58 L 296.92 29.6 C 296.54 29.65 296.18 29.77 295.84 29.95 C 295.41 30.19 295 30.48 294.64 30.82 C 293.74 31.7 292.97 32.71 292.37 33.82 C 291.73 34.94 291.21 36.12 290.81 37.35 C 290.64 37.84 290.5 38.34 290.4 38.85 C 290.33 39.17 290.29 39.49 290.28 39.81 L 290.29 40 C 290.3 40.17 290.31 40.35 290.31 40.52 C 290.3 41.09 290.25 41.65 290.18 42.22 C 290.09 42.91 289.98 43.61 289.86 44.3 C 289.55 46 289.22 47.7 288.87 49.39 C 288.56 50.94 288.25 52.49 287.96 54.05 C 287.69 55.46 287.46 56.87 287.28 58.3 C 287.12 59.51 286.95 60.72 286.76 61.93 C 286.56 63.21 286.39 64.5 286.24 65.78 C 286.1 67.16 286.02 68.53 286.02 69.91 C 286.03 71.6 286.12 73.28 286.28 74.96 C 286.45 76.83 286.73 78.68 287.13 80.52 C 287.43 81.88 287.78 83.23 288.16 84.56 C 288.42 85.45 288.66 86.34 288.87 87.24 C 289.08 88.15 289.22 89.07 289.28 90 C 289.29 90.02 289.29 90.04 289.29 90.06 L 289.31 90.78 C 289.31 90.79 289.31 90.81 289.31 90.83 C 289.3 91.63 289.25 92.42 289.15 93.21 C 289.05 94.07 288.92 94.94 288.75 95.8 C 288.39 97.71 287.98 99.61 287.53 101.5 C 287.08 103.46 286.65 105.42 286.26 107.39 C 285.82 109.74 285.49 112.11 285.29 114.49 C 285.05 117.2 284.93 119.93 284.94 122.65 C 284.94 125.43 285.05 128.21 285.28 130.97 C 285.51 133.52 285.89 136.04 286.41 138.54 C 286.89 140.81 287.41 143.07 287.97 145.32 C 288.3 146.61 288.6 147.9 288.89 149.19 C 289 149.71 289.09 150.23 289.17 150.75 C 289.24 151.2 289.28 151.65 289.29 152.11 C 289.28 152.59 289.21 153.08 289.09 153.54 C 288.96 154.06 288.81 154.56 288.63 155.05 C 288.18 156.29 287.69 157.51 287.17 158.72 C 286.2 161.02 285.3 163.36 284.47 165.72 C 283.5 168.53 282.76 171.42 282.27 174.35 C 282.05 175.66 281.86 176.98 281.67 178.3 C 281.36 180.56 281.06 182.81 280.77 185.07 C 280.29 188.92 279.83 192.76 279.4 196.61 C 279.253 197.926 279.107 199.242 278.965 200.558 C 278.97 200.579 278.975 200.599 278.98 200.62 C 280.08 205.34 280.85 210.14 281.28 214.96 C 281.578 218.004 281.839 221.048 282.064 224.095 C 283.647 216.642 285.18 209.179 286.68 201.71 C 287.91 195.54 289.09 189.36 290.23 183.17 C 291.13 178.23 291.98 173.28 292.76 168.33 C 293.35 164.63 293.85 160.92 294.27 157.2 C 294.42 155.82 294.55 154.44 294.64 153.05 C 294.72 151.99 294.76 150.92 294.77 149.85 C 294.78 149.13 294.74 148.41 294.65 147.7 C 294.63 147.35 294.55 147.02 294.41 146.7 C 294.3 146.44 294.2 146.17 294.13 145.89 C 294.04 145.55 293.96 145.21 293.89 144.86 C 293.73 144.05 293.59 143.24 293.47 142.42 C 293.16 142.02 292.88 141.59 292.64 141.14 C 292.29 140.51 291.99 139.85 291.73 139.17 C 291.15 137.62 290.7 136.01 290.39 134.37 C 290.02 132.49 289.75 130.6 289.59 128.69 C 289.41 126.63 289.32 124.57 289.33 122.5 C 289.32 119.59 289.5 116.67 289.86 113.78 C 290.16 111.13 290.71 108.51 291.5 105.96 C 291.84 104.84 292.27 103.76 292.78 102.71 C 293.124 101.983 293.533 101.297 293.993 100.645 L 293.993 100.645 L 293.993 100.645 L 293.993 100.645 C 293.97 100.086 293.945 99.528 293.92 98.97 C 293.85 97.45 293.77 95.92 293.67 94.4 C 293.62 93.36 293.53 92.32 293.41 91.28 C 293.14 89.11 292.85 86.95 292.56 84.78 C 291.82 79.33 291.11 73.86 290.44 68.4 C 290.14 65.89 289.86 63.38 289.61 60.87 C 289.51 59.89 289.43 58.91 289.36 57.93 C 289.3 57.21 289.27 56.48 289.27 55.75 C 289.27 55.5 289.27 55.25 289.29 54.99 C 289.36 54.08 289.5 53.17 289.73 52.27 C 289.94 51.42 290.29 50.62 290.77 49.88 C 291.27 49.13 291.96 48.52 292.76 48.11 C 293.64 47.69 294.59 47.48 295.56 47.5 C 296.05 47.5 296.53 47.54 297.01 47.62 C 298.14 47.78 299.24 48.14 300.25 48.67 C 301.13 49.13 301.9 49.75 302.55 50.5 C 303.66 51.78 304.28 53.41 304.29 55.11 C 304.27 56.11 304.23 57.12 304.17 58.12 C 303.88 64 303.72 69.89 303.7 75.77 C 303.69 78.33 303.74 80.9 303.82 83.45 C 303.91 85.96 304.06 88.47 304.28 90.97 C 304.569 93.989 304.871 97.013 305.194 100.034 C 306.257 100.911 307.213 101.915 308.04 103.02 C 309.25 104.63 310.24 106.4 310.96 108.29 C 311.7 110.2 312.24 112.19 312.57 114.22 C 312.9 116.27 313.07 118.35 313.06 120.43 C 313.07 124.41 312.52 128.38 311.42 132.21 C 310.94 133.9 310.32 135.56 309.56 137.15 C 308.97 138.43 308.24 139.63 307.38 140.74 C 307.14 142.03 306.86 143.32 306.53 144.59 C 306.45 144.87 306.38 145.15 306.32 145.43 C 306.29 145.55 306.28 145.68 306.28 145.8 L 306.29 146.04 L 306.29 146.14 C 306.29 146.16 306.29 146.18 306.29 146.2 C 306.28 146.61 306.27 147.01 306.23 147.42 C 306.18 148.23 306.12 149.04 306.06 149.85 C 305.81 152.74 305.53 155.63 305.21 158.52 C 304.7 163.08 304.13 167.64 303.51 172.19 C 302.66 178.41 301.73 184.62 300.73 190.82 C 298.514 204.503 296.03 218.143 293.278 231.732 L 293.278 231.732 L 293.278 231.732 L 293.278 231.732 L 293.278 231.732 L 293.278 231.732 L 293.278 231.732 L 293.278 231.732 L 293.278 231.732 L 293.278 231.732 L 293.278 231.732 L 293.278 231.732 L 293.278 231.732 L 293.278 231.732 L 293.278 231.732 L 293.278 231.732 L 293.278 231.732 L 293.278 231.732 L 293.278 231.732 L 293.278 231.732 L 293.278 231.732 L 293.278 231.732 L 293.278 231.732 L 293.278 231.732 L 293.278 231.732 L 293.278 231.732 L 293.278 231.732 L 293.278 231.732 L 293.278 231.732 L 293.278 231.732 L 293.278 231.732 L 293.278 231.732 L 293.278 231.732 Z  M 255.233 241.817 C 255.94 238.166 256.743 234.533 257.63 230.92 C 258.37 227.9 259.16 224.88 259.99 221.88 C 260.71 219.26 261.46 216.64 262.22 214.02 C 262.78 212.1 263.33 210.17 263.87 208.24 C 264.34 206.57 264.77 204.89 265.17 203.2 C 265.52 201.77 265.8 200.32 266.02 198.86 C 266.21 197.66 266.31 196.44 266.32 195.22 C 266.32 194.88 266.31 194.54 266.29 194.2 C 266.26 193.71 266.21 193.22 266.14 192.74 C 266.02 192 265.89 191.27 265.74 190.54 C 265.62 189.98 265.5 189.43 265.36 188.87 C 265.19 188.18 265.01 187.48 264.82 186.79 C 264.29 184.85 264.126 184 263.24 181 C 262.605 178.85 262.064 176.664 261.396 174.502 C 260.656 172.503 259.907 170.512 259.15 168.53 C 258.01 165.63 256.94 162.71 255.92 159.77 C 255.52 158.59 255.15 157.39 254.83 156.18 C 254.57 155.21 254.38 154.22 254.29 153.22 C 254.21 151.99 254.17 150.75 254.17 149.52 C 254.18 147.73 254.23 145.95 254.34 144.16 C 254.45 142.27 254.57 140.38 254.71 138.48 C 254.98 135.02 255.17 131.54 255.29 128.07 L 255.31 126.78 C 255.3 124.52 255.17 122.25 254.92 120 C 254.67 117.66 254.35 115.33 253.95 113.02 C 253.2 108.81 252.33 104.62 251.33 100.46 C 250.97 98.98 250.49 97.54 249.92 96.13 C 249.25 94.43 248.51 92.75 247.72 91.09 C 246.16 87.84 244.53 84.62 242.82 81.44 C 242.33 80.51 241.83 79.57 241.35 78.64 C 241.01 77.99 240.69 77.34 240.4 76.67 C 240.17 76.09 240.03 75.49 239.97 74.87 C 239.89 74.19 239.86 73.51 239.87 72.83 C 239.89 71.07 239.98 69.31 240.14 67.56 C 240.33 65.29 240.44 63 240.46 60.72 C 240.47 59.57 240.41 58.41 240.3 57.27 C 240.09 55.51 239.77 53.77 239.32 52.05 C 238.86 50.22 238.33 48.4 237.73 46.61 C 236.74 43.68 235.67 40.79 234.5 37.93 C 234.5 37.93 234.5 37.92 234.5 37.92 L 234.4 37.66 C 234.39 37.66 234.39 37.66 234.39 37.65 C 233.94 36.49 233.52 35.32 233.14 34.13 C 232.68 32.73 232.26 31.33 231.87 29.91 C 231.49 28.52 231.15 27.13 230.84 25.72 C 230.58 24.57 230.4 23.41 230.29 22.23 C 230.27 21.91 230.19 21.58 230.08 21.27 C 229.93 20.84 229.74 20.43 229.51 20.03 C 228.97 19.06 228.3 18.17 227.52 17.37 C 226.76 16.55 225.88 15.85 224.92 15.29 C 224.51 15.06 224.08 14.87 223.63 14.72 C 223.26 14.61 222.88 14.55 222.5 14.54 C 222.35 14.54 222.21 14.55 222.06 14.58 C 221.35 14.72 220.7 15.05 220.17 15.54 C 219.53 16.13 219 16.84 218.6 17.62 C 218.16 18.45 217.82 19.33 217.6 20.24 C 217.39 21 217.28 21.77 217.27 22.56 L 217.29 23.02 C 217.32 23.4 217.33 23.79 217.33 24.18 C 217.32 25.24 217.26 26.3 217.16 27.35 C 217.04 28.66 216.89 29.96 216.71 31.26 C 216.3 34.31 215.82 37.34 215.27 40.37 C 214.64 44 214.33 47.69 214.35 51.38 C 214.35 53.22 214.42 55.06 214.58 56.89 C 214.72 58.54 214.94 60.18 215.26 61.81 C 215.66 63.74 216.16 65.65 216.76 67.52 C 217.32 69.28 217.92 71.02 218.56 72.76 C 219.16 74.38 219.72 76.02 220.23 77.68 C 220.43 78.41 220.56 79.16 220.62 79.91 C 220.7 80.78 220.74 81.65 220.73 82.52 C 220.71 84.5 220.61 86.48 220.43 88.46 C 220.25 90.55 220.05 92.63 219.82 94.72 C 219.61 96.55 219.44 98.38 219.28 100.22 C 219.2 101.42 219.17 102.62 219.18 103.83 C 219.18 106.06 219.24 108.3 219.36 110.54 C 219.48 113.06 219.63 115.59 219.83 118.11 C 220.02 120.51 220.24 122.91 220.5 125.3 C 220.7 127.15 220.95 129 221.26 130.83 C 221.62 132.66 222.06 134.46 222.59 136.24 C 223.24 138.53 223.92 140.8 224.63 143.07 C 225.59 146.16 226.51 149.25 227.38 152.36 C 227.79 153.84 228.16 155.32 228.5 156.82 C 228.81 158.16 229.07 159.52 229.27 160.89 C 229.42 161.95 229.54 163.01 229.6 164.08 C 229.73 166 229.81 167.93 229.86 169.85 C 229.94 173.4 229.95 176.94 229.88 180.49 C 229.788 185.199 229.661 189.911 229.481 194.623 C 229.941 195.64 230.423 196.645 230.92 197.64 C 231.88 199.58 232.93 201.47 234.06 203.31 C 235.82 206.11 237.43 208.99 238.9 211.94 C 240.186 214.577 241.297 217.288 242.241 220.064 C 241.988 214.073 241.692 208.084 241.34 202.1 C 240.97 195.76 240.51 189.44 239.96 183.11 C 239.24 174.84 238.32 166.59 237.18 158.36 C 236.44 152.91 235.48 147.49 234.32 142.12 C 234.07 140.93 233.69 139.77 233.21 138.66 C 232.72 137.6 232.19 136.56 231.62 135.54 C 230.87 134.2 230.17 132.83 229.53 131.44 C 228.67 129.52 227.94 127.54 227.35 125.52 C 226.94 124.14 226.65 122.73 226.46 121.3 C 226.27 119.8 226.17 118.29 226.17 116.79 C 226.16 114.83 226.33 112.87 226.68 110.94 C 226.99 109.12 227.53 107.35 228.28 105.67 C 228.64 104.88 229.06 104.13 229.55 103.43 C 229.663 103.267 229.78 103.107 229.897 102.947 L 229.897 102.947 C 229.653 101.555 229.407 100.162 229.16 98.77 C 228.82 96.89 228.47 95.01 228.11 93.14 C 227.88 91.91 227.62 90.68 227.33 89.46 C 226.71 87 226.08 84.54 225.43 82.09 C 223.97 76.49 222.53 70.89 221.11 65.29 C 220.48 62.83 219.88 60.37 219.29 57.9 C 219.07 57 218.86 56.09 218.67 55.18 C 218.53 54.57 218.41 53.96 218.31 53.34 C 218.19 52.57 218.13 51.8 218.13 51.02 C 218.12 50.03 218.23 49.03 218.46 48.07 C 218.68 47.12 219.06 46.22 219.58 45.39 C 220.12 44.55 220.85 43.86 221.72 43.36 C 222.66 42.85 223.72 42.59 224.8 42.6 C 226.02 42.6 227.23 42.84 228.36 43.32 C 229.45 43.78 230.43 44.46 231.25 45.31 C 232.07 46.18 232.75 47.18 233.24 48.27 C 233.75 49.42 234.1 50.65 234.27 51.9 C 234.43 53.05 234.56 54.21 234.67 55.36 C 234.84 57.08 235.01 58.8 235.17 60.52 C 235.58 64.92 236.02 69.32 236.5 73.72 C 236.75 76.01 237.03 78.3 237.33 80.59 C 237.6 82.68 237.92 84.77 238.27 86.85 C 239.097 91.595 239.974 96.329 240.901 101.054 C 241.393 101.355 241.843 101.714 242.26 102.11 C 243.09 102.88 243.83 103.74 244.47 104.67 C 245.15 105.65 245.76 106.68 246.29 107.74 C 247.37 109.92 248.24 112.2 248.9 114.54 C 249.51 116.62 249.97 118.75 250.27 120.9 C 250.37 121.59 250.41 122.28 250.41 122.97 C 250.39 124.59 250.19 126.2 249.81 127.77 C 249.45 129.28 249.04 130.77 248.57 132.24 C 248.17 133.51 247.81 134.8 247.49 136.1 C 247.21 137.23 247.05 138.39 247.04 139.55 C 247.03 140.19 247.1 140.83 247.25 141.46 C 247.43 142.22 247.6 142.99 247.77 143.76 C 247.96 144.66 248.14 145.56 248.31 146.47 C 248.79 149.03 249.21 151.6 249.58 154.18 C 250.09 157.85 250.55 161.53 250.94 165.22 C 251.37 169.19 251.74 173.16 252.06 177.15 C 252.49 182.43 252.87 187.71 253.19 193 C 253.43 196.88 253.64 200.76 253.84 204.65 C 254.07 209.24 254.27 213.83 254.46 218.42 C 254.59 221.7 254.71 224.98 254.82 228.26 C 254.95 231.91 255.06 235.55 255.16 239.2 C 255.185 240.072 255.21 240.945 255.233 241.817 L 255.233 241.817 L 255.233 241.817 L 255.233 241.817 L 255.233 241.817 L 255.233 241.817 L 255.233 241.817 L 255.233 241.817 L 255.233 241.817 L 255.233 241.817 L 255.233 241.817 L 255.233 241.817 L 255.233 241.817 L 255.233 241.817 L 255.233 241.817 L 255.233 241.817 L 255.233 241.817 L 255.233 241.817 L 255.233 241.817 L 255.233 241.817 L 255.233 241.817 L 255.233 241.817 L 255.233 241.817 L 255.233 241.817 L 255.233 241.817 L 255.233 241.817 L 255.233 241.817 L 255.233 241.817 L 255.233 241.817 L 255.233 241.817 L 255.233 241.817 L 255.233 241.817 L 255.233 241.817 Z  M 224.767 234.863 C 224.762 234.492 224.761 234.121 224.76 233.75 C 224.77 229.32 224.86 224.89 225.03 220.46 C 225.14 217.89 225.2 215.33 225.22 212.76 C 225.22 210.92 225.16 209.08 225.03 207.24 C 224.88 205.27 224.64 203.3 224.31 201.35 C 224.18 200.56 224.02 199.77 223.85 198.98 C 223.61 197.91 223.35 196.85 223.07 195.79 C 222.87 195.01 222.65 194.22 222.43 193.45 C 222.16 192.51 221.88 191.58 221.59 190.66 C 220.91 188.462 220.189 186.278 219.426 184.109 C 218.626 182.159 217.844 180.197 217.08 178.23 C 216.73 177.32 216.39 176.4 216.05 175.49 C 215.81 174.86 215.59 174.22 215.37 173.58 C 215.148 172.924 214.953 172.256 214.798 171.578 C 214.736 171.394 214.691 171.207 214.659 171.015 C 214.565 170.656 214.489 170.292 214.422 169.927 C 214.415 169.897 214.41 169.868 214.406 169.839 C 214.26 169.056 214.127 168.27 214.023 167.48 C 213.937 166.955 213.869 166.428 213.813 165.9 C 213.751 165.381 213.697 164.86 213.65 164.34 C 213.48 162.56 213.35 160.78 213.25 158.99 C 213.15 157.18 213.06 155.37 212.98 153.56 C 212.9 151.72 212.81 149.89 212.7 148.06 C 212.61 146.46 212.48 144.87 212.3 143.27 C 212.07 141.28 211.81 139.3 211.52 137.32 C 211.25 135.46 210.93 133.61 210.57 131.78 C 209.72 127.65 208.65 123.57 207.36 119.56 C 206.51 116.95 205.41 114.42 204.07 112.01 C 202.85 109.83 201.56 107.68 200.19 105.58 C 199.38 104.35 198.61 103.1 197.87 101.83 C 197.55 101.28 197.25 100.72 196.98 100.15 C 196.73 99.62 196.52 99.08 196.35 98.52 C 195.91 96.93 195.7 95.28 195.73 93.63 C 195.76 92.05 195.84 90.48 195.99 88.9 C 196.17 86.97 196.27 85.03 196.29 83.09 C 196.29 79.55 195.96 76.02 195.31 72.53 C 194.94 70.52 194.45 68.53 193.83 66.58 C 193.2 64.58 192.4 62.65 191.45 60.78 C 190.41 58.73 189.48 56.62 188.67 54.47 C 187.89 52.39 187.18 50.29 186.54 48.16 C 186.01 46.39 185.52 44.61 185.08 42.82 C 184.79 41.69 184.54 40.54 184.32 39.4 C 184.26 39.12 184.17 38.86 184.04 38.61 C 183.84 38.19 183.62 37.79 183.36 37.4 C 182.71 36.41 181.96 35.48 181.13 34.64 C 180.32 33.77 179.4 33.02 178.4 32.38 C 178.01 32.13 177.58 31.92 177.14 31.76 C 176.85 31.65 176.54 31.59 176.22 31.58 L 175.95 31.6 C 175.67 31.64 175.4 31.73 175.15 31.87 C 174.79 32.05 174.46 32.28 174.16 32.55 C 173.39 33.24 172.73 34.05 172.21 34.94 C 171.61 35.9 171.14 36.93 170.78 38 C 170.47 38.87 170.3 39.78 170.28 40.71 L 170.29 41.03 C 170.31 41.48 170.32 41.92 170.32 42.36 C 170.31 43.83 170.26 45.3 170.18 46.77 C 170.08 48.65 169.97 50.52 169.85 52.39 C 169.71 54.67 169.58 56.94 169.47 59.21 C 169.36 61.18 169.3 63.14 169.29 65.11 C 169.28 66.73 169.32 68.36 169.4 69.98 C 169.48 71.5 169.63 73.01 169.84 74.52 C 170.06 76.11 170.36 77.68 170.72 79.24 C 171.16 81.06 171.66 82.87 172.22 84.65 C 172.76 86.4 173.42 88.1 174.19 89.76 C 174.82 91.08 175.49 92.38 176.2 93.66 C 176.82 94.75 177.4 95.86 177.93 97 C 178.49 98.21 178.94 99.47 179.25 100.76 C 179.47 101.77 179.58 102.81 179.56 103.84 C 179.54 105.37 179.42 106.89 179.19 108.39 C 178.96 110.02 178.7 111.64 178.41 113.26 C 178.11 114.88 177.85 116.5 177.62 118.13 C 177.41 119.55 177.29 120.98 177.28 122.41 L 177.29 123.05 C 177.39 125.02 177.58 126.98 177.88 128.93 C 178.23 131.41 178.64 133.87 179.11 136.32 C 179.57 138.8 180.09 141.27 180.66 143.72 C 181.11 145.72 181.63 147.7 182.22 149.66 C 182.65 151.01 183.14 152.34 183.7 153.65 C 184.25 154.94 184.84 156.23 185.44 157.51 C 186.22 159.14 186.95 160.8 187.63 162.48 C 188.33 164.2 188.88 165.99 189.26 167.81 C 189.47 168.89 189.63 169.98 189.73 171.08 C 189.87 172.4 189.98 173.72 190.06 175.04 C 190.24 178.19 190.38 181.35 190.48 184.5 C 190.57 187.08 190.67 189.65 190.79 192.23 C 190.91 194.82 191.07 197.4 191.28 199.98 C 191.62 203.97 191.99 207.96 192.4 211.94 C 192.809 215.907 193.242 219.874 193.694 223.841 C 195.313 225.641 196.861 227.507 198.35 229.42 C 201.08 232.92 203.65 236.55 206.05 240.29 C 209.272 245.282 212.414 250.317 215.482 255.397 C 212.901 245.456 210.519 235.458 208.32 225.42 L 202.77 199.79 C 202.77 199.79 202.77 199.79 202.77 199.79 L 199.06 182.67 C 198.09 178.22 197.1 173.77 196.08 169.33 C 195.39 166.26 194.65 163.21 193.85 160.17 C 193.6 159.2 193.32 158.24 193.02 157.29 C 192.87 156.77 192.67 156.26 192.44 155.77 C 191.77 154.47 191.05 153.19 190.29 151.93 C 188.82 149.48 187.44 146.97 186.15 144.41 C 185.5 143.08 184.91 141.73 184.4 140.34 C 183.91 139.05 183.54 137.71 183.31 136.35 C 182.82 133.41 182.56 130.44 182.53 127.46 C 182.53 126.14 182.6 124.82 182.76 123.51 C 182.91 122.26 183.18 121.04 183.59 119.85 C 183.954 118.748 184.502 117.729 185.227 116.839 C 184.899 115.03 184.571 113.221 184.24 111.41 C 183.64 108.07 182.99 104.73 182.32 101.4 C 181.62 98.03 180.87 94.67 180.07 91.32 C 179.36 88.35 178.63 85.39 177.89 82.43 C 177.36 80.35 176.85 78.27 176.35 76.19 C 175.96 74.59 175.61 72.99 175.31 71.37 C 175.17 70.6 175.02 69.84 174.86 69.07 C 174.65 68.1 174.47 67.11 174.3 66.13 C 174.14 65.17 174.05 64.19 174.03 63.22 C 174.02 62.48 174.1 61.75 174.27 61.04 C 174.45 60.3 174.76 59.61 175.21 58.99 C 175.69 58.34 176.31 57.81 177.03 57.43 C 177.82 57.02 178.68 56.74 179.56 56.62 C 180.1 56.53 180.65 56.49 181.19 56.48 C 182.35 56.45 183.49 56.74 184.5 57.31 C 185.4 57.88 186.14 58.67 186.64 59.6 C 187.14 60.53 187.53 61.51 187.79 62.53 C 188.09 63.64 188.36 64.76 188.59 65.88 C 188.79 66.84 189.01 67.8 189.25 68.75 C 189.7 70.61 190.07 72.49 190.36 74.38 C 190.72 76.62 191.05 78.87 191.36 81.12 C 191.74 83.86 192.15 86.6 192.57 89.33 C 193.07 92.5 193.63 95.66 194.26 98.81 C 194.97 102.4 195.59 106.01 196.13 109.63 C 196.583 112.602 196.998 115.58 197.38 118.566 C 197.892 119.222 198.362 119.907 198.79 120.62 C 199.89 122.46 200.81 124.41 201.52 126.44 C 202.28 128.52 202.86 130.66 203.26 132.84 C 203.75 135.61 203.99 138.43 203.96 141.25 C 203.96 142.81 203.91 144.37 203.81 145.93 C 203.72 147.3 203.62 148.66 203.51 150.02 C 203.44 150.81 203.38 151.6 203.32 152.39 C 203.28 152.99 203.25 153.6 203.25 154.2 C 203.25 154.45 203.26 154.7 203.28 154.94 C 203.3 155.11 203.33 155.28 203.38 155.44 C 203.46 155.81 203.55 156.17 203.65 156.53 C 203.97 157.66 204.3 158.79 204.64 159.92 C 205.71 163.42 206.79 166.91 207.9 170.39 C 210.34 178.07 212.7 185.76 214.99 193.48 C 216.09 197.19 217.14 200.92 218.13 204.67 C 218.95 207.69 219.66 210.74 220.26 213.82 C 221.13 218.38 222.08 222.93 223.1 227.46 C 223.648 229.928 224.207 232.395 224.767 234.863 L 224.767 234.863 L 224.767 234.863 L 224.767 234.863 L 224.767 234.863 L 224.767 234.863 L 224.767 234.863 L 224.767 234.863 L 224.767 234.863 L 224.767 234.863 L 224.767 234.863 L 224.767 234.863 L 224.767 234.863 L 224.767 234.863 L 224.767 234.863 L 224.767 234.863 L 224.767 234.863 L 224.767 234.863 L 224.767 234.863 L 224.767 234.863 L 224.767 234.863 L 224.767 234.863 L 224.767 234.863 L 224.767 234.863 L 224.767 234.863 L 224.767 234.863 L 224.767 234.863 L 224.767 234.863 L 224.767 234.863 L 224.767 234.863 L 224.767 234.863 L 224.767 234.863 Z  M 199.176 280.268 C 197.364 278.811 195.547 277.361 193.72 275.93 C 190.74 273.57 187.97 270.96 185.44 268.13 C 183.13 265.56 180.98 262.85 179.02 260 C 177.34 257.56 175.77 255.05 174.32 252.46 C 173.2 250.48 172.14 248.47 171.13 246.43 C 170.73 245.63 170.31 244.84 169.88 244.06 C 169.09 242.64 168.28 241.24 167.46 239.84 C 165.95 237.27 164.4 234.73 162.83 232.2 C 159.439 226.745 156.001 221.323 152.527 215.924 C 152.083 215.025 151.592 214.144 151.05 213.3 C 150.07 211.77 148.99 210.3 147.83 208.9 C 146.61 207.39 145.36 205.91 144.08 204.44 C 143.16 203.37 142.24 202.29 141.33 201.19 C 140.52 200.23 139.75 199.24 139 198.22 C 138.05 196.9 137.15 195.54 136.29 194.15 C 135.22 192.44 134.2 190.69 133.23 188.91 C 132.2 187.04 131.25 185.13 130.36 183.19 C 129.54 181.39 128.82 179.54 128.22 177.65 C 127.78 176.22 127.4 174.76 127.09 173.29 C 126.84 172.04 126.61 170.78 126.4 169.52 C 126.19 168.13 125.92 166.74 125.59 165.37 C 125.26 163.99 124.77 162.66 124.12 161.41 C 123.45 160.14 122.59 158.99 121.58 157.98 C 120.74 157.19 119.84 156.44 118.9 155.77 C 118.36 155.37 117.84 154.96 117.32 154.52 C 116.83 154.11 116.37 153.65 115.95 153.15 C 115.32 152.36 114.76 151.52 114.3 150.63 C 113.71 149.55 113.18 148.44 112.7 147.3 C 111.78 145.11 110.95 142.89 110.21 140.64 C 109.59 138.75 108.96 136.88 108.3 135.01 C 107.65 133.16 106.94 131.33 106.17 129.52 C 105.55 128.04 104.97 126.54 104.44 125.02 C 104.07 124 103.68 122.98 103.29 121.97 C 102.95 121.08 102.55 120.22 102.1 119.38 C 101.63 118.54 101.38 117.6 101.37 116.63 C 101.37 115.9 101.54 115.17 101.86 114.51 C 102.3 113.64 102.94 112.88 103.72 112.28 C 104.54 111.61 105.56 111.24 106.62 111.23 C 107.66 111.25 108.67 111.54 109.56 112.08 C 109.99 112.32 110.39 112.62 110.75 112.96 C 111.04 113.23 111.3 113.55 111.51 113.89 C 111.99 114.66 112.51 115.4 113.08 116.11 C 113.73 116.94 114.41 117.74 115.11 118.52 C 116.59 120.16 118.15 121.72 119.78 123.22 C 120.95 124.26 122.14 125.26 123.37 126.23 C 124.57 127.2 125.75 128.19 126.91 129.21 C 127.43 129.67 127.93 130.15 128.42 130.65 C 128.84 131.08 129.23 131.53 129.59 132.01 C 131.16 134.1 132.62 136.27 133.98 138.51 C 134.74 139.75 135.44 141.02 136.09 142.32 C 136.37 142.88 136.63 143.45 136.86 144.04 C 137.05 144.5 137.21 144.98 137.33 145.47 C 137.55 146.37 137.76 147.28 137.94 148.2 C 138.15 149.38 138.44 150.55 138.81 151.71 C 139.21 152.92 139.83 154.05 140.62 155.05 C 141.26 155.82 141.95 156.56 142.67 157.25 C 143.52 158.08 144.38 158.89 145.25 159.7 C 146.22 160.6 147.18 161.5 148.13 162.42 C 149.01 163.27 149.85 164.16 150.65 165.08 C 151.67 166.3 152.63 167.57 153.54 168.88 C 154.84 170.71 156.1 172.58 157.31 174.47 C 158.57 176.45 159.78 178.46 160.92 180.51 C 161.42 181.42 161.9 182.34 162.36 183.28 C 162.74 184.05 163.08 184.83 163.39 185.63 C 163.79 186.72 164.16 187.82 164.48 188.94 C 164.79 190.02 165.09 191.1 165.38 192.19 C 165.84 193.99 166.36 195.77 166.92 197.54 C 167.63 199.67 168.47 201.74 169.44 203.76 C 169.73 204.36 170.04 204.96 170.37 205.54 C 170.97 206.6 171.58 207.65 172.21 208.69 C 172.73 209.55 173.26 210.41 173.8 211.26 C 174.54 212.44 175.29 213.61 176.05 214.78 C 178.19 218.07 180.36 221.34 182.57 224.59 C 183.947 226.614 185.329 228.634 186.715 230.65 C 186.991 231.161 187.262 231.675 187.53 232.19 C 188.77 234.55 190 236.92 191.21 239.3 C 194.9 246.5 198.65 253.67 202.47 260.81 C 203.453 262.648 204.394 264.508 205.289 266.387 C 203.638 263.58 201.986 260.773 200.33 257.97 C 196.65 251.7 192.89 245.48 189.06 239.31 C 188.11 237.8 187.13 236.31 186.12 234.83 C 184.84 232.95 183.55 231.08 182.25 229.22 C 179.2 224.89 176.13 220.57 173.05 216.26 C 169.68 211.58 166.35 206.87 163.05 202.14 C 161.9 200.49 160.77 198.81 159.67 197.11 C 159.31 196.56 158.96 195.99 158.63 195.42 C 158.46 195.15 158.31 194.87 158.19 194.58 C 157.99 193.99 157.84 193.38 157.74 192.76 C 157.59 191.93 157.46 191.09 157.35 190.25 C 157.22 189.25 157.06 188.24 156.89 187.24 C 156.7 186.1 156.46 184.97 156.17 183.85 C 155.49 181.22 154.45 178.69 153.08 176.34 C 152.17 174.8 151.13 173.33 149.98 171.95 C 148.86 170.58 147.61 169.32 146.25 168.18 C 144.99 167.1 143.59 166.19 142.09 165.48 C 141.371 165.133 140.62 164.867 139.846 164.695 C 139.539 164.228 139.234 163.759 138.93 163.29 C 137.25 160.69 135.63 158.04 134.09 155.36 C 132.87 153.22 131.71 151.04 130.62 148.83 C 129.79 147.11 128.98 145.38 128.2 143.63 C 127.6 142.27 126.97 140.92 126.33 139.58 C 125.63 138.15 124.89 136.74 124.09 135.36 C 123.52 134.36 122.91 133.4 122.25 132.46 C 121.73 131.71 121.14 131.01 120.5 130.36 C 119.96 129.8 119.33 129.34 118.64 128.98 C 117.99 128.64 117.26 128.46 116.52 128.45 C 115.85 128.46 115.18 128.6 114.57 128.88 C 113.96 129.15 113.39 129.5 112.87 129.92 C 112.32 130.33 111.85 130.86 111.5 131.46 C 111.18 132.04 111.02 132.7 111.02 133.36 C 111.02 133.82 111.09 134.27 111.22 134.71 C 111.35 135.13 111.51 135.54 111.7 135.93 C 112.1 136.73 112.54 137.51 113.02 138.26 C 113.53 139.08 114.01 139.93 114.45 140.79 C 114.75 141.36 115.06 141.92 115.4 142.47 C 115.81 143.12 116.22 143.76 116.65 144.39 C 117.7 145.93 118.77 147.45 119.86 148.96 C 121.31 150.98 122.74 153.01 124.14 155.06 C 125.66 157.28 127.12 159.55 128.5 161.87 C 129.568 163.68 130.597 165.514 131.59 167.365 C 131.444 167.606 131.325 167.863 131.23 168.13 C 130.91 169.01 130.76 169.94 130.79 170.88 C 130.81 172.19 130.99 173.49 131.32 174.76 C 131.68 176.17 132.12 177.56 132.65 178.91 C 133.72 181.66 135.01 184.31 136.49 186.86 C 137.2 188.08 138.03 189.23 138.95 190.3 C 139.81 191.3 140.75 192.24 141.74 193.12 C 142.65 193.93 143.59 194.69 144.57 195.42 C 145.42 196.05 146.28 196.67 147.16 197.27 C 147.67 197.63 148.18 197.99 148.68 198.35 C 149.06 198.63 149.43 198.91 149.79 199.22 C 149.89 199.31 149.98 199.42 150.06 199.53 C 150.28 199.81 150.49 200.09 150.7 200.38 C 151.36 201.31 151.99 202.26 152.61 203.22 C 154.57 206.27 156.5 209.35 158.39 212.45 C 163.69 221.16 168.95 229.9 174.16 238.67 C 178.57 246.09 183.02 253.5 187.51 260.88 C 191.431 267.317 195.323 273.782 199.176 280.268 L 199.176 280.268 L 199.176 280.268 L 199.176 280.268 L 199.176 280.268 L 199.176 280.268 L 199.176 280.268 L 199.176 280.268 L 199.176 280.268 L 199.176 280.268 L 199.176 280.268 L 199.176 280.268 L 199.176 280.268 L 199.176 280.268 L 199.176 280.268 L 199.176 280.268 L 199.176 280.268 L 199.176 280.268 L 199.176 280.268 L 199.176 280.268 L 199.176 280.268 L 199.176 280.268 L 199.176 280.268 L 199.176 280.268 L 199.176 280.268 L 199.176 280.268 L 199.176 280.268 L 199.176 280.268 L 199.176 280.268 L 199.176 280.268 L 199.176 280.268 Z  M 393.244 206.884 C 393.598 206.635 393.972 206.414 394.36 206.22 C 394.87 205.98 395.34 205.67 395.78 205.32 C 396.11 205.04 396.42 204.74 396.71 204.43 C 397.13 203.99 397.54 203.54 397.93 203.07 C 398.49 202.42 399.04 201.75 399.57 201.07 C 400.02 200.51 400.48 199.95 400.95 199.4 C 401.38 198.91 401.84 198.44 402.32 198 C 402.85 197.54 403.42 197.11 404.02 196.73 C 404.78 196.26 405.58 195.84 406.4 195.47 C 407.92 194.78 409.49 194.22 411.1 193.79 C 412.6 193.37 414.14 193.14 415.7 193.12 C 416.5 193.11 417.31 193.21 418.09 193.41 C 418.74 193.59 419.35 193.89 419.88 194.3 C 420.23 194.56 420.52 194.88 420.74 195.26 C 420.85 195.47 420.91 195.7 420.92 195.94 C 420.89 196.45 420.74 196.95 420.48 197.39 C 420.11 198.05 419.69 198.68 419.24 199.28 C 419 199.6 418.77 199.93 418.54 200.27 C 418.45 200.41 418.35 200.54 418.24 200.67 C 418.02 200.93 417.79 201.19 417.55 201.44 C 417.35 201.65 417.14 201.85 416.94 202.06 C 416.773 202.215 416.606 202.374 416.439 202.532 C 416.178 202.492 415.915 202.478 415.65 202.48 C 415.14 202.48 414.64 202.55 414.15 202.67 C 413.61 202.8 413.09 202.99 412.6 203.24 C 412.03 203.53 411.49 203.87 410.98 204.26 C 410.23 204.82 409.54 205.46 408.93 206.16 C 408.06 207.15 407.26 208.19 406.54 209.28 C 405.61 210.7 404.74 212.15 403.93 213.63 C 402.83 215.59 401.75 217.55 400.68 219.53 C 399.28 222.11 397.86 224.68 396.43 227.24 C 394.99 229.81 393.49 232.35 391.93 234.85 C 390.6 237.03 389.15 239.13 387.59 241.16 C 386.98 241.95 386.32 242.7 385.63 243.42 C 385.12 243.96 384.55 244.44 383.94 244.86 C 382.45 245.87 380.95 246.85 379.43 247.8 C 378.29 248.52 377.11 249.17 375.9 249.75 C 374.84 250.24 373.74 250.64 372.61 250.93 C 371.3 251.26 369.97 251.48 368.63 251.61 C 368.02 251.68 367.42 251.79 366.82 251.94 C 366.336 252.059 365.851 252.193 365.371 252.335 C 366.185 251.022 366.956 249.683 367.7 248.33 C 369.47 245.12 371.17 241.87 372.79 238.58 C 374.2 235.7 375.6 232.81 376.97 229.9 C 377.81 228.1 378.66 226.32 379.54 224.54 C 379.83 223.96 380.13 223.39 380.45 222.82 C 380.58 222.56 380.74 222.31 380.92 222.09 C 381.33 221.65 381.8 221.27 382.31 220.95 C 383.05 220.47 383.82 220 384.59 219.56 C 385.38 219.11 386.15 218.64 386.92 218.16 C 387.75 217.65 388.54 217.09 389.3 216.48 C 390.09 215.85 390.82 215.15 391.48 214.38 C 392.16 213.58 392.73 212.68 393.16 211.72 C 393.38 211.22 393.57 210.7 393.71 210.18 C 393.84 209.74 393.91 209.3 393.92 208.85 C 393.958 208.133 393.713 207.425 393.244 206.884 L 393.244 206.884 L 393.244 206.884 L 393.244 206.884 L 393.244 206.884 L 393.244 206.884 L 393.244 206.884 L 393.244 206.884 L 393.244 206.884 L 393.244 206.884 L 393.244 206.884 L 393.244 206.884 L 393.244 206.884 L 393.244 206.884 L 393.244 206.884 L 393.244 206.884 L 393.244 206.884 L 393.244 206.884 L 393.244 206.884 L 393.244 206.884 L 393.244 206.884 L 393.244 206.884 L 393.244 206.884 L 393.244 206.884 L 393.244 206.884 L 393.244 206.884 L 393.244 206.884 L 393.244 206.884 L 393.244 206.884 L 393.244 206.884 Z  M 240.963 386.932 C 238.631 388.58 236.473 390.46 234.529 392.55 C 234.599 392.525 234.669 392.503 234.74 392.48 C 237.16 391.7 239.6 391.01 242.07 390.41 C 243.57 390.05 245.09 389.78 246.62 389.61 C 246.7 389.601 246.78 389.592 246.861 389.585 C 246.327 389.335 245.794 389.087 245.26 388.84 C 243.838 388.18 242.406 387.542 240.963 386.932 L 240.963 386.932 L 240.963 386.932 L 240.963 386.932 L 240.963 386.932 L 240.963 386.932 L 240.963 386.932 L 240.963 386.932 L 240.963 386.932 L 240.963 386.932 L 240.963 386.932 L 240.963 386.932 L 240.963 386.932 L 240.963 386.932 L 240.963 386.932 L 240.963 386.932 L 240.963 386.932 L 240.963 386.932 L 240.963 386.932 L 240.963 386.932 L 240.963 386.932 L 240.963 386.932 L 240.963 386.932 L 240.963 386.932 L 240.963 386.932 L 240.963 386.932 L 240.963 386.932 L 240.963 386.932 L 240.963 386.932 Z  M 285.762 393.506 C 285.768 393.51 285.774 393.515 285.78 393.52 C 286.07 393.77 286.38 393.99 286.71 394.18 C 287.13 394.4 287.58 394.55 288.05 394.63 C 288.37 394.69 288.7 394.72 289.03 394.72 C 289.43 394.72 289.83 394.66 290.22 394.54 C 290.66 394.39 291.09 394.21 291.52 394.01 C 292.2 393.69 292.91 393.41 293.63 393.17 C 294.62 392.86 295.65 392.68 296.68 392.61 C 296.92 392.59 297.15 392.58 297.39 392.58 C 298 392.57 298.61 392.65 299.19 392.81 C 299.73 392.96 300.23 393.21 300.67 393.54 C 301.06 393.84 301.4 394.18 301.69 394.56 C 301.884 394.813 302.072 395.066 302.249 395.329 C 302.406 394.919 302.566 394.51 302.73 394.1 C 302.94 393.55 303.18 393.01 303.43 392.48 C 304.03 391.13 304.53 389.74 304.9 388.31 C 305.38 386.52 305.77 384.7 306.06 382.87 C 306.4 380.72 306.67 378.55 306.86 376.38 C 307.07 373.94 307.21 371.49 307.29 369.04 C 307.324 368.427 307.398 367.813 307.517 367.209 C 307.488 367.26 307.459 367.31 307.43 367.36 C 306.07 369.71 304.66 372.03 303.21 374.33 C 302.64 375.24 302.05 376.13 301.45 377.01 C 300.98 377.7 300.48 378.38 299.96 379.04 C 298.15 381.29 296.23 383.45 294.21 385.52 C 292.14 387.66 290 389.73 287.79 391.72 C 287.123 392.324 286.448 392.92 285.762 393.506 L 285.762 393.506 L 285.762 393.506 L 285.762 393.506 L 285.762 393.506 L 285.762 393.506 L 285.762 393.506 L 285.762 393.506 L 285.762 393.506 L 285.762 393.506 L 285.762 393.506 L 285.762 393.506 L 285.762 393.506 L 285.762 393.506 L 285.762 393.506 L 285.762 393.506 L 285.762 393.506 L 285.762 393.506 L 285.762 393.506 L 285.762 393.506 L 285.762 393.506 L 285.762 393.506 L 285.762 393.506 L 285.762 393.506 L 285.762 393.506 L 285.762 393.506 L 285.762 393.506 L 285.762 393.506 Z  M 304.204 484.629 C 304.235 484.386 304.268 484.143 304.3 483.9 C 304.42 483.03 304.53 482.16 304.63 481.29 C 304.77 480.16 304.9 479.03 305.02 477.9 C 305.37 474.75 305.69 471.59 305.98 468.42 C 306.178 466.251 306.37 464.08 306.558 461.908 C 304.782 460.651 302.942 459.478 301.05 458.41 C 298.046 456.686 294.979 455.079 291.848 453.602 L 291.848 453.602 C 291.984 454.079 292.121 454.554 292.26 455.03 C 293.2 458.24 294.23 461.41 295.36 464.56 C 296.2 466.91 297.13 469.22 298.16 471.49 C 300.05 475.7 301.98 479.89 303.94 484.07 Q 304.028 484.256 304.204 484.629 L 304.204 484.629 Q 303.817 487.545 304.204 484.629 L 304.204 484.629 L 304.204 484.629 L 304.204 484.629 L 304.204 484.629 L 304.204 484.629 L 304.204 484.629 L 304.204 484.629 L 304.204 484.629 L 304.204 484.629 L 304.204 484.629 L 304.204 484.629 L 304.204 484.629 L 304.204 484.629 L 304.204 484.629 L 304.204 484.629 L 304.204 484.629 L 304.204 484.629 L 304.204 484.629 L 304.204 484.629 L 304.204 484.629 L 304.204 484.629 L 304.204 484.629 L 304.204 484.629 L 304.204 484.629 L 304.204 484.629 L 304.204 484.629 Z  M 238.867 452.649 C 238.298 456.393 237.777 460.152 237.3 463.91 C 236.58 469.61 236.03 475.33 235.67 481.06 C 235.219 488.129 234.881 495.203 234.644 502.283 C 234.144 499.58 233.702 496.866 233.3 494.15 C 232.85 491.11 232.51 488.05 232.28 484.99 C 232.18 483.61 232.13 482.23 232.12 480.85 C 232.12 478.9 232.16 476.96 232.26 475.02 C 232.34 473.36 232.45 471.71 232.59 470.05 C 232.76 467.99 232.96 465.93 233.19 463.87 C 233.53 460.75 233.93 457.63 234.37 454.51 C 234.426 454.118 234.483 453.725 234.544 453.334 C 235.985 453.103 237.427 452.878 238.867 452.649 L 238.867 452.649 L 238.867 452.649 L 238.867 452.649 L 238.867 452.649 L 238.867 452.649 L 238.867 452.649 L 238.867 452.649 L 238.867 452.649 L 238.867 452.649 L 238.867 452.649 L 238.867 452.649 L 238.867 452.649 L 238.867 452.649 L 238.867 452.649 L 238.867 452.649 L 238.867 452.649 L 238.867 452.649 L 238.867 452.649 L 238.867 452.649 L 238.867 452.649 L 238.867 452.649 L 238.867 452.649 L 238.867 452.649 L 238.867 452.649 L 238.867 452.649 L 238.867 452.649 Z  M 269.665 447.215 C 268.693 453.279 267.776 459.359 266.91 465.44 C 266.3 469.71 265.76 473.98 265.28 478.27 C 264.83 482.28 264.37 486.3 263.89 490.31 C 263.19 496.12 262.47 501.94 261.74 507.75 C 266.18 507.74 270.62 507.61 275.05 507.36 C 275.74 499.45 276.45 491.55 277.17 483.65 C 277.53 479.75 277.91 475.85 278.3 471.95 C 278.68 468.08 279.11 464.22 279.57 460.36 C 280.01 456.632 280.468 452.915 280.945 449.196 C 278.841 448.521 276.694 447.981 274.52 447.58 C 273.09 447.33 271.65 447.2 270.2 447.2 C 270.022 447.202 269.843 447.206 269.665 447.215 L 269.665 447.215 L 269.665 447.215 L 269.665 447.215 L 269.665 447.215 L 269.665 447.215 L 269.665 447.215 L 269.665 447.215 L 269.665 447.215 L 269.665 447.215 L 269.665 447.215 L 269.665 447.215 L 269.665 447.215 L 269.665 447.215 L 269.665 447.215 L 269.665 447.215 L 269.665 447.215 L 269.665 447.215 L 269.665 447.215 L 269.665 447.215 L 269.665 447.215 L 269.665 447.215 L 269.665 447.215 L 269.665 447.215 L 269.665 447.215 Z  M 301.626 504.374 C 293.827 505.698 285.967 506.621 278.079 507.158 C 278.761 499.412 279.453 491.666 280.16 483.92 C 280.52 480.03 280.89 476.14 281.29 472.25 C 281.67 468.4 282.09 464.55 282.55 460.71 C 282.966 457.203 283.397 453.697 283.841 450.195 C 285.341 450.736 286.823 451.33 288.285 451.969 C 288.633 453.275 289.001 454.574 289.38 455.87 C 290.34 459.14 291.39 462.37 292.54 465.57 C 293.4 467.99 294.37 470.38 295.42 472.72 C 297.32 476.94 299.26 481.15 301.23 485.35 C 301.977 486.939 302.727 488.528 303.48 490.115 C 303.338 491.199 303.194 492.284 303.05 493.37 C 302.575 497.036 302.1 500.702 301.626 504.374 L 301.626 504.374 L 301.626 504.374 L 301.626 504.374 L 301.626 504.374 L 301.626 504.374 L 301.626 504.374 L 301.626 504.374 L 301.626 504.374 L 301.626 504.374 L 301.626 504.374 L 301.626 504.374 L 301.626 504.374 L 301.626 504.374 L 301.626 504.374 L 301.626 504.374 L 301.626 504.374 L 301.626 504.374 L 301.626 504.374 L 301.626 504.374 L 301.626 504.374 L 301.626 504.374 L 301.626 504.374 L 301.626 504.374 Z  M 258.717 507.74 C 251.645 507.668 244.575 507.293 237.53 506.62 C 237.75 498.16 238.13 489.7 238.66 481.25 C 239.02 475.58 239.56 469.93 240.28 464.29 C 240.787 460.245 241.353 456.216 241.966 452.19 C 243.312 451.984 244.66 451.786 246.01 451.59 C 247.9 451.3 249.78 450.96 251.65 450.55 C 253.39 450.18 255.12 449.78 256.84 449.36 C 259.12 448.79 261.42 448.29 263.73 447.85 C 264.677 447.668 265.632 447.525 266.593 447.442 C 265.66 453.298 264.773 459.155 263.94 465.02 C 263.33 469.32 262.78 473.62 262.3 477.94 C 261.85 481.94 261.39 485.95 260.91 489.95 C 260.199 495.882 259.467 501.815 258.717 507.74 L 258.717 507.74 L 258.717 507.74 L 258.717 507.74 L 258.717 507.74 L 258.717 507.74 L 258.717 507.74 L 258.717 507.74 L 258.717 507.74 L 258.717 507.74 L 258.717 507.74 L 258.717 507.74 L 258.717 507.74 L 258.717 507.74 L 258.717 507.74 L 258.717 507.74 L 258.717 507.74 L 258.717 507.74 L 258.717 507.74 L 258.717 507.74 L 258.717 507.74 L 258.717 507.74 L 258.717 507.74 Z  M 309.382 464.055 C 309.246 465.602 309.108 467.151 308.97 468.7 C 308.68 471.88 308.36 475.06 308.01 478.23 C 307.88 479.37 307.75 480.51 307.61 481.64 C 307.51 482.53 307.39 483.42 307.28 484.3 C 306.86 487.45 306.44 490.6 306.03 493.75 C 305.59 497.12 305.15 500.49 304.72 503.86 C 309.24 503.05 313.73 502.1 318.2 501.04 C 318.22 500.68 318.22 500.32 318.21 499.96 C 318.21 499.95 318.21 499.94 318.21 499.93 L 318.21 499.13 L 318.21 498.19 C 318.2 497.13 318.23 496.07 318.29 495.02 C 318.32 494.5 318.34 493.99 318.33 493.47 C 318.33 492.14 318.3 490.82 318.26 489.49 C 318.16 486.19 318.01 482.9 317.82 479.62 C 317.653 476.67 317.479 473.722 317.3 470.775 C 314.754 468.43 312.115 466.19 309.382 464.055 L 309.382 464.055 L 309.382 464.055 L 309.382 464.055 L 309.382 464.055 L 309.382 464.055 L 309.382 464.055 L 309.382 464.055 L 309.382 464.055 L 309.382 464.055 L 309.382 464.055 L 309.382 464.055 L 309.382 464.055 L 309.382 464.055 L 309.382 464.055 L 309.382 464.055 L 309.382 464.055 L 309.382 464.055 L 309.382 464.055 L 309.382 464.055 L 309.382 464.055 L 309.382 464.055 Z  M 211.765 502.741 C 218.55 504.139 225.393 505.239 232.27 506.05 C 231.55 502.24 230.9 498.42 230.33 494.58 C 229.88 491.47 229.53 488.35 229.29 485.22 C 229.18 483.76 229.13 482.31 229.12 480.86 C 229.12 478.86 229.16 476.86 229.26 474.87 C 229.35 473.18 229.46 471.49 229.6 469.81 C 229.77 467.72 229.97 465.63 230.2 463.54 C 230.55 460.38 230.95 457.23 231.4 454.09 C 231.412 454.005 231.425 453.919 231.438 453.834 C 230.929 453.913 230.419 453.996 229.91 454.08 C 225.28 454.84 220.67 455.67 216.08 456.57 C 215.987 456.589 215.893 456.609 215.801 456.631 C 215.313 461.389 214.858 466.15 214.43 470.92 C 213.48 481.515 212.589 492.128 211.765 502.741 L 211.765 502.741 L 211.765 502.741 L 211.765 502.741 L 211.765 502.741 L 211.765 502.741 L 211.765 502.741 L 211.765 502.741 L 211.765 502.741 L 211.765 502.741 L 211.765 502.741 L 211.765 502.741 L 211.765 502.741 L 211.765 502.741 L 211.765 502.741 L 211.765 502.741 L 211.765 502.741 L 211.765 502.741 L 211.765 502.741 L 211.765 502.741 L 211.765 502.741 Z  M 319.564 256.134 C 319.482 255.54 319.4 254.946 319.32 254.35 C 319.16 253.22 319.02 252.08 318.9 250.94 C 318.73 249.36 318.58 247.78 318.47 246.19 C 318.38 244.84 318.32 243.49 318.29 242.14 C 318.27 241.28 318.26 240.41 318.26 239.55 C 318.24 236.5 318.41 233.45 318.75 230.42 C 319.03 228.22 319.4 226.03 319.84 223.86 C 320.16 222.25 320.44 220.64 320.69 219.03 C 320.691 219.022 320.692 219.014 320.693 219.005 C 319.613 221.687 318.436 224.328 317.17 226.93 C 315.23 230.93 313.21 234.89 311.11 238.81 C 310.32 240.3 309.56 241.8 308.82 243.32 C 307.69 245.64 306.58 247.97 305.5 250.32 C 305.159 251.046 304.822 251.776 304.486 252.507 C 305.024 252.583 305.562 252.659 306.1 252.74 C 307.84 253 309.57 253.31 311.29 253.68 C 312.6 253.97 313.91 254.29 315.21 254.66 C 316.679 255.093 318.134 255.577 319.564 256.134 L 319.564 256.134 L 319.564 256.134 L 319.564 256.134 L 319.564 256.134 L 319.564 256.134 L 319.564 256.134 L 319.564 256.134 L 319.564 256.134 L 319.564 256.134 L 319.564 256.134 L 319.564 256.134 L 319.564 256.134 L 319.564 256.134 L 319.564 256.134 L 319.564 256.134 L 319.564 256.134 L 319.564 256.134 L 319.564 256.134 L 319.564 256.134 Z  M 303.183 255.38 C 304.008 255.473 304.83 255.586 305.65 255.71 C 307.33 255.96 309 256.26 310.66 256.62 C 311.91 256.88 313.15 257.19 314.37 257.54 C 316.99 258.31 319.56 259.25 322.06 260.37 C 324.1 261.3 326.11 262.28 328.1 263.33 C 329.094 263.863 330.101 264.377 331.122 264.862 C 330.129 265.059 329.137 265.259 328.15 265.47 C 325.83 265.98 323.53 266.58 321.26 267.27 C 315.26 269.13 309.48 271.66 304.04 274.81 C 302.02 275.98 300.05 277.23 298.12 278.55 C 295.97 280.02 293.85 281.54 291.77 283.1 C 291.524 283.284 291.279 283.469 291.035 283.655 C 291.274 283.07 291.517 282.485 291.76 281.9 C 294.45 275.44 297.19 269 299.99 262.59 C 301 260.3 302.01 258.01 303.03 255.72 C 303.081 255.607 303.132 255.494 303.183 255.38 L 303.183 255.38 L 303.183 255.38 L 303.183 255.38 L 303.183 255.38 L 303.183 255.38 L 303.183 255.38 L 303.183 255.38 L 303.183 255.38 L 303.183 255.38 L 303.183 255.38 L 303.183 255.38 L 303.183 255.38 L 303.183 255.38 L 303.183 255.38 L 303.183 255.38 L 303.183 255.38 L 303.183 255.38 L 303.183 255.38 Z  M 286.287 287.283 C 287.182 285.1 288.085 282.92 288.99 280.74 C 291.69 274.27 294.44 267.82 297.25 261.39 C 298.25 259.09 299.27 256.79 300.3 254.5 C 301.11 252.68 301.94 250.86 302.77 249.06 C 303.87 246.69 304.98 244.34 306.12 242.01 C 306.88 240.46 307.66 238.92 308.46 237.4 C 310.54 233.51 312.55 229.58 314.47 225.62 C 316.23 222.01 317.81 218.32 319.2 214.55 C 320.52 210.96 321.55 207.27 322.28 203.51 C 323.02 199.64 323.39 195.71 323.39 191.77 C 323.39 190.58 323.36 189.38 323.29 188.18 C 323.17 185.98 322.92 183.78 322.54 181.6 C 322.11 179.21 321.56 176.84 320.87 174.5 C 320.12 171.92 319.22 169.38 318.19 166.89 C 318.4 168.52 318.6 170.15 318.79 171.78 C 318.95 173.22 319.08 174.67 319.18 176.11 C 319.28 177.46 319.33 178.82 319.34 180.17 C 319.34 180.18 319.34 180.19 319.34 180.19 L 319.33 180.98 C 319.34 181.51 319.34 182.05 319.33 182.58 C 319.32 183.11 319.31 183.64 319.29 184.17 C 319.22 185.54 319.06 186.91 318.8 188.26 C 318.53 189.68 318.18 191.09 317.74 192.47 C 316.78 195.47 315.6 198.4 314.2 201.24 C 312.65 204.42 310.98 207.55 309.2 210.62 C 307.25 214.02 305.25 217.39 303.23 220.74 C 300.83 224.71 298.48 228.7 296.17 232.71 C 294.465 235.672 292.817 238.667 291.231 241.693 C 291.165 242.012 291.098 242.331 291.03 242.65 C 287.493 259.342 283.675 275.975 279.564 292.535 C 281.792 290.765 284.031 289.012 286.287 287.283 L 286.287 287.283 L 286.287 287.283 L 286.287 287.283 L 286.287 287.283 L 286.287 287.283 L 286.287 287.283 L 286.287 287.283 L 286.287 287.283 L 286.287 287.283 L 286.287 287.283 L 286.287 287.283 L 286.287 287.283 L 286.287 287.283 L 286.287 287.283 L 286.287 287.283 L 286.287 287.283 L 286.287 287.283 Z  M 279.672 235.451 C 279.623 233.188 279.523 230.924 279.38 228.66 C 279.09 224.18 278.73 219.71 278.29 215.24 C 277.88 210.55 277.13 205.89 276.06 201.31 C 275.21 197.67 274.09 194.1 272.72 190.63 C 271.59 187.82 270.29 185.07 268.82 182.42 C 267.57 180.19 266.27 177.99 264.91 175.83 C 264.59 175.33 264.27 174.81 263.95 174.3 C 264.63 176.21 265.29 178.13 265.93 180.06 C 266.57 182.03 267.17 184.01 267.72 186 C 267.91 186.72 268.1 187.44 268.28 188.16 C 268.42 188.75 268.55 189.33 268.68 189.92 C 268.84 190.71 268.98 191.5 269.1 192.29 C 269.19 192.86 269.25 193.43 269.29 194.01 C 269.31 194.42 269.32 194.82 269.32 195.23 C 269.31 196.6 269.2 197.97 268.99 199.32 C 268.75 200.86 268.45 202.38 268.09 203.9 C 267.68 205.62 267.23 207.34 266.76 209.05 C 266.21 210.99 265.66 212.93 265.1 214.86 C 264.34 217.47 263.6 220.07 262.88 222.69 C 262.05 225.66 261.28 228.64 260.54 231.64 C 258.79 238.8 257.36 246.03 256.27 253.32 C 256.046 254.822 255.829 256.326 255.618 257.83 C 255.721 262.36 255.803 266.89 255.87 271.42 C 256.058 283.838 256.19 296.255 256.264 308.68 C 256.326 308.669 256.388 308.655 256.45 308.64 C 256.95 308.52 257.44 308.35 257.91 308.13 C 258.6 307.82 259.28 307.46 259.93 307.08 C 261.422 306.193 262.88 305.251 264.292 304.254 C 268.461 286.142 272.545 268.009 276.54 249.86 C 277.598 245.06 278.642 240.257 279.672 235.451 L 279.672 235.451 L 279.672 235.451 L 279.672 235.451 L 279.672 235.451 L 279.672 235.451 L 279.672 235.451 L 279.672 235.451 L 279.672 235.451 L 279.672 235.451 L 279.672 235.451 L 279.672 235.451 L 279.672 235.451 L 279.672 235.451 L 279.672 235.451 L 279.672 235.451 L 279.672 235.451 Z  M 242.743 234.13 C 242.037 230.302 241.117 226.522 239.98 222.79 C 238.96 219.53 237.7 216.34 236.21 213.26 C 234.78 210.4 233.22 207.6 231.51 204.89 C 230.33 202.97 229.24 201 228.24 198.98 C 227.24 196.98 226.3 194.95 225.42 192.89 C 225.39 192.81 225.35 192.73 225.32 192.66 C 225.55 193.44 225.77 194.23 225.98 195.03 C 226.26 196.12 226.53 197.22 226.78 198.33 C 226.96 199.17 227.13 200.01 227.27 200.86 C 227.61 202.9 227.86 204.95 228.02 207.02 C 228.16 208.93 228.22 210.85 228.22 212.77 C 228.2 215.37 228.14 217.98 228.03 220.58 C 227.86 224.97 227.77 229.36 227.76 233.75 C 227.768 238.816 227.887 243.889 228.129 248.951 C 230.126 257.225 232.166 265.484 234.24 273.73 C 234.24 273.74 234.24 273.74 234.24 273.74 L 234.24 273.74 C 235.68 279.5 237.21 285.24 238.82 290.96 C 240.288 296.16 241.798 301.344 243.35 306.517 L 243.35 306.517 C 243.47 292.171 243.459 277.83 243.32 263.49 C 243.234 253.701 243.036 243.917 242.743 234.13 L 242.743 234.13 L 242.743 234.13 L 242.743 234.13 L 242.743 234.13 L 242.743 234.13 L 242.743 234.13 L 242.743 234.13 L 242.743 234.13 L 242.743 234.13 L 242.743 234.13 L 242.743 234.13 L 242.743 234.13 L 242.743 234.13 L 242.743 234.13 L 242.743 234.13 Z  M 215.015 282.903 C 212.448 274.781 209.134 266.915 205.11 259.4 C 201.31 252.27 197.56 245.12 193.88 237.93 C 192.67 235.55 191.43 233.17 190.19 230.8 C 189.26 229.01 188.29 227.24 187.28 225.49 C 186.47 224.1 185.59 222.74 184.66 221.43 C 183.8 220.25 182.88 219.13 181.88 218.07 C 181.88 218.07 181.88 218.07 181.88 218.07 L 181.8 217.99 C 180.86 216.6 179.93 215.21 179.02 213.82 C 179.53 214.23 180.04 214.65 180.54 215.08 C 183.26 217.39 185.86 219.84 188.33 222.42 C 191.03 225.24 193.58 228.19 195.98 231.26 C 198.66 234.7 201.18 238.25 203.53 241.91 C 207.63 248.28 211.61 254.72 215.47 261.24 C 216.444 262.888 217.403 264.545 218.35 266.21 C 222.06 279.813 225.963 293.356 230.068 306.838 C 227.534 302.85 225 298.862 222.47 294.87 C 219.98 290.94 217.52 286.98 215.08 283.01 C 215.058 282.974 215.036 282.939 215.015 282.903 L 215.015 282.903 L 215.015 282.903 L 215.015 282.903 L 215.015 282.903 L 215.015 282.903 L 215.015 282.903 L 215.015 282.903 L 215.015 282.903 L 215.015 282.903 L 215.015 282.903 L 215.015 282.903 L 215.015 282.903 L 215.015 282.903 L 215.015 282.903 Z  M 203.691 287.895 C 202.979 287.294 202.266 286.695 201.55 286.1 C 198.35 283.45 195.12 280.84 191.86 278.28 C 188.75 275.81 185.85 273.09 183.2 270.14 C 180.81 267.47 178.59 264.65 176.55 261.7 C 174.82 259.19 173.2 256.6 171.7 253.93 C 170.56 251.91 169.48 249.85 168.45 247.77 C 168.07 247.01 167.67 246.26 167.25 245.52 C 166.48 244.12 165.68 242.74 164.87 241.36 C 163.37 238.82 161.84 236.29 160.28 233.78 C 158.66 231.17 157.03 228.57 155.38 225.97 C 155.57 227.16 155.76 228.35 155.95 229.53 C 156.38 232.31 156.83 235.09 157.27 237.86 C 157.6 239.87 158.08 241.85 158.72 243.78 C 159.34 245.61 160.01 247.42 160.75 249.21 C 161.4 250.83 162.02 252.47 162.61 254.11 C 163.25 255.97 163.8 257.85 164.25 259.76 C 164.64 261.43 164.95 263.13 165.16 264.83 C 165.34 266.33 165.47 267.82 165.56 269.32 C 165.74 271.83 165.97 274.33 166.26 276.83 C 166.729 280.61 167.297 284.382 167.957 288.133 C 170.97 291.6 174.25 294.819 177.77 297.78 C 180.48 300.06 183.41 302.07 186.51 303.79 C 187.71 304.44 188.94 305.03 190.19 305.56 C 191.78 306.23 193.38 306.87 195 307.45 C 198.84 308.83 202.74 310.06 206.67 311.12 C 210.74 312.24 214.85 313.17 219 313.92 C 219.003 313.921 219.007 313.921 219.01 313.922 L 219.01 313.922 C 213.925 305.233 208.816 296.558 203.691 287.895 L 203.691 287.895 L 203.691 287.895 L 203.691 287.895 L 203.691 287.895 L 203.691 287.895 L 203.691 287.895 L 203.691 287.895 L 203.691 287.895 L 203.691 287.895 L 203.691 287.895 L 203.691 287.895 L 203.691 287.895 L 203.691 287.895 Z  M 309.029 398.982 C 309.399 398.116 309.788 397.259 310.2 396.41 C 310.9 394.95 311.64 393.5 312.43 392.07 C 314.06 389.08 315.81 386.16 317.65 383.29 C 319.39 380.58 321.19 377.92 323.05 375.3 C 324.52 373.22 326.04 371.18 327.61 369.17 C 328.3 368.31 328.99 367.46 329.69 366.61 C 331.36 364.59 332.99 362.53 334.59 360.45 C 336.58 357.85 338.45 355.17 340.21 352.41 C 342.25 349.21 344.09 345.9 345.74 342.48 C 347.57 338.66 349.11 334.71 350.35 330.67 C 351.37 327.33 352.33 323.99 353.24 320.62 C 354.09 317.48 354.93 314.33 355.74 311.18 C 356.44 308.49 357.15 305.82 357.87 303.14 C 358.51 300.76 359.2 298.39 359.94 296.03 C 360.57 294 361.29 292 362.1 290.04 C 362.76 288.38 363.58 286.8 364.53 285.29 C 365.9 283.2 367.35 281.16 368.86 279.18 C 370.45 277.09 372.08 275.03 373.76 273.02 C 374.545 272.07 375.342 271.131 376.139 270.191 C 374.276 271.593 372.406 272.992 370.53 274.38 C 368.32 276.03 366.11 277.68 363.9 279.34 C 361.88 280.86 359.88 282.4 357.89 283.96 C 356.24 285.26 354.62 286.6 353.04 287.98 C 352.42 288.53 351.82 289.09 351.23 289.67 C 350.795 290.096 350.378 290.54 349.99 291.013 C 348.221 293.539 346.531 296.115 344.91 298.74 C 342.83 302.1 340.8 305.49 338.82 308.92 C 336.465 312.982 334.162 317.074 331.934 321.207 C 331.343 322.528 330.718 323.832 330.07 325.12 C 328.95 327.4 327.81 329.66 326.65 331.91 C 323.898 337.286 321.089 342.629 318.228 347.946 C 317.07 350.41 315.953 352.89 314.87 355.39 C 313.63 358.19 312.52 361.03 311.53 363.92 C 311.18 364.96 310.87 366 310.62 367.06 C 310.44 367.75 310.33 368.46 310.29 369.17 C 310.21 371.66 310.06 374.15 309.85 376.64 C 309.65 378.88 309.38 381.12 309.02 383.34 C 308.71 385.27 308.31 387.19 307.8 389.08 C 307.38 390.67 306.83 392.23 306.15 393.73 C 305.92 394.21 305.71 394.71 305.52 395.2 C 305.151 396.126 304.801 397.046 304.46 397.976 C 304.814 398.303 305.201 398.592 305.61 398.85 C 305.98 399.09 306.37 399.29 306.79 399.44 C 307.02 399.52 307.27 399.57 307.52 399.57 C 307.79 399.57 308.05 399.51 308.3 399.39 C 308.548 399.27 308.791 399.134 309.029 398.982 L 309.029 398.982 L 309.029 398.982 L 309.029 398.982 L 309.029 398.982 L 309.029 398.982 L 309.029 398.982 L 309.029 398.982 L 309.029 398.982 L 309.029 398.982 L 309.029 398.982 L 309.029 398.982 L 309.029 398.982 Z  M 283.413 395.484 C 283.561 395.591 283.706 395.703 283.85 395.82 C 284.29 396.19 284.76 396.52 285.26 396.81 C 285.97 397.19 286.74 397.45 287.53 397.58 C 288.02 397.67 288.52 397.72 289.02 397.72 C 289.74 397.72 290.46 397.61 291.15 397.39 C 291.71 397.2 292.26 396.98 292.8 396.72 C 293.37 396.46 293.95 396.23 294.54 396.03 C 295.31 395.8 296.1 395.65 296.89 395.6 C 297.07 395.59 297.24 395.58 297.42 395.58 C 297.74 395.57 298.07 395.61 298.38 395.7 C 298.55 395.75 298.72 395.83 298.86 395.94 C 299.03 396.07 299.19 396.22 299.32 396.4 C 299.53 396.67 299.73 396.95 299.92 397.24 C 300.37 397.92 300.86 398.57 301.4 399.19 C 302.15 400.02 303.02 400.75 303.97 401.36 C 304.54 401.73 305.15 402.04 305.78 402.27 C 306.34 402.47 306.93 402.57 307.52 402.57 C 308.24 402.57 308.95 402.41 309.6 402.1 C 310.1 401.85 310.58 401.57 311.03 401.25 C 311.36 401.03 311.7 400.82 312.05 400.65 C 312.3 400.54 312.57 400.47 312.84 400.47 C 313.03 400.47 313.22 400.5 313.41 400.55 C 313.84 400.66 314.25 400.84 314.63 401.08 C 314.83 401.23 315 401.42 315.13 401.64 C 315.3 401.97 315.43 402.33 315.5 402.7 C 315.63 403.3 315.73 403.9 315.81 404.51 C 315.95 405.48 316.12 406.44 316.32 407.41 C 316.49 408.21 316.61 409.03 316.69 409.85 C 316.79 410.84 316.86 411.83 316.91 412.82 C 317.01 414.98 317.08 417.15 317.1 419.31 C 317.12 420.38 317.14 421.45 317.17 422.51 C 317.19 423.42 317.23 424.32 317.29 425.22 C 317.36 426.03 317.46 426.84 317.59 427.64 C 317.73 428.52 317.88 429.41 318.04 430.29 C 318.37 432.11 318.66 433.95 318.91 435.79 C 319.18 437.92 319.32 440.08 319.33 442.23 C 319.33 442.83 319.31 443.44 319.29 444.04 C 319.24 445.19 319.19 446.34 319.14 447.49 C 319.01 450.11 318.93 452.73 318.9 455.35 C 318.9 457.67 319.03 459.98 319.3 462.28 C 319.39 463.08 319.43 463.89 319.41 464.7 C 319.4 465.25 319.34 465.8 319.22 466.34 C 319.1 466.9 318.9 467.43 318.63 467.93 C 315.86 465.41 312.98 463.01 310.01 460.74 C 307.63 458.92 305.13 457.27 302.53 455.8 C 298.31 453.38 293.97 451.19 289.52 449.23 C 287.17 448.2 284.77 447.29 282.34 446.49 C 279.95 445.7 277.52 445.08 275.05 444.63 C 273.44 444.34 271.81 444.2 270.18 444.2 C 267.83 444.23 265.48 444.46 263.17 444.9 C 260.81 445.35 258.46 445.87 256.12 446.45 C 254.43 446.86 252.72 447.25 251.02 447.62 C 249.21 448.01 247.4 448.35 245.57 448.62 C 240.18 449.41 234.8 450.24 229.42 451.12 C 224.978 451.846 220.535 452.645 216.12 453.51 C 216.258 452.196 216.398 450.883 216.54 449.57 C 216.81 447.02 217.1 444.48 217.39 441.94 C 217.63 439.9 217.88 437.86 218.14 435.82 C 218.49 433.14 218.86 430.45 219.26 427.77 C 219.52 425.96 219.82 424.15 220.14 422.35 C 220.41 420.85 220.7 419.35 221.03 417.86 C 221.22 416.97 221.44 416.09 221.69 415.21 C 221.78 414.91 221.87 414.6 221.97 414.3 C 222.04 414.07 222.12 413.84 222.2 413.62 C 223.44 410.17 224.94 406.82 226.67 403.59 C 227.908 401.281 229.308 399.07 230.867 396.973 C 232.456 396.399 234.053 395.854 235.66 395.33 C 238.01 394.58 240.38 393.91 242.77 393.33 C 244.15 393 245.55 392.75 246.96 392.59 C 248.81 392.38 250.68 392.27 252.55 392.27 C 252.551 392.27 252.552 392.27 252.553 392.27 C 252.967 392.465 253.379 392.662 253.79 392.86 C 255.89 393.87 258 394.87 260.11 395.86 C 261.99 396.74 263.88 397.58 265.8 398.39 C 267.37 399.06 268.98 399.66 270.61 400.17 C 271.27 400.37 271.95 400.55 272.64 400.68 C 273.22 400.8 273.81 400.87 274.41 400.88 C 275.13 400.91 275.85 400.75 276.5 400.42 C 277.32 399.96 278.12 399.45 278.89 398.91 C 279.82 398.27 280.73 397.6 281.62 396.91 C 282.222 396.441 282.82 395.965 283.413 395.484 L 283.413 395.484 L 283.413 395.484 L 283.413 395.484 L 283.413 395.484 L 283.413 395.484 L 283.413 395.484 L 283.413 395.484 L 283.413 395.484 L 283.413 395.484 L 283.413 395.484 L 283.413 395.484 Z  M 360.875 253.904 C 362.351 251.61 363.752 249.271 365.07 246.88 C 366.82 243.71 368.5 240.51 370.09 237.26 C 371.5 234.39 372.89 231.52 374.25 228.63 C 375.1 226.81 375.97 225.01 376.85 223.21 C 377.16 222.6 377.48 221.99 377.81 221.4 C 378.05 220.94 378.33 220.51 378.66 220.12 C 379.26 219.47 379.94 218.9 380.69 218.42 C 381.48 217.91 382.29 217.42 383.1 216.96 C 383.85 216.53 384.6 216.08 385.33 215.62 C 386.06 215.16 386.76 214.67 387.44 214.13 C 388.08 213.62 388.67 213.06 389.2 212.44 C 389.69 211.85 390.11 211.19 390.42 210.49 C 390.58 210.12 390.72 209.75 390.83 209.36 C 390.85 209.3 390.86 209.24 390.87 209.18 C 390.85 209.19 390.82 209.2 390.8 209.21 C 390.47 209.32 390.16 209.46 389.86 209.63 C 389.12 210.05 388.44 210.57 387.84 211.17 C 387.11 211.87 386.32 212.5 385.47 213.05 C 384.59 213.62 383.7 214.18 382.79 214.71 C 381.65 215.36 380.53 216.07 379.45 216.81 C 378.52 217.44 377.68 218.19 376.96 219.05 C 376.67 219.42 376.4 219.8 376.14 220.2 C 375.7 220.88 375.26 221.57 374.83 222.26 C 373.59 224.26 372.36 226.26 371.15 228.27 C 368 233.5 364.77 238.69 361.47 243.84 C 359.85 246.35 358.18 248.83 356.45 251.28 C 355.68 252.35 354.9 253.41 354.09 254.45 C 353.4 255.36 352.67 256.24 351.91 257.1 C 351.639 257.403 351.366 257.703 351.091 258.002 C 354.012 256.717 356.951 255.479 359.91 254.28 C 360.23 254.151 360.55 254.025 360.875 253.904 L 360.875 253.904 L 360.875 253.904 L 360.875 253.904 L 360.875 253.904 L 360.875 253.904 L 360.875 253.904 L 360.875 253.904 L 360.875 253.904 L 360.875 253.904 L 360.875 253.904 Z  M 294.259 107.189 C 293.581 109.459 293.106 111.79 292.83 114.14 C 292.49 116.91 292.32 119.7 292.33 122.5 C 292.32 124.48 292.41 126.46 292.58 128.43 C 292.73 130.24 292.99 132.03 293.33 133.8 C 293.61 135.27 294.02 136.72 294.54 138.12 C 294.75 138.66 294.99 139.19 295.27 139.71 C 295.56 140.23 295.91 140.72 296.33 141.15 C 296.45 142.19 296.62 143.24 296.83 144.27 C 296.89 144.56 296.95 144.84 297.03 145.12 C 297.06 145.25 297.11 145.38 297.16 145.5 C 297.42 146.1 297.58 146.74 297.64 147.4 C 297.73 148.22 297.78 149.05 297.77 149.88 C 297.76 151.01 297.72 152.14 297.64 153.26 C 297.54 154.69 297.41 156.11 297.25 157.54 C 296.83 161.3 296.32 165.05 295.72 168.8 C 294.94 173.78 294.09 178.75 293.18 183.71 C 292.04 189.91 290.86 196.11 289.62 202.3 C 286.39 218.4 283.01 234.47 279.47 250.51 L 267.94 301.588 C 269.152 300.683 270.352 299.766 271.54 298.84 C 272.933 297.758 274.322 296.672 275.708 295.584 C 280.169 277.809 284.292 259.95 288.09 242.02 C 291.73 224.88 294.96 207.64 297.77 190.34 C 298.77 184.16 299.69 177.98 300.54 171.79 C 301.16 167.26 301.72 162.72 302.22 158.18 C 302.54 155.33 302.83 152.47 303.07 149.6 C 303.13 148.8 303.19 148.01 303.24 147.21 C 303.27 146.87 303.28 146.53 303.29 146.19 L 303.29 146.16 L 303.28 145.9 C 303.27 145.87 303.27 145.83 303.27 145.8 C 303.28 145.46 303.32 145.13 303.39 144.8 C 303.46 144.47 303.54 144.14 303.63 143.82 C 304 142.38 304.31 140.92 304.56 139.45 C 305.48 138.37 306.25 137.17 306.85 135.88 C 307.53 134.43 308.1 132.93 308.54 131.39 C 309.56 127.82 310.07 124.14 310.06 120.43 C 310.07 118.51 309.92 116.59 309.61 114.7 C 309.31 112.88 308.83 111.09 308.16 109.37 C 307.558 107.787 306.739 106.299 305.738 104.943 C 306.142 108.559 306.525 112.175 306.87 115.8 C 307.02 117.33 307.14 118.85 307.24 120.38 C 307.33 121.6 307.38 122.82 307.38 124.04 C 307.39 124.62 307.37 125.2 307.32 125.78 C 307.29 126.25 307.21 126.72 307.08 127.18 C 307.08 127.19 307.07 127.19 307.07 127.2 L 306.69 128.48 C 306.5 129.15 306.29 129.82 306.07 130.48 C 305.84 131.14 305.55 131.78 305.18 132.38 C 304.79 133.04 304.25 133.59 303.61 134 C 302.88 134.42 302.05 134.64 301.21 134.63 C 301.19 134.63 301.18 134.63 301.16 134.62 L 300.71 134.6 C 300.7 134.6 300.69 134.6 300.68 134.6 C 299.84 134.54 299.02 134.28 298.3 133.84 C 297.67 133.44 297.14 132.9 296.76 132.25 C 296.43 131.68 296.18 131.07 296.01 130.43 C 295.85 129.86 295.72 129.28 295.6 128.69 L 295.32 127.43 C 295.25 127.11 295.2 126.79 295.17 126.47 C 295.12 126.02 295.08 125.57 295.05 125.12 C 294.95 123.82 294.88 122.51 294.82 121.2 C 294.65 117.55 294.5 113.9 294.37 110.25 C 294.335 109.23 294.298 108.209 294.259 107.189 L 294.259 107.189 L 294.259 107.189 L 294.259 107.189 L 294.259 107.189 L 294.259 107.189 L 294.259 107.189 L 294.259 107.189 L 294.259 107.189 L 294.259 107.189 Z  M 230.715 107.621 C 230.221 108.856 229.857 110.148 229.64 111.46 C 229.32 113.22 229.16 115 229.17 116.78 C 229.17 118.16 229.26 119.54 229.44 120.91 C 229.6 122.18 229.87 123.45 230.23 124.68 C 230.78 126.56 231.46 128.4 232.26 130.19 C 232.87 131.51 233.53 132.8 234.23 134.07 C 234.85 135.17 235.42 136.29 235.94 137.43 C 236.52 138.74 236.96 140.09 237.25 141.48 C 238.43 146.94 239.4 152.43 240.16 157.95 C 241.3 166.23 242.23 174.53 242.95 182.85 C 243.5 189.2 243.96 195.56 244.33 201.92 C 244.8 209.94 245.18 217.96 245.47 225.99 C 245.92 238.47 246.21 250.97 246.32 263.46 C 246.46 278.437 246.469 293.413 246.328 308.381 C 246.762 308.394 247.196 308.438 247.63 308.5 C 248.1 308.58 248.57 308.67 249.04 308.77 C 249.53 308.88 250.02 308.97 250.51 309.04 C 251.08 309.12 251.65 309.17 252.21 309.17 C 252.559 309.163 252.907 309.147 253.255 309.123 L 252.87 271.47 C 252.71 260.74 252.47 250.01 252.17 239.28 C 252.06 235.64 251.95 232.01 251.82 228.37 C 251.71 225.09 251.59 221.81 251.46 218.54 C 251.28 213.96 251.07 209.38 250.84 204.8 C 250.65 200.92 250.43 197.05 250.2 193.18 C 249.87 187.91 249.5 182.65 249.07 177.39 C 248.75 173.43 248.38 169.48 247.96 165.53 C 247.57 161.88 247.12 158.23 246.61 154.59 C 246.25 152.06 245.83 149.54 245.36 147.03 C 245.19 146.14 245.02 145.26 244.83 144.38 C 244.67 143.63 244.51 142.89 244.33 142.14 C 244.13 141.28 244.03 140.4 244.04 139.52 C 244.06 138.12 244.24 136.74 244.58 135.38 C 244.91 134.02 245.29 132.67 245.71 131.33 C 246.16 129.93 246.55 128.51 246.89 127.07 C 247.22 125.72 247.39 124.34 247.41 122.95 C 247.41 122.4 247.38 121.85 247.3 121.31 C 247.02 119.3 246.59 117.32 246.02 115.37 C 245.41 113.2 244.6 111.09 243.6 109.07 C 243.14 108.14 242.6 107.24 242.01 106.38 C 241.975 106.329 241.939 106.279 241.902 106.23 C 242.312 108.438 242.716 110.647 243.11 112.86 C 243.39 114.42 243.65 115.99 243.89 117.55 C 244.07 118.7 244.2 119.85 244.29 121 C 244.31 121.46 244.33 121.93 244.33 122.39 C 244.34 123.46 244.24 124.54 244.01 125.58 C 243.82 126.47 243.48 127.32 242.99 128.09 C 242.54 128.8 241.94 129.4 241.22 129.83 C 240.53 130.24 239.76 130.5 238.96 130.59 C 238.93 130.6 238.91 130.6 238.88 130.6 L 238.6 130.62 C 238.56 130.62 238.52 130.62 238.48 130.62 C 237.57 130.61 236.7 130.25 236.05 129.61 C 235.49 129.05 235.04 128.38 234.74 127.64 C 234.44 126.92 234.19 126.18 234 125.42 C 233.82 124.69 233.65 123.96 233.5 123.22 L 233.32 122.42 C 233.32 122.42 233.32 122.41 233.32 122.41 C 233.06 121.16 232.83 119.9 232.62 118.64 C 232.23 116.42 231.85 114.2 231.47 111.98 C 231.219 110.526 230.968 109.073 230.715 107.621 L 230.715 107.621 L 230.715 107.621 L 230.715 107.621 L 230.715 107.621 L 230.715 107.621 L 230.715 107.621 L 230.715 107.621 L 230.715 107.621 Z  M 198.342 126.486 C 198.466 126.805 198.586 127.127 198.7 127.45 C 199.4 129.37 199.94 131.35 200.31 133.37 C 200.77 135.97 200.99 138.6 200.96 141.23 C 200.96 142.74 200.91 144.24 200.82 145.75 C 200.73 147.09 200.63 148.43 200.52 149.77 C 200.45 150.57 200.39 151.37 200.33 152.17 C 200.28 152.84 200.26 153.51 200.25 154.18 C 200.25 154.54 200.26 154.9 200.3 155.26 C 200.33 155.56 200.39 155.86 200.46 156.16 C 200.56 156.55 200.66 156.94 200.76 157.33 C 201.08 158.49 201.42 159.65 201.77 160.8 C 202.84 164.3 203.93 167.81 205.04 171.3 C 207.47 178.96 209.83 186.63 212.12 194.33 C 213.21 198.02 214.25 201.72 215.23 205.44 C 216.03 208.4 216.73 211.38 217.32 214.39 C 218.19 218.98 219.14 223.56 220.17 228.12 C 221.35 233.41 222.57 238.68 223.83 243.95 C 226.28 254.14 228.78 264.31 231.33 274.47 L 231.33 274.47 C 232.78 280.26 234.32 286.03 235.94 291.77 C 237.609 297.703 239.338 303.614 241.122 309.508 C 240.994 309.588 240.87 309.676 240.75 309.77 C 240.44 310.02 240.17 310.32 239.94 310.65 C 239.78 310.9 239.63 311.15 239.49 311.42 C 239.36 311.66 239.21 311.9 239.05 312.13 C 238.84 312.39 238.59 312.61 238.32 312.8 C 237.79 313.16 237.22 313.45 236.62 313.67 C 236.226 313.823 235.827 313.964 235.423 314.088 C 230.283 297.516 225.442 280.856 220.89 264.12 C 217.35 251.09 214.14 237.97 211.25 224.78 L 205.7 199.16 C 204.47 193.45 203.23 187.74 201.99 182.03 C 201.02 177.57 200.03 173.11 199.01 168.66 C 198.31 165.56 197.56 162.48 196.75 159.41 C 196.49 158.4 196.2 157.41 195.89 156.42 C 195.69 155.74 195.44 155.08 195.13 154.44 C 194.42 153.06 193.66 151.71 192.86 150.39 C 191.43 148 190.09 145.56 188.84 143.07 C 188.23 141.84 187.68 140.57 187.2 139.29 C 186.78 138.17 186.47 137.02 186.27 135.85 C 185.8 133.07 185.56 130.26 185.53 127.44 C 185.53 126.24 185.6 125.05 185.74 123.87 C 185.818 123.187 185.943 122.516 186.12 121.857 C 186.134 121.931 186.147 122.006 186.16 122.08 C 186.78 125.59 187.41 129.1 188.07 132.61 C 188.3 133.84 188.54 135.06 188.8 136.29 C 188.94 137.05 189.13 137.81 189.36 138.56 C 189.6 139.3 189.86 140.03 190.14 140.76 C 190.43 141.5 190.77 142.22 191.17 142.92 C 191.56 143.62 192.08 144.25 192.7 144.77 C 193.39 145.35 194.26 145.67 195.18 145.68 C 195.5 145.68 195.83 145.64 196.14 145.56 C 196.74 145.42 197.3 145.16 197.79 144.8 C 198.27 144.44 198.65 143.96 198.92 143.42 C 199.16 142.91 199.32 142.37 199.4 141.81 C 199.48 141.24 199.52 140.66 199.51 140.08 C 199.49 138.94 199.43 137.79 199.33 136.65 L 199.28 135.99 C 199.28 135.99 199.28 135.99 199.28 135.99 C 199.13 134.01 198.95 132.04 198.73 130.07 C 198.604 128.874 198.474 127.68 198.342 126.486 L 198.342 126.486 L 198.342 126.486 L 198.342 126.486 L 198.342 126.486 L 198.342 126.486 L 198.342 126.486 L 198.342 126.486 Z  M 133.818 171.649 C 133.885 172.447 134.022 173.239 134.23 174.02 C 134.55 175.31 134.96 176.58 135.45 177.82 C 136.46 180.42 137.68 182.94 139.08 185.35 C 139.7 186.41 140.42 187.41 141.22 188.34 C 142 189.24 142.83 190.09 143.72 190.87 C 144.57 191.62 145.45 192.33 146.36 193.01 C 147.18 193.62 148.02 194.22 148.87 194.81 C 149.39 195.17 149.92 195.54 150.44 195.92 C 150.9 196.25 151.35 196.61 151.79 196.98 C 152.02 197.2 152.24 197.44 152.44 197.7 C 152.68 198.01 152.92 198.33 153.15 198.65 C 153.83 199.62 154.49 200.6 155.13 201.59 C 157.11 204.67 159.05 207.77 160.95 210.9 C 166.26 219.61 171.52 228.36 176.74 237.13 C 181.15 244.55 185.59 251.95 190.07 259.32 C 194.07 265.88 198.03 272.47 201.96 279.08 C 208.948 290.87 215.91 302.677 222.837 314.511 C 223.435 314.59 224.032 314.663 224.63 314.73 C 226.24 314.91 227.85 315.01 229.47 315.02 C 230.2 315.02 230.94 314.99 231.68 314.92 C 231.681 314.92 231.683 314.92 231.684 314.92 C 227.75 308.781 223.838 302.634 219.94 296.48 C 217.44 292.53 214.97 288.56 212.52 284.57 C 211.69 283.22 210.86 281.85 210.04 280.49 C 209.52 279.61 209 278.74 208.49 277.86 C 204.93 271.72 201.35 265.6 197.75 259.49 C 194.08 253.25 190.34 247.05 186.52 240.9 C 185.59 239.42 184.63 237.96 183.64 236.52 C 182.37 234.65 181.09 232.79 179.79 230.94 C 176.75 226.62 173.69 222.31 170.61 218.01 C 167.24 213.32 163.9 208.6 160.59 203.86 C 159.42 202.18 158.27 200.47 157.15 198.75 C 156.77 198.16 156.4 197.57 156.05 196.97 C 155.79 196.54 155.57 196.09 155.38 195.63 C 155.11 194.86 154.91 194.07 154.78 193.27 C 154.63 192.4 154.49 191.52 154.38 190.65 C 154.25 189.68 154.1 188.71 153.94 187.74 C 153.76 186.68 153.53 185.64 153.26 184.6 C 152.66 182.24 151.73 179.97 150.5 177.86 C 149.66 176.45 148.72 175.12 147.67 173.86 C 146.66 172.63 145.54 171.49 144.32 170.47 C 143.907 170.119 143.476 169.788 143.02 169.493 C 143.206 169.774 143.393 170.052 143.58 170.33 C 144.48 171.67 145.37 173.01 146.25 174.36 C 146.91 175.34 147.52 176.34 148.1 177.37 C 148.85 178.7 149.55 180.07 150.17 181.48 C 150.48 182.17 150.73 182.88 150.94 183.6 C 151.14 184.3 151.25 185.03 151.26 185.75 C 151.27 186.39 151.16 187.02 150.93 187.62 C 150.68 188.24 150.28 188.8 149.77 189.24 C 149.15 189.78 148.36 190.08 147.54 190.08 C 147.05 190.08 146.58 189.99 146.13 189.82 C 145.71 189.67 145.3 189.46 144.93 189.21 C 144.16 188.69 143.45 188.09 142.83 187.4 C 142.18 186.69 141.57 185.95 141.01 185.16 C 140.47 184.42 139.97 183.65 139.5 182.87 C 139 182.02 138.54 181.16 138.1 180.28 C 137.52 179.12 136.94 177.96 136.37 176.79 C 135.536 175.071 134.686 173.357 133.818 171.649 L 133.818 171.649 L 133.818 171.649 L 133.818 171.649 L 133.818 171.649 L 133.818 171.649 L 133.818 171.649 Z  M 195.988 396.941 C 196.047 397.387 196.1 397.834 196.15 398.28 C 196.21 398.86 196.26 399.44 196.29 400.02 C 196.35 401.17 196.47 402.32 196.66 403.45 C 196.83 404.49 197.03 405.52 197.25 406.55 C 197.54 407.87 197.78 409.2 197.98 410.54 C 198.21 412.16 198.33 413.79 198.33 415.42 C 198.33 416.01 198.31 416.59 198.29 417.17 C 197.86 427.19 197.47 437.21 197.12 447.24 C 196.87 454.32 196.65 461.4 196.46 468.48 C 196.29 474.32 196.19 480.17 196.17 486.02 C 196.15 488.02 196.19 490.02 196.29 492.02 C 196.36 493.26 196.43 494.49 196.49 495.73 C 196.54 496.86 196.59 497.99 196.64 499.12 C 200.67 500.22 204.72 501.22 208.8 502.11 C 209.62 491.62 210.51 481.13 211.45 470.65 C 212.09 463.51 212.79 456.37 213.56 449.25 C 213.83 446.69 214.12 444.14 214.41 441.59 C 214.65 439.54 214.9 437.49 215.17 435.44 C 215.51 432.73 215.89 430.03 216.29 427.33 C 216.56 425.49 216.86 423.66 217.19 421.82 C 217.46 420.29 217.76 418.75 218.1 417.22 C 218.3 416.27 218.54 415.33 218.8 414.4 C 218.9 414.06 219 413.72 219.11 413.39 C 219.19 413.12 219.28 412.85 219.38 412.59 C 220.67 409.01 222.23 405.53 224.03 402.18 C 225.89 398.7 228.11 395.42 230.64 392.39 C 232.754 389.863 235.144 387.579 237.763 385.583 C 237.449 385.453 237.135 385.326 236.82 385.2 C 234.33 384.18 231.77 383.3 229.18 382.58 C 228.09 382.28 226.99 382.04 225.88 381.85 C 224.96 381.69 224.04 381.61 223.11 381.6 L 222.82 381.6 C 221.75 381.63 220.7 381.73 219.65 381.9 C 218.52 382.09 217.41 382.35 216.32 382.68 C 215.11 383.05 213.93 383.49 212.78 384.01 C 211.45 384.61 210.17 385.29 208.92 386.04 C 208.39 386.36 207.86 386.69 207.34 387.04 C 206.78 387.4 206.23 387.78 205.69 388.18 C 203.93 389.45 202.25 390.83 200.65 392.3 C 199.036 393.783 197.478 395.331 195.988 396.941 L 195.988 396.941 L 195.988 396.941 L 195.988 396.941 L 195.988 396.941 L 195.988 396.941 Z  M 301.29 131.63 L 300.89 131.61 C 300.52 131.58 300.17 131.46 299.86 131.28 C 299.66 131.15 299.48 130.96 299.35 130.73 C 299.15 130.4 299 130.03 298.9 129.65 C 298.77 129.14 298.65 128.63 298.55 128.11 C 298.54 128.09 298.54 128.08 298.54 128.07 L 298.25 126.78 C 298.25 126.78 298.25 126.78 298.25 126.77 C 298.21 126.57 298.18 126.37 298.16 126.17 C 298.11 125.75 298.07 125.33 298.04 124.91 C 297.95 123.63 297.87 122.35 297.81 121.07 C 297.65 117.43 297.5 113.79 297.37 110.14 C 297.24 106.37 297.09 102.6 296.92 98.83 C 296.85 97.3 296.77 95.76 296.67 94.22 C 296.61 93.12 296.51 92.02 296.39 90.92 C 296.11 88.74 295.83 86.56 295.53 84.38 C 294.79 78.94 294.09 73.49 293.42 68.03 C 293.12 65.55 292.84 63.06 292.59 60.57 C 292.5 59.62 292.42 58.66 292.35 57.71 C 292.3 57.05 292.27 56.39 292.27 55.73 C 292.27 55.56 292.27 55.38 292.28 55.21 C 292.34 54.47 292.46 53.72 292.64 53 C 292.77 52.48 292.98 51.98 293.27 51.53 C 293.48 51.22 293.76 50.97 294.09 50.79 C 294.54 50.59 295.03 50.49 295.52 50.5 C 295.87 50.5 296.22 50.53 296.56 50.59 C 297.36 50.7 298.14 50.95 298.86 51.32 C 299.4 51.61 299.88 51.99 300.28 52.46 C 300.92 53.19 301.27 54.13 301.29 55.1 C 301.27 56.05 301.24 57 301.18 57.95 C 300.88 63.89 300.72 69.83 300.7 75.77 C 300.69 78.36 300.74 80.96 300.83 83.56 C 300.91 86.12 301.07 88.68 301.29 91.24 C 301.73 95.87 302.21 100.49 302.73 105.11 C 303.15 108.77 303.53 112.43 303.89 116.09 C 304.03 117.59 304.15 119.08 304.25 120.58 C 304.33 121.74 304.38 122.9 304.38 124.06 C 304.39 124.56 304.37 125.06 304.33 125.56 C 304.31 125.83 304.27 126.09 304.2 126.35 L 303.81 127.63 C 303.81 127.64 303.81 127.64 303.81 127.65 C 303.63 128.28 303.44 128.9 303.23 129.51 C 303.07 129.97 302.87 130.42 302.61 130.83 C 302.47 131.07 302.27 131.28 302.04 131.43 C 301.81 131.56 301.55 131.63 301.29 131.63 L 301.29 131.63 L 301.29 131.63 L 301.29 131.63 L 301.29 131.63 Z  M 238.65 127.61 L 238.49 127.62 C 238.36 127.61 238.24 127.56 238.15 127.47 C 237.88 127.19 237.66 126.86 237.52 126.49 C 237.27 125.91 237.06 125.31 236.91 124.7 C 236.74 124 236.58 123.31 236.43 122.61 C 236.43 122.6 236.43 122.6 236.43 122.59 L 236.26 121.79 C 236 120.58 235.78 119.36 235.58 118.14 C 235.19 115.92 234.8 113.7 234.42 111.48 C 233.67 107.06 232.9 102.65 232.11 98.24 C 231.77 96.35 231.42 94.46 231.06 92.58 C 230.82 91.29 230.55 90.02 230.24 88.74 C 229.62 86.27 228.98 83.8 228.33 81.33 C 226.87 75.74 225.43 70.15 224.01 64.55 C 223.39 62.11 222.79 59.66 222.21 57.2 C 221.99 56.31 221.79 55.42 221.6 54.53 C 221.47 53.98 221.36 53.42 221.27 52.87 C 221.17 52.25 221.13 51.63 221.13 51.01 C 221.12 50.25 221.21 49.49 221.38 48.75 C 221.52 48.13 221.77 47.54 222.11 47.01 C 222.38 46.59 222.74 46.24 223.17 45.99 C 223.67 45.72 224.22 45.59 224.78 45.6 C 225.61 45.6 226.42 45.76 227.18 46.08 C 227.9 46.39 228.54 46.83 229.08 47.39 C 229.67 48.01 230.15 48.72 230.5 49.5 C 230.9 50.39 231.17 51.34 231.3 52.3 C 231.45 53.42 231.58 54.53 231.68 55.65 C 231.86 57.37 232.02 59.08 232.18 60.8 C 232.59 65.22 233.04 69.63 233.52 74.04 C 233.77 76.36 234.05 78.67 234.36 80.98 C 234.63 83.11 234.95 85.24 235.31 87.36 C 236.15 92.14 237.04 96.91 237.97 101.67 C 238.73 105.57 239.46 109.48 240.16 113.39 C 240.44 114.92 240.69 116.47 240.92 118.01 C 241.09 119.07 241.21 120.14 241.29 121.21 C 241.32 121.61 241.33 122.01 241.33 122.41 C 241.34 123.27 241.26 124.12 241.08 124.95 C 240.96 125.5 240.75 126.02 240.46 126.49 C 240.26 126.8 239.99 127.07 239.68 127.26 C 239.36 127.45 239.01 127.56 238.65 127.61 L 238.65 127.61 L 238.65 127.61 L 238.65 127.61 Z  M 195.44 142.65 C 195.35 142.67 195.25 142.68 195.16 142.68 C 194.98 142.67 194.78 142.6 194.62 142.47 C 194.28 142.18 194 141.83 193.78 141.44 C 193.46 140.88 193.18 140.29 192.94 139.68 C 192.68 139.01 192.44 138.33 192.22 137.65 C 192.02 137.01 191.86 136.36 191.74 135.7 C 191.49 134.49 191.24 133.28 191.02 132.06 C 190.37 128.56 189.73 125.06 189.12 121.56 C 188.49 118 187.85 114.43 187.2 110.88 C 186.58 107.51 185.94 104.15 185.26 100.8 C 184.56 97.4 183.8 94.01 182.99 90.63 C 182.28 87.64 181.54 84.67 180.79 81.69 C 180.27 79.63 179.76 77.56 179.26 75.48 C 178.89 73.94 178.55 72.39 178.26 70.83 C 178.12 70.04 177.96 69.24 177.8 68.45 C 177.6 67.51 177.42 66.57 177.26 65.63 C 177.12 64.82 177.04 64 177.03 63.18 C 177.03 62.69 177.08 62.2 177.19 61.73 C 177.27 61.38 177.42 61.05 177.63 60.76 C 177.84 60.48 178.11 60.25 178.42 60.09 C 178.92 59.83 179.46 59.66 180.01 59.59 C 180.42 59.52 180.83 59.48 181.24 59.48 C 181.84 59.46 182.43 59.6 182.95 59.89 C 183.39 60.17 183.75 60.57 184 61.03 C 184.39 61.75 184.69 62.51 184.89 63.3 C 185.18 64.36 185.43 65.42 185.65 66.5 C 185.86 67.49 186.09 68.47 186.33 69.46 C 186.76 71.24 187.12 73.04 187.4 74.84 C 187.75 77.07 188.08 79.3 188.39 81.53 C 188.77 84.29 189.18 87.05 189.61 89.8 C 190.11 93.01 190.68 96.21 191.32 99.39 C 192.02 102.94 192.63 106.5 193.16 110.08 C 193.72 113.72 194.22 117.38 194.68 121.04 C 195.07 124.15 195.42 127.27 195.75 130.39 C 195.96 132.33 196.14 134.27 196.29 136.21 L 196.34 136.88 C 196.34 136.89 196.34 136.89 196.34 136.9 C 196.44 137.97 196.49 139.05 196.51 140.12 C 196.52 140.55 196.49 140.98 196.43 141.4 C 196.39 141.65 196.32 141.89 196.22 142.12 C 196.16 142.23 196.08 142.33 195.98 142.4 C 195.82 142.52 195.63 142.6 195.44 142.65 L 195.44 142.65 L 195.44 142.65 Z  M 147.81 186.97 C 147.73 187.04 147.62 187.08 147.51 187.08 C 147.41 187.08 147.3 187.06 147.19 187.02 C 146.98 186.94 146.78 186.84 146.59 186.71 C 146.02 186.33 145.5 185.88 145.05 185.37 C 144.47 184.75 143.94 184.1 143.45 183.41 C 142.96 182.74 142.5 182.05 142.08 181.34 C 141.62 180.55 141.19 179.75 140.78 178.94 C 140.2 177.79 139.63 176.64 139.07 175.48 C 137.93 173.13 136.76 170.79 135.56 168.46 C 134.14 165.71 132.65 163 131.08 160.34 C 129.66 157.97 128.18 155.64 126.62 153.37 C 125.2 151.3 123.76 149.24 122.29 147.2 C 121.22 145.72 120.17 144.22 119.13 142.7 C 118.73 142.1 118.33 141.5 117.95 140.88 C 117.65 140.41 117.38 139.92 117.12 139.42 C 116.64 138.48 116.11 137.56 115.55 136.66 C 115.13 136 114.74 135.31 114.39 134.61 C 114.27 134.36 114.18 134.11 114.1 133.85 C 114.05 133.69 114.02 133.51 114.02 133.34 C 114.02 133.2 114.06 133.05 114.12 132.92 C 114.27 132.68 114.47 132.46 114.7 132.29 C 115.04 132.02 115.4 131.79 115.8 131.62 C 116.03 131.52 116.27 131.46 116.53 131.45 C 116.78 131.46 117.03 131.52 117.26 131.64 C 117.67 131.85 118.04 132.13 118.36 132.46 C 118.89 132.99 119.37 133.57 119.79 134.18 C 120.4 135.04 120.97 135.93 121.49 136.85 C 122.25 138.17 122.96 139.51 123.63 140.89 C 124.26 142.2 124.87 143.52 125.46 144.85 C 126.25 146.63 127.08 148.4 127.93 150.15 C 129.04 152.42 130.23 154.65 131.49 156.85 C 133.06 159.58 134.7 162.27 136.41 164.92 C 137.95 167.3 139.51 169.66 141.09 172.01 C 141.99 173.34 142.87 174.67 143.75 176.02 C 144.36 176.93 144.94 177.88 145.48 178.84 C 146.19 180.09 146.84 181.38 147.43 182.69 C 147.68 183.26 147.89 183.84 148.05 184.43 C 148.19 184.88 148.26 185.34 148.26 185.8 C 148.27 186.05 148.23 186.29 148.14 186.52 C 148.07 186.69 147.95 186.85 147.81 186.97 L 147.81 186.97 Z  M 414.3 205.76 C 414.09 206.16 413.88 206.55 413.66 206.93 C 413.01 208.07 412.31 209.17 411.56 210.24 C 411.01 211.02 410.47 211.81 409.95 212.62 C 409.44 213.41 408.98 214.23 408.57 215.07 C 408.11 216.02 407.71 216.99 407.38 217.99 C 406.97 219.23 406.62 220.49 406.33 221.77 C 406.17 222.47 405.97 223.15 405.75 223.83 C 405.59 224.3 405.4 224.77 405.17 225.21 C 404.74 226 404.25 226.76 403.69 227.46 C 403.2 228.11 402.73 228.77 402.27 229.44 C 401.63 230.39 401.03 231.37 400.47 232.38 C 399.79 233.64 399.21 234.95 398.74 236.3 C 398.29 237.62 397.87 238.95 397.49 240.29 C 397.19 241.33 396.88 242.36 396.54 243.39 C 396.2 244.46 395.81 245.52 395.38 246.55 C 394.4 248.92 393.13 251.15 391.59 253.2 C 391.17 253.75 390.71 254.28 390.22 254.77 C 389.58 255.44 388.92 256.08 388.23 256.7 C 386.47 258.28 384.67 259.81 382.81 261.28 C 380.59 263.04 378.35 264.78 376.08 266.49 C 373.64 268.32 371.2 270.15 368.75 271.97 C 366.52 273.62 364.31 275.28 362.1 276.94 C 360.06 278.47 358.04 280.03 356.04 281.61 C 354.34 282.93 352.68 284.31 351.06 285.73 C 350.4 286.31 349.76 286.91 349.13 287.53 C 348.61 288.04 348.1 288.58 347.63 289.15 C 345.81 291.38 344.11 293.71 342.52 296.12 C 340.73 298.81 339.01 301.55 337.37 304.34 C 335.78 307.04 334.25 309.78 332.79 312.56 C 331.58 314.83 330.46 317.14 329.42 319.5 C 328.77 320.94 328.1 322.37 327.39 323.79 C 326.27 326.05 325.14 328.3 323.99 330.54 C 320.96 336.44 317.87 342.31 314.72 348.14 C 311.52 354.1 308.23 360 304.83 365.85 C 303.49 368.17 302.1 370.46 300.67 372.73 C 300.12 373.6 299.55 374.47 298.97 375.32 C 298.54 375.95 298.09 376.57 297.62 377.17 C 295.86 379.34 294.01 381.43 292.06 383.43 C 290.03 385.52 287.94 387.54 285.78 389.49 C 283.84 391.25 281.84 392.94 279.77 394.54 C 278.93 395.2 278.06 395.84 277.18 396.45 C 276.5 396.92 275.8 397.36 275.09 397.78 C 274.91 397.86 274.71 397.9 274.51 397.88 C 274.08 397.88 273.65 397.83 273.23 397.74 C 272.65 397.63 272.07 397.48 271.5 397.3 C 269.96 396.82 268.45 396.26 266.97 395.63 C 265.09 394.83 263.23 394 261.38 393.14 C 259.28 392.16 257.18 391.16 255.09 390.16 C 252.24 388.79 249.38 387.44 246.52 386.12 C 243.69 384.81 240.84 383.57 237.95 382.42 C 235.35 381.36 232.68 380.44 229.98 379.69 C 228.8 379.36 227.6 379.1 226.38 378.89 C 225.3 378.71 224.21 378.61 223.12 378.6 C 223.11 378.6 223.1 378.6 223.09 378.6 L 222.77 378.6 C 222.76 378.6 222.76 378.6 222.75 378.6 C 221.55 378.63 220.35 378.75 219.16 378.94 C 217.9 379.15 216.66 379.44 215.45 379.81 C 214.11 380.21 212.81 380.7 211.54 381.28 C 210.11 381.93 208.72 382.66 207.38 383.46 C 206.8 383.81 206.24 384.17 205.68 384.53 C 205.09 384.93 204.51 385.33 203.93 385.75 C 202.08 387.09 200.3 388.54 198.62 390.09 C 197.02 391.56 195.47 393.09 193.98 394.68 C 192.11 391.8 190.41 388.81 188.87 385.74 C 187.41 382.82 186.19 379.78 185.22 376.66 C 183.74 371.82 182.5 366.9 181.51 361.93 C 180.62 357.61 179.87 353.26 179.27 348.89 C 179.13 347.87 178.93 346.86 178.68 345.86 C 178.4 344.71 178.09 343.56 177.75 342.42 C 176.96 339.81 176.13 337.22 175.25 334.64 C 174.23 331.59 173.25 328.53 172.33 325.45 C 171.89 323.98 171.49 322.49 171.12 321 C 170.78 319.63 170.5 318.25 170.27 316.86 C 170.13 315.98 170 315.09 169.88 314.21 C 169.74 313.16 169.61 312.11 169.5 311.05 C 169.18 308.06 168.94 305.07 168.77 302.06 C 168.6 299.07 168.48 296.07 168.39 293.07 C 170.74 295.54 173.23 297.88 175.83 300.07 C 178.7 302.49 181.79 304.61 185.07 306.42 C 186.35 307.12 187.67 307.75 189.02 308.32 C 190.66 309.02 192.31 309.67 193.99 310.27 C 197.9 311.68 201.87 312.93 205.89 314.01 C 210.04 315.16 214.24 316.11 218.47 316.87 C 220.41 317.22 222.35 317.5 224.3 317.71 C 226.01 317.91 227.73 318.01 229.45 318.02 C 230.28 318.02 231.11 317.99 231.94 317.91 C 232.68 317.85 233.41 317.73 234.13 317.56 C 235.34 317.29 236.53 316.92 237.69 316.48 C 238.5 316.17 239.28 315.77 240 315.28 C 240.54 314.92 241.02 314.47 241.43 313.95 C 241.7 313.59 241.94 313.2 242.15 312.8 C 242.24 312.64 242.33 312.48 242.43 312.33 C 242.49 312.25 242.55 312.17 242.63 312.11 C 242.76 312.01 242.9 311.93 243.05 311.87 C 243.38 311.74 243.73 311.64 244.08 311.58 C 244.7 311.45 245.33 311.38 245.96 311.37 C 246.36 311.37 246.76 311.4 247.16 311.47 C 247.57 311.53 247.99 311.61 248.39 311.7 C 248.95 311.82 249.51 311.93 250.07 312.01 C 250.79 312.12 251.51 312.17 252.24 312.17 C 253.89 312.14 255.53 311.94 257.13 311.56 C 257.83 311.4 258.52 311.16 259.17 310.85 C 259.95 310.5 260.72 310.1 261.46 309.66 C 263.34 308.55 265.16 307.34 266.93 306.05 C 269.11 304.48 271.26 302.86 273.38 301.21 C 275.77 299.35 278.15 297.49 280.52 295.61 C 284.82 292.17 289.17 288.8 293.57 285.5 C 295.62 283.96 297.71 282.47 299.82 281.02 C 301.68 279.74 303.59 278.54 305.54 277.4 C 310.79 274.37 316.36 271.93 322.15 270.14 C 324.33 269.47 326.55 268.89 328.78 268.41 C 330.57 268.02 332.36 267.67 334.15 267.36 C 335.49 267.14 336.83 266.87 338.15 266.56 C 338.9 266.36 339.64 266.12 340.37 265.84 C 341.31 265.49 342.24 265.12 343.17 264.73 C 345.5 263.75 347.82 262.75 350.13 261.72 C 353.73 260.1 357.36 258.55 361.03 257.07 C 362.56 256.45 364.11 255.89 365.68 255.38 C 366.29 255.18 366.92 255.01 367.54 254.85 C 368.01 254.74 368.47 254.65 368.95 254.59 C 370.43 254.45 371.9 254.2 373.35 253.84 C 374.66 253.5 375.95 253.04 377.18 252.46 C 378.5 251.83 379.78 251.12 381.02 250.34 C 382.58 249.37 384.12 248.37 385.63 247.34 C 386.41 246.8 387.14 246.19 387.79 245.5 C 388.56 244.7 389.29 243.87 389.97 242.99 C 391.59 240.89 393.1 238.69 394.49 236.43 C 396.06 233.89 397.58 231.31 399.04 228.7 C 400.49 226.13 401.91 223.55 403.32 220.96 C 404.38 218.99 405.46 217.04 406.55 215.09 C 407.33 213.67 408.16 212.28 409.04 210.93 C 409.69 209.95 410.41 209.02 411.18 208.15 C 411.66 207.59 412.2 207.09 412.79 206.65 C 413.16 206.37 413.54 206.13 413.95 205.92 C 414.07 205.86 414.18 205.81 414.3 205.76 Z " fill-rule="evenodd" fill="rgb(255,255,255)"/><g><path d=" M 320.11 419.893 C 325.852 422.755 331.761 425.278 337.8 427.46 C 343.57 429.55 349.57 430.92 355.68 431.54 C 357.57 431.73 359.47 431.83 361.37 431.84 C 363.07 431.84 364.77 431.76 366.46 431.59 C 368.02 431.43 369.56 431.18 371.1 430.86 C 372.53 430.55 373.96 430.17 375.35 429.7 C 376.71 429.25 378.04 428.72 379.34 428.11 C 380.64 427.51 381.91 426.83 383.13 426.09 C 384.39 425.32 385.6 424.48 386.77 423.58 C 388.01 422.62 389.19 421.59 390.32 420.5 C 391.91 418.98 393.31 417.28 394.51 415.44 C 395.61 413.73 396.52 411.9 397.2 409.99 C 397.9 408.04 398.4 406.03 398.7 403.99 C 399.02 401.8 399.18 399.59 399.17 397.37 C 399.16 395.15 399.05 392.92 398.82 390.71 C 398.57 388.34 398.25 385.97 397.85 383.62 C 397.43 381.14 396.96 378.67 396.45 376.2 C 395.92 373.63 395.37 371.07 394.8 368.5 C 394.19 365.73 393.6 362.96 393.03 360.18 C 392.44 357.35 391.91 354.51 391.44 351.67 C 390.96 348.8 390.58 345.92 390.29 343.03 C 390 340.14 389.85 337.23 389.84 334.32 C 389.82 330.02 390.22 325.73 391.05 321.5 C 391.92 317.14 393.35 312.9 395.3 308.91 C 396.22 307.02 397.24 305.19 398.36 303.41 C 399.38 301.78 400.5 300.2 401.71 298.69 C 402.84 297.27 404.05 295.93 405.33 294.65 C 406.57 293.42 407.88 292.27 409.26 291.19 C 410.61 290.14 412.03 289.16 413.5 288.27 C 414.99 287.38 416.52 286.58 418.1 285.87 C 419.73 285.13 421.41 284.49 423.12 283.96 C 424.92 283.39 426.75 282.93 428.6 282.57 C 431.81 281.94 435.08 281.6 438.35 281.53 C 442.22 281.46 446.09 281.66 449.93 282.14 C 453.84 282.62 457.71 283.33 461.53 284.27 C 466.22 285.42 470.86 286.79 475.43 288.38 L 480.15 290.02 L 476.87 299.47 L 472.15 297.83 C 467.88 296.34 463.54 295.06 459.15 293.98 C 455.71 293.14 452.22 292.5 448.7 292.06 C 445.33 291.64 441.94 291.47 438.55 291.53 C 435.85 291.58 433.16 291.87 430.51 292.38 C 429.03 292.67 427.56 293.05 426.11 293.5 C 424.78 293.92 423.48 294.41 422.21 294.99 C 420.99 295.53 419.8 296.15 418.66 296.84 C 417.53 297.52 416.44 298.27 415.4 299.08 C 414.34 299.91 413.33 300.8 412.38 301.74 C 411.37 302.75 410.41 303.81 409.52 304.93 C 408.55 306.14 407.65 307.41 406.83 308.72 C 405.9 310.2 405.05 311.73 404.28 313.3 C 402.71 316.52 401.56 319.93 400.86 323.44 C 400.16 327.01 399.82 330.64 399.84 334.28 C 399.85 336.87 399.98 339.46 400.24 342.04 C 400.51 344.72 400.86 347.38 401.3 350.02 C 401.75 352.74 402.26 355.45 402.82 358.15 C 403.38 360.89 403.97 363.62 404.57 366.35 C 405.14 368.95 405.7 371.56 406.24 374.17 C 406.78 376.75 407.27 379.35 407.71 381.95 C 408.15 384.52 408.5 387.09 408.76 389.68 C 409.03 392.22 409.16 394.78 409.17 397.33 C 409.18 400.05 408.99 402.76 408.59 405.45 C 408.2 408.14 407.53 410.79 406.62 413.36 C 405.67 416 404.43 418.52 402.91 420.87 C 401.29 423.36 399.39 425.65 397.25 427.71 C 395.87 429.04 394.42 430.3 392.9 431.48 C 391.44 432.61 389.91 433.66 388.33 434.63 C 386.79 435.57 385.19 436.42 383.55 437.18 C 381.91 437.95 380.23 438.61 378.51 439.19 C 376.76 439.77 374.98 440.26 373.17 440.64 C 371.29 441.04 369.39 441.34 367.48 441.53 C 365.44 441.74 363.38 441.85 361.33 441.84 C 359.1 441.83 356.88 441.71 354.66 441.49 C 347.75 440.78 340.94 439.23 334.4 436.87 C 329.958 435.264 325.583 433.485 321.296 431.513 C 321.199 430.926 321.096 430.338 320.99 429.75 C 320.83 428.89 320.69 428.03 320.55 427.16 C 320.43 426.44 320.35 425.72 320.28 424.99 C 320.22 424.14 320.18 423.29 320.16 422.44 C 320.144 421.588 320.121 420.743 320.11 419.893 Z " fill="rgb(255,255,255)"/><path d=" M 330.89 369.883 C 331.82 373.009 332.846 376.105 333.97 379.16 C 334.4 380.33 334.85 381.49 335.31 382.64 C 335.74 383.72 336.19 384.8 336.66 385.87 C 337.3 387.34 337.98 388.8 338.68 390.24 C 339.33 391.56 340.02 392.87 340.73 394.16 C 341.7 395.91 342.73 397.62 343.82 399.29 C 344.81 400.79 345.85 402.25 346.96 403.67 C 348.36 405.46 349.87 407.17 351.48 408.78 C 352.93 410.24 354.48 411.6 356.12 412.84 C 357.63 413.99 359.22 415.04 360.88 415.97 C 362.47 416.86 364.12 417.64 365.82 418.3 C 367.51 418.95 369.25 419.48 371.01 419.88 C 372.82 420.29 374.64 420.57 376.49 420.72 C 378.44 420.88 380.41 420.91 382.37 420.79 C 384.49 420.67 386.6 420.41 388.7 420.02 C 392.11 419.4 395.46 418.5 398.72 417.34 C 401.63 416.3 404.43 414.98 407.09 413.41 C 409.53 411.97 411.81 410.28 413.91 408.39 C 415.88 406.59 417.69 404.62 419.3 402.49 C 420.86 400.44 422.26 398.27 423.49 396.01 C 424.71 393.78 425.8 391.5 426.78 389.16 C 427.74 386.84 428.64 384.49 429.47 382.11 C 430.29 379.75 431.1 377.37 431.87 374.99 C 432.66 372.61 433.46 370.23 434.29 367.86 C 435.1 365.52 435.99 363.2 436.93 360.9 C 437.87 358.63 438.91 356.41 440.06 354.24 C 441.2 352.07 442.48 349.98 443.88 347.98 C 445.39 345.83 447.02 343.78 448.76 341.82 C 450.29 340.11 451.92 338.5 453.66 337 C 455.24 335.63 456.9 334.36 458.65 333.21 C 460.29 332.13 462 331.15 463.77 330.3 C 465.52 329.46 467.33 328.74 469.17 328.14 C 471.07 327.53 473.01 327.05 474.97 326.69 C 477.06 326.32 479.18 326.08 481.3 325.98 C 483.67 325.87 486.04 325.91 488.41 326.09 L 493.4 326.47 L 494.15 316.5 L 489.17 316.12 C 486.4 315.91 483.62 315.86 480.85 315.99 C 478.28 316.11 475.72 316.4 473.19 316.85 C 470.79 317.29 468.42 317.88 466.1 318.63 C 463.82 319.36 461.6 320.25 459.44 321.29 C 457.26 322.34 455.15 323.53 453.13 324.87 C 451.03 326.26 449.02 327.79 447.11 329.44 C 445.05 331.22 443.11 333.13 441.3 335.17 C 439.3 337.41 437.43 339.77 435.7 342.23 C 434.05 344.58 432.55 347.04 431.21 349.58 C 429.92 352.02 428.75 354.53 427.69 357.08 C 426.67 359.55 425.72 362.05 424.84 364.57 C 424 367 423.17 369.44 422.37 371.89 C 421.61 374.2 420.83 376.52 420.03 378.82 C 419.27 381.01 418.44 383.17 417.55 385.31 C 416.71 387.33 415.76 389.3 414.71 391.22 C 413.72 393.04 412.59 394.79 411.33 396.45 C 410.09 398.08 408.71 399.6 407.19 400.98 C 405.59 402.42 403.85 403.71 402 404.81 C 399.89 406.05 397.67 407.09 395.36 407.92 C 392.6 408.9 389.76 409.66 386.88 410.19 C 385.2 410.5 383.49 410.71 381.78 410.81 C 380.29 410.9 378.8 410.88 377.31 410.76 C 375.93 410.64 374.57 410.43 373.22 410.13 C 371.93 409.84 370.66 409.45 369.42 408.97 C 368.17 408.49 366.95 407.91 365.78 407.26 C 364.53 406.55 363.32 405.75 362.17 404.88 C 360.9 403.91 359.69 402.86 358.56 401.72 C 357.24 400.39 355.99 398.99 354.84 397.51 C 354.49 397.06 354.14 396.61 353.81 396.15 C 354.73 396.47 355.67 396.74 356.63 396.97 C 360.17 397.82 363.81 398.25 367.46 398.27 C 372.27 398.28 377.05 397.45 381.58 395.81 C 386.4 394.02 390.83 391.34 394.65 387.89 C 396.72 386.02 398.63 383.97 400.34 381.75 C 402.2 379.35 403.86 376.8 405.3 374.13 C 406.89 371.18 408.27 368.12 409.43 364.98 C 410.72 361.47 411.8 357.9 412.65 354.26 C 413.97 348.82 414.93 343.3 415.54 337.73 C 415.99 333.4 416.21 329.04 416.2 324.69 C 416.19 322.46 416.16 320.23 416.1 318 C 416.05 316.06 416.02 314.12 416.01 312.19 C 416 310.08 416.08 307.96 416.23 305.86 C 416.4 303.65 416.69 301.46 417.11 299.29 C 417.6 296.79 418.23 294.32 419.01 291.89 C 419.98 288.91 421.1 285.98 422.36 283.12 C 423.31 280.95 424.39 278.84 425.58 276.8 C 426.83 274.67 428.19 272.61 429.67 270.63 C 431.25 268.51 432.95 266.48 434.76 264.56 C 436.75 262.43 438.85 260.4 441.06 258.48 C 442.06 257.61 443.09 256.76 444.13 255.92 C 445.24 255.04 446.36 254.19 447.5 253.36 C 451.41 250.5 455.49 247.88 459.73 245.53 C 464.93 242.65 470.28 240.03 475.75 237.7 L 480.35 235.74 L 476.43 226.54 L 471.83 228.5 C 466.04 230.97 460.38 233.74 454.88 236.79 C 450.28 239.34 445.84 242.18 441.59 245.29 C 440.35 246.2 439.12 247.14 437.9 248.1 C 436.75 249.02 435.61 249.97 434.5 250.94 C 432.04 253.08 429.69 255.34 427.46 257.72 C 425.4 259.92 423.46 262.23 421.66 264.65 C 419.96 266.93 418.38 269.3 416.95 271.75 C 415.56 274.12 414.32 276.57 413.21 279.09 C 411.81 282.27 410.57 285.52 409.5 288.82 C 408.59 291.63 407.86 294.5 407.29 297.39 C 406.8 299.94 406.46 302.52 406.26 305.11 C 406.09 307.48 406 309.85 406.01 312.23 C 406.02 314.24 406.05 316.25 406.1 318.26 C 406.16 320.41 406.19 322.56 406.2 324.72 C 406.21 328.71 406.01 332.7 405.6 336.67 C 405.04 341.81 404.14 346.92 402.92 351.94 C 402.16 355.19 401.2 358.39 400.05 361.52 C 399.05 364.22 397.87 366.84 396.5 369.37 C 395.32 371.57 393.95 373.66 392.43 375.64 C 391.08 377.38 389.58 379 387.95 380.47 C 385.08 383.06 381.76 385.08 378.14 386.42 C 374.72 387.66 371.12 388.28 367.49 388.27 C 364.61 388.26 361.75 387.91 358.95 387.24 C 357.6 386.92 356.3 386.46 355.05 385.87 C 353.78 385.26 352.59 384.53 351.48 383.68 C 350.23 382.73 349.08 381.64 348.06 380.45 C 346.76 378.93 345.59 377.31 344.58 375.59 C 342.9 372.77 341.53 369.78 340.47 366.67 C 340.18 365.8 339.89 364.92 339.62 364.05 C 339.262 362.745 338.914 361.436 338.583 360.123 C 338.051 360.843 337.515 361.56 336.97 362.27 C 335.35 364.38 333.7 366.47 332 368.52 C 331.63 368.972 331.259 369.427 330.89 369.883 Z " fill="rgb(255,255,255)"/><path d=" M 194.093 447.915 C 188.795 449.499 183.432 450.864 178.02 452.03 C 170.8 453.58 163.44 454.32 156.06 454.23 C 153.51 454.19 150.97 454.04 148.44 453.75 C 146.18 453.49 143.93 453.11 141.71 452.6 C 139.7 452.13 137.71 451.55 135.76 450.86 C 133.93 450.21 132.14 449.45 130.41 448.58 C 128.74 447.74 127.13 446.8 125.58 445.76 C 124.05 444.74 122.59 443.62 121.2 442.41 C 119.8 441.19 118.47 439.88 117.24 438.49 C 115.96 437.05 114.77 435.54 113.68 433.96 C 111.71 431.13 110.18 428.01 109.17 424.71 C 108.24 421.63 107.77 418.42 107.79 415.2 C 107.81 412.11 108.17 409.04 108.87 406.03 C 109.57 403.01 110.49 400.04 111.61 397.14 C 112.75 394.19 114 391.29 115.36 388.44 C 116.73 385.56 118.13 382.7 119.57 379.85 C 121.08 376.88 122.54 373.89 123.97 370.88 C 125.34 367.99 126.6 365.04 127.73 362.04 C 128.8 359.24 129.66 356.35 130.32 353.42 C 130.93 350.69 131.24 347.9 131.26 345.1 C 131.27 341.91 130.77 338.73 129.79 335.69 C 129.26 334.06 128.59 332.47 127.8 330.94 C 126.91 329.24 125.89 327.61 124.75 326.06 C 122.57 323.07 120.14 320.27 117.48 317.7 C 115.03 315.33 112.37 313.2 109.53 311.31 C 106.71 309.44 103.72 307.84 100.6 306.52 C 97.26 305.1 93.8 303.97 90.26 303.15 C 88.68 302.79 87.09 302.48 85.48 302.22 C 83.77 301.95 82.04 301.73 80.31 301.58 C 78.95 301.45 77.59 301.36 76.22 301.31 C 74.77 301.24 73.32 301.22 71.87 301.22 C 70.76 301.23 69.66 301.25 68.56 301.29 C 67.4 301.34 66.25 301.4 65.09 301.48 C 61.08 301.76 57.09 302.24 53.12 302.92 C 48.39 303.73 43.69 304.74 39.04 305.94 L 34.2 307.2 L 31.69 297.52 L 36.53 296.26 C 41.45 294.99 46.43 293.92 51.44 293.06 C 55.73 292.33 60.05 291.81 64.39 291.51 C 65.66 291.42 66.92 291.35 68.18 291.3 C 69.39 291.26 70.61 291.23 71.82 291.22 C 73.43 291.22 75.03 291.25 76.64 291.31 C 78.17 291.38 79.7 291.48 81.22 291.62 C 83.17 291.8 85.11 292.04 87.05 292.35 C 88.89 292.64 90.71 292.99 92.52 293.41 C 96.62 294.36 100.63 295.67 104.5 297.31 C 108.19 298.87 111.72 300.77 115.05 302.98 C 118.4 305.2 121.54 307.72 124.43 310.51 C 127.5 313.48 130.31 316.7 132.82 320.15 C 134.26 322.11 135.55 324.17 136.67 326.33 C 137.72 328.34 138.6 330.44 139.3 332.6 C 140.61 336.65 141.27 340.88 141.26 345.14 C 141.24 348.66 140.84 352.16 140.08 355.6 C 139.32 359 138.32 362.34 137.08 365.59 C 135.85 368.84 134.49 372.03 133.01 375.16 C 131.54 378.25 130.04 381.32 128.5 384.37 C 127.09 387.14 125.72 389.94 124.39 392.74 C 123.13 395.37 121.98 398.04 120.94 400.75 C 119.98 403.21 119.21 405.73 118.61 408.29 C 118.08 410.57 117.8 412.91 117.79 415.25 C 117.78 417.47 118.1 419.67 118.73 421.8 C 119.45 424.1 120.51 426.28 121.89 428.25 C 122.76 429.51 123.7 430.71 124.72 431.85 C 125.67 432.92 126.69 433.93 127.77 434.88 C 128.84 435.81 129.96 436.67 131.14 437.46 C 132.34 438.26 133.6 438.99 134.9 439.64 C 136.26 440.33 137.67 440.93 139.1 441.44 C 140.69 442 142.31 442.47 143.96 442.85 C 145.81 443.28 147.68 443.6 149.56 443.81 C 151.76 444.06 153.97 444.2 156.18 444.23 C 162.81 444.31 169.43 443.65 175.91 442.25 C 182.172 440.9 188.363 439.273 194.473 437.38 C 194.351 440.63 194.233 443.88 194.12 447.13 C 194.111 447.392 194.102 447.654 194.093 447.915 Z " fill="rgb(255,255,255)"/><path d=" M 194.845 427.761 C 187.803 428.917 180.704 429.721 173.58 430.17 C 165.11 430.7 156.6 430.21 148.25 428.71 C 145.64 428.24 143.05 427.65 140.49 426.94 C 138.12 426.29 135.78 425.52 133.48 424.63 C 131.32 423.79 129.2 422.85 127.13 421.81 C 125.14 420.8 123.21 419.69 121.33 418.49 C 119.5 417.31 117.73 416.03 116.02 414.66 C 114.33 413.3 112.7 411.85 111.16 410.31 C 109.58 408.75 108.09 407.11 106.69 405.4 C 105.25 403.63 103.89 401.78 102.63 399.88 C 100.22 396.3 98.35 392.39 97.05 388.27 C 95.91 384.54 95.33 380.67 95.33 376.77 C 95.35 373.07 95.83 369.4 96.74 365.82 C 97.64 362.3 98.84 358.86 100.31 355.54 C 101.77 352.22 103.39 348.97 105.15 345.8 C 106.89 342.67 108.68 339.56 110.51 336.48 C 112.21 333.61 113.87 330.73 115.49 327.82 C 117.01 325.1 118.4 322.32 119.67 319.48 C 120.83 316.91 121.77 314.25 122.49 311.52 C 123.13 309.07 123.47 306.55 123.49 304.01 C 123.49 301.81 123.18 299.61 122.58 297.49 C 121.89 295.12 120.87 292.85 119.55 290.75 C 117.86 288.03 115.93 285.47 113.78 283.11 C 111.45 280.56 108.92 278.21 106.19 276.09 C 103.08 273.67 99.77 271.53 96.3 269.67 C 92.05 267.41 87.65 265.44 83.13 263.8 C 81.29 263.14 79.43 262.51 77.55 261.94 C 75.5 261.31 73.44 260.72 71.36 260.19 C 69.84 259.79 68.3 259.42 66.76 259.08 C 65.12 258.71 63.47 258.36 61.81 258.04 C 56.44 256.99 51.03 256.18 45.6 255.58 C 38.95 254.86 32.27 254.36 25.59 254.1 L 20.59 253.9 L 20.99 243.91 L 25.99 244.11 C 32.9 244.38 39.8 244.89 46.68 245.64 C 52.39 246.26 58.08 247.12 63.72 248.22 C 65.47 248.56 67.22 248.93 68.96 249.32 C 70.6 249.69 72.23 250.08 73.86 250.5 C 76.09 251.08 78.3 251.7 80.49 252.38 C 82.52 253 84.54 253.68 86.54 254.4 C 91.51 256.21 96.34 258.36 101.01 260.85 C 104.98 262.97 108.77 265.43 112.33 268.2 C 115.51 270.66 118.46 273.4 121.17 276.37 C 123.73 279.19 126.03 282.23 128.03 285.46 C 129.84 288.34 131.24 291.46 132.19 294.73 C 133.06 297.76 133.49 300.9 133.49 304.06 C 133.46 307.44 133.02 310.8 132.16 314.07 C 131.3 317.32 130.18 320.5 128.8 323.56 C 127.41 326.67 125.88 329.72 124.22 332.69 C 122.56 335.68 120.85 338.64 119.11 341.58 C 117.32 344.58 115.58 347.61 113.89 350.66 C 112.28 353.56 110.8 356.54 109.45 359.58 C 108.21 362.4 107.2 365.32 106.43 368.3 C 105.72 371.08 105.35 373.93 105.33 376.8 C 105.33 379.68 105.76 382.55 106.6 385.31 C 107.61 388.51 109.08 391.55 110.95 394.33 C 112.03 395.97 113.2 397.55 114.44 399.07 C 115.62 400.52 116.87 401.9 118.2 403.21 C 119.5 404.5 120.86 405.72 122.29 406.86 C 123.72 408.01 125.21 409.09 126.75 410.08 C 128.33 411.1 129.96 412.03 131.64 412.88 C 133.41 413.78 135.23 414.58 137.08 415.3 C 139.07 416.07 141.09 416.74 143.15 417.3 C 145.41 417.93 147.7 418.45 150.02 418.86 C 157.58 420.22 165.28 420.67 172.95 420.19 C 180.434 419.715 187.887 418.836 195.269 417.544 C 195.123 420.949 194.982 424.355 194.845 427.761 Z " fill="rgb(255,255,255)"/><g><rect x="13.024" y="232.976" width="9.993" height="31.508" transform="matrix(0.999,0.041,-0.04,0.999,10.01,-0.547)" fill="rgb(255,255,255)"/><rect x="31.751" y="285.741" width="9.993" height="31.508" transform="matrix(0.969,-0.247,0.248,0.969,-73.606,18.475)" fill="rgb(255,255,255)"/><rect x="471.198" y="216.541" width="9.993" height="31.508" transform="matrix(0.918,-0.397,0.398,0.917,-53.356,208.134)" fill="rgb(255,255,255)"/><rect x="470.826" y="277.775" width="9.993" height="31.508" transform="matrix(0.946,0.325,-0.324,0.946,120.757,-138.738)" fill="rgb(255,255,255)"/><rect x="490.134" y="306.163" width="9.993" height="31.508" transform="matrix(0.997,0.074,-0.073,0.997,24.814,-35.852)" fill="rgb(255,255,255)"/></g></g></g></g></svg>