<?xml version="1.0" standalone="no"?><!-- Generator: Gravit.io --><svg xmlns="http://www.w3.org/2000/svg" xmlns:xlink="http://www.w3.org/1999/xlink" style="isolation:isolate" viewBox="0 0 397.354 397.357" width="397.354" height="397.357"><defs><clipPath id="_clipPath_TVY5wIp7nYu0ql4KlKmPEkcEaD8FqJzY"><rect width="397.354" height="397.357"/></clipPath></defs><g clip-path="url(#_clipPath_TVY5wIp7nYu0ql4KlKmPEkcEaD8FqJzY)"><path d=" M 397.354 198.677 C 397.354 308.407 308.403 397.357 198.677 397.357 L 198.677 397.357 C 88.95 397.357 0 308.407 0 198.677 L 0 198.677 C 0 88.95 88.95 0 198.677 0 L 198.677 0 C 308.403 0 397.354 88.95 397.354 198.677 L 397.354 198.677 Z  M 260.813 294.487 C 256.884 263.917 248.706 235.277 238.608 209.417 C 265.245 204.297 291.196 208.637 311.71 214.987 C 306.958 248.247 287.815 276.897 260.813 294.487 L 260.813 294.487 Z  M 198.677 312.897 C 171.538 312.897 146.592 303.397 126.992 287.537 L 126.992 287.497 C 135.718 272.967 164.045 233.037 220.653 214.207 C 231.435 241.307 240.07 271.597 243.451 303.717 C 229.699 309.657 214.576 312.897 198.677 312.897 L 198.677 312.897 Z  M 84.456 198.677 C 84.456 197.397 84.456 196.077 84.547 194.797 C 87.654 194.887 91.218 194.927 95.147 194.927 C 121.098 194.927 163.725 192.367 204.434 178.527 C 207.54 184.557 210.556 190.867 213.48 197.397 C 155.913 216.907 125.301 255.927 113.422 274.607 C 95.421 254.417 84.456 227.827 84.456 198.677 L 84.456 198.677 Z  M 150.202 95.284 C 158.243 104.877 176.975 128.777 195.707 162.167 C 153.719 175.787 108.991 176.977 86.649 176.517 C 93.731 140.467 117.808 110.497 150.202 95.284 L 150.202 95.284 Z  M 198.677 84.456 C 228.237 84.456 255.193 95.695 275.479 114.197 C 262.229 127.217 241.715 143.527 213.297 155.597 C 196.073 124.477 178.62 101.137 168.431 88.568 C 178.071 85.872 188.214 84.456 198.677 84.456 L 198.677 84.456 Z  M 312.852 196.117 C 289.871 189.537 261.27 185.657 231.527 192.237 C 228.374 185.157 225.13 178.347 221.841 171.817 C 251.858 158.837 273.651 141.657 287.997 127.587 C 303.12 146.497 312.304 170.217 312.852 196.117 L 312.852 196.117 Z  M 198.677 66.181 C 125.484 66.181 66.181 125.487 66.181 198.677 C 66.181 271.867 125.484 331.177 198.677 331.177 C 271.87 331.177 331.173 271.867 331.173 198.677 C 331.173 125.487 271.87 66.181 198.677 66.181 L 198.677 66.181 Z " fill-rule="evenodd" fill="rgb(47,47,47)"/></g></svg>