<?xml version="1.0" standalone="no"?><!-- Generator: Gravit.io --><svg xmlns="http://www.w3.org/2000/svg" xmlns:xlink="http://www.w3.org/1999/xlink" style="isolation:isolate" viewBox="0 0 397.36 397.355" width="397.36" height="397.355"><defs><clipPath id="_clipPath_M113Wn9lCKdid73Q8jQgiCgo3KI879lV"><rect width="397.36" height="397.355"/></clipPath></defs><g clip-path="url(#_clipPath_M113Wn9lCKdid73Q8jQgiCgo3KI879lV)"><path d=" M 397.36 198.678 C 397.36 308.404 308.41 397.355 198.68 397.355 L 198.68 397.355 C 88.95 397.355 0 308.404 0 198.678 L 0 198.677 C 0 88.951 88.95 0 198.68 0 L 198.68 0 C 308.41 0 397.36 88.951 397.36 198.677 L 397.36 198.678 Z  M 216.894 214.12 L 224.496 172.941 L 224.496 172.941 Q 218.478 162.804 212.142 157.419 L 212.142 157.419 L 212.142 157.419 Q 205.807 152.034 197.73 152.034 L 197.73 152.034 L 197.73 152.034 Q 191.078 152.034 185.693 155.281 L 185.693 155.281 L 185.693 155.281 Q 180.308 158.528 176.348 163.675 L 176.348 163.675 L 176.348 163.675 Q 172.389 168.823 169.617 175.316 L 169.617 175.316 L 169.617 175.316 Q 166.845 181.81 165.103 188.62 L 165.103 188.62 L 165.103 188.62 Q 163.361 195.431 162.648 201.845 L 162.648 201.845 L 162.648 201.845 Q 161.936 208.26 161.936 213.169 L 161.936 213.169 L 161.936 213.169 Q 161.936 224.89 166.133 231.225 L 166.133 231.225 L 166.133 231.225 Q 170.33 237.56 180.308 237.56 L 180.308 237.56 L 180.308 237.56 Q 184.109 237.56 188.068 236.214 L 188.068 236.214 L 188.068 236.214 Q 192.028 234.868 196.463 232.096 L 196.463 232.096 L 196.463 232.096 Q 200.897 229.324 205.886 224.81 L 205.886 224.81 L 205.886 224.81 Q 210.875 220.296 216.894 214.12 L 216.894 214.12 L 216.894 214.12 Z  M 54.078 79.496 M 316.357 162.646 L 316.357 162.646 L 316.357 162.646 Q 316.357 173.416 315.011 184.661 L 315.011 184.661 L 315.011 184.661 Q 313.665 195.906 310.655 206.517 L 310.655 206.517 L 310.655 206.517 Q 307.646 217.129 302.736 226.553 L 302.736 226.553 L 302.736 226.553 Q 297.826 235.976 290.699 243.103 L 290.699 243.103 L 290.699 243.103 Q 283.572 250.23 274.148 254.269 L 274.148 254.269 L 274.148 254.269 Q 264.725 258.308 252.529 258.308 L 252.529 258.308 L 252.529 258.308 Q 246.036 258.308 240.493 256.803 L 240.493 256.803 L 240.493 256.803 Q 234.949 255.299 230.673 252.448 L 230.673 252.448 L 230.673 252.448 Q 226.397 249.597 223.467 245.083 L 223.467 245.083 L 223.467 245.083 Q 220.537 240.569 219.428 234.709 L 219.428 234.709 L 219.428 234.709 Q 213.093 241.044 207.153 245.558 L 207.153 245.558 L 207.153 245.558 Q 201.214 250.072 195.512 252.923 L 195.512 252.923 L 195.512 252.923 Q 189.811 255.774 184.347 257.041 L 184.347 257.041 L 184.347 257.041 Q 178.882 258.308 173.656 258.308 L 173.656 258.308 L 173.656 258.308 Q 166.845 258.308 161.619 256.962 L 161.619 256.962 L 161.619 256.962 Q 156.392 255.615 152.354 253.002 L 152.354 253.002 L 152.354 253.002 Q 148.315 250.389 145.464 246.588 L 145.464 246.588 L 145.464 246.588 Q 142.613 242.787 140.713 238.035 L 140.713 238.035 L 140.713 238.035 Q 138.812 233.284 138.02 227.582 L 138.02 227.582 L 138.02 227.582 Q 137.228 221.88 137.228 215.228 L 137.228 215.228 L 137.228 215.228 Q 137.228 208.418 138.337 199.628 L 138.337 199.628 L 138.337 199.628 Q 139.446 190.838 141.98 181.493 L 141.98 181.493 L 141.98 181.493 Q 144.514 172.149 148.948 163.2 L 148.948 163.2 L 148.948 163.2 Q 153.383 154.252 159.956 147.204 L 159.956 147.204 L 159.956 147.204 Q 166.529 140.156 175.556 135.8 L 175.556 135.8 L 175.556 135.8 Q 184.584 131.445 196.621 131.445 L 196.621 131.445 L 196.621 131.445 Q 201.689 131.445 206.361 132.633 L 206.361 132.633 L 206.361 132.633 Q 211.034 133.821 215.31 136.355 L 215.31 136.355 L 215.31 136.355 Q 219.586 138.889 223.546 142.69 L 223.546 142.69 L 223.546 142.69 Q 227.505 146.491 231.623 151.718 L 231.623 151.718 L 234.316 137.78 L 234.316 137.78 Q 234.949 135.563 237.167 134.454 L 237.167 134.454 L 237.167 134.454 Q 239.384 133.345 245.402 133.345 L 245.402 133.345 L 245.402 133.345 Q 248.253 133.345 250.233 133.662 L 250.233 133.662 L 250.233 133.662 Q 252.213 133.979 253.321 134.533 L 253.321 134.533 L 253.321 134.533 Q 254.43 135.088 254.826 135.879 L 254.826 135.879 L 254.826 135.879 Q 255.222 136.671 254.905 137.78 L 254.905 137.78 L 240.809 210.635 L 240.809 210.635 Q 238.275 224.414 242.076 230.987 L 242.076 230.987 L 242.076 230.987 Q 245.877 237.56 256.489 237.56 L 256.489 237.56 L 256.489 237.56 Q 262.983 237.56 268.209 234.313 L 268.209 234.313 L 268.209 234.313 Q 273.436 231.066 277.395 225.523 L 277.395 225.523 L 277.395 225.523 Q 281.355 219.98 284.047 212.615 L 284.047 212.615 L 284.047 212.615 Q 286.74 205.25 288.482 197.094 L 288.482 197.094 L 288.482 197.094 Q 290.224 188.937 291.016 180.385 L 291.016 180.385 L 291.016 180.385 Q 291.808 171.832 291.808 163.913 L 291.808 163.913 L 291.808 163.913 Q 291.808 150.134 288.086 137.701 L 288.086 137.701 L 288.086 137.701 Q 284.364 125.268 275.336 115.844 L 275.336 115.844 L 275.336 115.844 Q 266.309 106.421 251.183 100.798 L 251.183 100.798 L 251.183 100.798 Q 236.058 95.176 213.251 95.176 L 213.251 95.176 L 213.251 95.176 Q 194.562 95.176 179.991 99.293 L 179.991 99.293 L 179.991 99.293 Q 165.42 103.411 154.333 110.459 L 154.333 110.459 L 154.333 110.459 Q 143.247 117.507 135.328 126.693 L 135.328 126.693 L 135.328 126.693 Q 127.409 135.879 121.944 146.253 L 121.944 146.253 L 121.944 146.253 Q 116.48 156.627 113.154 167.476 L 113.154 167.476 L 113.154 167.476 Q 109.828 178.326 108.086 188.383 L 108.086 188.383 L 108.086 188.383 Q 106.344 198.44 105.79 207.309 L 105.79 207.309 L 105.79 207.309 Q 105.235 216.179 105.235 222.355 L 105.235 222.355 L 105.235 222.355 Q 105.235 239.936 109.274 254.507 L 109.274 254.507 L 109.274 254.507 Q 113.313 269.078 123.291 279.689 L 123.291 279.689 L 123.291 279.689 Q 133.269 290.301 150.057 296.161 L 150.057 296.161 L 150.057 296.161 Q 166.845 302.021 192.345 302.021 L 192.345 302.021 L 192.345 302.021 Q 203.907 302.021 213.251 300.675 L 213.251 300.675 L 213.251 300.675 Q 222.596 299.329 229.485 297.824 L 229.485 297.824 L 229.485 297.824 Q 236.375 296.319 240.651 294.973 L 240.651 294.973 L 240.651 294.973 Q 244.927 293.627 246.511 293.627 L 246.511 293.627 L 246.511 293.627 Q 247.461 293.627 248.174 294.181 L 248.174 294.181 L 248.174 294.181 Q 248.887 294.736 249.283 295.923 L 249.283 295.923 L 249.283 295.923 Q 249.679 297.111 249.837 298.933 L 249.837 298.933 L 249.837 298.933 Q 249.995 300.754 249.995 303.446 L 249.995 303.446 L 249.995 303.446 Q 249.995 305.664 249.916 307.089 L 249.916 307.089 L 249.916 307.089 Q 249.837 308.515 249.52 309.703 L 249.52 309.703 L 249.52 309.703 Q 249.203 310.89 248.649 311.841 L 248.649 311.841 L 248.649 311.841 Q 248.095 312.791 247.145 313.583 L 247.145 313.583 L 247.145 313.583 Q 246.194 314.375 241.68 315.959 L 241.68 315.959 L 241.68 315.959 Q 237.167 317.542 229.485 319.126 L 229.485 319.126 L 229.485 319.126 Q 221.804 320.71 211.509 321.819 L 211.509 321.819 L 211.509 321.819 Q 201.214 322.927 188.86 322.927 L 188.86 322.927 L 188.86 322.927 Q 159.243 322.927 138.733 315.959 L 138.733 315.959 L 138.733 315.959 Q 118.223 308.99 105.314 296.003 L 105.314 296.003 L 105.314 296.003 Q 92.406 283.015 86.705 264.802 L 86.705 264.802 L 86.705 264.802 Q 81.003 246.588 81.003 224.098 L 81.003 224.098 L 81.003 224.098 Q 81.003 215.862 81.874 205.171 L 81.874 205.171 L 81.874 205.171 Q 82.745 194.48 85.2 182.364 L 85.2 182.364 L 85.2 182.364 Q 87.655 170.248 92.09 157.657 L 92.09 157.657 L 92.09 157.657 Q 96.524 145.066 103.572 133.029 L 103.572 133.029 L 103.572 133.029 Q 110.62 120.992 120.677 110.301 L 120.677 110.301 L 120.677 110.301 Q 130.735 99.61 144.435 91.612 L 144.435 91.612 L 144.435 91.612 Q 158.134 83.614 175.794 79.021 L 175.794 79.021 L 175.794 79.021 Q 193.453 74.428 215.785 74.428 L 215.785 74.428 L 215.785 74.428 Q 241.76 74.428 260.686 80.684 L 260.686 80.684 L 260.686 80.684 Q 279.613 86.94 291.966 98.343 L 291.966 98.343 L 291.966 98.343 Q 304.32 109.747 310.339 126.139 L 310.339 126.139 L 310.339 126.139 Q 316.357 142.531 316.357 162.646 L 316.357 162.646 Z " fill-rule="evenodd" fill="rgb(255,255,255)"/></g></svg>