<?xml version="1.0" standalone="no"?><!-- Generator: Gravit.io --><svg xmlns="http://www.w3.org/2000/svg" xmlns:xlink="http://www.w3.org/1999/xlink" style="isolation:isolate" viewBox="0 0 397.354 397.355" width="397.354" height="397.355"><defs><clipPath id="_clipPath_sAUTRQze5STZ2mQfRNqXZ132xFTorweQ"><rect width="397.354" height="397.355"/></clipPath></defs><g clip-path="url(#_clipPath_sAUTRQze5STZ2mQfRNqXZ132xFTorweQ)"><path d=" M 397.354 198.678 C 397.354 308.404 308.403 397.355 198.677 397.355 L 198.677 397.355 C 88.95 397.355 0 308.404 0 198.678 L 0 198.677 C 0 88.951 88.95 0 198.677 0 L 198.677 0 C 308.403 0 397.354 88.951 397.354 198.677 L 397.354 198.678 Z  M 257.541 183.265 L 254.231 209.841 C 253.674 214.286 249.912 217.623 245.454 217.623 L 202.405 217.623 L 202.405 328.751 C 197.861 329.162 193.263 329.368 188.613 329.368 C 178.217 329.368 168.06 328.326 158.249 326.349 L 158.249 217.623 L 125.138 217.623 C 122.099 217.623 119.618 215.129 119.618 212.083 L 119.618 178.827 C 119.618 175.782 122.099 173.287 125.138 173.287 L 158.249 173.287 L 158.249 123.405 C 158.249 92.796 182.961 67.984 213.444 67.984 L 252.075 67.984 C 255.113 67.984 257.594 70.479 257.594 73.524 L 257.594 106.78 C 257.594 109.825 255.113 112.32 252.075 112.32 L 224.477 112.32 C 212.29 112.32 202.405 122.244 202.405 134.491 L 202.405 173.287 L 248.764 173.287 C 254.085 173.287 258.198 177.971 257.541 183.265 Z " fill-rule="evenodd" fill="rgb(255,255,255)"/></g></svg>