<?xml version="1.0" standalone="no"?><!-- Generator: Gravit.io --><svg xmlns="http://www.w3.org/2000/svg" xmlns:xlink="http://www.w3.org/1999/xlink" style="isolation:isolate" viewBox="0 0 397.36 397.355" width="397.36" height="397.355"><defs><clipPath id="_clipPath_IHPu1xXz3lhLopbWL9BfzcMRfKNh2Lo0"><rect width="397.36" height="397.355"/></clipPath></defs><g clip-path="url(#_clipPath_IHPu1xXz3lhLopbWL9BfzcMRfKNh2Lo0)"><path d=" M 397.36 198.678 C 397.36 308.404 308.41 397.355 198.68 397.355 L 198.68 397.355 C 88.95 397.355 0 308.404 0 198.678 L 0 198.677 C 0 88.951 88.95 0 198.68 0 L 198.68 0 C 308.41 0 397.36 88.951 397.36 198.677 L 397.36 198.678 Z  M 256.685 353.22 C 238.641 359.998 219.093 363.704 198.68 363.704 L 198.68 363.704 C 178.001 363.704 158.21 359.901 139.967 352.959 C 145.606 351.138 150.345 345.921 150.345 339.526 L 150.345 309.158 L 132.378 309.158 C 119.272 309.158 108.211 302.957 102.714 293.276 C 101.306 290.514 99.932 287.062 98.557 283.609 C 95.809 276.014 92.357 267.727 85.452 262.894 C 82.669 260.822 81.295 256.666 81.999 253.213 C 83.373 249.761 86.826 247.012 93.027 247.717 C 99.932 248.387 110.289 255.996 116.524 264.275 C 122.021 271.18 126.177 275.337 134.457 275.337 L 136.535 275.337 C 142.736 275.337 157.954 275.337 160.702 272.554 C 162.774 269.806 164.155 267.727 166.226 265.649 C 124.796 257.37 101.306 233.202 101.306 196.599 C 101.306 184.17 104.758 171.762 112.367 160.7 C 109.619 150.342 103.391 123.427 116.524 111.661 L 118.568 109.617 L 121.351 109.617 C 139.283 109.617 152.423 117.192 160.702 123.427 C 184.87 114.443 212.49 114.443 236.657 123.427 C 244.267 117.192 257.373 109.617 276.016 109.617 L 278.792 109.617 L 280.836 111.661 C 293.976 124.097 287.741 150.342 284.993 160.7 C 291.898 171.762 296.054 184.163 296.054 196.606 C 296.054 233.202 272.557 257.37 231.831 265.656 C 242.188 276.704 247.712 293.276 247.712 306.409 L 247.712 340.23 C 247.712 346.169 251.288 351.086 256.685 353.22 Z " fill-rule="evenodd" fill="rgb(47,47,47)"/></g></svg>