<?xml version="1.0" standalone="no"?><!-- Generator: Gravit.io --><svg xmlns="http://www.w3.org/2000/svg" xmlns:xlink="http://www.w3.org/1999/xlink" style="isolation:isolate" viewBox="0 0 397.36 397.355" width="397.36" height="397.355"><defs><clipPath id="_clipPath_lilnWXT2VW9aGBJxgArk3qZSCun0AAeo"><rect width="397.36" height="397.355"/></clipPath></defs><g clip-path="url(#_clipPath_lilnWXT2VW9aGBJxgArk3qZSCun0AAeo)"><path d=" M 397.36 198.678 C 397.36 308.404 308.41 397.355 198.68 397.355 L 198.68 397.355 C 88.95 397.355 0 308.404 0 198.678 L 0 198.677 C 0 88.951 88.95 0 198.68 0 L 198.68 0 C 308.41 0 397.36 88.951 397.36 198.677 L 397.36 198.678 Z  M 198.694 66.351 C 125.605 66.351 66.348 125.588 66.348 198.678 C 66.348 271.758 125.605 331.014 198.685 331.014 C 271.755 331.014 331.012 271.758 331.012 198.678 C 331.012 189.597 330.024 180.742 328.283 172.207 L 327.558 169.27 L 198.694 169.27 L 198.694 213.386 L 286.915 213.386 C 279.886 255.101 242.395 286.899 198.694 286.899 C 175.294 286.906 152.85 277.614 136.304 261.068 C 119.758 244.521 110.465 222.078 110.473 198.678 C 110.465 175.278 119.758 152.834 136.304 136.288 C 152.85 119.741 175.294 110.449 198.694 110.456 C 219.877 110.451 240.348 118.105 256.332 132.006 L 287.941 101.046 C 263.597 78.689 231.737 66.301 198.685 66.341 L 198.694 66.351 Z " fill-rule="evenodd" fill="rgb(47,47,47)"/></g></svg>