<?xml version="1.0" standalone="no"?><!-- Generator: Gravit.io --><svg xmlns="http://www.w3.org/2000/svg" xmlns:xlink="http://www.w3.org/1999/xlink" style="isolation:isolate" viewBox="0 0 397.35 397.355" width="397.35" height="397.355"><defs><clipPath id="_clipPath_u8NcJiPYnQgIeYEWhvXOhEtpuFLgnB32"><rect width="397.35" height="397.355"/></clipPath></defs><g clip-path="url(#_clipPath_u8NcJiPYnQgIeYEWhvXOhEtpuFLgnB32)"><path d=" M 198.78 234.612 C 178.98 234.612 162.84 218.477 162.84 198.676 C 162.84 178.875 178.98 162.74 198.78 162.74 C 218.58 162.74 234.72 178.875 234.72 198.676 C 234.72 218.477 218.58 234.612 198.78 234.612 L 198.78 234.612 L 198.78 234.612 Z  M 198.78 144.773 C 169.02 144.773 144.88 168.921 144.88 198.676 C 144.88 228.431 169.02 252.579 198.78 252.579 C 228.53 252.579 252.68 228.431 252.68 198.676 C 252.68 168.921 228.53 144.773 198.78 144.773 L 198.78 144.773 L 198.78 144.773 Z  M 284.92 248.986 C 284.92 268.822 268.82 284.921 248.99 284.921 L 148.37 284.921 C 128.53 284.921 112.43 268.822 112.43 248.986 L 112.43 148.366 C 112.43 128.53 128.53 112.431 148.37 112.431 L 248.99 112.431 C 268.82 112.431 284.92 128.53 284.92 148.366 L 284.92 248.986 L 284.92 248.986 L 284.92 248.986 L 284.92 248.986 Z  M 252.58 94.463 L 144.77 94.463 C 117 94.463 94.46 116.994 94.46 144.773 L 94.46 252.579 C 94.46 280.357 117 302.889 144.77 302.889 L 252.58 302.889 C 280.36 302.889 302.89 280.357 302.89 252.579 L 302.89 144.773 C 302.89 116.994 280.36 94.463 252.58 94.463 L 252.58 94.463 L 252.58 94.463 L 252.58 94.463 Z  M 397.35 198.678 C 397.35 308.404 308.4 397.355 198.68 397.355 L 198.68 397.355 C 88.95 397.355 0 308.404 0 198.678 L 0 198.677 C 0 88.951 88.95 0 198.68 0 L 198.68 0 C 308.4 0 397.35 88.951 397.35 198.677 L 397.35 198.678 L 397.35 198.678 L 397.35 198.678 Z  M 256.28 151.96 C 250.33 151.96 245.5 147.124 245.5 141.179 C 245.5 135.235 250.33 130.398 256.28 130.398 C 262.22 130.398 267.06 135.235 267.06 141.179 C 267.06 147.124 262.22 151.96 256.28 151.96 Z " fill-rule="evenodd" fill="rgb(255,255,255)"/></g></svg>