<?xml version="1.0" standalone="no"?><!-- Generator: Gravit.io --><svg xmlns="http://www.w3.org/2000/svg" xmlns:xlink="http://www.w3.org/1999/xlink" style="isolation:isolate" viewBox="0 0 397.35 397.357" width="397.35" height="397.357"><defs><clipPath id="_clipPath_EVAOO8i4OJ6ud1ICwSfjqRRh52Lom2Ef"><rect width="397.35" height="397.357"/></clipPath></defs><g clip-path="url(#_clipPath_EVAOO8i4OJ6ud1ICwSfjqRRh52Lom2Ef)"><path d=" M 153.9 119.977 C 153.9 134.107 142.44 145.557 128.31 145.557 C 114.18 145.557 102.72 134.107 102.72 119.977 C 102.72 105.837 114.18 94.383 128.31 94.383 C 142.44 94.383 153.9 105.837 153.9 119.977 L 153.9 119.977 L 153.9 119.977 Z  M 147.73 290.567 L 108.89 290.567 C 107.84 290.567 106.98 289.707 106.98 288.657 L 106.98 164.527 C 106.98 163.477 107.84 162.617 108.89 162.617 L 147.73 162.617 C 148.78 162.617 149.63 163.477 149.63 164.527 L 149.63 288.657 C 149.63 289.707 148.78 290.567 147.73 290.567 L 147.73 290.567 Z  M 397.35 198.677 C 397.35 308.407 308.4 397.357 198.68 397.357 L 198.68 397.357 C 88.95 397.357 0 308.407 0 198.677 L 0 198.677 C 0 88.95 88.95 0 198.68 0 L 198.68 0 C 308.4 0 397.35 88.95 397.35 198.677 L 397.35 198.677 L 397.35 198.677 L 397.35 198.677 Z  M 294.64 209.537 L 294.64 282.037 C 294.64 286.727 290.8 290.567 286.11 290.567 L 260.52 290.567 C 255.83 290.567 251.99 286.727 251.99 282.037 L 251.99 222.327 C 251.99 210.557 242.44 201.007 230.66 201.007 C 218.89 201.007 209.34 210.557 209.34 222.327 L 209.34 282.037 C 209.34 286.727 205.5 290.567 200.81 290.567 L 175.22 290.567 C 170.53 290.567 166.69 286.727 166.69 282.037 L 166.69 171.147 C 166.69 166.457 170.53 162.617 175.22 162.617 L 200.81 162.617 C 205.5 162.617 209.34 166.457 209.34 171.147 L 209.34 176.607 C 217.87 165.567 231.99 158.357 247.72 158.357 C 271.27 158.357 294.64 175.417 294.64 209.537 Z " fill-rule="evenodd" fill="rgb(0,0,0)"/></g></svg>