<?xml version="1.0" standalone="no"?><!-- Generator: Gravit.io --><svg xmlns="http://www.w3.org/2000/svg" xmlns:xlink="http://www.w3.org/1999/xlink" style="isolation:isolate" viewBox="0 0 397.352 397.357" width="397.352" height="397.357"><defs><clipPath id="_clipPath_syteub0lqybdpafAf8sqTDUBYjwK0sis"><rect width="397.352" height="397.357"/></clipPath></defs><g clip-path="url(#_clipPath_syteub0lqybdpafAf8sqTDUBYjwK0sis)"><path d=" M 397.352 198.677 C 397.352 308.407 308.404 397.357 198.678 397.357 L 198.677 397.357 C 88.951 397.357 0 308.407 0 198.677 L 0 198.677 C 0 88.95 88.951 0 198.677 0 L 198.678 0 C 308.404 0 397.352 88.95 397.352 198.677 L 397.352 198.677 Z  M 151.015 320.927 C 154.884 317.307 171.023 300.607 179.525 265.987 L 185.94 239.667 C 191.947 245.937 200.297 250.107 209.105 252.247 C 244.692 261.007 279.158 222.967 288.119 186.417 C 300.694 135.247 274.577 90.093 231.302 79.504 C 181.46 67.285 122.657 91.62 108.3 150.117 C 103.26 170.687 104.94 201.797 132.84 216.607 C 135.691 218.137 139.203 216.557 139.967 213.397 L 143.887 197.567 C 144.295 195.737 143.582 193.847 142.156 192.577 C 132.229 183.567 129.938 168.857 133.298 155.057 C 143.022 115.497 183.7 99.257 218.32 107.757 C 248.357 115.137 266.634 145.787 258.132 180.407 C 252.074 205.157 234.917 232.387 210.174 226.327 C 195.359 222.717 193.678 208.207 197.7 191.817 L 206.763 154.747 C 209.105 145.177 203.25 135.507 193.729 133.167 C 184.158 130.827 169.037 137.597 164.201 157.397 C 161.35 168.957 163.692 178.217 168.07 184.327 L 149.844 258.707 C 141.444 292.977 147.807 315.117 149.691 320.417 L 151.015 320.927 Z " fill-rule="evenodd" fill="rgb(47,47,47)"/></g></svg>