<?xml version="1.0" standalone="no"?><!-- Generator: Gravit.io --><svg xmlns="http://www.w3.org/2000/svg" xmlns:xlink="http://www.w3.org/1999/xlink" style="isolation:isolate" viewBox="0 0 397.36 397.35" width="397.36" height="397.35"><defs><clipPath id="_clipPath_7McBPeaqxNIBH0gWpyMirVHy3FW9SeIt"><rect width="397.36" height="397.35"/></clipPath></defs><g clip-path="url(#_clipPath_7McBPeaqxNIBH0gWpyMirVHy3FW9SeIt)"><path d=" M 397.36 198.67 C 397.36 308.4 308.41 397.35 198.68 397.35 L 198.68 397.35 C 88.95 397.35 0 308.4 0 198.67 L 0 198.67 C 0 88.95 88.95 0 198.68 0 L 198.68 0 C 308.41 0 397.36 88.95 397.36 198.67 L 397.36 198.67 Z  M 236.18 227.12 C 227.29 227.12 220.11 219.94 220.11 211.05 C 220.11 202.15 227.29 194.98 236.18 194.98 C 245.07 194.98 252.25 202.15 252.25 211.05 C 252.25 219.94 245.07 227.12 236.18 227.12 L 236.18 227.12 Z  M 240.63 256.85 C 240.14 257.6 227.98 275.33 198.68 275.33 C 169.38 275.33 157.22 257.6 156.73 256.85 C 155.07 254.39 155.72 251.06 158.18 249.46 C 160.65 247.8 163.97 248.49 165.63 250.9 C 166 251.49 175.38 264.62 198.68 264.62 C 221.98 264.62 231.36 251.44 231.73 250.9 C 233.39 248.49 236.72 247.85 239.18 249.51 C 241.59 251.12 242.23 254.44 240.63 256.85 L 240.63 256.85 Z  M 145.11 211.05 C 145.11 202.15 152.29 194.98 161.18 194.98 C 170.07 194.98 177.25 202.15 177.25 211.05 C 177.25 219.94 170.07 227.12 161.18 227.12 C 152.29 227.12 145.11 219.94 145.11 211.05 L 145.11 211.05 Z  M 316.54 189.62 C 316.54 174.83 304.54 162.83 289.75 162.83 C 282.63 162.83 276.2 165.62 271.38 170.12 C 255.3 157.53 233.66 149.17 209.5 147.19 L 223.22 106.1 L 257.77 123.41 C 257.71 124.05 257.61 124.64 257.61 125.33 C 257.61 134.23 264.79 141.41 273.68 141.41 C 282.52 141.41 289.75 134.23 289.75 125.33 C 289.75 116.44 282.52 109.26 273.68 109.26 C 269.34 109.26 265.43 110.98 262.54 113.76 L 227.66 96.35 C 225.04 95.01 221.93 94.85 219.14 95.98 C 216.36 97.1 214.16 99.35 213.2 102.24 L 198.36 146.76 C 169.97 146.82 144.36 155.76 125.99 170.12 C 121.16 165.62 114.73 162.83 107.61 162.83 C 92.82 162.83 80.82 174.83 80.82 189.62 C 80.82 200.92 87.84 210.62 97.75 214.53 C 97.16 217.8 96.9 221.06 96.9 224.44 C 96.9 267.35 142.48 302.12 198.68 302.12 C 254.88 302.12 300.46 267.35 300.46 224.44 C 300.46 221.06 300.2 217.8 299.61 214.53 C 309.52 210.62 316.54 200.92 316.54 189.62 L 316.54 189.62 Z " fill-rule="evenodd" fill="rgb(47,47,47)"/></g></svg>