<?xml version="1.0" standalone="no"?><!-- Generator: Gravit.io --><svg xmlns="http://www.w3.org/2000/svg" xmlns:xlink="http://www.w3.org/1999/xlink" style="isolation:isolate" viewBox="0 0 397.36 397.355" width="397.36" height="397.355"><defs><clipPath id="_clipPath_1R54Q8FS703DC0zcLQR2YcZNlkxNR6Tr"><rect width="397.36" height="397.355"/></clipPath></defs><g clip-path="url(#_clipPath_1R54Q8FS703DC0zcLQR2YcZNlkxNR6Tr)"><path d=" M 397.36 198.678 C 397.36 308.404 308.41 397.355 198.68 397.355 L 198.68 397.355 C 88.95 397.355 0 308.404 0 198.678 L 0 198.677 C 0 88.951 88.95 0 198.68 0 L 198.68 0 C 308.41 0 397.36 88.951 397.36 198.677 L 397.36 198.678 Z  M 166.328 203.263 C 191.117 193.1 192.976 159.016 169.427 148.977 C 163.354 146.374 161.743 146.25 146.498 146.25 C 130.014 146.25 130.014 146.25 129.766 174.88 C 129.518 190.621 129.642 204.254 130.014 204.998 C 131.129 207.601 159.016 206.237 166.328 203.263 L 166.328 203.263 Z  M 252.715 167.94 C 233.504 164.345 227.183 152.571 228.175 122.33 C 228.671 105.598 230.034 101.012 236.479 94.071 C 247.881 81.801 276.14 82.916 286.551 96.054 C 291.013 101.631 290.641 103.367 284.444 105.226 C 279.61 106.837 279.61 106.837 275.148 102.375 C 264.613 92.212 246.394 95.93 243.172 109.068 C 241.56 114.893 241.684 139.557 243.296 145.135 C 247.634 160.875 273.785 160.875 278.247 145.135 C 280.974 135.095 280.354 134.352 268.332 133.732 C 262.506 133.484 262.506 133.484 262.506 128.65 C 262.506 123.941 262.506 123.941 276.388 123.569 C 294.359 123.197 294.111 122.949 293.244 136.087 C 292.128 152.571 287.666 160.503 276.884 165.213 C 269.819 168.188 260.152 169.303 252.715 167.94 L 252.715 167.94 Z  M 213.798 285.436 C 196.074 281.965 185.539 271.678 158.644 231.769 C 149.72 218.384 149.72 218.384 141.045 217.764 C 128.279 216.896 129.27 214.665 129.642 242.8 C 130.138 274.777 129.766 274.033 148.233 277.131 C 153.067 277.875 153.439 278.247 153.439 281.098 C 153.439 284.32 153.439 284.32 120.966 284.568 C 90.477 284.816 88.494 284.692 87.874 282.833 C 86.635 279.238 88.494 277.503 95.186 276.264 C 102.747 274.901 106.713 271.802 107.704 266.597 C 108.2 264.613 108.324 237.842 108.076 207.105 C 107.704 142.532 108.448 146.374 96.55 143.771 C 89.113 142.16 86.759 140.425 87.75 137.45 C 88.494 135.467 90.105 135.343 123.941 134.724 C 174.261 133.732 183.68 135.343 197.066 147.242 C 211.071 159.76 213.054 178.846 201.899 194.835 C 196.942 202.023 187.027 209.708 179.342 212.558 C 175.748 213.922 172.773 215.409 172.773 215.905 C 172.773 217.392 184.176 233.628 191.241 242.304 C 210.08 265.233 220.243 274.157 230.778 276.884 C 237.347 278.619 239.206 280.478 237.347 283.7 C 235.363 287.047 225.448 287.79 213.798 285.436 L 213.798 285.436 Z " fill-rule="evenodd" fill="rgb(255,255,255)"/></g></svg>