<?xml version="1.0" standalone="no"?><!-- Generator: Gravit.io --><svg xmlns="http://www.w3.org/2000/svg" xmlns:xlink="http://www.w3.org/1999/xlink" style="isolation:isolate" viewBox="0 0 397.36 397.357" width="397.36" height="397.357"><defs><clipPath id="_clipPath_ekGfnmGjILkgqzgBV161asWV1CTC3gvQ"><rect width="397.36" height="397.357"/></clipPath></defs><g clip-path="url(#_clipPath_ekGfnmGjILkgqzgBV161asWV1CTC3gvQ)"><path d=" M 397.36 198.677 C 397.36 308.407 308.41 397.357 198.68 397.357 L 198.68 397.357 C 88.95 397.357 0 308.407 0 198.677 L 0 198.677 C 0 88.95 88.95 0 198.68 0 L 198.68 0 C 308.41 0 397.36 88.95 397.36 198.677 L 397.36 198.677 Z  M 318.58 269.637 C 312.84 273.617 304.57 277.677 293.53 280.357 C 291.51 280.787 289.87 282.287 289.3 284.277 L 288.16 288.517 C 286.78 293.377 282.36 296.867 277.25 297.117 C 228.4 299.737 234.65 317.997 198.68 317.997 C 162.71 317.997 168.96 299.737 120.11 297.117 C 115 296.867 110.59 293.377 109.2 288.517 L 108.06 284.277 C 107.49 282.287 105.85 280.787 103.83 280.357 C 92.79 277.677 84.52 273.617 78.78 269.637 C 73.29 265.827 74.11 257.667 80.11 254.737 C 126.49 232.117 125.98 207.937 125.98 207.937 L 104.21 191.607 C 97.52 186.617 95.76 177.517 100.05 170.417 C 103.08 165.427 108.5 162.497 114.12 162.497 C 115.51 162.497 116.83 162.687 118.16 162.997 L 131.85 166.427 C 130.15 160.567 129.26 154.337 129.26 147.917 C 129.26 110.017 160.31 79.357 198.68 79.357 C 237.05 79.357 268.1 110.017 268.1 147.917 C 268.1 154.337 267.21 160.567 265.51 166.427 L 279.2 162.997 C 286.21 161.247 293.59 164.247 297.31 170.417 C 298.89 173.027 299.65 175.897 299.65 178.767 C 299.65 183.627 297.38 188.427 293.15 191.607 L 271.38 207.937 C 271.38 207.937 270.87 232.117 317.25 254.737 C 323.25 257.667 324.07 265.827 318.58 269.637 Z " fill-rule="evenodd" fill="rgb(0,0,0)"/></g></svg>