<?xml version="1.0" standalone="no"?><!-- Generator: Gravit.io --><svg xmlns="http://www.w3.org/2000/svg" xmlns:xlink="http://www.w3.org/1999/xlink" style="isolation:isolate" viewBox="0 0 397.36 397.355" width="397.36" height="397.355"><defs><clipPath id="_clipPath_KRKGX6OdljJPCk4MsMMUOTMDEuWCseRE"><rect width="397.36" height="397.355"/></clipPath></defs><g clip-path="url(#_clipPath_KRKGX6OdljJPCk4MsMMUOTMDEuWCseRE)"><path d=" M 397.36 198.678 C 397.36 308.404 308.41 397.355 198.68 397.355 L 198.68 397.355 C 88.95 397.355 0 308.404 0 198.678 L 0 198.677 C 0 88.951 88.95 0 198.68 0 L 198.68 0 C 308.41 0 397.36 88.951 397.36 198.677 L 397.36 198.678 Z  M 238.265 55.177 L 222.186 66.309 L 277.529 147.637 L 293.608 136.495 L 238.265 55.177 L 238.265 55.177 Z  M 196.518 91.651 L 183.526 106.493 L 257.739 170.811 L 270.731 155.969 L 196.518 91.651 L 196.518 91.651 Z  M 166.833 134.942 L 157.868 152.565 L 245.38 197.092 L 254.345 179.479 L 166.833 134.942 L 166.833 134.942 Z  M 149.823 179.776 L 145.499 198.953 L 241.046 221.523 L 245.38 202.357 L 149.823 179.776 L 149.823 179.776 Z  M 103.752 205.147 L 103.752 313.993 L 281.863 313.993 L 281.863 205.147 L 262.073 205.147 L 262.073 294.203 L 123.542 294.203 L 123.542 205.147 L 103.752 205.147 L 103.752 205.147 Z  M 144.262 221.85 L 143.025 241.64 L 241.046 247.201 L 242.283 227.411 L 144.262 221.85 L 144.262 221.85 Z  M 143.332 254.622 L 143.332 274.412 L 241.669 274.412 L 241.669 254.622 L 143.332 254.622 L 143.332 254.622 Z " fill-rule="evenodd" fill="rgb(47,47,47)"/></g></svg>