<?xml version="1.0" standalone="no"?><!-- Generator: Gravit.io --><svg xmlns="http://www.w3.org/2000/svg" xmlns:xlink="http://www.w3.org/1999/xlink" style="isolation:isolate" viewBox="0 0 397.352 397.35" width="397.352" height="397.35"><defs><clipPath id="_clipPath_DkE0eaAbkf7wPot9Q2AD6p26oDC4a2bu"><rect width="397.352" height="397.35"/></clipPath></defs><g clip-path="url(#_clipPath_DkE0eaAbkf7wPot9Q2AD6p26oDC4a2bu)"><path d=" M 397.352 198.67 C 397.352 308.4 308.404 397.35 198.678 397.35 L 198.677 397.35 C 88.951 397.35 0 308.4 0 198.67 L 0 198.67 C 0 88.95 88.951 0 198.677 0 L 198.678 0 C 308.404 0 397.352 88.95 397.352 198.67 L 397.352 198.67 Z  M 238.055 249.86 L 238.055 151.42 C 238.055 151.42 249.153 169.92 289.278 171.05 C 291.417 171.12 293.184 169.36 293.184 167.22 L 293.184 139.39 C 293.184 137.32 291.532 135.68 289.462 135.56 C 258.341 133.8 243.561 109.94 242.111 88.05 C 241.977 86.02 240.206 84.48 238.17 84.48 L 206.444 84.48 C 204.329 84.48 202.615 86.19 202.615 88.31 L 202.615 244.8 C 202.615 261.8 189.625 276.59 172.644 277.39 C 153.233 278.31 137.453 261.65 139.853 241.97 C 141.548 228.06 152.711 216.67 166.588 214.74 C 169.344 214.36 172.043 214.33 174.647 214.62 C 176.953 214.88 178.988 213.16 178.988 210.84 L 178.988 182.95 C 178.988 180.96 177.479 179.25 175.498 179.13 C 171.516 178.87 167.438 178.96 163.296 179.43 C 132.686 182.9 107.986 207.67 104.595 238.28 C 100.121 278.68 131.624 312.87 171.113 312.87 C 208.084 312.87 238.055 282.9 238.055 245.93 L 238.055 249.86 Z " fill-rule="evenodd" fill="rgb(0,0,0)"/></g></svg>