<?xml version="1.0" standalone="no"?><!-- Generator: Gravit.io --><svg xmlns="http://www.w3.org/2000/svg" xmlns:xlink="http://www.w3.org/1999/xlink" style="isolation:isolate" viewBox="0 0 397.354 397.35" width="397.354" height="397.35"><defs><clipPath id="_clipPath_lIgzfQeMaW3TZrjbhalxng17nztujQbE"><rect width="397.354" height="397.35"/></clipPath></defs><g clip-path="url(#_clipPath_lIgzfQeMaW3TZrjbhalxng17nztujQbE)"><path d=" M 288.367 194.55 C 288.367 198.01 287.019 201.26 284.576 203.7 L 261.264 227.02 C 258.776 229.48 255.54 230.81 252.114 230.81 L 221.638 230.81 L 197.414 255.03 C 195.273 257.17 192.429 258.36 189.413 258.36 C 183.152 258.36 178.057 253.27 178.057 247.01 L 178.057 230.81 L 152.64 230.81 C 145.495 230.81 139.69 225 139.69 217.86 L 139.69 106.59 C 139.69 99.44 145.495 93.64 152.64 93.64 L 275.417 93.64 C 282.562 93.64 288.367 99.44 288.367 106.59 L 288.367 194.55 L 288.367 194.55 L 288.367 194.55 Z  M 286.927 87.41 L 144.301 87.41 C 142.269 87.41 140.318 88.21 138.878 89.65 L 105.004 123.51 C 103.564 124.95 102.753 126.9 102.753 128.95 L 102.753 263.87 C 102.753 268.11 106.188 271.54 110.426 271.54 L 152.64 271.54 L 152.64 306.16 C 152.64 309.52 156.704 311.21 159.083 308.83 L 196.376 271.54 L 222.358 271.54 C 224.391 271.54 226.341 270.73 227.781 269.29 L 292.35 204.73 C 293.79 203.29 294.601 201.34 294.601 199.31 L 294.601 95.07 C 294.601 90.83 291.165 87.41 286.927 87.41 L 286.927 87.41 L 286.927 87.41 Z  M 397.354 198.67 C 397.354 308.4 308.403 397.35 198.677 397.35 L 198.677 397.35 C 88.95 397.35 0 308.4 0 198.67 L 0 198.67 C 0 88.95 88.95 0 198.677 0 L 198.677 0 C 308.403 0 397.354 88.95 397.354 198.67 L 397.354 198.67 L 397.354 198.67 Z  M 256.233 174.74 C 256.233 175.24 255.823 175.65 255.322 175.65 L 241.797 175.65 C 241.296 175.65 240.886 175.24 240.886 174.74 L 240.886 130.52 C 240.886 130.01 241.296 129.61 241.797 129.61 L 255.322 129.61 C 255.823 129.61 256.233 130.01 256.233 130.52 L 256.233 174.74 L 256.233 174.74 Z  M 210.192 174.74 C 210.192 175.24 209.782 175.65 209.28 175.65 L 195.756 175.65 C 195.246 175.65 194.844 175.24 194.844 174.74 L 194.844 130.52 C 194.844 130.01 195.246 129.61 195.756 129.61 L 209.28 129.61 C 209.782 129.61 210.192 130.01 210.192 130.52 L 210.192 174.74 L 210.192 174.74 Z  M 275.417 102.75 L 152.64 102.75 C 150.516 102.75 148.803 104.47 148.803 106.59 L 148.803 217.86 C 148.803 219.97 150.516 221.69 152.64 221.69 L 187.171 221.69 L 187.171 247.01 C 187.171 249 189.568 249.99 190.971 248.59 L 217.865 221.69 L 252.114 221.69 C 253.125 221.69 254.101 221.28 254.82 220.57 L 278.133 197.26 C 278.853 196.54 279.254 195.56 279.254 194.55 L 279.254 106.59 C 279.254 104.47 277.531 102.75 275.417 102.75 L 275.417 102.75 Z " fill-rule="evenodd" fill="rgb(255,255,255)"/></g></svg>