<?xml version="1.0" standalone="no"?><!-- Generator: Gravit.io --><svg xmlns="http://www.w3.org/2000/svg" xmlns:xlink="http://www.w3.org/1999/xlink" style="isolation:isolate" viewBox="0 0 397.35 397.35" width="397.35" height="397.35"><defs><clipPath id="_clipPath_69fbqvVYYqOav1s5cIJb5zknlRYd7JFW"><rect width="397.35" height="397.35"/></clipPath></defs><g clip-path="url(#_clipPath_69fbqvVYYqOav1s5cIJb5zknlRYd7JFW)"><path d=" M 201.93 285.25 C 184.57 285.25 168.32 280.56 154.33 272.38 C 153.01 271.64 151.74 270.85 150.5 270.03 L 112.36 280.19 L 122.52 242.05 C 112.89 227.24 107.3 209.59 107.3 190.62 C 107.3 138.45 149.76 95.99 201.93 95.99 C 254.1 95.99 296.57 138.45 296.57 190.62 C 296.57 242.79 254.1 285.25 201.93 285.25 L 201.93 285.25 L 201.93 285.25 Z  M 197.96 71.37 C 136.55 73.36 85.84 123.09 82.77 184.45 C 81.66 206.57 86.54 227.48 96.03 245.63 L 82.7 305.33 C 82.13 308.03 84.52 310.42 87.22 309.86 L 146.92 296.53 L 146.96 296.53 C 164.99 305.95 185.68 310.83 207.64 309.81 C 268.9 306.97 318.79 256.64 321.16 195.36 C 323.84 125.95 267.27 69.12 197.96 71.37 L 197.96 71.37 L 197.96 71.37 Z  M 397.35 198.67 C 397.35 308.4 308.4 397.35 198.68 397.35 L 198.68 397.35 C 88.95 397.35 0 308.4 0 198.67 L 0 198.67 C 0 88.95 88.95 0 198.68 0 L 198.68 0 C 308.4 0 397.35 88.95 397.35 198.67 L 397.35 198.67 L 397.35 198.67 Z  M 258.05 232.28 C 256.4 234.75 254.67 237.06 251.91 239.83 C 245.84 245.89 237.43 248.95 228.89 248.08 C 213.58 246.51 191.84 238.05 173.16 219.41 C 154.47 200.72 146.01 178.98 144.49 163.68 C 143.62 155.14 146.67 146.72 152.74 140.66 C 155.5 137.9 157.81 136.16 160.29 134.47 C 164.87 131.38 171.09 133.44 172.83 138.64 L 179.1 157.45 C 180.83 162.61 180.05 165.86 177.82 168.05 L 172.82 173.09 C 170.35 175.56 169.94 179.4 171.83 182.37 C 174.6 186.7 179.8 193.63 189.37 203.2 C 198.94 212.77 205.87 217.97 210.2 220.73 C 213.17 222.63 217.01 222.22 219.48 219.74 L 224.52 214.75 C 226.7 212.52 229.96 211.74 235.12 213.47 L 253.93 219.74 C 259.13 221.47 261.19 227.7 258.05 232.28 Z " fill-rule="evenodd" fill="rgb(47,47,47)"/></g></svg>