<?xml version="1.0" standalone="no"?><!-- Generator: Gravit.io --><svg xmlns="http://www.w3.org/2000/svg" xmlns:xlink="http://www.w3.org/1999/xlink" style="isolation:isolate" viewBox="0 0 397.352 397.355" width="397.352" height="397.355"><defs><clipPath id="_clipPath_7xiV7lLj6OtGY4KuffblsOW7Gdg0T1Es"><rect width="397.352" height="397.355"/></clipPath></defs><g clip-path="url(#_clipPath_7xiV7lLj6OtGY4KuffblsOW7Gdg0T1Es)"><path d=" M 397.352 198.678 C 397.352 308.404 308.404 397.355 198.678 397.355 L 198.677 397.355 C 88.951 397.355 0 308.404 0 198.678 L 0 198.677 C 0 88.951 88.951 0 198.677 0 L 198.678 0 C 308.404 0 397.352 88.951 397.352 198.677 L 397.352 198.678 Z  M 125.344 116.569 L 154.447 116.569 L 272.011 280.783 L 242.907 280.783 L 125.344 116.569 L 125.344 116.569 Z  M 227.349 180.426 L 307.72 94.463 L 277.198 94.463 L 214.115 161.938 L 165.808 94.463 L 82.332 94.463 L 166.837 212.503 L 82.332 302.889 L 112.854 302.889 L 180.074 230.99 L 231.547 302.889 L 315.022 302.889 L 227.349 180.426 L 227.349 180.426 Z " fill-rule="evenodd" fill="rgb(255,255,255)"/></g></svg>