<?xml version="1.0" standalone="no"?><!-- Generator: Gravit.io --><svg xmlns="http://www.w3.org/2000/svg" xmlns:xlink="http://www.w3.org/1999/xlink" style="isolation:isolate" viewBox="0 0 397.36 397.355" width="397.36" height="397.355"><defs><clipPath id="_clipPath_2UfzlUG210cBQNSUao1VKu1TAUnBNheE"><rect width="397.36" height="397.355"/></clipPath></defs><g clip-path="url(#_clipPath_2UfzlUG210cBQNSUao1VKu1TAUnBNheE)"><path d=" M 397.36 198.678 C 397.36 308.404 308.41 397.355 198.68 397.355 L 198.68 397.355 C 88.95 397.355 0 308.404 0 198.678 L 0 198.677 C 0 88.951 88.95 0 198.68 0 L 198.68 0 C 308.41 0 397.36 88.951 397.36 198.677 L 397.36 198.678 Z  M 226.19 206.068 L 178.57 229.863 C 173.08 232.615 166.61 228.622 166.61 222.481 L 166.61 174.882 C 166.61 168.741 173.08 164.748 178.57 167.492 L 226.19 191.295 C 232.27 194.333 232.27 203.022 226.19 206.068 L 226.19 206.068 Z  M 284.3 114.495 L 113.06 114.495 C 96.14 114.495 82.43 128.214 82.43 145.125 L 82.43 252.23 C 82.43 269.149 96.14 282.86 113.06 282.86 L 284.3 282.86 C 301.22 282.86 314.93 269.149 314.93 252.23 L 314.93 145.125 C 314.93 128.214 301.22 114.495 284.3 114.495 L 284.3 114.495 Z " fill-rule="evenodd" fill="rgb(0,0,0)"/></g></svg>